<svg xmlns="http://www.w3.org/2000/svg" height="790" width="595">
        <script type="application/ecmascript"> <![CDATA[
            var visiblePage = 'p1';
            function goToPage(page) {
                document.getElementById(visiblePage).setAttribute('style', 'display: none');
                document.getElementById(page).setAttribute('style', 'display: inline');
                visiblePage = page;
            }
        ]]> </script>
    <g id="p1" style="display:inline"><polyline style="fill:none;stroke:yellow;stroke-width:13.043;opacity:0.2" points="381.738,566.499 381.738,566.499 381.692,566.603 381.493,566.732 381.707,566.616 381.736,566.608 381.734,566.592 381.733,566.553 381.780,566.472 381.876,566.459 381.960,566.421 382.035,566.423 382.125,566.389 382.291,566.353 382.518,566.358 382.756,566.368 383.009,566.379 383.427,566.386 384.094,566.388 384.896,566.342 385.925,566.290 387.023,566.238 388.241,566.190 389.675,566.148 391.221,566.061 392.767,566.021 394.245,565.944 396.023,565.909 398.169,565.831 400.193,565.701 402.065,565.622 403.936,565.503 405.907,565.333 407.730,565.159 409.518,564.993 411.425,564.785 413.205,564.620 414.799,564.422 416.064,564.275 417.386,564.093 419.193,563.857 420.942,563.597 422.450,563.304 423.895,563.072 425.222,562.842 426.435,562.665 427.742,562.548 429.047,562.427 430.277,562.395 431.398,562.412 432.433,562.375 433.462,562.364 434.717,562.339 435.752,562.399 436.407,562.415 437.097,562.376 437.853,562.409 438.662,562.402 439.357,562.393 439.831,562.482 440.292,562.527 440.794,562.568 441.260,562.703 441.678,562.886 442.018,563.073 442.389,563.334 442.795,563.647 443.185,563.964 443.524,564.261 443.592,564.516 443.876,564.619 444.501,564.694 444.854,564.794 444.827,564.926 444.864,564.935 444.985,565.005 445.204,565.109 445.371,565.240 445.555,565.359 445.755,565.438 446.006,565.464 446.263,565.532 446.523,565.563 446.437,565.696 446.623,565.727 447.128,565.734 447.459,565.725 447.672,565.713 447.606,565.705 447.616,565.698 447.710,565.692 447.742,565.691 447.777,565.649 447.674,565.682 447.544,565.695 447.417,565.665 447.316,565.661 447.169,565.661 446.985,565.708 446.838,565.716 446.606,565.760 446.348,565.811 445.971,565.858 445.611,565.857 445.396,565.895 445.053,565.886 444.519,565.920 443.772,565.962 443.038,565.958 442.351,565.948 441.475,565.893 440.413,565.883 439.211,565.834 437.788,565.648 436.085,565.449 434.070,565.260 431.716,564.994 429.095,564.682 426.413,564.419 423.872,564.076 421.500,563.786 419.351,563.465 417.245,563.295 415.180,563.237 413.302,563.385 411.515,563.728 409.504,564.159 407.431,564.615 405.299,565.021 402.995,565.371 400.694,565.778 398.347,566.160 396.086,566.477 393.709,566.730 391.626,566.982 390.143,567.192 388.864,567.345 387.536,567.520 386.298,567.634 385.146,567.707 384.240,567.790 383.430,567.838 382.666,567.852 382.164,567.921 381.879,567.904 381.641,567.889 381.492,567.880 381.531,567.875 381.531,567.875 381.531,567.875 " />
<polyline style="fill:none;stroke:yellow;stroke-width:13.043;opacity:0.2" points="359.741,575.087 359.741,575.087 359.607,574.963 359.501,574.675 359.454,574.583 359.336,574.549 359.309,574.497 359.234,574.385 359.205,574.313 359.135,574.252 359.062,574.143 359.013,574.099 358.991,574.039 359.010,574.013 358.989,573.948 359.000,573.916 359.006,573.927 359.000,573.942 359.028,573.974 359.085,573.999 359.142,574.051 359.078,574.100 359.060,574.161 359.196,574.228 359.271,574.370 359.327,574.616 359.500,574.879 359.679,575.276 359.589,575.910 359.732,576.741 360.035,577.662 360.323,578.612 360.696,579.509 361.242,580.294 361.651,581.093 361.886,581.794 362.216,582.309 362.451,582.718 362.630,583.042 362.800,583.327 362.938,583.564 363.078,583.819 363.196,584.033 363.276,584.220 363.316,584.375 363.322,584.461 363.331,584.497 363.154,584.493 363.055,584.562 363.246,584.616 363.356,584.612 363.316,584.608 363.424,584.602 363.462,584.538 363.346,584.488 363.249,584.425 363.102,584.366 363.102,584.366 363.102,584.366 363.102,584.366 " />
<polyline style="fill:none;stroke:yellow;stroke-width:13.043;opacity:0.2" points="389.162,609.179 389.162,609.179 389.165,609.235 389.063,609.231 389.020,609.269 389.023,609.327 389.032,609.366 389.120,609.359 389.118,609.404 389.182,609.394 389.261,609.383 389.313,609.373 389.362,609.366 389.421,609.361 389.501,609.360 389.623,609.226 389.803,609.119 389.994,609.063 390.281,609.070 390.596,609.050 390.946,609.112 391.332,609.136 391.756,609.197 392.097,609.212 392.469,609.259 392.851,609.305 393.316,609.391 393.759,609.435 394.145,609.425 394.539,609.450 394.952,609.435 395.406,609.464 395.830,609.548 396.202,609.641 396.634,609.730 397.181,609.817 397.763,609.949 398.259,610.038 398.544,610.122 398.847,610.100 399.221,610.065 399.597,610.077 400.004,610.054 400.423,610.037 400.853,610.073 401.163,610.076 401.545,610.078 401.972,610.033 402.336,610.032 402.697,609.989 403.028,609.990 403.514,610.037 404.257,610.045 404.838,610.052 405.265,610.105 405.711,610.155 406.201,610.159 406.652,610.201 407.081,610.242 407.510,610.328 407.951,610.371 408.394,610.454 408.888,610.490 409.397,610.568 409.828,610.651 410.268,610.639 410.674,610.662 410.959,610.646 411.276,610.628 411.748,610.655 412.212,610.650 412.525,610.648 412.858,610.647 413.229,610.601 413.577,610.597 413.985,610.599 414.340,610.651 414.796,610.659 415.284,610.617 415.781,610.613 416.220,610.566 416.431,610.566 416.723,610.527 417.275,610.435 417.697,610.375 418.060,610.334 418.406,610.299 418.781,610.218 419.274,610.135 419.654,610.094 419.854,610.113 420.072,610.095 420.338,610.154 420.676,610.172 421.030,610.135 421.429,610.179 421.806,610.182 422.160,610.180 422.462,610.223 422.794,610.177 422.972,610.069 423.223,610.014 423.552,610.007 423.838,609.966 424.126,609.929 424.472,609.846 424.803,609.755 424.952,609.660 425.158,609.590 425.529,609.515 425.846,609.481 426.149,609.460 426.531,609.393 426.916,609.358 427.237,609.374 427.685,609.391 428.148,609.407 428.479,609.469 428.823,609.478 429.229,609.522 429.585,609.569 429.907,609.565 430.221,609.553 430.466,609.587 430.691,609.578 430.956,609.612 431.258,609.653 431.531,609.651 431.706,609.694 431.899,609.735 432.114,609.732 432.259,609.775 432.464,609.769 432.815,609.800 433.065,609.850 433.174,609.848 433.306,609.840 433.483,609.876 433.840,609.870 434.122,609.914 434.209,609.915 434.287,609.950 434.363,609.997 434.457,609.950 434.582,609.982 434.787,609.979 434.886,609.977 434.936,609.975 434.986,609.972 435.010,609.971 435.023,609.971 435.002,609.971 435.058,609.971 434.999,609.913 434.889,609.930 434.821,609.863 434.718,609.810 434.776,609.818 434.690,609.783 434.381,609.756 434.044,609.662 433.694,609.469 433.694,609.469 433.694,609.469 " />
<polyline style="fill:none;stroke:yellow;stroke-width:13.043;opacity:0.2" points="467.612,591.051 467.612,591.051 467.616,591.264 467.560,591.721 467.569,592.085 467.622,592.544 467.831,593.057 468.089,593.755 468.278,594.591 468.542,595.498 468.755,596.384 468.997,597.225 469.277,598.065 469.517,598.780 469.745,599.315 469.960,599.676 470.213,599.976 470.385,600.270 470.600,600.465 470.855,600.621 471.074,600.862 471.437,601.056 471.774,601.276 471.774,601.276 471.774,601.276 471.774,601.276 " />
<polyline style="fill:none;stroke:yellow;stroke-width:13.043;opacity:0.2" points="494.799,575.381 494.799,575.381 494.301,575.095 493.594,574.651 493.227,574.528 493.030,574.414 492.885,574.350 492.765,574.217 492.679,574.124 492.534,574.126 492.454,574.124 492.408,574.165 492.372,574.244 492.465,574.364 492.604,574.553 492.635,574.937 492.717,575.546 492.881,576.377 493.108,577.286 493.435,578.150 493.759,578.865 494.020,579.423 494.344,579.824 494.799,580.102 495.224,580.349 495.676,580.477 496.111,580.485 496.448,580.383 496.784,580.272 497.053,580.151 497.266,580.020 497.547,579.880 497.788,579.568 497.989,579.164 498.146,578.679 498.264,578.150 498.336,577.518 498.279,576.875 498.221,576.179 498.175,575.569 498.096,575.168 498.128,575.012 498.185,575.112 498.264,575.350 498.410,575.608 498.621,575.870 498.965,576.166 499.465,576.475 499.935,576.757 500.394,576.941 500.845,577.176 501.218,577.292 501.454,577.292 501.634,577.193 501.784,577.099 501.902,576.932 501.936,576.694 501.982,576.477 502.005,576.237 502.090,575.982 501.974,575.610 501.807,575.139 501.594,574.614 501.345,574.102 501.120,573.538 500.814,573.016 500.347,572.444 499.993,571.841 499.664,571.340 499.297,570.771 498.903,570.239 498.600,569.796 498.325,569.526 498.150,569.315 497.981,569.144 497.835,569.081 497.876,569.009 498.011,568.971 498.212,568.957 498.212,568.957 498.764,568.618 499.155,568.370 499.618,568.167 499.618,568.167 499.618,568.167 " />
<polyline style="fill:none;stroke:blue;stroke-width:1.304;opacity:1" points="489.432,570.710 489.432,570.710 489.378,571.298 489.508,572.174 489.721,572.479 490.004,572.810 490.430,573.332 490.856,574.064 491.244,574.832 491.656,575.527 492.058,576.058 492.390,576.500 492.709,576.792 492.984,576.892 493.197,576.842 493.358,576.760 493.525,576.671 493.672,576.586 493.699,576.436 493.751,576.291 493.881,576.203 493.903,576.074 493.870,575.946 493.976,575.810 493.920,575.647 493.694,575.440 493.619,575.100 493.616,574.732 493.544,574.401 493.517,574.003 493.586,573.538 493.571,573.071 493.454,572.553 493.454,571.975 493.512,571.397 493.623,570.968 493.730,570.679 493.962,570.600 493.962,570.600 494.245,570.721 494.489,570.924 494.843,571.157 495.181,571.411 495.644,571.695 496.225,571.966 496.676,572.362 497.162,572.682 497.636,572.893 497.969,573.044 498.174,573.084 498.263,573.025 498.262,572.879 498.263,572.705 498.216,572.536 498.140,572.326 498.090,572.127 498.023,571.868 497.890,571.458 497.706,571.006 497.487,570.491 497.227,569.986 496.977,569.415 496.685,568.889 496.225,568.401 495.839,567.867 495.463,567.418 495.166,567.002 494.890,566.590 494.566,566.210 494.328,565.819 494.234,565.460 494.200,565.155 494.201,564.936 494.181,564.848 494.280,564.825 494.371,564.833 494.433,564.904 494.512,564.992 494.639,565.073 494.816,565.135 495.085,565.221 495.367,565.350 495.754,565.511 496.199,565.676 496.560,565.848 496.828,565.959 496.828,565.959 496.828,565.959 " />
<polyline style="fill:none;stroke:blue;stroke-width:1.304;opacity:1" points="496.542,555.881 496.542,555.881 496.574,556.472 496.711,557.050 496.957,557.013 497.104,557.140 497.251,557.450 497.501,557.978 497.800,558.651 498.188,559.504 498.622,560.492 499.102,561.472 499.563,562.440 499.872,563.333 500.240,564.075 500.648,564.720 500.881,565.327 501.184,565.827 501.770,566.132 502.101,566.447 502.246,566.642 502.437,566.687 502.653,566.674 502.820,566.610 502.929,566.535 503.033,566.401 503.072,566.232 503.110,566.006 503.116,565.736 503.179,565.437 503.433,565.117 503.598,564.820 503.595,564.563 503.789,564.378 504.108,564.279 504.515,564.195 504.850,564.088 505.111,564.055 505.487,563.983 505.831,563.875 506.185,563.759 506.484,563.590 506.771,563.322 507.140,563.047 507.406,562.713 507.641,562.406 507.785,562.113 507.879,561.835 507.884,561.572 508.028,561.324 507.982,561.095 507.752,560.905 507.605,560.700 507.482,560.479 507.484,560.306 507.289,560.193 507.028,560.160 506.874,560.162 506.654,560.274 506.501,560.426 506.455,560.616 506.396,560.851 506.357,561.097 506.412,561.402 506.417,561.819 506.446,562.311 506.463,562.792 506.562,563.237 506.806,563.612 506.869,563.900 506.898,564.102 507.043,564.279 507.215,564.400 507.430,564.479 507.561,564.492 507.542,564.417 507.581,564.355 507.679,564.313 507.755,564.190 507.817,564.095 507.885,563.965 507.958,563.796 508.035,563.629 508.067,563.467 508.093,563.200 507.849,562.861 507.761,562.489 508.105,562.127 508.109,561.729 508.024,561.426 508.011,561.225 507.956,561.043 508.084,560.960 508.193,560.832 508.204,560.760 508.282,560.827 508.445,560.931 508.670,561.026 508.990,561.144 509.291,561.347 509.691,561.532 510.133,561.749 510.538,561.922 510.898,562.068 511.099,562.256 511.314,562.345 511.729,562.367 512.073,562.311 512.073,562.311 " />
<polyline style="fill:none;stroke:blue;stroke-width:1.304;opacity:1" points="513.620,553.372 513.620,553.372 513.814,554.069 513.731,554.833 513.466,554.774 513.739,554.687 513.913,554.721 514.049,554.917 514.340,555.194 514.697,555.664 515.064,556.363 515.463,557.166 515.886,558.035 516.343,558.924 516.884,559.772 517.241,560.550 517.600,561.211 517.865,561.715 517.985,562.018 518.093,562.058 518.158,561.952 518.197,561.786 518.080,561.629 517.940,561.455 517.940,561.455 517.657,561.199 517.495,561.031 517.271,560.794 516.872,560.604 516.491,560.459 516.376,560.268 516.190,560.202 515.920,560.143 515.685,560.057 515.466,560.013 515.429,560.002 515.521,559.962 515.530,559.939 515.572,559.953 515.696,559.895 515.812,559.850 515.954,559.839 516.109,559.745 516.318,559.609 516.626,559.371 516.909,559.110 517.107,558.787 517.326,558.477 517.505,558.214 517.661,557.903 517.865,557.549 517.865,557.549 517.865,557.549 517.865,557.549 " />
<polyline style="fill:none;stroke:blue;stroke-width:1.304;opacity:1" points="529.989,551.743 529.989,551.743 529.993,551.810 530.188,551.926 530.313,551.974 530.425,552.045 530.495,552.185 530.559,552.314 530.659,552.516 530.779,552.742 530.848,553.090 530.908,553.695 531.019,554.491 531.092,555.422 531.207,556.497 531.377,557.650 531.415,558.813 531.442,559.837 531.372,560.653 531.297,561.266 531.132,561.628 530.876,561.695 530.674,561.483 530.674,561.483 530.674,561.483 530.674,561.483 " />
<polyline style="fill:none;stroke:blue;stroke-width:1.304;opacity:1" points="531.925,550.856 531.925,550.856 532.135,550.839 532.532,550.944 532.909,551.118 533.223,551.327 533.223,551.327 533.223,551.327 " />
<polyline style="fill:none;stroke:blue;stroke-width:1.304;opacity:1" points="539.431,552.339 539.431,552.339 539.275,552.707 539.269,553.272 539.281,553.390 539.243,553.369 539.160,553.436 539.015,553.611 538.733,553.846 538.178,554.093 537.753,554.419 537.533,554.770 537.162,555.042 536.752,555.325 536.312,555.594 535.922,555.810 535.549,555.969 535.230,556.077 535.124,556.102 535.085,556.064 535.119,555.953 535.216,555.859 535.316,555.797 535.316,555.797 535.658,555.780 535.658,555.780 535.658,555.780 535.658,555.780 535.658,555.780 " />
<polyline style="fill:none;stroke:blue;stroke-width:1.304;opacity:1" points="516.584,574.991 516.584,574.991 516.582,574.502 516.448,573.966 516.460,573.964 516.432,574.064 516.431,574.129 516.529,574.144 516.633,574.178 516.734,574.119 516.952,573.989 517.297,573.735 517.774,573.335 518.343,572.927 519.107,572.504 519.970,572.100 520.818,571.767 521.602,571.518 522.258,571.381 522.773,571.356 523.159,571.428 523.488,571.489 523.751,571.563 523.863,571.660 523.958,571.727 524.053,571.815 524.019,571.906 523.988,571.960 523.909,572.041 523.835,572.156 523.825,572.355 523.666,572.693 523.394,573.209 523.067,573.785 522.670,574.501 522.311,575.278 521.840,575.974 521.343,576.656 520.892,577.277 520.384,577.850 520.002,578.339 519.660,578.795 519.459,579.262 519.313,579.708 519.156,580.030 519.121,580.305 519.170,580.415 519.253,580.420 519.360,580.348 519.444,580.254 519.544,580.190 519.678,580.203 519.752,580.306 519.854,580.329 520.068,580.350 520.302,580.367 520.602,580.380 520.902,580.296 521.160,580.197 521.467,580.014 521.872,579.730 522.389,579.480 522.949,579.252 523.494,579.000 523.977,578.711 524.430,578.388 524.832,578.109 525.174,577.935 525.447,577.697 525.729,577.448 526.033,577.185 526.270,576.957 526.454,576.788 526.799,576.637 527.010,576.492 526.994,576.355 527.154,576.252 527.397,576.107 527.397,576.107 527.397,576.107 527.397,576.107 527.397,576.107 " />
<polyline style="fill:none;stroke:blue;stroke-width:1.304;opacity:1" points="530.524,566.307 530.524,566.307 530.526,566.108 530.649,565.704 530.634,565.431 530.895,565.262 531.196,565.101 531.430,564.821 531.774,564.553 532.219,564.273 532.622,564.037 532.889,563.728 533.256,563.514 533.601,563.297 533.847,563.125 534.143,563.020 534.389,562.946 534.661,562.875 534.989,562.836 535.229,562.828 535.462,562.906 535.667,563.027 535.877,563.188 536.134,563.337 536.369,563.524 536.548,563.828 536.733,564.100 536.909,564.390 537.218,564.708 537.339,565.060 537.245,565.416 537.216,565.837 537.158,566.327 537.068,566.830 536.949,567.396 536.794,567.929 536.607,568.396 536.434,568.829 536.318,569.299 536.217,569.823 536.073,570.325 535.927,570.773 535.828,571.163 535.825,571.503 535.831,571.796 535.874,572.050 535.959,572.225 536.083,572.308 536.238,572.342 536.344,572.359 536.466,572.386 536.498,572.403 536.586,572.418 536.732,572.406 536.903,572.445 537.153,572.494 537.494,572.593 537.947,572.607 538.450,572.563 539.022,572.555 539.513,572.503 539.823,572.403 540.139,572.267 540.442,572.165 540.620,572.021 540.758,571.989 540.992,571.929 541.246,571.858 541.306,571.821 541.462,571.854 541.605,571.932 541.666,572.061 541.666,572.061 541.666,572.061 541.666,572.061 " />
<polyline style="fill:none;stroke:blue;stroke-width:1.304;opacity:1" points="541.901,576.715 541.901,576.715 541.988,576.715 542.087,576.715 542.096,576.796 542.027,576.841 542.030,576.962 542.068,577.079 542.120,577.188 542.169,577.325 542.118,577.408 542.108,577.476 542.112,577.445 542.074,577.437 542.091,577.412 541.930,577.391 541.827,577.377 541.827,577.377 541.827,577.377 " />
<polyline style="fill:none;stroke:blue;stroke-width:1.304;opacity:1" points="277.425,745.496 277.425,745.496 275.491,745.289 273.050,744.572 272.701,744.238 272.873,744.202 272.902,744.102 272.690,743.933 272.638,743.848 272.712,743.875 272.767,743.875 272.777,743.921 272.863,743.957 272.914,743.979 272.916,743.987 272.944,744.007 273.186,744.046 273.713,744.124 274.601,744.248 275.765,744.375 277.132,744.552 278.602,744.778 280.100,745.051 281.570,745.274 282.801,745.581 283.914,745.783 284.741,745.925 285.606,746.085 286.495,746.158 287.152,746.237 287.694,746.311 288.018,746.495 288.179,746.698 288.298,746.935 288.310,747.239 288.183,747.545 288.002,747.829 287.728,748.270 287.286,748.800 286.677,749.464 286.029,750.222 285.115,751.038 283.883,751.843 282.573,752.545 281.289,753.139 279.991,753.644 278.555,754.000 277.236,754.177 276.046,754.341 274.948,754.532 274.176,754.731 273.750,754.958 273.543,755.159 273.508,755.204 273.544,755.330 273.473,755.728 273.320,756.275 273.092,756.833 272.871,757.342 272.867,757.774 272.835,758.150 272.700,758.465 272.746,758.608 272.849,758.596 272.995,758.535 273.281,758.449 273.871,758.363 274.501,758.212 275.117,757.998 275.956,757.725 277.021,757.359 278.058,756.901 279.137,756.521 280.186,756.120 281.082,755.867 281.768,755.699 282.311,755.590 282.724,755.472 282.971,755.334 283.253,755.274 283.604,755.197 283.939,755.097 284.167,755.078 284.418,755.061 284.548,755.129 284.573,755.196 284.621,755.246 284.667,755.336 284.691,755.432 284.691,755.432 " />
<polyline style="fill:none;stroke:blue;stroke-width:1.304;opacity:1" points="294.871,750.880 294.871,750.880 293.460,750.826 292.209,750.574 293.212,750.582 293.915,750.567 294.624,750.411 295.390,750.108 296.184,749.939 296.897,749.809 297.447,749.750 297.868,749.755 298.125,749.714 298.303,749.711 298.409,749.698 298.533,749.673 298.665,749.636 298.876,749.636 299.092,749.729 299.092,749.729 299.092,749.729 299.092,749.729 " />
<polyline style="fill:none;stroke:blue;stroke-width:1.304;opacity:1" points="293.698,755.612 293.698,755.612 293.854,755.189 294.057,754.758 294.129,754.991 294.009,755.042 293.768,755.043 293.825,755.065 294.245,755.127 294.568,755.186 295.086,755.270 295.884,755.311 296.700,755.345 297.429,755.470 298.167,755.596 298.852,755.682 299.528,755.755 300.229,755.776 300.229,755.776 300.229,755.776 300.229,755.776 " />
<polyline style="fill:none;stroke:blue;stroke-width:1.304;opacity:1" points="316.669,746.944 316.669,746.944 315.950,747.328 315.190,747.476 315.521,747.096 315.721,747.026 315.835,746.972 315.905,746.875 315.986,746.815 315.997,746.763 316.023,746.748 316.005,746.722 315.975,746.701 315.896,746.678 315.867,746.602 315.758,746.474 315.598,746.381 315.325,746.259 314.974,746.170 314.639,746.042 314.291,745.966 313.918,745.898 313.591,745.829 313.331,745.806 313.063,745.836 312.862,745.867 312.761,745.889 312.568,745.948 312.435,746.062 312.279,746.254 311.980,746.488 311.748,746.747 311.559,747.049 311.420,747.389 311.324,747.697 311.238,747.964 311.242,748.218 311.294,748.425 311.247,748.614 311.177,748.934 310.998,749.338 310.847,749.851 310.890,750.417 310.776,751.059 310.736,751.791 310.846,752.597 310.785,753.440 310.611,754.387 310.510,755.259 310.420,755.948 310.480,756.596 310.558,757.295 310.636,757.908 310.703,758.444 310.801,759.010 310.903,759.423 310.941,759.791 310.875,760.049 310.842,760.190 310.563,760.178 310.403,760.110 310.632,760.042 310.587,760.033 310.456,760.008 310.493,760.003 310.426,760.018 310.287,759.964 310.108,759.977 309.706,760.001 309.450,760.022 309.307,760.037 309.399,760.131 309.503,760.143 309.511,760.034 309.590,760.129 309.524,760.129 309.415,760.112 309.470,760.090 309.589,760.051 309.623,760.043 309.655,760.053 309.692,760.089 309.826,760.149 310.229,760.196 310.534,760.260 310.851,760.355 311.177,760.491 311.350,760.650 311.661,760.768 312.018,760.888 312.439,760.957 312.810,760.928 313.113,760.888 313.352,760.804 313.654,760.726 313.910,760.608 314.147,760.413 314.427,760.224 314.658,760.129 314.814,760.159 314.734,760.418 314.734,760.418 " />
<polyline style="fill:none;stroke:blue;stroke-width:1.304;opacity:1" points="318.137,754.042 318.137,754.042 318.643,753.575 318.894,752.949 318.969,752.979 318.924,753.143 318.985,753.220 318.967,753.284 319.013,753.324 319.091,753.342 319.309,753.299 319.525,753.232 319.683,753.111 320.008,752.962 320.474,752.892 320.875,752.792 321.123,752.755 321.148,752.829 321.320,752.900 321.882,753.011 322.234,753.159 322.364,753.318 322.425,753.512 322.514,753.784 322.677,753.972 322.764,754.135 322.851,754.271 322.903,754.402 322.915,754.530 322.837,754.533 322.771,754.551 322.516,754.627 322.317,754.805 322.356,754.992 322.133,755.193 321.763,755.424 321.224,755.641 320.666,755.852 320.367,756.027 320.066,756.102 319.672,756.219 319.353,756.270 319.216,756.360 319.165,756.491 319.188,756.654 319.247,756.826 319.283,756.993 319.386,757.121 319.416,757.268 319.523,757.340 319.513,757.439 319.615,757.578 319.866,757.769 320.059,757.999 320.325,758.165 320.616,758.312 320.917,758.463 321.330,758.602 321.841,758.789 322.292,758.953 322.728,759.099 323.190,759.197 323.587,759.159 323.975,759.148 324.409,759.150 324.748,759.125 324.999,759.107 325.197,759.052 325.324,758.999 325.269,759.057 325.269,759.057 325.269,759.057 325.269,759.057 325.269,759.057 " />
<polyline style="fill:none;stroke:blue;stroke-width:1.304;opacity:1" points="326.734,755.799 326.734,755.799 326.989,754.714 327.248,753.453 326.799,753.802 326.924,754.030 327.060,754.170 327.327,754.238 327.548,754.254 327.722,754.172 328.094,754.123 328.655,754.013 329.279,753.937 329.905,753.909 330.381,753.994 330.858,754.133 331.334,754.330 331.657,754.495 331.830,754.634 331.892,754.796 332.055,754.906 332.515,754.951 332.763,755.078 332.595,755.184 332.536,755.253 332.503,755.300 332.545,755.441 332.444,755.710 332.204,755.948 332.051,756.218 331.799,756.464 331.403,756.713 331.065,756.924 330.781,757.099 330.606,757.269 330.498,757.396 330.452,757.515 330.450,757.643 330.269,757.813 330.304,758.000 330.706,758.067 330.847,758.203 330.800,758.230 330.864,758.218 330.924,758.288 331.138,758.409 331.378,758.547 331.557,758.594 331.863,758.658 332.254,758.780 332.630,758.822 333.073,758.760 333.580,758.729 334.056,758.611 334.565,758.454 335.001,758.249 335.365,758.101 335.770,758.114 336.044,758.251 336.022,758.417 336.142,758.497 336.354,758.692 336.628,758.992 336.628,758.992 336.628,758.992 336.628,758.992 " />
<polyline style="fill:none;stroke:blue;stroke-width:1.304;opacity:1" points="335.491,756.366 335.491,756.366 336.267,755.827 337.363,755.190 337.482,755.454 337.282,755.535 337.232,755.601 337.465,755.647 337.801,755.674 338.066,755.684 338.466,755.636 339.158,755.570 339.821,755.497 340.324,755.385 340.776,755.330 341.226,755.330 341.905,755.383 342.377,755.507 342.542,755.685 342.731,755.864 342.915,756.064 343.206,756.200 343.443,756.409 343.418,756.674 343.421,756.904 343.482,757.165 343.445,757.456 343.415,757.782 343.010,758.130 342.805,758.449 342.851,758.660 342.688,758.865 342.472,759.037 342.310,759.104 342.184,759.105 342.325,759.125 342.346,759.158 342.336,759.176 342.410,759.283 342.523,759.405 342.740,759.550 342.989,759.785 343.180,760.042 343.598,760.213 344.219,760.406 344.717,760.727 345.228,760.885 345.575,760.977 345.995,761.000 346.600,760.969 347.112,760.911 347.591,760.817 347.977,760.642 348.272,760.568 348.454,760.523 348.454,760.523 348.454,760.523 348.454,760.523 " />
<polyline style="fill:none;stroke:blue;stroke-width:1.304;opacity:1" points="326.616,761.793 326.616,761.793 326.922,761.485 327.398,761.215 327.478,761.579 327.363,761.898 327.230,762.067 327.167,762.280 327.131,762.585 327.117,762.870 327.022,763.113 326.891,763.328 326.804,763.539 326.643,763.778 326.382,764.036 326.106,764.263 325.924,764.300 325.800,764.259 325.803,764.268 325.803,764.268 325.803,764.268 325.803,764.268 " />
<polyline style="fill:none;stroke:blue;stroke-width:1.304;opacity:1" points="338.406,762.563 338.406,762.563 338.719,762.410 338.687,762.328 338.291,762.420 338.128,762.624 338.037,762.788 337.973,762.954 337.912,763.209 337.902,763.555 337.847,763.993 337.734,764.480 337.756,764.879 337.835,765.253 337.641,765.618 337.734,765.960 338.204,766.188 338.574,766.324 338.574,766.324 338.574,766.324 338.574,766.324 " />
<polyline style="fill:none;stroke:blue;stroke-width:1.304;opacity:1" points="348.485,751.300 348.485,751.300 348.124,750.332 348.023,748.997 348.503,748.739 348.785,748.717 349.162,748.716 349.604,748.700 349.693,748.702 350.009,748.774 350.623,748.974 351.170,749.129 351.645,749.326 352.220,749.583 352.761,749.853 353.252,750.184 353.763,750.546 354.207,750.920 354.673,751.224 355.099,751.513 355.408,751.717 355.720,751.886 356.054,752.063 356.414,752.304 356.872,752.557 357.062,752.816 357.321,752.935 357.875,753.074 358.270,753.286 358.362,753.457 358.453,753.521 358.529,753.685 358.500,753.896 358.476,754.018 358.503,754.103 358.393,754.197 358.275,754.350 358.170,754.463 358.003,754.609 357.493,754.854 357.286,755.183 357.604,755.458 357.671,755.835 357.740,756.371 357.604,756.983 357.704,757.648 358.139,758.395 358.335,759.228 358.377,760.157 358.475,761.182 358.666,762.142 358.778,762.883 358.925,763.359 359.111,763.726 359.265,763.989 359.363,764.215 359.410,764.347 359.449,764.453 359.108,764.586 359.021,764.732 359.282,764.785 359.269,764.901 359.138,765.026 359.055,765.180 358.848,765.269 358.602,765.315 358.327,765.392 357.979,765.425 357.688,765.458 357.449,765.531 357.237,765.563 356.826,765.553 356.192,765.488 355.578,765.473 355.027,765.415 354.474,765.409 353.803,765.323 353.104,765.226 352.579,765.178 352.262,765.188 352.041,765.162 351.928,765.178 351.828,765.244 351.854,765.265 352.243,765.273 352.343,765.279 352.168,765.285 352.093,765.302 352.106,765.428 352.419,765.459 352.596,765.541 352.596,765.541 " />
<polyline style="fill:none;stroke:blue;stroke-width:1.304;opacity:1" points="386.208,109.614 386.208,109.614 386.206,110.125 386.312,110.613 386.349,110.468 386.293,110.321 386.258,110.230 386.243,110.091 386.235,110.108 386.231,110.161 386.227,110.181 386.182,110.185 386.208,110.178 386.185,110.219 386.235,110.264 386.272,110.339 386.317,110.361 386.310,110.367 386.243,110.364 386.182,110.390 386.158,110.453 386.096,110.525 386.039,110.581 386.039,110.581 386.039,110.581 " />
<polyline style="fill:none;stroke:blue;stroke-width:1.304;opacity:1" points="383.929,112.161 383.929,112.161 384.109,111.568 384.037,111.046 383.912,111.258 384.004,111.318 384.042,111.317 384.033,111.366 384.186,111.399 384.230,111.345 384.286,111.317 384.422,111.312 384.429,111.232 384.368,111.237 384.384,111.195 384.428,111.080 384.498,110.999 384.658,110.880 384.864,110.729 384.926,110.575 384.908,110.494 384.960,110.439 384.985,110.330 384.913,110.221 384.885,110.071 384.867,109.854 384.952,109.596 385.231,109.391 385.317,109.162 385.449,109.067 385.616,108.994 385.660,108.898 385.587,108.778 385.586,108.591 385.599,108.288 385.716,107.935 385.854,107.532 386.086,107.176 386.278,106.843 386.364,106.611 386.466,106.429 386.524,106.242 386.487,106.046 386.577,105.851 386.908,105.608 387.070,105.182 387.060,104.742 387.160,104.356 387.265,103.985 387.594,103.653 387.792,103.338 387.671,103.094 387.744,102.968 387.796,102.794 387.855,102.608 387.878,102.361 387.906,102.121 388.025,101.851 388.208,101.526 388.263,101.176 388.344,100.887 388.233,100.618 388.289,100.399 388.824,100.267 389.001,100.005 388.764,99.860 388.698,99.710 388.692,99.483 388.926,99.316 388.993,99.152 388.898,98.982 388.914,98.795 388.899,98.618 388.933,98.441 389.024,98.294 388.983,98.140 389.022,98.044 389.155,97.955 389.168,97.844 389.206,97.712 389.150,97.586 389.135,97.467 389.415,97.333 389.515,97.173 389.340,97.037 389.388,96.926 389.421,96.754 389.536,96.616 389.542,96.455 389.483,96.336 389.466,96.196 389.455,96.074 389.449,95.975 389.448,95.881 389.496,95.736 389.556,95.655 389.648,95.602 389.702,95.587 389.703,95.530 389.648,95.460 389.681,95.418 389.843,95.352 389.906,95.260 389.859,95.140 389.884,95.045 389.916,94.866 389.903,94.727 389.936,94.653 390.016,94.512 390.067,94.344 390.159,94.224 390.158,94.070 390.145,93.876 389.849,93.763 389.860,93.547 390.170,93.413 390.278,93.327 390.330,93.228 390.201,93.089 390.169,92.905 390.574,92.768 390.686,92.558 390.504,92.428 390.504,92.428 390.514,92.175 390.514,92.175 " />
<polyline style="fill:none;stroke:blue;stroke-width:1.304;opacity:1" points="387.696,89.112 387.696,89.112 387.688,89.154 387.816,89.399 387.875,89.487 387.902,89.587 387.929,89.689 387.974,89.710 388.046,89.710 388.096,89.676 388.126,89.695 388.154,89.724 388.219,89.796 388.304,89.845 388.400,89.845 388.482,89.883 388.609,89.926 388.662,89.924 388.490,89.920 388.497,89.910 388.961,89.896 389.148,89.891 389.120,89.892 389.113,89.872 389.180,89.860 389.199,89.841 389.304,89.822 389.589,89.773 389.870,89.716 390.072,89.668 390.195,89.626 390.370,89.549 390.648,89.461 390.916,89.418 390.986,89.323 391.078,89.261 391.203,89.185 391.265,89.145 391.375,89.043 391.648,88.962 391.816,88.860 391.922,88.790 392.013,88.769 392.158,88.749 392.351,88.770 392.404,88.794 392.331,88.843 392.305,88.902 392.300,88.919 392.282,88.954 392.271,89.058 392.358,89.097 392.412,89.166 392.472,89.302 392.527,89.438 392.569,89.679 392.699,90.042 392.798,90.433 393.014,90.953 393.064,91.511 392.859,92.036 392.809,92.522 392.824,92.895 392.862,93.187 392.956,93.461 393.011,93.745 393.016,93.886 393.058,93.943 393.140,94.001 393.187,94.108 392.962,94.232 392.919,94.325 393.071,94.285 393.052,94.251 393.012,94.169 393.012,94.169 393.012,94.169 393.012,94.169 " />
<polyline style="fill:none;stroke:blue;stroke-width:1.304;opacity:1" points="370.410,83.955 370.410,83.955 370.121,83.830 369.840,83.617 369.729,83.515 369.744,83.464 369.706,83.415 369.648,83.351 369.622,83.322 369.647,83.351 369.658,83.380 369.687,83.344 369.739,83.299 369.856,83.286 369.916,83.229 369.975,83.228 369.979,83.232 369.956,83.306 369.968,83.407 369.997,83.475 369.989,83.519 369.900,83.563 369.925,83.649 370.091,83.716 370.263,83.936 370.470,84.315 370.658,84.743 370.879,85.201 371.187,85.644 371.500,86.067 371.709,86.431 371.979,86.658 372.249,86.772 372.344,86.806 372.474,86.766 372.745,86.659 372.831,86.451 372.807,86.258 372.819,86.064 372.856,85.742 372.913,85.337 372.940,84.890 372.880,84.380 372.863,83.912 372.901,83.481 372.905,83.120 372.907,82.861 373.001,82.434 373.018,82.080 372.861,81.978 372.814,81.824 372.812,81.680 372.774,81.533 372.782,81.424 372.795,81.332 372.681,81.165 372.681,81.165 372.681,81.165 372.681,81.165 " />
<polyline style="fill:none;stroke:blue;stroke-width:1.304;opacity:1" points="510.633,62.697 510.633,62.697 512.256,62.066 513.659,61.031 513.080,60.789 512.777,61.018 512.604,61.179 512.552,61.344 512.523,61.421 512.534,61.461 512.642,61.507 512.743,61.594 512.837,61.661 512.966,61.676 513.084,61.807 513.151,62.107 513.198,62.523 513.229,63.066 513.345,63.755 513.381,64.542 513.270,65.351 513.239,66.079 513.266,66.701 513.358,67.231 513.367,67.698 513.414,68.068 513.464,68.260 513.417,68.339 513.455,68.268 513.446,68.056 513.390,67.849 513.216,67.618 512.907,67.401 512.655,67.132 512.385,66.803 512.136,66.396 511.924,66.103 511.924,66.103 511.386,65.506 511.464,65.150 511.479,64.754 511.471,64.288 511.240,63.880 511.210,63.446 511.556,63.000 511.674,62.513 511.601,62.015 511.714,61.428 511.943,60.927 512.167,60.484 512.424,60.106 512.771,59.813 513.077,59.613 513.437,59.521 513.759,59.636 514.097,59.797 514.440,59.936 514.868,60.125 515.406,60.289 515.762,60.441 516.068,60.589 516.373,60.682 516.522,60.826 516.588,60.953 516.649,61.117 516.652,61.350 516.582,61.518 516.483,61.690 516.399,61.995 516.153,62.348 515.859,62.749 515.533,63.096 515.143,63.413 514.507,63.753 514.017,63.992 513.661,64.042 513.380,64.105 513.287,64.113 513.300,64.205 513.310,64.414 513.473,64.612 513.657,64.820 513.907,64.943 513.907,64.943 " />
<polyline style="fill:none;stroke:blue;stroke-width:1.304;opacity:1" points="519.123,65.974 519.123,65.974 518.885,66.395 518.489,67.129 518.492,67.320 518.470,67.105 518.478,66.920 518.432,66.682 518.497,66.434 518.430,66.192 518.129,65.922 518.044,65.580 517.992,65.271 518.010,64.904 517.991,64.538 517.918,64.149 518.021,63.726 518.145,63.289 518.307,62.869 518.597,62.463 518.895,62.088 519.172,61.771 519.468,61.558 519.752,61.439 520.017,61.414 520.106,61.417 520.258,61.501 520.258,61.501 520.258,61.501 520.258,61.501 520.258,61.501 " />
<polyline style="fill:none;stroke:blue;stroke-width:1.304;opacity:1" points="522.394,62.453 522.394,62.453 522.046,62.780 521.561,63.257 521.378,63.582 521.334,63.900 521.334,64.192 521.419,64.454 521.582,64.770 521.730,65.116 522.000,65.417 522.294,65.701 522.483,65.961 522.726,66.109 523.120,66.143 523.476,66.147 523.838,66.075 524.139,65.966 524.344,65.824 524.510,65.575 524.647,65.322 524.745,65.084 524.795,64.795 524.817,64.504 524.897,64.185 524.812,63.903 524.638,63.655 524.463,63.451 524.349,63.291 524.133,63.201 523.873,63.102 523.486,62.946 523.150,62.841 522.982,62.888 522.739,62.943 522.435,63.079 522.113,63.211 521.940,63.419 522.036,63.696 522.104,64.004 522.193,64.325 522.301,64.739 522.480,65.125 522.480,65.125 522.480,65.125 522.480,65.125 " />
<polyline style="fill:none;stroke:blue;stroke-width:1.304;opacity:1" points="527.357,61.875 527.357,61.875 527.379,61.670 527.449,61.379 527.442,61.578 527.482,61.709 527.514,61.831 527.472,62.030 527.508,62.426 527.650,62.829 527.808,63.167 527.948,63.576 528.128,63.991 528.257,64.436 528.421,64.823 528.537,65.149 528.680,65.487 528.873,65.882 528.992,66.187 529.094,66.365 529.269,66.510 529.425,66.688 529.511,66.725 529.545,66.765 529.834,66.738 529.974,66.623 529.747,66.413 529.728,66.231 529.781,66.030 529.891,65.790 530.030,65.543 530.172,65.211 530.401,64.754 530.646,64.262 530.833,63.830 531.077,63.414 531.192,63.026 531.280,62.669 531.491,62.328 531.647,62.045 531.740,61.833 531.825,61.674 531.874,61.540 531.969,61.490 532.032,61.476 532.032,61.476 532.141,61.505 532.141,61.505 532.141,61.505 " />
<polyline style="fill:none;stroke:blue;stroke-width:1.304;opacity:1" points="535.617,64.731 535.617,64.731 536.342,64.155 537.495,63.511 537.964,63.653 538.079,63.611 538.182,63.526 538.405,63.337 538.667,63.183 538.978,62.941 539.232,62.588 539.451,62.268 539.432,61.999 539.393,61.781 539.579,61.492 539.508,61.143 539.241,60.877 538.914,60.711 538.679,60.586 538.414,60.539 538.160,60.574 537.925,60.751 537.710,60.965 537.545,61.205 537.400,61.500 537.201,61.777 536.943,62.118 536.841,62.384 536.911,62.670 536.946,62.999 537.052,63.318 537.187,63.689 537.353,64.079 537.461,64.441 537.630,64.769 537.751,65.058 537.964,65.159 538.202,65.179 538.445,65.210 538.693,65.222 538.964,65.162 539.318,65.115 539.821,65.040 539.821,65.040 539.821,65.040 539.821,65.040 539.821,65.040 " />
<polyline style="fill:none;stroke:blue;stroke-width:1.304;opacity:1" points="544.829,61.145 544.829,61.145 545.041,60.514 544.997,59.806 544.699,60.168 544.508,60.340 544.308,60.478 544.180,60.741 544.080,61.000 543.934,61.289 543.739,61.599 543.499,61.970 543.295,62.346 543.109,62.783 542.970,63.225 542.929,63.618 542.764,63.970 542.757,64.372 542.997,64.771 543.165,65.065 543.250,65.286 543.560,65.512 543.909,65.742 544.059,65.970 544.366,66.064 544.812,66.110 545.347,66.081 545.955,65.984 546.553,65.939 546.553,65.939 547.627,65.628 547.627,65.628 547.627,65.628 547.627,65.628 " />
<polyline style="fill:none;stroke:blue;stroke-width:1.304;opacity:1" points="550.543,60.048 550.543,60.048 552.894,58.584 555.297,57.018 555.007,57.950 554.380,58.038 553.963,58.161 553.745,58.519 553.808,58.871 553.908,59.202 553.972,59.491 554.193,59.837 554.496,60.183 554.805,60.607 555.092,61.076 555.349,61.548 555.612,62.088 555.812,62.732 556.047,63.312 556.269,63.809 556.486,64.191 556.742,64.545 557.272,64.800 557.656,64.965 557.539,65.132 557.508,65.225 557.508,65.225 557.508,65.225 557.508,65.225 " />
<polyline style="fill:none;stroke:blue;stroke-width:1.304;opacity:1" points="552.514,63.718 552.514,63.718 553.425,62.633 554.530,61.284 554.480,61.092 554.262,61.409 554.164,61.666 554.316,61.803 554.551,61.819 554.815,61.722 555.136,61.676 555.461,61.660 555.813,61.596 556.164,61.475 556.547,61.351 556.883,61.233 557.147,61.176 557.378,61.095 557.689,61.061 557.996,61.081 558.254,61.063 558.411,61.086 558.507,61.152 558.507,61.152 558.507,61.152 " />
<polyline style="fill:none;stroke:blue;stroke-width:1.304;opacity:1" points="528.103,64.535 528.103,64.535 529.633,63.770 531.361,63.014 531.318,63.183 530.782,63.348 530.424,63.488 530.293,63.645 530.245,63.802 530.262,63.934 530.272,64.018 530.394,64.122 530.506,64.187 530.657,64.233 530.795,64.321 530.912,64.508 531.016,64.727 531.147,64.940 531.271,65.150 531.343,65.360 531.403,65.557 531.497,65.822 531.604,66.196 531.768,66.594 531.938,66.978 532.059,67.345 532.120,67.856 532.179,68.408 532.240,68.913 532.393,69.371 532.516,69.862 532.684,70.358 532.763,70.813 532.600,71.242 532.547,71.753 532.463,72.255 532.392,72.710 532.200,73.062 531.965,73.351 531.778,73.599 531.561,73.671 531.327,73.728 531.086,73.766 530.808,73.693 530.446,73.632 530.064,73.541 529.733,73.379 529.340,73.281 528.896,73.207 528.618,72.990 528.904,72.788 528.883,72.589 528.521,72.379 528.376,72.047 528.255,71.743 528.210,71.413 528.121,70.923 528.121,70.923 528.121,70.923 528.121,70.923 " />
<polyline style="fill:none;stroke:blue;stroke-width:1.304;opacity:1" points="528.254,60.800 528.254,60.800 527.873,60.687 527.589,60.389 527.682,60.158 527.704,59.990 527.748,59.908 527.778,59.968 527.796,59.993 527.820,60.032 527.843,60.064 527.845,60.039 527.838,60.061 527.851,60.076 527.811,60.099 527.678,60.112 527.597,60.026 527.666,59.950 527.721,59.916 527.766,59.902 527.857,59.901 527.857,59.901 527.857,59.901 527.857,59.901 " />
<polyline style="fill:none;stroke:blue;stroke-width:1.304;opacity:1" points="565.529,63.642 565.529,63.642 565.407,64.022 565.268,64.369 565.315,64.282 565.329,64.204 565.334,64.087 565.367,64.053 565.360,63.970 565.395,63.972 565.441,63.984 565.486,64.003 565.514,64.025 565.522,64.044 565.511,64.059 565.542,64.026 565.587,64.024 565.639,64.022 565.635,64.023 565.611,64.023 565.591,64.023 565.601,64.004 565.558,63.988 565.619,63.954 565.703,63.891 565.738,63.881 565.745,63.882 565.810,63.854 565.909,63.808 565.914,63.862 565.874,63.871 565.848,63.898 565.828,63.929 565.874,63.953 565.871,64.022 565.735,64.153 565.854,64.344 566.205,64.592 566.511,64.943 566.904,65.399 567.190,65.822 567.386,66.336 567.692,66.836 567.932,67.215 568.083,67.609 568.321,67.956 568.483,68.353 568.513,68.637 568.620,68.790 568.789,68.797 568.944,68.768 569.048,68.807 569.158,68.790 569.219,68.745 568.994,68.676 568.994,68.551 569.282,68.464 569.469,68.375 569.638,68.202 569.859,67.864 570.056,67.424 570.223,66.881 570.468,66.297 570.671,65.717 570.859,65.224 571.124,64.783 571.222,64.382 571.388,64.062 571.520,63.828 571.559,63.602 571.550,63.448 571.497,63.367 571.501,63.420 571.587,63.510 571.530,63.613 571.329,63.702 571.207,63.843 571.207,63.843 571.207,63.843 571.207,63.843 " />
<polyline style="fill:none;stroke:blue;stroke-width:1.304;opacity:1" points="517.840,78.693 517.840,78.693 518.332,78.147 518.776,77.251 518.647,77.175 518.541,77.339 518.535,77.431 518.612,77.522 518.676,77.626 518.708,77.740 518.710,77.928 518.836,78.165 519.022,78.564 519.317,79.117 519.675,79.684 519.955,80.337 520.256,81.061 520.500,81.826 520.629,82.647 520.834,83.412 521.051,84.019 521.128,84.486 521.279,84.946 521.412,85.320 521.456,85.606 521.539,85.834 521.547,85.972 521.510,85.986 521.439,85.906 521.439,85.906 521.439,85.906 521.439,85.906 " />
<polyline style="fill:none;stroke:blue;stroke-width:1.304;opacity:1" points="517.048,82.640 517.048,82.640 516.599,82.815 516.202,83.057 516.462,83.040 516.598,82.993 516.745,83.002 516.661,82.925 516.731,82.910 517.031,82.867 517.331,82.858 517.688,82.783 518.027,82.687 518.580,82.554 519.545,82.415 520.371,82.323 520.889,82.302 521.458,82.379 522.019,82.425 522.599,82.459 522.599,82.459 522.599,82.459 522.599,82.459 " />
<polyline style="fill:none;stroke:blue;stroke-width:1.304;opacity:1" points="524.504,82.641 524.504,82.641 524.176,83.140 523.711,83.900 523.829,84.308 523.974,84.493 524.182,84.699 524.481,84.964 524.803,85.199 525.269,85.372 525.819,85.559 526.247,85.640 526.745,85.573 527.336,85.457 527.920,85.301 528.456,85.029 528.929,84.769 529.214,84.389 529.240,84.023 529.149,83.698 529.028,83.391 528.757,83.135 528.480,82.859 528.063,82.581 527.656,82.326 527.392,82.071 527.017,81.886 526.625,81.776 526.242,81.712 525.835,81.739 525.543,81.862 525.339,82.062 525.235,82.338 525.168,82.605 525.189,82.966 525.235,83.290 525.235,83.290 525.235,83.290 525.235,83.290 " />
<polyline style="fill:none;stroke:blue;stroke-width:1.304;opacity:1" points="542.005,77.983 542.005,77.983 542.059,77.560 542.332,76.972 542.267,76.814 542.274,76.711 542.189,76.684 542.107,76.668 542.048,76.656 541.989,76.659 541.998,76.658 541.963,76.738 541.993,76.890 542.027,77.108 541.985,77.290 541.988,77.524 541.991,77.892 542.088,78.385 542.147,79.011 542.239,79.724 542.383,80.391 542.566,81.081 542.795,81.802 543.152,82.673 543.477,83.582 543.692,84.354 543.828,84.918 544.034,85.296 544.034,85.296 544.034,85.296 544.034,85.296 " />
<polyline style="fill:none;stroke:blue;stroke-width:1.304;opacity:1" points="546.164,81.426 546.164,81.426 545.969,82.278 545.898,83.355 546.080,83.893 546.191,84.323 546.289,84.747 546.436,85.115 546.718,85.360 547.048,85.474 547.048,85.474 547.048,85.474 547.048,85.474 " />
<polyline style="fill:none;stroke:blue;stroke-width:1.304;opacity:1" points="547.014,79.645 547.014,79.645 547.687,78.770 548.098,77.801 547.573,78.098 547.442,78.278 547.401,78.456 547.422,78.545 547.464,78.642 547.465,78.780 547.520,78.912 547.619,79.093 547.829,79.301 547.829,79.301 547.829,79.301 547.829,79.301 " />
<polyline style="fill:none;stroke:blue;stroke-width:1.304;opacity:1" points="550.867,85.275 550.867,85.275 550.737,85.307 550.699,85.410 550.728,85.363 550.755,85.273 550.771,85.128 550.654,84.952 550.558,84.767 550.568,84.512 550.587,84.247 550.606,83.923 550.618,83.581 550.762,83.167 550.877,82.782 550.976,82.469 551.103,82.153 551.233,81.821 551.402,81.490 551.615,81.162 551.830,80.870 551.948,80.666 552.041,80.620 552.077,80.679 552.023,80.841 551.968,81.007 551.926,81.183 551.980,81.473 552.169,81.871 552.388,82.267 552.591,82.702 552.873,83.116 553.205,83.467 553.472,83.836 553.763,84.156 554.126,84.457 554.626,84.713 555.154,84.891 555.615,85.026 556.038,85.024 556.479,84.939 556.889,84.863 557.285,84.717 557.673,84.545 557.987,84.294 558.239,83.972 558.578,83.665 558.820,83.267 558.964,82.886 559.101,82.578 559.065,82.282 558.982,82.010 558.824,81.695 558.531,81.445 558.207,81.296 557.918,81.158 557.564,81.151 557.188,81.188 556.859,81.266 556.566,81.368 556.095,81.580 555.725,81.951 555.674,82.361 555.582,82.701 555.555,83.075 555.656,83.479 555.745,83.829 555.898,84.196 556.121,84.561 556.325,84.975 556.552,85.355 556.855,85.632 557.141,85.892 557.371,86.166 557.588,86.359 557.750,86.457 557.900,86.456 558.130,86.453 558.526,86.344 558.893,86.192 559.343,86.066 559.972,85.873 560.493,85.675 560.851,85.555 560.851,85.555 " />
<polyline style="fill:none;stroke:blue;stroke-width:1.304;opacity:1" points="469.571,45.859 469.571,45.859 470.188,45.800 470.759,45.806 470.401,45.814 470.330,45.790 470.199,45.755 470.138,45.740 470.106,45.704 470.063,45.647 470.144,45.640 470.124,45.643 470.075,45.652 470.039,45.661 470.032,45.668 470.076,45.673 470.097,45.585 470.132,45.513 470.150,45.569 470.251,45.579 470.258,45.561 470.202,45.564 470.212,45.560 470.145,45.603 470.195,45.607 470.203,45.606 470.091,45.667 470.014,45.685 470.044,45.722 470.101,45.763 470.069,45.829 470.228,45.966 470.250,46.058 470.045,46.301 469.868,46.769 469.743,47.263 469.691,47.730 469.710,48.123 469.694,48.507 469.720,48.884 469.746,49.371 469.765,49.851 469.780,50.117 469.743,50.290 469.737,50.548 469.832,50.746 469.881,50.967 470.018,51.164 470.210,51.329 470.391,51.540 470.624,51.685 470.806,51.736 470.767,51.826 470.880,51.872 471.058,51.837 471.312,51.708 471.504,51.517 471.694,51.269 471.887,50.978 472.039,50.690 472.171,50.397 472.306,50.156 472.400,49.977 472.442,49.869 472.648,49.827 472.739,49.752 472.709,49.723 472.741,49.786 472.741,49.786 472.741,49.786 472.741,49.786 " />
<polyline style="fill:none;stroke:blue;stroke-width:1.304;opacity:1" points="566.720,80.161 566.720,80.161 568.772,78.007 570.694,75.418 569.857,75.334 569.473,76.186 569.270,76.735 569.040,76.933 568.963,77.033 568.922,77.117 568.966,77.117 569.029,77.070 569.069,77.043 569.083,77.063 569.126,77.123 569.162,77.231 569.139,77.477 569.094,77.800 569.041,78.172 568.943,78.657 568.932,79.249 568.985,79.881 569.048,80.490 569.112,80.982 568.941,81.408 569.015,81.784 569.302,82.044 569.378,82.276 569.419,82.504 569.534,82.699 569.517,82.840 569.531,82.938 569.589,83.036 569.665,83.124 569.752,83.182 569.840,83.148 569.914,83.159 569.995,83.191 569.995,83.191 569.995,83.191 569.995,83.191 569.995,83.191 " />
<polyline style="fill:none;stroke:blue;stroke-width:1.304;opacity:1" points="484.480,110.749 484.480,110.749 484.366,110.809 484.197,110.802 484.044,110.795 483.966,110.789 483.962,110.785 483.913,110.783 483.801,110.782 483.722,110.685 483.696,110.583 483.631,110.536 483.562,110.461 483.478,110.327 483.434,110.226 483.450,110.157 483.546,110.140 483.657,110.162 483.721,110.191 483.804,110.250 483.864,110.321 483.949,110.383 484.069,110.433 484.253,110.431 484.601,110.416 485.110,110.482 485.649,110.522 486.182,110.606 486.691,110.695 487.217,110.737 487.563,110.826 487.882,110.861 488.276,110.931 488.605,110.967 488.855,111.043 488.970,111.125 489.034,111.157 489.179,111.221 489.268,111.310 489.257,111.434 489.167,111.545 489.121,111.668 489.097,111.788 489.092,111.995 489.055,112.310 488.798,112.715 488.504,113.100 488.316,113.493 487.984,113.804 487.422,114.058 486.940,114.269 486.605,114.407 486.291,114.525 485.968,114.622 485.731,114.784 485.561,114.960 485.437,115.152 485.441,115.363 485.492,115.522 485.527,115.670 485.580,115.822 485.611,115.933 485.668,116.030 485.715,116.087 485.699,116.180 485.723,116.249 485.878,116.216 486.021,116.222 486.050,116.201 486.082,116.223 486.217,116.261 486.520,116.307 486.902,116.312 487.331,116.312 487.862,116.310 488.328,116.357 488.697,116.409 489.052,116.458 489.456,116.459 489.794,116.406 490.098,116.256 490.359,116.050 490.499,115.834 490.499,115.834 " />
<polyline style="fill:none;stroke:blue;stroke-width:1.304;opacity:1" points="500.304,111.191 500.304,111.191 500.002,111.236 499.832,111.251 499.839,111.283 499.939,111.348 500.083,111.450 500.221,111.560 500.260,111.697 500.289,111.820 500.310,111.978 500.328,112.267 500.394,112.677 500.469,113.145 500.502,113.600 500.581,113.982 500.757,114.277 500.899,114.510 500.992,114.605 501.065,114.575 501.065,114.575 501.187,114.303 501.187,114.303 501.187,114.303 501.187,114.303 " />
<polyline style="fill:none;stroke:blue;stroke-width:1.304;opacity:1" points="500.455,107.924 500.455,107.924 500.848,107.610 501.184,107.077 501.004,106.949 500.733,106.992 500.632,106.938 500.776,106.964 500.831,106.973 500.838,106.985 500.760,107.048 500.888,107.094 501.065,107.122 501.191,107.242 501.356,107.377 501.356,107.377 501.356,107.377 501.356,107.377 " />
<polyline style="fill:none;stroke:blue;stroke-width:1.304;opacity:1" points="504.891,107.844 504.891,107.844 504.806,107.861 504.411,108.091 504.151,108.253 504.011,108.380 503.903,108.530 503.732,108.734 503.587,108.951 503.501,109.199 503.559,109.362 503.670,109.447 503.723,109.437 503.843,109.448 504.042,109.473 504.257,109.530 504.529,109.643 504.835,109.774 505.178,109.912 505.514,110.050 505.867,110.270 506.141,110.505 506.421,110.763 506.667,110.978 506.816,111.225 506.902,111.539 506.999,111.868 506.883,112.238 506.898,112.603 506.987,112.996 506.924,113.321 506.771,113.567 506.537,113.781 506.289,113.968 505.970,114.108 505.652,114.213 505.352,114.234 505.040,114.256 504.725,114.251 504.376,114.259 503.947,114.190 503.491,114.123 503.163,114.118 503.096,114.123 503.185,114.182 503.320,114.244 503.320,114.244 503.935,114.358 503.935,114.358 503.935,114.358 " />
<polyline style="fill:none;stroke:blue;stroke-width:1.304;opacity:1" points="520.378,112.982 520.378,112.982 519.962,112.982 519.173,112.836 518.982,112.537 518.914,112.396 518.883,112.227 518.793,112.022 518.681,111.777 518.555,111.446 518.321,111.020 518.009,110.583 517.693,110.115 517.436,109.535 517.333,108.892 517.253,108.265 517.267,107.708 517.331,107.185 517.435,106.678 517.527,106.173 517.691,105.710 517.935,105.176 518.178,104.645 518.452,104.243 518.744,103.966 518.940,103.820 519.143,103.784 519.305,103.777 519.505,103.790 519.600,103.811 519.744,103.813 519.957,103.871 520.120,104.020 520.217,104.200 520.309,104.371 520.309,104.371 520.414,104.873 520.414,104.873 520.213,105.477 520.213,105.477 520.213,105.477 520.213,105.477 520.213,105.477 " />
<polyline style="fill:none;stroke:blue;stroke-width:1.304;opacity:1" points="518.175,108.108 518.175,108.108 518.247,108.307 517.781,108.703 517.027,108.950 516.515,108.990 516.201,108.956 516.044,108.884 515.903,108.827 515.832,108.786 515.946,108.711 516.055,108.672 516.187,108.668 516.376,108.680 516.408,108.703 516.514,108.763 516.861,108.814 517.285,108.838 517.777,108.847 518.285,108.890 518.925,108.888 519.695,108.880 520.359,108.872 520.782,108.868 521.262,108.863 521.721,108.860 522.134,108.858 522.523,108.812 522.523,108.812 522.948,108.661 523.122,108.662 523.135,108.673 523.024,108.720 522.836,108.776 522.705,108.837 522.658,108.919 522.539,109.058 522.354,109.267 522.188,109.550 522.079,109.831 522.035,110.143 522.048,110.523 522.202,110.911 522.357,111.324 522.630,111.764 522.949,112.165 523.244,112.505 523.512,112.734 523.793,112.849 524.182,112.902 524.482,112.894 524.689,112.806 524.895,112.688 525.170,112.542 525.387,112.318 525.582,112.035 525.913,111.766 526.065,111.439 526.134,111.120 526.107,110.810 526.034,110.461 525.827,110.198 525.585,110.003 525.363,109.864 525.125,109.774 524.962,109.632 524.647,109.522 524.304,109.480 524.053,109.479 523.809,109.574 523.524,109.617 523.136,109.684 522.846,109.792 522.820,109.947 522.804,110.058 522.854,110.224 522.941,110.475 523.101,110.738 523.101,110.738 523.101,110.738 523.101,110.738 " />
<polyline style="fill:none;stroke:blue;stroke-width:1.304;opacity:1" points="530.032,111.871 530.032,111.871 529.637,112.160 529.221,112.562 529.206,112.581 529.361,112.433 529.397,112.211 529.272,111.958 529.086,111.715 528.937,111.399 528.762,111.086 528.581,110.787 528.448,110.551 528.379,110.347 528.329,110.077 528.318,109.854 528.404,109.657 528.400,109.502 528.467,109.391 528.698,109.334 528.919,109.257 529.192,109.177 529.388,109.021 529.638,108.944 530.201,108.883 530.628,108.798 530.827,108.867 531.130,108.934 531.130,108.934 531.130,108.934 531.130,108.934 " />
<polyline style="fill:none;stroke:blue;stroke-width:1.304;opacity:1" points="544.725,108.937 544.725,108.937 544.551,108.577 543.958,108.016 543.333,107.997 542.852,108.053 542.200,108.092 541.642,108.167 541.198,108.261 540.762,108.429 540.425,108.593 540.125,108.824 539.865,109.137 539.702,109.371 539.567,109.641 539.491,109.918 539.539,110.276 539.622,110.679 539.822,111.131 540.006,111.589 540.205,112.030 540.524,112.363 540.795,112.592 541.037,112.708 541.291,112.807 541.718,112.829 542.073,112.783 542.253,112.716 542.445,112.579 542.672,112.315 542.672,112.315 543.183,111.664 543.396,111.264 543.609,110.835 543.782,110.374 543.909,109.926 543.987,109.462 543.976,108.999 543.872,108.547 543.999,108.026 543.942,107.429 543.558,106.842 543.419,106.315 543.275,105.839 543.202,105.423 543.016,104.973 542.773,104.498 542.705,104.076 542.663,103.775 542.627,103.585 542.588,103.399 542.628,103.266 542.620,103.177 542.598,103.125 542.609,103.135 542.646,103.220 542.693,103.339 542.777,103.489 542.913,103.684 542.974,104.019 542.970,104.484 543.129,105.074 543.261,105.721 543.438,106.425 543.618,107.069 543.786,107.661 543.898,108.258 544.043,108.932 544.242,109.585 544.456,110.059 544.786,110.459 545.048,110.800 545.243,111.104 545.499,111.397 545.697,111.569 545.697,111.569 545.697,111.569 " />
<polyline style="fill:none;stroke:blue;stroke-width:1.304;opacity:1" points="546.103,108.035 546.103,108.035 546.509,108.197 547.186,108.637 547.218,109.055 547.136,109.384 547.222,109.793 547.362,110.228 547.513,110.633 547.757,111.045 548.068,111.420 548.431,111.736 548.801,111.862 548.801,111.862 548.801,111.862 548.801,111.862 " />
<polyline style="fill:none;stroke:blue;stroke-width:1.304;opacity:1" points="548.377,105.945 548.377,105.945 548.921,104.606 549.221,103.063 548.810,102.897 548.676,103.108 548.609,103.300 548.646,103.395 548.729,103.526 548.756,103.674 548.778,103.833 548.912,103.978 549.033,104.149 549.194,104.396 549.346,104.643 549.346,104.643 549.346,104.643 549.346,104.643 549.346,104.643 " />
<polyline style="fill:none;stroke:blue;stroke-width:1.304;opacity:1" points="553.106,112.084 553.106,112.084 553.392,112.254 553.905,112.498 553.876,112.433 553.678,112.272 553.539,112.052 553.541,111.736 553.363,111.345 552.972,110.988 552.708,110.531 552.483,110.057 552.291,109.612 552.028,109.194 551.842,108.859 551.730,108.523 551.667,108.265 551.607,108.022 551.580,107.810 551.590,107.589 551.634,107.436 551.713,107.335 551.781,107.273 551.835,107.160 551.924,107.058 552.013,107.036 552.239,107.028 552.475,107.044 552.571,107.159 552.739,107.336 552.739,107.336 553.056,107.744 553.240,108.002 553.394,108.315 553.394,108.315 553.782,108.943 553.938,109.230 554.081,109.487 554.130,109.735 554.264,109.935 554.457,110.082 554.664,110.232 554.961,110.386 555.271,110.559 555.620,110.697 555.997,110.879 556.377,111.080 556.750,111.194 557.101,111.159 557.556,111.064 557.973,110.916 558.354,110.689 558.714,110.476 558.910,110.222 558.974,109.961 559.031,109.761 559.066,109.572 558.846,109.318 558.715,109.041 558.715,108.757 558.565,108.535 558.345,108.336 558.204,108.156 557.907,108.137 557.527,108.232 557.119,108.319 556.613,108.519 556.175,108.658 555.870,108.906 555.707,109.223 555.645,109.541 555.637,109.878 555.754,110.244 555.903,110.646 556.023,111.011 556.193,111.427 556.482,111.848 556.725,112.244 556.882,112.617 557.192,112.921 557.526,113.143 558.099,113.334 558.606,113.523 558.900,113.644 559.259,113.685 559.624,113.702 560.079,113.646 560.546,113.506 560.977,113.279 561.427,113.025 561.841,112.646 562.297,112.321 562.754,112.069 562.754,112.069 " />
<polyline style="fill:none;stroke:blue;stroke-width:1.304;opacity:1" points="565.058,108.328 565.058,108.328 564.748,108.332 564.350,108.270 564.248,108.480 564.176,108.689 563.994,108.873 563.688,108.995 563.572,109.123 563.331,109.249 562.878,109.349 562.447,109.558 562.109,109.848 561.887,110.153 561.733,110.409 561.693,110.683 561.702,110.954 561.702,111.264 561.869,111.542 562.025,111.801 562.245,112.050 562.408,112.272 562.530,112.478 562.763,112.674 563.144,112.832 563.597,112.906 564.117,112.975 564.799,113.009 565.474,112.973 565.862,112.890 566.238,112.733 566.238,112.733 566.888,112.133 566.888,112.133 566.888,112.133 566.888,112.133 " />
<polyline style="fill:none;stroke:blue;stroke-width:1.304;opacity:1" points="567.061,103.925 567.061,103.925 567.627,103.161 568.072,102.213 567.821,102.122 567.689,102.268 567.692,102.416 567.816,102.583 567.852,102.743 567.853,102.949 567.893,103.202 567.987,103.488 568.044,103.843 568.182,104.355 568.374,105.012 568.622,105.644 568.858,106.266 568.980,106.944 569.133,107.584 569.321,108.187 569.469,108.694 569.609,109.129 569.704,109.428 569.743,109.704 569.781,109.999 569.738,110.213 569.650,110.369 569.710,110.410 569.576,110.403 569.183,110.338 568.941,110.123 568.714,109.990 568.551,109.895 568.401,109.772 568.266,109.613 568.130,109.500 568.050,109.358 568.108,109.214 568.171,109.115 568.180,109.034 568.287,109.031 568.446,108.991 568.554,108.934 568.641,108.910 568.760,108.838 568.922,108.754 569.173,108.622 569.444,108.476 569.744,108.339 570.039,108.208 570.284,108.130 570.497,108.114 570.700,108.149 571.029,108.101 571.325,108.025 571.599,108.038 571.853,108.054 571.853,108.054 571.853,108.054 571.853,108.054 571.853,108.054 571.853,108.054 " />
<polyline style="fill:none;stroke:blue;stroke-width:1.304;opacity:1" points="572.481,106.862 572.481,106.862 572.657,107.362 572.945,107.969 572.892,108.431 572.901,108.742 573.016,108.988 573.039,109.392 573.063,109.835 573.041,110.308 573.161,110.775 573.493,111.147 573.707,111.474 573.850,111.656 573.886,111.591 573.886,111.591 573.886,111.591 573.886,111.591 " />
<polyline style="fill:none;stroke:blue;stroke-width:1.304;opacity:1" points="573.389,106.850 573.389,106.850 573.161,106.462 573.045,105.893 572.851,105.782 572.549,105.763 572.424,105.750 572.403,105.840 572.402,105.948 572.463,106.060 572.578,106.134 572.572,106.317 572.528,106.563 572.569,106.826 572.569,106.826 572.666,107.149 572.666,107.149 572.666,107.149 572.666,107.149 " />
<polyline style="fill:none;stroke:blue;stroke-width:1.304;opacity:1" points="575.445,107.334 575.445,107.334 575.226,107.663 575.128,107.973 575.198,108.198 575.212,108.470 575.636,108.841 575.710,109.406 575.590,110.030 575.791,110.622 576.058,111.187 576.274,111.407 576.545,111.666 577.017,111.829 577.613,112.054 578.290,112.214 578.962,112.207 579.540,112.126 580.030,112.008 580.442,111.771 580.750,111.455 580.957,111.109 581.024,110.698 580.963,110.342 580.778,109.950 580.573,109.513 580.219,109.076 579.754,108.700 579.313,108.376 578.747,108.126 578.144,107.916 577.517,107.747 576.878,107.618 575.817,107.406 575.256,107.287 575.261,107.415 575.469,107.474 575.310,107.608 575.450,107.853 575.972,107.947 576.109,108.171 576.136,108.325 576.136,108.325 576.136,108.325 576.136,108.325 576.136,108.325 " />
<polyline style="fill:none;stroke:blue;stroke-width:1.304;opacity:1" points="582.526,110.624 582.526,110.624 582.621,110.576 582.678,110.673 582.687,110.705 582.629,110.669 582.633,110.473 582.603,110.169 582.551,109.864 582.537,109.529 582.530,109.159 582.578,108.767 582.682,108.389 582.789,108.073 582.935,107.836 583.165,107.666 583.487,107.545 583.938,107.423 584.331,107.359 584.670,107.293 584.973,107.304 585.108,107.350 585.331,107.425 585.571,107.540 585.866,107.736 586.167,108.014 586.525,108.336 586.886,108.781 587.296,109.316 587.748,109.977 588.164,110.689 588.736,111.404 588.736,111.404 588.736,111.404 588.736,111.404 " />
<polyline style="fill:none;stroke:blue;stroke-width:1.304;opacity:1" points="477.205,128.155 477.205,128.155 476.871,128.098 476.237,127.920 475.930,127.877 475.807,127.795 475.752,127.728 475.705,127.702 475.798,127.595 475.830,127.510 475.881,127.406 475.911,127.362 475.922,127.336 475.917,127.322 475.899,127.339 475.926,127.280 475.955,127.241 475.955,127.239 475.899,127.153 475.924,127.108 476.062,127.060 476.212,127.061 476.429,126.994 477.074,126.946 477.622,126.945 477.812,126.959 478.102,126.974 478.534,127.030 479.081,127.180 479.459,127.344 479.650,127.450 479.820,127.483 479.979,127.548 480.111,127.661 480.161,127.779 480.293,127.924 480.338,128.138 480.208,128.437 480.115,128.791 479.992,129.107 480.068,129.399 479.868,129.668 479.467,129.929 479.118,130.243 478.634,130.490 478.217,130.751 477.801,131.044 477.529,131.265 477.269,131.506 477.096,131.763 476.973,132.032 476.897,132.297 476.899,132.569 476.938,132.837 476.864,133.102 476.893,133.379 477.055,133.678 477.132,133.881 477.182,134.004 477.339,134.091 477.431,134.169 477.351,134.161 477.392,134.181 477.490,134.177 477.632,134.152 477.861,134.133 478.250,134.207 478.693,134.267 479.112,134.280 479.573,134.330 480.045,134.338 480.416,134.292 480.808,134.241 481.497,134.142 481.972,134.078 482.115,133.978 482.302,133.950 482.544,133.963 482.850,134.029 483.014,134.105 483.014,134.105 482.898,134.349 482.898,134.349 " />
<polyline style="fill:none;stroke:blue;stroke-width:1.304;opacity:1" points="485.267,132.511 485.267,132.511 485.206,132.579 485.167,132.742 485.242,132.872 485.370,133.069 485.481,133.256 485.513,133.515 485.590,133.770 485.715,134.012 485.839,134.287 485.915,134.612 485.987,134.898 486.233,135.104 486.320,135.361 486.149,135.535 486.189,135.644 486.201,135.693 486.275,135.714 486.268,135.712 486.218,135.696 486.173,135.631 486.125,135.532 486.114,135.397 486.114,135.397 485.764,134.964 485.545,134.666 485.491,134.379 485.346,134.107 485.185,133.875 485.030,133.612 484.879,133.308 484.775,132.992 484.726,132.684 484.632,132.426 484.622,132.177 484.663,131.930 484.746,131.722 484.778,131.522 484.836,131.357 484.931,131.153 485.072,130.972 485.254,130.837 485.470,130.753 485.607,130.703 485.827,130.666 486.200,130.659 486.541,130.640 486.830,130.568 487.296,130.529 487.709,130.581 487.814,130.708 488.057,130.754 488.307,130.754 488.569,130.787 488.732,130.870 488.837,130.953 488.891,131.074 488.915,131.203 488.860,131.368 488.811,131.618 488.777,131.934 488.716,132.258 488.576,132.562 488.439,132.889 488.308,133.253 488.093,133.573 487.967,133.842 487.910,134.035 487.780,134.164 487.508,134.254 487.371,134.373 487.356,134.402 487.369,134.455 487.419,134.516 487.463,134.582 487.516,134.561 487.523,134.579 487.518,134.627 487.603,134.623 487.601,134.620 487.679,134.660 487.855,134.663 487.999,134.712 488.287,134.799 488.662,134.898 489.084,134.996 489.568,135.129 490.054,135.312 490.523,135.402 490.952,135.471 491.358,135.625 491.716,135.835 492.026,135.912 492.273,135.921 492.432,135.970 492.509,135.982 492.574,135.947 492.586,135.915 492.567,135.840 492.554,135.825 492.893,135.781 492.935,135.667 492.489,135.872 492.489,135.872 " />
<polyline style="fill:none;stroke:blue;stroke-width:1.304;opacity:1" points="501.663,130.228 501.663,130.228 501.506,130.041 501.351,129.765 501.235,129.697 501.329,129.668 501.551,129.718 501.736,129.759 501.757,129.861 501.752,129.971 501.769,130.041 501.787,130.167 501.771,130.326 501.751,130.466 501.733,130.574 501.809,130.722 501.905,130.964 502.006,131.275 502.103,131.588 502.188,131.960 502.181,132.308 502.254,132.589 502.283,132.874 502.365,133.050 502.445,133.186 502.480,133.241 502.391,133.031 502.391,133.031 502.391,133.031 502.391,133.031 502.391,133.031 " />
<polyline style="fill:none;stroke:blue;stroke-width:1.304;opacity:1" points="502.109,126.981 502.109,126.981 501.745,127.172 501.390,127.112 501.487,126.967 501.554,126.956 501.603,126.977 501.646,126.993 501.708,127.004 501.742,127.033 501.723,127.022 501.711,126.969 501.747,126.895 501.747,126.895 501.747,126.895 " />
<polyline style="fill:none;stroke:blue;stroke-width:1.304;opacity:1" points="505.434,126.524 505.434,126.524 505.313,126.713 505.213,127.130 504.940,127.531 504.702,127.823 504.491,128.086 504.449,128.340 504.417,128.540 504.430,128.733 504.485,128.971 504.629,129.186 504.764,129.400 504.978,129.525 505.307,129.540 505.564,129.519 505.856,129.503 506.179,129.465 506.507,129.439 506.737,129.429 506.999,129.516 507.327,129.668 507.544,129.978 507.649,130.330 507.389,130.624 507.377,130.772 507.592,130.878 507.595,131.032 507.583,131.211 507.530,131.399 507.385,131.625 507.185,131.867 506.946,132.106 506.587,132.338 506.211,132.580 505.854,132.815 505.485,133.038 505.081,133.262 504.516,133.438 504.162,133.586 504.152,133.633 504.084,133.552 503.889,133.479 503.688,133.277 503.666,133.005 503.627,132.876 503.627,132.876 503.627,132.876 " />
<polyline style="fill:none;stroke:blue;stroke-width:1.304;opacity:1" points="519.336,132.381 519.336,132.381 519.374,132.299 519.485,132.216 519.628,132.087 519.742,131.848 519.823,131.667 519.785,131.413 519.698,131.157 519.666,130.827 519.599,130.405 519.496,129.811 519.442,129.097 519.351,128.380 519.267,127.668 519.234,126.979 519.210,126.277 519.281,125.668 519.359,125.141 519.476,124.722 519.540,124.357 519.725,123.994 520.011,123.642 520.342,123.229 520.664,122.780 520.839,122.466 521.130,122.261 521.684,122.237 521.960,122.285 521.917,122.429 521.965,122.609 522.060,122.893 522.316,123.209 522.475,123.599 522.446,123.966 522.356,124.283 522.356,124.283 522.133,124.710 522.133,124.710 522.133,124.710 522.133,124.710 522.133,124.710 " />
<polyline style="fill:none;stroke:blue;stroke-width:1.304;opacity:1" points="519.940,127.161 519.940,127.161 519.402,127.644 518.536,128.391 518.568,128.732 518.643,128.880 518.678,128.892 518.771,128.924 518.837,128.904 518.876,128.873 518.989,128.813 519.008,128.775 519.038,128.703 519.101,128.654 519.168,128.568 519.234,128.490 519.458,128.473 519.782,128.413 519.989,128.286 520.345,128.219 520.916,128.150 521.377,128.122 521.699,128.056 521.928,127.987 522.185,127.957 522.185,127.957 522.552,128.092 522.710,128.155 522.822,128.214 522.895,128.264 522.754,128.337 522.722,128.462 522.801,128.580 522.756,128.796 522.750,129.128 522.663,129.407 522.620,129.662 522.585,129.940 522.554,130.300 522.478,130.764 522.490,131.165 522.611,131.430 522.823,131.642 523.044,131.865 523.202,132.105 523.434,132.209 523.729,132.248 524.035,132.304 524.339,132.246 524.488,132.195 524.742,132.158 525.171,132.004 525.493,131.783 525.791,131.554 526.041,131.333 526.110,131.109 526.053,130.846 526.041,130.528 525.966,130.063 525.858,129.658 525.680,129.301 525.471,129.008 525.267,128.852 525.098,128.779 524.905,128.800 524.674,128.858 524.437,128.896 524.205,129.005 524.028,129.139 523.908,129.297 523.802,129.523 523.818,129.718 523.841,129.872 523.990,130.043 524.091,130.272 524.055,130.350 524.079,130.277 524.079,130.277 524.381,130.162 524.381,130.162 524.381,130.162 524.381,130.162 " />
<polyline style="fill:none;stroke:blue;stroke-width:1.304;opacity:1" points="529.964,131.719 529.964,131.719 529.955,131.881 530.288,132.375 530.570,132.684 530.617,132.819 530.597,132.752 530.615,132.647 530.541,132.569 530.457,132.469 530.444,132.383 530.413,132.209 530.278,131.956 530.175,131.572 529.982,131.175 529.800,130.774 529.630,130.356 529.375,129.952 529.354,129.512 529.412,129.128 529.521,128.857 529.625,128.658 529.756,128.504 529.919,128.387 530.026,128.297 530.189,128.249 530.358,128.179 530.601,128.046 530.864,127.924 531.159,127.891 531.484,127.731 531.858,127.502 532.241,127.261 532.559,126.893 532.559,126.893 532.559,126.893 532.559,126.893 " />
<polyline style="fill:none;stroke:blue;stroke-width:1.304;opacity:1" points="544.963,130.901 544.963,130.901 544.738,130.676 544.456,130.097 544.230,129.767 544.079,129.547 543.951,129.415 543.764,129.270 543.569,129.160 543.379,129.045 543.150,128.927 542.779,128.889 542.381,128.843 541.946,128.836 541.482,128.922 541.024,129.095 540.626,129.359 540.302,129.703 539.948,129.987 539.676,130.293 539.473,130.704 539.301,131.084 539.161,131.360 539.114,131.548 539.060,131.626 538.990,131.737 539.030,131.883 539.251,132.074 539.439,132.354 539.565,132.545 539.727,132.676 539.925,132.804 540.133,132.996 540.417,133.190 540.800,133.294 541.153,133.347 541.559,133.259 542.050,133.116 542.522,132.877 543.043,132.655 543.520,132.361 543.849,131.985 544.050,131.631 544.139,131.217 544.142,130.842 544.061,130.455 543.869,129.917 543.649,129.243 543.407,128.589 543.407,128.589 542.987,127.308 542.841,126.730 542.713,126.265 542.644,125.834 542.620,125.520 542.546,125.355 542.468,125.213 542.455,125.149 542.445,125.131 542.467,125.224 542.492,125.350 542.576,125.451 542.633,125.515 542.651,125.603 542.704,125.650 542.734,125.661 542.765,125.711 542.800,125.782 542.702,125.840 542.755,126.034 542.971,126.292 543.134,126.676 543.329,127.150 543.414,127.696 543.525,128.358 543.776,129.026 543.997,129.669 544.201,130.348 544.396,131.103 544.646,131.701 544.985,132.094 545.275,132.360 545.421,132.505 545.656,132.575 545.875,132.599 546.058,132.568 546.215,132.516 546.375,132.501 546.375,132.501 " />
<polyline style="fill:none;stroke:blue;stroke-width:1.304;opacity:1" points="547.452,128.796 547.452,128.796 547.205,129.497 546.938,130.274 547.056,130.553 547.139,130.775 547.310,131.146 547.433,131.597 547.430,131.985 547.605,132.296 547.830,132.597 548.107,132.870 548.333,133.109 548.333,133.109 548.333,133.109 548.333,133.109 " />
<polyline style="fill:none;stroke:blue;stroke-width:1.304;opacity:1" points="548.261,128.571 548.261,128.571 548.544,127.828 548.495,126.830 548.071,126.752 547.897,126.841 547.693,126.880 547.504,126.895 547.440,126.930 547.458,126.947 547.525,127.034 547.547,127.094 547.662,127.152 547.881,127.206 548.093,127.412 548.093,127.412 548.093,127.412 548.093,127.412 " />
<polyline style="fill:none;stroke:blue;stroke-width:1.304;opacity:1" points="549.993,128.236 549.993,128.236 549.795,128.667 549.024,129.159 548.447,129.457 548.364,129.703 548.443,129.805 548.490,129.933 548.597,130.093 548.678,130.260 548.776,130.436 548.986,130.655 549.146,130.905 549.286,131.076 549.444,131.073 549.621,131.050 549.898,131.079 550.158,131.140 550.255,131.267 550.442,131.341 550.702,131.418 551.073,131.589 551.394,131.740 551.582,131.922 551.771,132.168 551.859,132.363 551.958,132.556 552.029,132.748 551.975,132.947 551.919,133.128 551.920,133.303 551.900,133.485 551.756,133.668 551.607,133.858 551.342,134.037 551.015,134.228 550.564,134.419 550.098,134.479 549.622,134.520 549.128,134.559 548.756,134.611 548.567,134.622 548.483,134.590 548.480,134.564 548.564,134.505 548.673,134.426 548.710,134.372 548.708,134.336 548.750,134.264 548.838,134.181 548.838,134.181 549.257,133.728 549.257,133.728 549.257,133.728 " />
<polyline style="fill:none;stroke:blue;stroke-width:1.304;opacity:1" points="554.085,128.143 554.085,128.143 553.866,128.553 553.763,129.034 553.903,129.094 554.065,129.092 554.137,129.160 554.189,129.256 554.311,129.425 554.392,129.803 554.468,130.364 554.584,131.024 554.703,131.679 554.865,132.376 554.989,133.019 555.063,133.494 555.261,133.840 555.519,134.123 555.746,134.336 555.950,134.498 556.091,134.676 556.141,134.769 556.141,134.769 556.080,134.684 555.906,134.540 555.687,134.325 555.422,134.024 555.422,134.024 554.660,133.352 554.298,132.967 553.959,132.634 553.733,132.411 553.641,132.273 553.621,132.156 553.732,132.070 553.745,132.022 553.598,132.013 553.665,131.922 553.788,131.915 554.029,131.943 554.168,131.924 554.109,131.938 554.228,131.938 554.432,131.933 554.678,131.892 554.997,131.843 555.342,131.821 555.647,131.765 555.963,131.670 556.285,131.618 556.716,131.620 557.213,131.634 557.720,131.651 558.322,131.755 558.753,131.878 558.753,131.878 558.753,131.878 558.753,131.878 " />
<polyline style="fill:none;stroke:blue;stroke-width:1.304;opacity:1" points="560.342,130.559 560.342,130.559 560.227,130.752 559.855,130.980 559.325,131.198 559.077,131.404 558.887,131.582 558.836,131.830 558.741,132.117 558.535,132.396 558.442,132.691 558.458,132.997 558.523,133.305 558.678,133.535 558.672,133.736 558.782,133.808 559.043,133.791 559.219,133.712 559.313,133.585 559.393,133.449 559.440,133.271 559.527,133.119 559.572,132.901 559.531,132.681 559.580,132.444 559.650,132.200 559.685,132.008 559.763,131.890 559.935,131.872 560.083,131.856 560.174,131.875 560.327,131.846 560.508,131.871 560.554,131.948 560.676,131.999 560.948,132.085 561.158,132.241 561.452,132.414 561.745,132.673 561.912,133.004 562.083,133.391 562.355,133.653 562.552,133.846 562.731,133.912 562.941,133.908 563.088,133.868 563.088,133.868 563.088,133.868 563.088,133.868 563.088,133.868 " />
<polyline style="fill:none;stroke:blue;stroke-width:1.304;opacity:1" points="563.554,132.160 563.554,132.160 563.766,132.026 563.926,131.818 563.922,131.728 563.899,131.697 563.875,131.669 563.856,131.600 563.892,131.532 563.935,131.417 564.026,131.251 564.081,131.022 564.223,130.835 564.366,130.624 564.591,130.465 564.947,130.371 565.205,130.267 565.324,130.219 565.554,130.146 565.843,130.041 566.258,130.024 566.530,130.006 566.613,130.083 566.717,130.188 566.780,130.350 566.972,130.543 567.163,130.783 567.236,130.987 567.326,131.177 567.511,131.361 567.642,131.562 567.663,131.831 567.765,132.106 567.835,132.348 567.903,132.570 567.971,132.827 567.907,133.140 567.907,133.140 567.907,133.140 567.907,133.140 " />
<polyline style="fill:none;stroke:blue;stroke-width:1.304;opacity:1" points="572.337,130.381 572.337,130.381 571.890,130.147 571.350,129.935 571.204,129.911 571.794,129.898 571.718,129.932 571.038,129.999 570.670,130.024 570.426,130.092 570.301,130.158 570.133,130.342 569.961,130.535 569.747,130.759 569.609,131.029 569.438,131.283 569.347,131.574 569.084,131.804 569.110,132.090 569.403,132.287 569.578,132.501 569.717,132.723 569.910,132.882 570.097,132.956 570.424,133.053 570.659,133.199 570.663,133.324 570.909,133.356 571.235,133.351 571.474,133.366 571.805,133.423 572.257,133.414 572.708,133.403 573.121,133.397 573.392,133.299 573.392,133.299 573.648,133.108 573.648,133.108 573.973,132.849 573.973,132.849 573.973,132.849 573.973,132.849 " />
<polyline style="fill:none;stroke:blue;stroke-width:1.304;opacity:1" points="574.845,131.910 574.845,131.910 575.053,131.616 575.086,130.927 575.500,130.982 575.675,130.972 575.832,130.925 575.775,130.812 575.853,130.770 576.079,130.632 576.218,130.444 576.328,130.321 576.348,130.287 576.385,130.197 576.398,130.080 576.462,129.910 576.494,129.769 576.477,129.648 576.335,129.382 576.207,129.088 576.041,128.857 575.810,128.717 575.579,128.585 575.395,128.495 575.239,128.510 575.067,128.580 574.933,128.832 574.886,129.050 574.861,129.261 574.925,129.530 575.031,129.879 575.075,130.281 575.139,130.751 575.330,131.212 575.479,131.662 575.516,132.052 575.532,132.324 575.624,132.596 575.783,132.849 575.864,133.039 575.973,133.160 576.135,133.151 576.159,133.202 576.381,133.263 576.655,133.263 577.092,133.314 577.692,133.387 578.553,133.477 579.456,133.581 580.392,133.730 581.286,133.834 582.130,133.973 582.130,133.973 582.130,133.973 " />
<rect x="0" y="0" width="595" height="790" fill-opacity="0"/></g></svg>