<svg xmlns="http://www.w3.org/2000/svg" height="790" width="595">
        <script type="application/ecmascript"> <![CDATA[
            var visiblePage = 'p1';
            function goToPage(page) {
                document.getElementById(visiblePage).setAttribute('style', 'display: none');
                document.getElementById(page).setAttribute('style', 'display: inline');
                visiblePage = page;
            }
        ]]> </script>
    <g id="p1" style="display:inline"><polyline style="fill:none;stroke:yellow;stroke-width:13.043;opacity:0.2" points="248.065,693.837 248.065,693.837 248.065,693.668 248.121,693.388 248.117,693.226 248.112,693.118 248.107,693.076 248.152,693.035 248.201,693.033 248.201,692.981 248.237,692.963 248.237,692.923 248.353,692.818 248.510,692.676 248.667,692.573 248.874,692.455 249.269,692.327 249.671,692.192 250.034,692.114 250.358,692.052 250.667,692.037 250.919,692.071 251.390,692.063 252.185,692.077 253.117,692.043 254.183,692.045 255.445,692.046 256.774,692.048 258.090,692.050 259.302,692.008 260.365,692.008 261.397,691.964 262.387,691.963 263.413,692.010 264.420,692.063 265.356,692.116 266.316,692.209 267.312,692.303 268.293,692.438 269.231,692.526 270.039,692.606 270.734,692.679 271.412,692.699 272.034,692.715 272.616,692.733 273.283,692.708 273.966,692.730 274.500,692.720 274.894,692.714 275.228,692.666 275.539,692.615 275.783,692.566 275.982,692.522 276.070,692.480 276.147,692.446 276.209,692.411 276.252,692.373 276.109,692.336 276.160,692.304 276.425,692.276 276.494,692.281 276.417,692.258 276.415,692.261 276.415,692.261 276.573,692.367 276.573,692.367 276.573,692.367 276.573,692.367 " />
<polyline style="fill:none;stroke:yellow;stroke-width:13.043;opacity:0.2" points="53.162,703.255 53.162,703.255 53.001,704.553 52.796,705.790 53.063,705.268 53.112,704.926 53.159,704.684 53.449,704.424 53.834,704.227 54.222,704.120 54.653,704.014 55.044,703.922 55.525,703.942 56.056,704.018 56.553,704.052 57.130,704.063 57.777,704.050 58.394,703.971 58.850,703.974 59.404,703.975 60.171,704.062 60.857,704.120 61.587,704.121 62.411,704.067 63.276,703.955 64.116,703.889 65.049,703.832 66.129,703.785 67.122,703.698 68.122,703.571 69.198,703.441 70.303,703.358 70.987,703.336 71.824,703.326 73.011,703.351 73.835,703.382 74.405,703.363 74.924,703.419 75.481,703.475 76.016,703.479 76.724,703.514 77.443,703.598 78.160,703.685 78.941,703.768 79.839,703.803 80.799,703.829 81.630,703.859 82.386,703.936 83.117,703.974 83.886,704.098 84.673,704.187 85.222,704.279 85.922,704.394 86.996,704.511 87.977,704.595 88.765,704.716 89.637,704.782 90.458,704.851 91.159,704.967 91.850,705.082 92.530,705.156 93.254,705.223 94.080,705.286 94.713,705.313 95.538,705.374 96.694,705.441 97.695,705.431 98.632,705.369 99.582,705.305 100.601,705.196 101.690,705.093 102.872,705.088 104.148,705.060 105.432,704.986 106.571,704.957 107.639,704.887 108.648,704.857 109.494,704.876 110.287,704.853 111.178,704.864 112.024,704.827 112.853,704.783 113.728,704.827 114.492,704.789 115.208,704.653 115.926,704.596 116.711,704.548 117.877,704.416 119.182,704.225 120.402,703.990 121.804,703.772 123.267,703.603 124.663,703.405 126.054,703.220 128.358,703.082 130.216,702.884 130.875,702.572 131.828,702.439 133.032,702.311 134.431,702.177 135.695,702.090 136.720,701.995 137.786,701.947 138.961,701.981 139.962,701.975 140.796,702.003 141.606,702.022 142.459,702.030 143.261,702.076 144.057,702.074 144.788,702.065 145.392,702.101 146.164,702.136 147.228,702.170 148.113,702.264 148.834,702.403 149.744,702.403 150.760,702.385 151.940,702.361 153.060,702.247 153.932,702.133 154.886,702.120 155.942,702.215 156.877,702.335 157.652,702.456 158.276,702.430 158.961,702.465 159.820,702.589 160.765,702.725 161.840,702.854 163.151,702.977 164.329,703.105 165.322,703.226 166.387,703.334 167.589,703.396 168.779,703.502 170.008,703.565 171.245,703.627 172.399,703.602 173.584,703.572 174.752,703.545 175.914,703.527 176.947,703.519 178.063,703.517 179.547,703.560 180.777,703.524 181.609,703.487 182.580,703.447 183.738,703.308 184.998,703.298 186.213,703.306 187.450,703.184 188.772,703.142 190.000,703.107 191.289,703.032 192.597,702.997 194.073,702.965 195.344,702.982 196.241,703.006 197.124,702.981 198.040,702.987 199.123,702.897 200.224,702.795 201.379,702.830 202.589,702.794 203.739,702.660 204.852,702.566 205.910,702.478 206.872,702.351 207.921,702.226 209.180,702.100 210.355,701.975 211.379,701.862 212.188,701.755 212.992,701.651 213.946,701.589 214.860,701.575 215.746,701.517 216.510,701.496 217.295,701.473 218.023,701.398 218.866,701.403 219.797,701.504 220.644,701.525 221.433,701.534 222.053,701.536 222.826,701.529 224.111,701.469 225.345,701.404 226.266,701.446 227.151,701.453 228.039,701.460 228.848,701.419 229.653,701.420 230.362,701.423 231.048,701.472 231.783,701.568 232.409,701.627 232.992,701.719 233.627,701.762 234.228,701.844 234.813,701.969 235.485,702.093 236.283,702.171 237.234,702.190 238.095,702.208 238.809,702.230 239.654,702.252 240.647,702.325 241.714,702.410 242.763,702.407 243.825,702.396 244.758,702.429 245.550,702.519 246.298,702.521 247.020,702.514 247.670,702.550 248.431,702.542 249.577,702.571 250.592,702.615 251.182,702.619 251.719,702.616 252.402,702.609 253.124,702.648 253.836,702.646 254.630,702.596 255.424,702.587 256.208,702.584 257.013,702.675 257.794,702.781 258.478,702.794 259.158,702.837 259.936,702.921 260.758,702.916 261.535,702.995 262.491,703.028 263.356,702.969 263.923,702.952 264.566,702.938 265.255,702.883 266.010,702.781 266.769,702.634 267.501,702.535 268.175,702.497 268.753,702.380 269.268,702.354 269.780,702.291 270.070,702.219 270.452,702.198 271.069,702.176 271.475,702.194 271.683,702.170 271.924,702.181 272.281,702.189 272.839,702.191 273.337,702.192 273.592,702.195 273.984,702.151 274.467,702.141 275.018,702.089 275.550,702.039 275.992,702.038 276.591,702.000 277.410,702.001 278.293,702.008 279.219,702.018 280.092,701.982 281.083,701.940 282.136,701.848 283.106,701.752 284.007,701.707 284.842,701.673 285.582,701.688 286.217,701.571 286.837,701.531 287.365,701.542 287.762,701.513 288.140,701.480 288.483,701.394 288.684,701.347 288.728,701.401 288.690,701.374 288.628,701.340 288.600,701.340 288.608,701.386 288.687,701.393 288.749,701.396 288.669,701.398 288.663,701.458 288.669,701.471 288.617,701.510 288.553,701.628 288.389,701.795 288.106,702.033 287.633,702.409 287.633,702.409 " />
<polyline style="fill:none;stroke:yellow;stroke-width:13.043;opacity:0.2" points="310.376,59.374 310.376,59.374 310.447,59.403 310.477,59.252 310.697,59.241 311.011,59.231 311.484,59.234 312.193,59.161 313.174,59.154 314.256,59.156 315.370,59.118 316.428,59.125 317.345,59.090 318.138,59.007 318.926,58.962 319.689,58.919 320.410,58.831 321.128,58.742 322.071,58.742 323.071,58.801 323.952,58.919 324.848,59.034 325.773,59.143 326.705,59.333 327.706,59.517 328.812,59.645 329.974,59.850 331.257,60.051 332.639,60.203 333.985,60.300 335.274,60.482 336.447,60.723 337.499,60.926 338.590,61.072 339.883,61.111 341.016,61.149 341.943,61.241 342.853,61.249 343.853,61.213 344.981,61.220 346.156,61.200 347.416,61.141 348.736,61.086 349.983,60.992 351.214,60.904 352.436,60.776 353.575,60.648 354.830,60.482 356.179,60.220 357.436,60.044 358.506,59.889 359.479,59.749 360.414,59.658 361.362,59.524 362.254,59.334 363.148,59.273 364.098,59.179 365.130,59.076 366.152,59.012 367.161,58.903 368.202,58.697 369.298,58.521 370.481,58.396 371.476,58.281 372.582,58.133 373.980,58.023 375.165,57.909 376.003,57.855 376.837,57.896 377.788,57.939 378.794,58.020 379.769,58.093 380.701,58.107 381.667,58.149 382.580,58.140 383.472,58.123 384.401,58.103 385.316,58.179 386.184,58.131 387.113,57.937 388.079,57.818 389.011,57.713 389.832,57.718 390.742,57.700 391.741,57.631 392.690,57.603 393.794,57.666 395.081,57.690 396.457,57.662 397.649,57.671 398.744,57.632 399.685,57.495 400.508,57.254 401.423,57.054 402.406,56.906 403.338,56.826 404.363,56.900 405.450,56.771 406.556,56.384 407.622,56.242 408.693,56.223 409.799,56.230 410.884,56.189 411.948,56.179 413.000,56.210 413.974,56.145 414.918,56.109 415.783,56.068 416.874,56.067 417.864,55.977 418.524,55.881 419.373,55.793 420.246,55.698 421.128,55.562 421.902,55.524 422.668,55.408 423.399,55.334 424.051,55.311 424.762,55.248 425.594,55.177 426.518,55.053 427.250,55.113 427.933,55.277 428.622,55.274 429.289,55.330 429.907,55.335 430.594,55.281 431.433,55.440 432.259,55.538 433.047,55.490 433.888,55.510 434.764,55.495 435.670,55.432 436.608,55.460 437.589,55.594 438.455,55.608 439.220,55.565 439.916,55.557 440.652,55.549 441.333,55.590 441.966,55.546 442.794,55.404 443.679,55.338 444.447,55.239 445.144,55.062 445.762,54.971 446.281,54.943 446.891,54.885 447.605,54.819 448.321,54.747 449.097,54.677 449.934,54.740 450.909,54.768 451.987,54.790 453.194,54.895 454.452,54.910 455.565,54.913 456.623,54.998 457.660,55.178 458.742,55.139 459.785,54.978 460.735,54.940 461.655,54.826 462.503,54.809 463.267,54.767 463.979,54.546 464.708,54.493 465.467,54.415 466.127,54.342 466.843,54.231 467.761,54.247 468.563,54.235 469.125,54.123 469.644,54.097 470.276,54.112 471.123,54.087 471.797,54.050 472.180,54.110 472.788,54.081 473.619,53.985 474.640,53.925 475.709,53.871 476.721,54.013 477.727,53.996 478.749,53.821 479.686,53.762 480.489,53.809 481.242,53.825 481.963,53.795 482.653,53.801 483.267,53.808 483.753,53.907 484.265,53.961 484.863,53.962 485.515,53.997 486.181,54.126 486.857,54.171 487.489,54.207 488.143,54.193 488.847,54.126 489.562,54.056 489.619,53.954 490.081,53.884 491.533,53.872 492.723,53.939 493.607,54.060 494.558,54.132 495.337,54.203 495.792,54.263 496.332,54.302 496.981,54.334 497.764,54.313 498.698,54.241 499.573,54.119 500.517,54.139 501.640,54.095 502.741,54.049 503.742,54.058 504.646,54.029 505.442,53.952 506.081,54.008 506.765,53.983 507.458,53.898 508.018,53.802 508.534,53.710 509.031,53.665 509.516,53.629 510.047,53.641 510.697,53.658 511.475,53.720 512.247,53.693 513.027,53.698 513.554,53.753 514.304,53.625 515.467,53.424 516.496,53.346 517.409,53.253 518.303,53.220 519.024,53.198 519.456,53.180 519.966,53.120 520.491,53.087 521.004,53.053 521.552,52.973 522.428,53.016 523.153,53.032 523.501,52.999 523.939,53.007 524.450,53.104 524.916,53.117 525.332,53.073 525.831,53.282 526.357,53.345 526.782,53.156 527.251,53.162 527.720,53.149 528.372,53.097 529.005,53.183 529.538,53.338 530.251,53.397 531.041,53.538 531.840,53.683 532.637,53.817 533.788,53.888 534.651,54.016 534.933,54.256 535.471,54.347 536.231,54.441 537.161,54.536 538.015,54.636 538.748,54.839 539.484,55.045 540.037,55.173 540.605,55.230 541.158,55.278 541.976,55.235 542.522,55.240 542.516,55.438 542.763,55.493 543.003,55.570 543.312,55.694 543.598,55.821 543.685,55.968 543.821,55.991 544.102,56.039 544.293,56.170 544.315,56.259 544.377,56.343 544.140,56.534 544.140,56.534 " />
<polyline style="fill:none;stroke:yellow;stroke-width:13.043;opacity:0.2" points="310.025,69.885 310.025,69.885 310.868,69.329 312.199,68.695 312.653,68.840 312.509,69.093 312.350,69.178 312.305,69.184 312.324,69.299 312.611,69.355 312.859,69.298 312.966,69.275 313.219,69.408 313.722,69.450 314.279,69.439 314.921,69.460 315.729,69.486 316.635,69.524 317.639,69.518 318.746,69.510 319.926,69.458 321.039,69.404 322.363,69.398 323.865,69.355 325.152,69.314 326.291,69.279 327.427,69.199 328.554,69.158 329.830,69.120 331.170,69.129 332.567,69.189 334.007,69.163 335.376,69.216 336.543,69.322 337.718,69.378 339.006,69.332 340.149,69.361 341.182,69.350 342.075,69.292 343.000,69.276 344.085,69.263 345.170,69.352 346.206,69.361 347.459,69.272 348.810,69.259 350.005,69.257 351.175,69.262 352.391,69.268 353.629,69.275 354.888,69.371 356.071,69.524 357.261,69.629 358.374,69.817 359.356,69.911 360.452,69.934 361.579,70.036 362.688,70.102 363.769,70.163 364.820,70.181 365.785,70.198 366.724,70.220 367.711,70.246 368.732,70.234 369.723,70.222 370.660,70.214 371.706,70.118 372.841,69.969 373.959,69.772 375.004,69.675 375.932,69.784 376.872,69.743 377.988,69.500 379.102,69.404 380.025,69.420 381.061,69.320 382.178,69.244 383.163,69.215 384.024,69.194 384.945,69.171 385.720,69.142 386.438,69.155 387.118,69.077 387.864,68.986 388.963,68.976 389.922,68.936 390.701,68.851 391.681,68.724 392.747,68.628 393.842,68.589 394.865,68.470 395.703,68.393 396.424,68.324 397.087,68.211 397.602,68.135 398.041,68.066 398.375,68.042 398.757,67.975 399.234,67.944 399.736,67.865 400.283,67.874 400.852,67.891 401.467,67.907 402.167,67.919 402.767,67.976 403.264,68.033 403.880,68.036 404.598,68.028 405.413,68.060 406.234,68.053 406.957,68.045 407.746,68.036 408.604,68.029 409.399,68.026 410.182,67.980 410.884,68.070 411.570,67.990 412.167,67.755 412.638,67.641 413.072,67.547 413.643,67.468 414.056,67.388 414.207,67.316 414.486,67.305 414.964,67.291 415.560,67.222 416.205,67.192 416.816,67.206 417.515,67.180 418.433,67.053 419.449,67.000 420.401,67.004 421.039,66.927 421.631,66.851 422.514,66.854 423.288,66.869 423.854,66.889 424.423,66.903 425.019,66.912 425.750,67.003 426.416,67.011 426.936,66.914 427.401,66.898 427.924,66.888 428.564,66.837 429.205,66.784 429.716,66.641 430.294,66.548 431.032,66.594 431.790,66.575 432.595,66.504 433.685,66.423 434.630,66.383 435.256,66.354 436.024,66.285 436.865,66.201 437.638,66.208 438.351,66.183 438.868,66.151 439.408,66.206 440.071,66.221 440.727,66.183 441.324,66.182 441.826,66.229 442.392,66.322 443.242,66.238 443.915,66.271 444.270,66.464 444.688,66.556 445.144,66.557 445.662,66.539 446.154,66.557 446.520,66.637 446.884,66.717 447.193,66.759 447.457,66.795 447.713,66.827 447.833,66.765 447.948,66.747 448.129,66.820 448.206,66.824 448.146,66.825 447.960,66.824 447.818,66.821 447.929,66.853 447.995,66.894 448.086,67.099 448.156,67.393 448.217,67.724 448.272,68.099 448.273,68.509 448.273,68.509 " />
<polyline style="fill:none;stroke:yellow;stroke-width:13.043;opacity:0.2" points="386.465,78.399 386.465,78.399 386.390,77.869 386.391,77.217 386.393,77.131 386.337,77.205 386.414,77.313 386.498,77.349 386.540,77.409 386.625,77.411 386.690,77.368 386.694,77.362 386.723,77.307 386.743,77.324 386.693,77.358 386.757,77.357 386.821,77.385 386.941,77.388 387.133,77.425 387.318,77.519 387.501,77.665 387.751,77.803 388.103,77.894 388.552,77.969 389.051,78.039 389.575,78.109 390.159,78.223 390.789,78.298 391.404,78.417 392.074,78.536 392.709,78.660 393.437,78.777 394.231,78.799 395.075,78.768 395.910,78.687 396.608,78.607 397.203,78.585 397.815,78.534 398.537,78.442 399.306,78.349 400.083,78.309 400.893,78.236 401.716,78.207 402.496,78.230 403.210,78.304 403.945,78.289 404.655,78.301 405.397,78.352 406.111,78.449 406.661,78.504 407.268,78.588 408.091,78.668 408.763,78.757 409.302,78.835 409.803,78.906 410.415,78.930 411.070,78.904 411.735,78.875 412.515,78.804 413.416,78.689 414.421,78.625 415.427,78.530 416.440,78.446 417.433,78.369 418.402,78.298 419.425,78.231 420.385,78.163 421.189,78.095 421.974,78.028 422.587,77.956 422.996,77.882 423.441,77.811 423.885,77.823 424.479,77.798 425.178,77.809 425.929,77.821 426.635,77.832 427.355,77.839 428.197,77.842 429.112,77.841 430.022,77.886 430.857,77.935 431.774,77.891 432.594,77.928 433.287,77.974 434.047,77.972 434.903,78.009 435.677,78.053 436.361,78.050 436.988,77.951 437.583,77.886 438.098,77.828 438.600,77.778 439.082,77.689 439.338,77.594 439.764,77.562 440.497,77.533 441.192,77.503 441.811,77.478 442.633,77.493 443.547,77.510 444.167,77.480 444.709,77.536 445.296,77.639 446.008,77.651 446.704,77.649 447.346,77.733 447.970,77.728 448.554,77.760 449.134,77.749 449.720,77.689 450.234,77.672 450.768,77.617 451.240,77.564 451.821,77.516 452.686,77.514 453.616,77.523 454.475,77.493 455.309,77.504 456.097,77.564 456.775,77.582 457.402,77.591 458.028,77.592 458.628,77.635 459.226,77.633 459.518,77.578 459.872,77.568 460.579,77.556 461.253,77.501 461.816,77.499 462.209,77.459 462.616,77.418 463.278,77.375 463.848,77.379 464.267,77.344 464.779,77.309 465.411,77.313 465.992,77.323 466.601,77.333 467.427,77.383 468.293,77.391 469.046,77.395 469.684,77.442 470.292,77.535 470.582,77.493 471.036,77.522 471.842,77.599 472.481,77.651 473.027,77.645 473.715,77.671 474.341,77.663 474.665,77.655 475.035,77.647 475.443,77.639 475.921,77.633 476.451,77.629 477.051,77.674 477.709,77.679 478.294,77.588 478.916,77.536 479.507,77.579 480.000,77.684 480.570,77.614 481.464,77.517 482.113,77.505 482.332,77.563 482.598,77.572 482.977,77.620 483.458,77.671 483.875,77.721 484.239,77.766 484.631,77.849 485.014,77.939 485.391,78.069 485.771,78.155 485.914,78.199 486.210,78.294 486.797,78.405 487.168,78.561 487.412,78.631 487.658,78.643 487.948,78.654 488.246,78.668 488.543,78.690 488.799,78.766 489.011,78.807 489.289,78.799 489.562,78.832 489.916,78.870 490.282,79.003 490.742,79.054 491.291,79.091 491.899,79.173 492.584,79.210 492.976,79.354 493.534,79.430 494.520,79.451 495.463,79.526 496.257,79.604 496.879,79.684 497.589,79.760 498.455,79.835 499.295,79.914 500.095,79.898 500.874,79.917 501.617,79.991 502.506,80.113 503.258,80.161 503.704,80.204 504.282,80.274 504.940,80.262 505.392,80.245 506.105,80.223 507.164,80.156 508.100,80.091 508.822,80.042 509.383,80.003 509.882,79.923 510.530,79.885 510.974,79.851 511.096,79.821 511.323,79.841 511.682,79.814 512.065,79.823 512.521,79.742 513.102,79.737 513.643,79.741 514.220,79.703 514.757,79.752 515.238,79.764 515.797,79.726 516.271,79.772 516.784,79.821 517.145,79.874 517.345,79.878 517.574,79.913 517.824,79.953 518.536,79.983 518.975,80.032 518.770,80.091 518.940,80.074 519.185,80.083 519.576,80.105 520.036,80.103 520.476,80.144 520.944,80.190 521.408,80.192 521.855,80.189 522.245,80.138 522.725,80.128 523.201,80.078 523.504,80.078 523.768,80.127 524.016,80.048 524.314,80.090 524.637,80.189 525.100,80.246 525.527,80.299 525.816,80.300 526.201,80.289 526.601,80.367 527.046,80.407 527.481,80.400 527.874,80.433 528.328,80.379 528.959,80.404 529.573,80.400 530.143,80.351 530.597,80.302 531.020,80.254 531.552,80.254 532.059,80.216 532.502,80.177 532.839,80.186 533.040,80.200 532.929,80.216 532.940,80.225 533.262,80.224 533.412,80.224 533.409,80.171 533.494,80.200 533.716,80.206 533.795,80.212 533.920,80.252 534.099,80.215 534.284,80.259 534.460,80.261 534.703,80.260 534.926,80.258 535.050,80.308 535.289,80.348 535.582,80.396 535.846,80.445 536.074,80.533 535.975,80.680 536.187,80.717 536.617,80.699 536.917,80.674 537.203,80.648 537.455,80.716 537.813,80.758 538.262,80.801 538.699,80.847 539.107,80.891 539.449,80.981 539.691,81.077 539.904,81.029 539.997,81.009 539.977,81.082 539.998,81.158 540.061,81.157 540.195,81.145 540.330,81.179 540.462,81.218 540.499,81.261 540.521,81.298 540.547,81.297 540.577,81.290 540.565,81.326 540.554,81.295 540.450,81.202 540.316,81.106 540.218,81.080 540.159,81.029 540.075,81.080 539.795,81.195 539.619,81.388 539.650,81.608 539.650,81.608 539.650,81.608 " />
<polyline style="fill:none;stroke:yellow;stroke-width:13.043;opacity:0.2" points="308.148,92.701 308.148,92.701 308.037,92.704 307.983,92.634 307.966,92.645 307.936,92.610 307.933,92.611 307.888,92.646 307.859,92.662 307.846,92.670 307.798,92.674 307.817,92.696 307.812,92.708 307.859,92.713 307.930,92.777 307.998,92.793 308.093,92.753 308.206,92.792 308.338,92.882 308.464,92.931 308.623,92.929 308.876,92.958 309.315,93.036 309.995,93.167 310.762,93.311 311.545,93.450 312.323,93.535 313.107,93.653 313.904,93.773 314.725,93.842 315.491,93.905 316.346,93.918 317.352,93.839 318.323,93.754 319.524,93.722 321.041,93.660 322.762,93.560 324.589,93.514 326.268,93.343 327.795,93.219 329.477,93.193 331.105,93.040 332.479,92.879 333.900,92.767 335.352,92.655 336.791,92.497 338.137,92.478 339.273,92.564 340.440,92.569 341.706,92.504 342.880,92.466 344.009,92.471 345.183,92.477 346.365,92.481 347.504,92.483 348.668,92.483 349.814,92.436 350.954,92.246 352.008,92.135 353.035,92.084 354.141,92.005 355.331,91.879 356.465,91.799 357.560,91.775 358.605,91.805 359.484,91.748 360.427,91.679 361.341,91.782 362.144,91.807 363.018,91.775 363.879,91.774 364.742,91.816 365.640,91.861 366.569,91.814 367.504,91.710 368.512,91.646 369.583,91.636 370.742,91.501 371.790,91.359 372.934,91.315 374.148,91.288 375.179,91.315 376.028,91.304 377.032,91.237 378.057,91.152 378.829,91.351 379.588,91.422 380.432,91.300 381.220,91.282 382.018,91.224 382.754,91.073 383.447,91.011 384.328,91.051 385.219,91.025 386.053,91.039 386.687,91.059 387.426,90.984 388.542,90.891 389.601,90.836 390.486,90.699 391.403,90.613 392.370,90.483 393.377,90.354 394.338,90.230 395.238,90.113 396.114,90.048 396.912,90.037 397.610,90.030 398.328,90.019 398.805,89.996 399.328,89.969 400.107,89.930 400.819,89.980 401.466,90.034 401.851,90.093 402.293,90.184 402.946,90.185 403.578,90.173 404.242,90.246 404.956,90.328 405.733,90.368 406.545,90.450 407.438,90.441 408.259,90.378 409.067,90.357 409.862,90.344 410.613,90.338 411.379,90.337 412.317,90.383 413.125,90.345 413.658,90.254 414.094,90.209 414.596,90.209 415.235,90.170 415.849,90.174 416.413,90.138 417.002,90.144 417.620,90.152 418.287,90.160 418.884,90.167 419.369,90.173 419.894,90.175 420.532,90.264 421.179,90.271 421.883,90.222 422.643,90.209 423.457,90.200 424.504,90.192 425.420,90.191 426.042,90.198 426.776,90.159 427.526,90.110 428.354,90.107 429.148,90.064 429.981,89.974 430.782,89.927 431.454,89.933 432.036,89.904 432.569,89.870 433.273,89.832 433.936,89.838 434.450,89.992 434.996,90.102 435.589,90.162 436.167,90.207 436.772,90.195 437.390,90.264 437.977,90.296 438.621,90.280 439.329,90.304 440.177,90.290 441.011,90.323 441.815,90.366 442.668,90.366 443.458,90.410 444.126,90.505 444.509,90.514 444.845,90.597 445.380,90.680 445.910,90.724 446.421,90.757 447.013,90.783 447.540,90.814 448.065,90.935 448.560,91.024 449.013,91.019 449.443,91.044 449.962,91.027 450.475,91.009 451.016,90.994 451.151,91.105 451.643,91.097 452.615,91.038 453.368,91.127 453.964,91.220 454.577,91.269 455.164,91.363 455.632,91.458 456.095,91.541 456.660,91.664 457.319,91.744 458.039,91.767 458.686,91.785 459.376,91.848 460.123,91.875 460.883,91.950 461.589,91.987 462.146,91.978 462.687,92.053 463.208,92.140 463.857,92.136 464.794,92.119 465.676,92.103 466.487,92.091 467.169,92.132 467.824,92.134 468.469,92.044 469.003,92.036 469.498,92.037 469.961,91.951 470.399,91.949 470.387,91.824 470.744,91.841 471.816,91.896 472.678,91.876 473.435,91.891 474.229,91.903 475.035,91.912 475.823,91.918 476.552,91.920 477.134,91.922 477.816,91.964 478.522,91.965 479.276,92.053 479.955,92.149 480.498,92.200 481.073,92.236 481.653,92.269 482.286,92.252 482.894,92.186 483.498,92.164 483.942,92.153 484.292,92.150 484.751,92.150 485.364,92.152 485.987,92.156 486.508,92.210 487.027,92.264 487.559,92.317 488.098,92.367 488.672,92.365 489.296,92.398 489.772,92.488 490.386,92.481 491.299,92.375 492.162,92.251 492.857,92.138 493.467,92.042 493.996,92.001 494.418,91.928 494.894,91.814 495.465,91.735 495.998,91.708 496.467,91.734 496.924,91.810 497.444,91.750 498.072,91.621 498.656,91.567 499.243,91.475 499.782,91.432 500.311,91.397 500.750,91.365 501.323,91.290 501.995,91.159 502.778,91.113 503.566,91.082 504.299,91.009 505.112,90.978 506.114,90.904 507.125,90.821 507.973,90.788 508.695,90.716 509.388,90.686 510.529,90.654 511.283,90.618 511.268,90.500 511.490,90.494 511.967,90.424 512.477,90.384 513.023,90.352 513.828,90.312 514.449,90.271 514.797,90.236 515.201,90.250 515.725,90.220 516.606,90.223 517.309,90.232 517.665,90.194 518.069,90.242 518.610,90.251 519.241,90.254 519.832,90.300 520.291,90.161 520.818,90.187 521.423,90.414 522.036,90.440 522.609,90.490 523.056,90.581 523.588,90.617 524.236,90.601 524.733,90.628 525.067,90.612 525.435,90.595 525.941,90.578 526.618,90.611 527.301,90.657 527.959,90.754 528.676,90.807 529.371,90.855 529.997,90.900 530.587,90.893 531.169,90.879 531.634,90.818 531.977,90.709 532.298,90.604 532.648,90.547 532.987,90.457 533.332,90.419 533.616,90.437 533.850,90.419 534.040,90.350 534.197,90.361 534.355,90.332 534.442,90.342 534.678,90.310 535.221,90.306 535.750,90.308 536.334,90.220 536.868,90.170 537.415,90.170 538.092,90.135 538.689,90.141 539.183,90.154 539.625,90.166 540.032,90.176 540.315,90.087 540.721,90.079 541.166,90.078 541.628,90.033 542.121,90.032 542.523,90.037 542.918,90.134 542.586,90.254 542.861,90.305 543.820,90.293 544.413,90.382 544.768,90.460 544.731,90.533 544.794,90.572 545.090,90.637 545.266,90.744 545.423,90.820 545.612,90.843 545.812,90.866 546.007,90.889 546.237,90.959 546.528,91.040 546.796,91.035 547.035,91.066 547.306,91.100 547.511,91.045 547.399,91.131 547.474,91.213 547.748,91.175 547.884,91.164 547.844,91.032 547.872,90.948 547.677,90.889 547.326,90.928 547.135,90.943 546.956,91.007 546.738,91.146 546.401,91.308 545.810,91.457 545.810,91.457 544.074,91.873 544.074,91.873 " />
<polyline style="fill:none;stroke:yellow;stroke-width:13.043;opacity:0.2" points="303.909,104.545 303.909,104.545 303.925,103.955 303.918,103.545 303.907,103.975 304.001,103.901 303.982,103.803 303.895,104.011 304.042,103.945 304.168,104.044 304.150,104.160 304.183,104.069 304.223,104.035 304.401,104.094 304.652,104.079 304.997,104.062 305.461,104.137 305.986,104.185 306.722,104.183 307.668,104.218 308.683,104.169 309.683,104.068 310.749,104.056 311.889,104.056 313.057,103.926 314.354,103.833 315.596,103.696 316.621,103.470 317.551,103.341 318.357,103.224 319.105,103.117 319.820,103.014 320.526,102.955 321.055,102.851 321.469,102.745 321.888,102.726 322.319,102.754 322.735,102.831 322.735,102.831 322.735,102.831 " />
<polyline style="fill:none;stroke:yellow;stroke-width:13.043;opacity:0.2" points="319.439,117.566 319.439,117.566 318.959,117.592 318.718,117.549 318.651,117.554 318.590,117.610 318.676,117.610 318.729,117.608 318.691,117.607 318.704,117.603 318.701,117.599 318.713,117.575 318.668,117.562 318.672,117.555 318.629,117.554 318.633,117.554 318.700,117.556 318.758,117.600 318.900,117.607 319.013,117.609 319.032,117.609 319.169,117.606 319.469,117.643 319.900,117.736 320.420,117.787 321.013,117.877 321.684,118.014 322.429,118.106 323.239,118.141 323.997,118.166 324.622,118.147 325.300,118.122 326.169,118.052 326.983,117.935 327.659,117.779 328.439,117.636 329.367,117.542 330.296,117.418 331.311,117.350 332.353,117.291 333.389,117.140 334.399,116.936 335.315,116.815 336.186,116.707 336.928,116.650 337.639,116.645 338.400,116.640 339.168,116.670 339.820,116.792 340.564,116.861 341.325,116.963 342.062,117.012 342.895,117.087 343.817,117.162 344.837,117.233 346.025,117.211 347.249,117.180 348.482,117.061 349.559,116.941 350.481,116.834 351.303,116.741 352.077,116.658 352.894,116.583 353.711,116.512 354.385,116.443 354.937,116.425 355.523,116.409 356.165,116.432 356.922,116.453 357.644,116.469 358.266,116.527 358.848,116.627 359.518,116.678 360.345,116.763 361.219,116.849 361.962,116.886 362.791,116.910 363.741,116.977 364.688,117.009 365.590,116.947 366.425,116.832 367.278,116.761 368.137,116.611 368.998,116.463 369.936,116.372 370.945,116.158 371.932,115.938 372.734,115.772 373.463,115.672 374.230,115.586 374.998,115.448 375.728,115.349 376.530,115.206 377.416,115.144 378.410,115.088 379.184,115.075 379.701,115.157 380.301,115.192 381.069,115.210 381.864,115.217 382.561,115.169 383.221,115.112 384.005,115.007 384.883,114.897 385.817,114.747 386.825,114.650 387.804,114.473 388.788,114.348 389.837,114.235 390.823,114.125 391.763,114.023 392.802,113.876 393.769,113.811 394.732,113.756 395.692,113.700 396.509,113.730 397.348,113.720 398.222,113.695 399.089,113.659 399.903,113.617 400.749,113.618 401.660,113.621 402.555,113.718 403.355,113.824 404.122,113.834 404.930,113.827 405.804,113.902 406.696,114.078 407.631,114.126 408.651,114.112 409.774,114.127 410.956,114.014 412.086,113.893 413.170,113.872 414.268,113.826 415.290,113.787 416.315,113.753 417.308,113.677 418.378,113.687 419.598,113.749 420.795,113.772 421.715,113.839 422.409,113.855 423.142,113.901 423.985,113.898 424.724,113.887 425.416,113.965 426.245,113.958 427.112,113.946 427.978,113.979 428.876,113.973 429.865,114.011 430.837,114.056 431.740,114.105 432.402,114.204 433.108,114.206 433.896,114.238 434.735,114.273 435.694,114.170 436.538,114.100 437.365,114.038 438.224,113.985 439.073,113.940 439.823,113.856 440.536,113.820 441.294,113.835 442.002,113.857 442.691,113.879 442.819,113.963 443.329,113.969 444.611,113.955 445.523,114.001 446.136,114.044 446.723,114.082 447.400,114.169 448.037,114.260 448.772,114.299 449.674,114.327 450.710,114.308 451.757,114.331 452.854,114.363 453.948,114.356 454.977,114.302 455.840,114.201 456.599,114.146 457.340,114.054 458.062,114.009 458.831,113.974 459.477,113.990 459.851,114.015 460.229,114.079 460.678,114.098 461.266,114.194 461.905,114.293 462.565,114.295 463.255,114.324 463.996,114.354 464.698,114.387 465.445,114.419 466.002,114.363 466.794,114.385 468.083,114.417 469.263,114.367 470.208,114.366 471.040,114.325 471.871,114.326 472.697,114.330 473.404,114.338 474.035,114.391 474.746,114.399 475.438,114.447 476.212,114.446 476.901,114.441 477.486,114.481 478.118,114.476 478.758,114.469 479.201,114.513 479.691,114.510 480.551,114.456 481.366,114.491 482.024,114.492 482.717,114.448 483.462,114.489 484.173,114.494 484.804,114.544 485.377,114.552 486.017,114.596 486.696,114.596 487.387,114.636 488.034,114.679 489.185,114.799 490.129,114.856 490.410,114.860 490.886,114.924 491.573,114.872 492.184,114.852 492.695,114.927 493.338,114.923 493.852,114.870 494.265,114.862 494.854,114.770 495.504,114.664 496.434,114.653 497.122,114.617 497.367,114.532 497.763,114.551 498.307,114.485 498.984,114.401 499.666,114.364 500.276,114.282 500.882,114.203 501.413,114.214 501.960,114.191 502.510,114.207 502.995,114.224 503.409,114.285 503.772,114.344 504.060,114.352 504.374,114.391 504.724,114.430 505.098,114.513 505.562,114.596 506.022,114.682 506.433,114.720 506.888,114.835 507.416,114.917 507.877,114.904 508.286,114.923 508.646,114.904 508.993,114.929 509.416,115.050 509.886,115.100 510.360,115.097 510.946,115.126 511.457,115.167 511.879,115.115 512.377,115.143 512.970,115.139 513.660,115.179 514.441,115.225 514.842,115.233 515.749,115.309 517.399,115.393 518.687,115.506 519.607,115.650 520.348,115.696 520.941,115.730 521.425,115.800 521.913,115.824 522.328,115.846 522.784,115.911 523.258,115.939 523.888,115.920 524.462,115.946 524.892,116.032 525.307,116.119 525.787,116.210 526.302,116.255 526.856,116.289 527.020,116.282 527.472,116.301 528.513,116.411 529.340,116.468 529.990,116.511 530.727,116.502 531.508,116.487 532.174,116.473 532.896,116.462 533.775,116.452 534.588,116.402 535.302,116.354 535.737,116.405 536.259,116.374 536.848,116.286 537.209,116.181 537.471,116.138 537.743,116.147 538.034,116.117 538.418,116.084 538.816,116.046 539.061,116.056 539.282,116.070 539.483,116.082 539.655,116.091 539.816,116.050 539.989,115.956 540.133,115.993 540.310,116.041 540.540,116.050 540.795,116.054 540.840,116.124 540.985,116.199 541.491,116.322 541.944,116.434 542.191,116.537 542.294,116.566 542.423,116.584 542.656,116.599 542.769,116.631 542.744,116.661 542.781,116.640 542.822,116.664 543.008,116.740 543.167,116.741 543.177,116.739 543.254,116.732 543.377,116.770 543.439,116.771 543.414,116.771 543.255,116.727 543.135,116.734 543.229,116.722 543.135,116.606 543.063,116.567 543.017,116.521 542.833,116.589 542.494,116.750 542.126,116.884 541.631,116.942 540.896,116.934 539.928,116.960 538.744,117.076 538.744,117.076 538.744,117.076 " />
<polyline style="fill:none;stroke:yellow;stroke-width:13.043;opacity:0.2" points="307.462,130.009 307.462,130.009 307.655,130.138 307.823,130.053 307.802,129.914 307.939,129.869 308.237,129.883 308.427,129.850 308.610,129.820 308.889,129.783 309.118,129.790 309.382,129.802 309.658,129.813 310.021,129.822 310.321,129.780 310.505,129.782 310.763,129.783 311.069,129.783 311.468,129.782 311.967,129.736 312.493,129.637 313.241,129.582 314.210,129.533 315.256,129.493 316.296,129.459 317.371,129.428 318.426,129.443 319.480,129.463 320.590,129.435 321.789,129.442 323.079,129.493 324.341,129.501 325.527,129.458 326.717,129.406 327.916,129.396 329.157,129.348 330.489,129.251 331.972,129.060 333.375,128.863 334.556,128.723 335.767,128.561 336.988,128.353 338.179,128.146 339.270,127.994 340.142,127.899 340.998,127.818 341.936,127.731 342.781,127.631 343.591,127.623 344.493,127.658 345.342,127.740 346.043,127.865 346.739,127.978 347.467,128.168 348.060,128.410 348.611,128.541 349.205,128.600 349.962,128.684 350.818,128.821 351.613,128.879 352.437,128.881 353.308,128.928 354.115,128.902 354.828,128.877 355.627,128.812 356.632,128.836 357.662,128.884 358.540,128.943 359.300,129.095 360.162,129.247 361.037,129.399 361.864,129.633 362.756,129.764 363.642,129.741 364.596,129.778 365.412,129.831 366.252,129.887 367.184,129.995 368.131,130.073 369.055,130.149 370.086,130.177 371.121,130.250 372.095,130.377 372.993,130.464 373.913,130.454 374.927,130.429 375.977,130.447 377.064,130.477 378.233,130.467 379.386,130.412 380.471,130.403 381.520,130.356 382.522,130.310 383.430,130.267 384.508,130.316 385.594,130.193 386.512,130.006 387.393,129.912 388.295,129.875 389.263,129.853 390.091,129.925 390.712,130.054 391.356,130.219 392.020,130.428 392.758,130.535 393.477,130.614 393.996,130.780 394.737,130.835 395.742,130.792 396.556,130.838 397.316,130.893 398.141,130.914 398.934,130.989 399.767,130.978 400.528,131.056 401.144,131.196 401.832,131.243 402.487,131.374 403.107,131.463 403.749,131.493 404.498,131.605 405.298,131.682 406.018,131.710 406.612,131.780 407.254,131.851 408.008,131.970 408.729,132.008 409.414,131.899 410.084,131.907 410.761,131.938 411.635,131.974 412.382,132.023 412.861,132.029 413.471,132.027 414.230,132.020 415.042,132.013 415.870,132.008 416.705,132.006 417.693,132.004 418.882,132.002 419.998,132.004 420.871,132.011 421.436,132.021 422.122,131.981 423.100,131.883 423.957,131.823 424.600,131.822 425.219,131.788 425.807,131.796 426.320,131.808 426.736,131.774 427.110,131.780 427.422,131.739 427.777,131.694 428.052,131.692 428.235,131.696 428.089,131.796 428.184,131.776 428.659,131.642 428.965,131.615 429.111,131.607 429.318,131.571 429.461,131.516 429.286,131.537 429.266,131.464 429.289,131.396 429.385,131.321 429.461,131.245 429.558,131.243 429.693,131.172 429.878,131.089 430.117,131.092 430.348,131.244 430.348,131.244 430.348,131.244 " />
<polyline style="fill:none;stroke:yellow;stroke-width:13.043;opacity:0.2" points="322.605,361.730 322.605,361.730 322.865,361.739 323.445,361.964 323.831,362.139 324.112,362.200 324.321,362.254 324.599,362.364 324.945,362.334 325.252,362.344 325.544,362.363 325.832,362.389 326.122,362.422 326.457,362.459 326.767,362.548 327.151,362.593 327.595,362.632 328.056,362.718 328.629,362.758 329.264,362.839 329.823,362.928 330.405,363.010 331.028,363.135 331.748,363.217 332.516,363.291 333.326,363.272 334.125,363.284 334.944,363.353 335.762,363.341 336.645,363.325 337.743,363.308 338.749,363.251 339.557,363.199 340.397,363.153 341.328,363.109 342.251,363.069 343.149,362.942 344.085,362.853 345.002,362.770 345.864,362.646 346.629,362.522 347.331,362.448 347.386,362.413 347.830,362.372 349.159,362.348 350.328,362.317 351.219,362.293 352.067,362.310 353.055,362.281 354.015,362.289 355.056,362.251 356.196,362.205 357.320,362.156 358.403,362.110 359.541,362.066 360.502,362.025 361.223,361.942 362.113,361.771 363.083,361.624 363.921,361.531 364.764,361.459 365.690,361.347 366.385,361.273 366.938,361.260 367.634,361.205 368.318,361.133 369.223,361.148 370.008,361.219 370.581,361.342 371.262,361.449 371.995,361.599 372.702,361.745 373.335,361.829 374.235,361.888 375.003,361.904 375.448,361.920 376.001,361.885 376.705,361.850 377.587,361.821 378.375,361.758 378.914,361.705 379.634,361.705 380.583,361.669 381.524,361.678 382.359,361.741 383.511,361.758 384.387,361.773 384.753,361.788 385.401,361.788 386.306,361.826 387.219,361.871 388.023,361.914 389.086,361.950 390.020,361.945 390.626,361.987 391.295,362.023 392.016,362.063 392.922,362.190 393.799,362.284 394.658,362.373 395.578,362.407 396.489,362.480 397.420,362.555 398.348,362.585 399.352,362.564 400.412,362.539 401.481,362.426 402.691,362.265 404.021,362.106 405.487,361.959 406.957,361.781 408.472,361.661 409.972,361.604 411.443,361.512 412.802,361.510 414.075,361.467 415.287,361.411 416.457,361.435 417.671,361.459 418.844,361.477 420.095,361.486 421.145,361.631 422.176,361.731 423.419,361.728 424.617,361.710 425.766,361.729 427.088,361.709 428.538,361.643 430.080,361.577 431.412,361.569 432.483,361.575 433.583,361.497 434.702,361.361 435.599,361.265 436.528,361.137 437.681,361.051 438.631,360.971 439.312,360.952 440.003,360.940 440.739,360.876 441.465,360.847 442.070,360.911 442.695,360.978 443.433,361.040 444.273,361.048 445.093,361.090 445.968,361.083 446.935,361.114 447.883,361.152 448.829,361.282 449.804,361.376 450.822,361.419 451.755,361.499 452.686,361.532 453.696,361.513 454.741,361.488 455.703,361.467 456.543,361.406 457.390,361.348 458.224,361.249 459.023,361.153 459.774,361.018 460.486,360.978 461.240,360.954 461.986,360.888 462.657,360.817 463.503,360.789 464.231,360.764 464.822,360.740 465.556,360.712 466.507,360.765 467.800,360.777 468.928,360.787 469.656,360.847 470.372,360.898 471.147,360.990 471.879,361.087 472.495,361.130 473.012,361.161 473.607,361.184 474.342,361.205 475.020,361.185 475.579,361.212 476.105,361.202 476.647,361.146 477.245,361.087 477.785,361.033 478.261,360.986 478.758,360.947 479.283,360.910 479.819,360.875 480.314,360.796 480.918,360.715 481.524,360.722 482.319,360.696 483.324,360.706 484.587,360.629 486.276,360.582 487.936,360.588 489.475,360.604 491.092,360.665 492.853,360.728 494.812,360.784 496.464,360.794 497.592,360.844 498.614,360.886 499.660,360.922 500.613,360.909 501.431,360.890 502.220,360.870 502.868,360.807 503.387,360.701 503.949,360.552 504.551,360.446 505.269,360.354 505.914,360.274 506.416,360.157 506.907,360.094 507.346,360.031 507.810,360.061 508.371,360.055 508.978,360.034 509.666,360.005 510.412,359.922 511.163,359.876 511.889,359.835 512.431,359.796 513.099,359.716 513.871,359.535 514.599,359.339 515.354,359.203 516.123,359.127 516.776,359.064 517.494,358.965 517.932,358.800 517.994,358.674 518.194,358.631 518.574,358.484 519.042,358.407 519.477,358.341 519.911,358.274 520.590,358.294 521.521,358.280 522.539,358.344 523.638,358.457 524.640,358.668 525.568,358.829 526.677,358.922 527.561,359.196 528.138,359.425 528.841,359.567 529.538,359.709 530.291,359.746 530.967,359.820 531.691,359.858 532.399,359.901 532.955,359.913 533.458,359.884 534.009,359.858 534.368,359.843 534.771,359.880 535.386,359.882 535.985,359.935 536.462,359.992 537.130,359.955 537.652,359.951 537.773,360.012 537.944,360.010 538.092,360.004 538.261,359.996 538.394,359.988 538.468,359.983 538.613,359.978 538.851,359.929 539.006,359.924 539.114,359.926 539.253,359.930 539.420,359.890 539.549,359.842 539.820,359.756 540.104,359.655 540.371,359.656 540.568,359.672 540.904,359.650 541.011,359.599 540.702,359.576 540.589,359.526 540.385,359.548 540.052,359.622 540.052,359.622 540.052,359.622 " />
<polyline style="fill:none;stroke:yellow;stroke-width:13.043;opacity:0.2" points="310.114,377.956 310.114,377.956 309.799,377.324 309.279,376.562 309.189,376.538 309.254,376.661 309.325,376.775 309.153,376.771 309.019,376.717 308.980,376.682 308.849,376.708 308.719,376.725 308.660,376.726 308.681,376.716 308.722,376.702 308.707,376.689 308.761,376.678 308.648,376.671 308.781,376.664 308.945,376.661 309.002,376.662 309.103,376.641 309.252,376.629 309.461,376.570 309.950,376.475 310.734,376.355 311.474,376.292 312.351,376.255 313.443,376.223 314.374,376.242 315.116,376.316 315.853,376.345 316.614,376.408 317.494,376.462 318.372,376.509 319.241,376.549 320.139,376.628 321.059,376.663 322.099,376.690 323.258,376.671 324.402,376.603 325.545,376.490 326.714,376.378 327.844,376.229 328.980,376.135 330.032,376.010 331.055,375.938 332.190,375.922 333.263,375.913 334.341,375.946 335.343,375.979 336.216,375.958 337.244,376.011 338.323,376.065 339.376,376.070 340.515,376.062 341.782,376.004 343.199,375.893 344.714,375.827 346.388,375.772 348.037,375.683 349.270,375.600 350.555,375.527 351.943,375.407 353.152,375.278 354.213,375.160 355.144,375.043 356.001,374.881 356.704,374.763 357.439,374.697 358.234,374.638 358.970,374.576 359.770,374.559 361.178,374.538 362.418,374.557 363.021,374.640 363.825,374.742 364.862,374.850 366.138,374.948 367.258,374.991 368.142,375.119 369.131,375.191 370.397,375.255 371.676,375.322 372.742,375.394 374.230,375.409 375.383,375.434 375.842,375.423 376.547,375.362 377.705,375.198 378.923,375.069 380.146,374.918 381.656,374.780 382.874,374.698 383.720,374.640 384.546,374.639 385.492,374.591 386.411,374.575 387.467,374.600 388.714,374.621 389.909,374.685 391.043,374.745 392.229,374.842 393.405,374.938 394.837,374.977 396.229,375.006 397.333,375.037 398.492,375.106 399.803,375.136 401.255,375.162 402.634,375.240 403.733,375.282 404.964,375.270 406.286,375.207 407.487,375.187 408.567,375.086 409.433,374.983 410.333,374.888 411.323,374.751 412.179,374.614 412.937,374.536 413.691,374.472 414.527,374.455 415.564,374.443 416.595,374.518 417.519,374.598 418.422,374.760 419.540,374.915 420.732,375.064 421.914,375.105 423.134,375.119 424.281,375.130 425.380,375.098 426.452,375.020 427.604,374.943 428.784,374.829 430.008,374.631 431.158,374.483 432.236,374.307 433.212,374.188 434.209,374.084 435.113,373.984 435.916,373.982 436.819,373.986 437.758,374.025 438.674,374.059 439.574,374.083 440.523,374.140 441.536,374.191 442.684,374.233 443.906,374.270 445.087,374.352 445.982,374.394 446.922,374.470 448.149,374.544 449.175,374.680 450.035,374.718 451.003,374.696 452.111,374.665 453.333,374.634 454.570,374.520 455.599,374.408 456.533,374.309 457.494,374.175 458.293,374.136 459.108,374.025 460.158,373.953 461.126,373.881 461.949,373.816 462.679,373.800 463.421,373.783 464.302,373.761 465.203,373.777 466.181,373.837 467.216,373.852 468.265,373.904 469.254,374.001 470.171,374.005 471.017,373.997 471.884,374.026 472.810,374.013 473.801,373.951 474.848,373.887 475.948,373.827 477.054,373.821 478.306,373.826 479.479,373.886 480.439,373.907 481.462,373.964 482.508,373.974 483.404,373.977 484.307,373.972 485.330,373.917 486.296,373.903 487.181,373.897 487.848,373.851 488.740,373.847 490.228,373.885 491.574,373.943 492.716,374.003 493.872,374.057 495.002,374.201 496.131,374.392 497.088,374.586 497.874,374.770 498.734,374.929 499.592,375.085 500.461,375.232 501.338,375.370 502.206,375.370 503.108,375.400 504.072,375.443 504.942,375.411 505.719,375.381 506.710,375.399 507.684,375.392 508.461,375.393 509.302,375.485 510.253,375.545 511.241,375.648 512.171,375.796 512.961,375.945 513.783,376.033 514.714,376.151 515.575,376.274 516.429,376.386 517.007,376.458 517.621,376.467 518.518,376.425 519.155,376.387 519.569,376.313 519.963,376.248 520.433,376.188 521.135,376.138 521.728,376.047 522.184,375.919 522.787,375.887 523.483,375.908 524.229,375.896 525.120,375.919 526.100,375.986 527.193,376.051 528.245,376.113 529.129,376.169 529.925,376.168 530.660,376.156 531.309,376.140 531.933,376.168 532.497,376.205 532.986,376.199 533.549,376.189 534.336,376.176 535.175,376.119 536.001,376.157 536.843,376.207 537.648,376.310 538.387,376.370 539.168,376.465 539.972,376.605 540.783,376.651 541.379,376.590 541.739,376.564 542.243,376.493 542.774,376.465 543.484,376.403 544.009,376.298 544.312,376.250 544.618,376.219 545.026,376.143 545.567,376.015 546.027,375.975 546.324,375.949 546.563,375.975 546.859,375.915 546.991,375.824 547.024,375.884 547.093,375.906 547.083,375.867 547.224,375.873 547.330,375.877 547.150,375.963 547.149,376.027 547.128,376.053 547.238,376.096 547.320,376.244 547.162,376.423 547.047,376.579 546.998,376.731 546.834,377.009 546.546,377.385 546.167,377.842 545.495,378.322 545.495,378.322 " />
<polyline style="fill:none;stroke:yellow;stroke-width:13.043;opacity:0.2" points="312.124,390.556 312.124,390.556 311.859,390.026 311.368,389.345 310.840,388.840 310.800,388.546 310.910,388.404 311.013,388.212 311.013,388.212 311.013,388.212 311.013,388.212 " />
<polyline style="fill:none;stroke:yellow;stroke-width:13.043;opacity:0.2" points="302.623,387.037 302.623,387.037 302.626,387.126 302.563,387.164 302.634,387.138 302.713,387.121 302.391,387.207 302.578,387.342 302.962,387.402 303.298,387.532 303.429,387.758 303.607,387.909 303.922,388.019 304.103,388.195 304.411,388.294 304.856,388.336 305.306,388.433 305.689,388.541 306.066,388.603 306.407,388.575 306.849,388.579 307.250,388.557 307.824,388.492 308.810,388.382 309.817,388.220 310.780,388.168 311.753,388.142 312.969,388.123 313.675,388.157 314.380,388.191 315.714,388.169 316.980,388.078 317.936,387.987 318.780,387.813 319.745,387.667 320.759,387.525 321.855,387.348 322.739,387.079 323.787,386.871 325.268,386.715 326.391,386.607 327.173,386.576 328.123,386.597 329.190,386.651 330.313,386.743 331.387,386.827 332.335,386.896 333.154,386.948 334.108,386.892 335.419,386.858 336.537,386.733 337.322,386.615 338.262,386.468 339.615,386.269 341.023,386.070 342.211,385.892 343.525,385.785 344.711,385.689 345.510,385.597 346.630,385.560 347.909,385.513 348.914,385.506 349.993,385.539 351.402,385.608 352.591,385.634 353.540,385.740 354.497,385.882 355.604,385.976 356.759,386.105 357.918,386.181 359.431,386.236 360.632,386.307 361.507,386.376 362.614,386.433 363.900,386.362 365.618,386.232 367.121,386.102 368.298,386.039 369.678,385.953 371.365,385.866 373.133,385.786 374.808,385.763 376.467,385.751 377.994,385.738 379.385,385.675 380.930,385.555 382.684,385.463 384.423,385.281 386.194,385.007 388.014,384.775 389.847,384.508 391.577,384.253 393.338,383.924 395.319,383.685 397.215,383.507 398.958,383.301 400.637,383.096 402.210,382.883 403.714,382.712 405.213,382.495 406.627,382.311 407.787,382.174 408.801,382.045 409.747,381.909 410.571,381.763 411.229,381.613 411.720,381.553 412.173,381.547 412.674,381.540 413.162,381.568 413.587,381.593 413.769,381.663 414.056,381.672 414.821,381.747 415.418,381.907 415.719,382.058 416.181,382.124 416.801,382.235 417.539,382.350 418.185,382.468 418.777,382.583 419.380,382.693 419.914,382.762 420.367,382.870 420.760,382.982 421.034,383.055 421.317,383.160 421.801,383.267 422.218,383.346 422.510,383.418 422.721,383.483 422.983,383.460 423.272,383.473 423.661,383.451 424.161,383.385 424.771,383.276 425.396,383.168 425.954,383.119 426.384,383.088 426.643,383.066 426.771,383.001 426.843,382.931 426.730,382.947 426.730,382.947 " />
<polyline style="fill:none;stroke:yellow;stroke-width:13.043;opacity:0.2" points="462.947,457.689 462.947,457.689 463.099,457.477 463.441,457.307 463.505,457.449 463.490,457.519 463.425,457.521 463.351,457.557 463.306,457.632 463.335,457.698 463.332,457.766 463.352,457.750 463.350,457.760 463.351,457.834 463.355,457.881 463.358,457.980 463.361,458.085 463.410,458.219 463.514,458.307 463.309,458.338 463.433,458.418 463.961,458.398 464.326,458.480 464.512,458.584 464.772,458.606 465.147,458.588 465.663,458.566 466.113,458.548 466.470,458.538 466.899,458.533 467.412,458.486 467.980,458.483 468.585,458.441 468.951,458.397 469.456,458.360 470.194,458.318 470.902,458.227 471.656,458.186 472.302,458.105 473.023,458.025 473.999,457.990 474.829,457.959 475.468,457.935 475.989,457.956 476.517,457.932 476.979,457.943 477.433,457.998 477.948,458.007 478.468,458.007 478.954,458.003 479.432,458.041 479.921,458.039 480.499,458.031 481.149,458.023 481.895,457.924 482.652,457.772 483.472,457.621 484.451,457.479 485.305,457.342 485.831,457.221 486.388,457.168 486.929,457.069 487.402,457.008 487.803,457.000 488.139,456.990 488.518,457.017 488.943,456.949 489.402,456.908 489.872,456.911 490.230,456.871 490.703,456.829 491.553,456.823 492.375,456.729 492.950,456.684 493.600,456.605 494.312,456.517 495.031,456.429 495.875,456.394 496.887,456.273 497.856,456.189 498.803,456.115 499.808,455.998 500.715,455.969 501.359,455.855 502.031,455.788 502.801,455.762 503.426,455.739 503.863,455.762 504.348,455.783 504.789,455.753 505.067,455.808 505.342,455.858 505.667,455.906 506.078,455.904 506.600,455.935 507.246,455.924 507.993,455.955 508.748,455.995 509.553,455.991 510.385,456.030 511.124,456.124 511.801,456.175 512.489,456.173 513.072,456.164 513.529,456.245 514.039,456.329 514.565,456.372 515.228,456.362 515.743,456.392 516.044,456.382 516.473,456.367 517.044,456.397 517.550,456.393 517.915,456.390 518.163,456.435 518.559,456.480 519.190,456.481 519.818,456.573 520.447,456.622 520.895,456.670 521.438,456.707 522.303,456.694 523.082,456.726 523.681,456.813 524.236,456.899 524.812,456.990 525.314,457.127 525.792,457.213 526.235,457.244 526.683,457.310 527.106,457.380 527.456,457.360 527.822,457.420 528.384,457.446 528.865,457.432 529.206,457.466 529.697,457.499 530.353,457.585 531.134,457.586 531.912,457.624 532.702,457.713 533.435,457.763 534.088,457.807 534.662,457.847 535.213,457.929 535.809,458.012 536.274,458.053 536.612,458.086 536.888,458.114 537.186,458.141 537.519,458.124 537.801,458.105 538.353,458.087 538.901,458.075 539.143,458.017 539.520,457.978 539.961,457.978 540.542,457.941 540.930,457.900 541.086,457.862 541.239,457.875 541.484,457.846 541.736,457.805 541.983,457.810 542.120,457.769 542.385,457.732 542.756,457.687 542.964,457.690 543.036,457.700 543.008,457.669 542.972,457.673 543.038,457.676 542.970,457.681 542.712,457.686 542.608,457.686 542.476,457.794 542.051,457.954 542.051,457.954 542.051,457.954 " />
<polyline style="fill:none;stroke:yellow;stroke-width:13.043;opacity:0.2" points="304.559,473.535 304.559,473.535 304.629,473.533 304.343,473.398 304.063,473.430 304.038,473.357 304.017,473.387 304.053,473.404 304.161,473.470 304.140,473.483 304.164,473.483 304.132,473.480 304.022,473.475 304.063,473.441 303.981,473.470 304.146,473.515 304.292,473.534 304.392,473.543 304.535,473.582 304.690,473.637 304.678,473.696 304.923,473.727 305.326,473.797 305.701,473.943 306.064,474.034 306.465,474.114 306.890,474.146 307.338,474.167 307.733,474.239 308.103,474.316 308.378,474.398 308.744,474.559 309.202,474.737 309.735,474.825 310.468,474.886 311.306,474.946 312.304,474.959 313.389,474.931 314.546,474.903 315.754,474.881 316.940,474.823 317.958,474.772 318.691,474.730 319.409,474.694 320.170,474.613 320.897,474.572 321.694,474.583 322.388,474.555 322.938,474.523 323.372,474.536 323.733,474.549 324.060,474.605 324.409,474.659 324.752,474.757 325.152,474.895 325.586,475.035 325.992,475.217 326.425,475.433 326.878,475.561 327.316,475.759 327.834,475.910 328.373,476.009 328.937,476.099 329.579,476.187 330.116,476.292 330.517,476.354 330.864,476.411 331.343,476.469 331.964,476.488 332.583,476.559 333.221,476.591 333.897,476.622 334.582,476.705 335.217,476.703 335.978,476.691 336.907,476.632 337.718,476.618 338.319,476.616 338.923,476.574 339.565,476.528 340.307,476.527 340.959,476.488 341.495,476.496 342.036,476.462 342.613,476.422 343.251,476.378 343.951,476.288 344.670,476.241 345.466,476.109 346.360,476.018 347.313,475.887 348.136,475.758 348.726,475.638 349.354,475.487 350.111,475.370 350.724,475.251 351.180,475.099 351.649,474.951 352.131,474.791 352.707,474.679 353.323,474.528 353.881,474.415 354.366,474.312 354.795,474.211 355.300,474.108 355.801,474.091 356.216,473.985 356.716,473.920 357.346,473.937 357.899,473.919 358.431,473.894 359.040,473.905 359.689,473.916 360.245,473.972 360.796,474.025 361.434,474.073 362.029,474.120 362.550,474.161 363.043,474.196 363.627,474.183 364.246,474.209 364.874,474.196 365.493,474.136 366.149,474.030 366.777,473.923 367.505,473.779 368.345,473.638 369.174,473.550 370.003,473.436 370.903,473.324 371.784,473.260 372.592,473.203 373.363,473.195 374.090,473.186 374.807,473.213 375.529,473.237 376.184,473.254 376.860,473.307 377.521,473.357 378.228,473.355 378.914,473.298 379.637,473.279 380.291,473.266 381.041,473.212 381.946,473.157 382.748,473.057 383.470,472.966 384.203,472.835 384.962,472.701 385.717,472.666 386.426,472.650 387.121,472.636 387.858,472.709 388.661,472.739 389.523,472.758 390.397,472.768 391.303,472.814 392.250,472.813 393.201,472.760 394.054,472.793 394.943,472.833 395.890,472.831 396.658,472.876 397.304,472.969 398.011,473.016 398.740,473.057 399.479,473.048 400.183,473.032 400.887,472.969 401.599,472.905 402.321,472.800 403.006,472.698 403.679,472.605 404.270,472.475 404.920,472.396 405.600,472.233 406.298,472.110 407.029,472.043 407.692,471.984 408.283,471.928 408.774,471.869 409.325,471.851 409.955,471.832 410.460,471.756 410.907,471.769 411.352,471.784 411.943,471.752 412.508,471.754 413.216,471.666 414.123,471.611 414.974,471.560 415.746,471.471 416.632,471.340 417.569,471.247 418.329,471.163 419.153,471.048 420.023,470.927 420.791,470.756 421.378,470.684 421.918,470.627 422.440,470.569 422.863,470.553 423.306,470.493 423.833,470.421 424.293,470.385 424.803,470.355 425.425,470.322 425.979,470.284 426.401,470.248 426.894,470.212 427.401,470.172 427.944,470.086 428.566,470.042 429.220,470.002 429.904,469.966 430.583,469.977 431.213,469.994 431.813,469.965 432.323,469.928 433.004,469.929 433.879,469.931 434.652,469.888 435.380,469.889 436.175,469.893 436.888,469.898 437.382,470.001 437.846,470.102 438.302,470.157 438.737,470.200 439.175,470.233 439.556,470.311 439.894,470.344 440.310,470.369 440.819,470.394 441.361,470.378 441.974,470.403 442.565,470.488 443.015,470.490 443.554,470.484 444.145,470.429 444.668,470.370 445.136,470.317 445.798,470.268 446.303,470.172 446.483,470.129 446.748,470.105 447.037,470.121 447.349,470.140 447.579,470.159 447.766,470.219 447.877,470.232 447.898,470.235 447.868,470.231 447.809,470.253 447.765,470.331 447.787,470.341 447.786,470.339 447.809,470.331 447.862,470.366 447.844,470.364 447.805,470.436 447.873,470.556 447.873,470.556 447.873,470.556 " />
<polyline style="fill:none;stroke:yellow;stroke-width:13.043;opacity:0.2" points="406.791,608.385 406.791,608.385 406.813,608.426 406.713,608.431 406.862,608.429 406.867,608.463 406.813,608.468 406.826,608.468 406.947,608.465 407.079,608.461 407.183,608.410 407.354,608.361 407.667,608.310 408.010,608.213 408.410,608.122 408.892,607.989 409.303,607.850 409.657,607.726 409.940,607.656 410.124,607.641 410.431,607.677 410.767,607.761 410.990,607.896 411.366,608.047 411.862,608.246 412.437,608.441 413.162,608.609 414.046,608.718 414.984,608.862 416.090,608.955 417.335,608.951 418.778,608.903 420.507,608.762 422.277,608.669 424.049,608.600 425.597,608.601 426.915,608.577 428.140,608.647 429.454,608.632 431.065,608.644 432.393,608.609 433.270,608.523 434.288,608.477 435.436,608.427 436.529,608.332 437.497,608.287 438.301,608.251 439.277,608.217 440.554,608.136 441.785,608.047 443.019,607.964 444.442,607.884 446.019,607.711 447.754,607.534 449.532,607.359 451.355,607.240 453.144,607.090 454.848,606.894 456.336,606.790 457.781,606.652 459.278,606.507 460.622,606.450 461.869,606.402 462.919,606.303 463.870,606.285 465.029,606.267 466.044,606.242 466.767,606.213 467.601,606.223 468.444,606.231 469.185,606.238 469.880,606.196 470.643,606.190 471.533,606.140 472.542,606.132 473.778,606.128 475.349,606.172 476.991,606.227 478.734,606.283 480.523,606.383 482.201,606.580 483.777,606.778 485.258,606.922 486.583,607.096 487.699,607.261 488.728,607.457 489.864,607.646 491.089,607.834 492.444,608.017 493.730,608.203 494.871,608.391 495.923,608.529 496.896,608.571 497.855,608.651 498.753,608.698 499.726,608.701 500.941,608.750 502.056,608.777 503.096,608.763 504.181,608.750 505.353,608.695 506.694,608.594 507.956,608.541 509.157,608.500 510.319,608.469 511.362,608.487 512.194,608.559 513.050,608.585 514.201,608.639 515.245,608.695 516.136,608.699 517.091,608.690 517.925,608.677 518.707,608.619 519.358,608.559 519.923,608.502 520.553,608.406 521.207,608.308 522.000,608.262 522.883,608.228 523.673,608.247 524.603,608.182 525.909,608.058 527.215,608.011 528.431,607.933 529.724,607.904 530.930,607.970 531.867,608.003 532.764,608.071 533.619,608.089 534.440,608.138 535.138,608.230 535.626,608.418 536.123,608.506 536.716,608.578 537.307,608.646 537.859,608.709 538.370,608.772 538.848,608.838 539.328,608.814 539.776,608.740 540.060,608.713 540.211,608.605 540.262,608.502 540.320,608.407 540.286,608.351 540.202,608.322 540.220,608.311 540.205,608.267 540.204,608.250 540.172,608.189 540.075,608.147 540.036,608.105 539.959,608.126 539.769,608.239 539.374,608.456 539.374,608.456 " />
<polyline style="fill:none;stroke:yellow;stroke-width:13.043;opacity:0.2" points="305.623,624.467 305.623,624.467 305.646,624.396 305.574,624.111 305.746,624.182 305.758,624.094 305.817,623.990 305.959,623.849 306.108,623.705 306.362,623.550 306.604,623.374 306.826,623.252 307.061,623.197 307.219,623.142 307.302,623.138 307.326,623.134 307.348,623.123 307.421,623.143 307.488,623.158 307.588,623.166 307.591,623.169 307.725,623.165 308.073,623.155 308.455,623.147 308.839,623.094 309.316,623.086 309.861,622.992 310.510,622.940 311.204,622.850 311.881,622.714 312.639,622.582 313.491,622.407 314.431,622.233 315.408,622.019 316.290,621.902 317.151,621.760 318.164,621.620 319.157,621.614 320.190,621.622 321.265,621.666 322.361,621.706 323.320,621.829 324.143,621.993 324.895,622.054 325.646,622.136 326.464,622.206 327.279,622.318 328.139,622.429 329.183,622.491 330.416,622.500 331.847,622.505 333.541,622.516 335.356,622.496 337.256,622.525 339.193,622.522 340.929,622.525 342.536,622.576 344.010,622.634 345.414,622.689 346.847,622.692 348.203,622.732 349.430,622.726 350.557,622.715 351.580,622.657 352.606,622.595 353.756,622.489 354.863,622.384 355.832,622.335 356.801,622.256 357.727,622.132 358.611,622.052 359.283,622.075 359.861,622.019 360.562,621.907 361.395,621.777 362.272,621.642 363.226,621.468 364.005,621.288 364.826,621.082 365.788,620.875 366.690,620.806 367.484,620.718 368.119,620.676 368.761,620.635 369.545,620.629 370.162,620.617 370.582,620.598 370.951,620.615 371.203,620.676 371.437,620.730 371.620,620.734 371.825,620.680 372.016,620.706 372.232,620.649 372.458,620.589 372.780,620.576 373.221,620.481 373.724,620.383 374.305,620.246 374.928,620.063 375.576,619.884 376.362,619.763 377.211,619.654 378.046,619.553 378.718,619.500 379.318,619.454 379.939,619.449 380.628,619.440 381.139,619.420 381.503,619.439 381.762,619.500 381.876,619.514 381.887,619.516 381.912,619.508 381.915,619.496 381.778,619.485 381.716,619.516 381.795,619.545 381.920,619.588 382.095,619.593 382.336,619.673 382.553,619.868 382.553,619.868 " />
<polyline style="fill:none;stroke:yellow;stroke-width:13.043;opacity:0.2" points="319.957,595.013 319.957,595.013 319.990,594.961 320.000,594.973 319.978,594.985 319.963,594.991 319.914,595.033 319.914,595.041 319.936,595.043 320.029,595.040 320.099,595.036 320.091,595.033 320.110,595.030 320.145,595.027 320.228,594.980 320.402,594.930 320.646,594.830 320.972,594.733 321.345,594.642 321.712,594.508 322.133,594.427 322.478,594.401 322.775,594.340 323.087,594.322 323.381,594.302 323.619,594.279 323.840,594.206 324.114,594.167 324.416,594.081 324.765,594.037 325.169,593.953 325.669,593.866 326.110,593.825 326.467,593.747 326.865,593.673 327.214,593.592 327.615,593.516 327.991,593.486 328.325,593.413 328.595,593.384 328.780,593.357 328.944,593.375 329.083,593.394 329.191,593.409 329.341,593.417 329.527,593.419 329.691,593.417 329.842,593.414 330.074,593.408 330.381,593.402 330.742,593.398 331.141,593.349 331.616,593.344 332.140,593.344 332.697,593.257 333.358,593.208 334.080,593.163 334.830,593.031 335.559,592.940 336.303,592.857 337.115,592.781 337.863,592.755 338.409,592.687 338.998,592.665 339.641,592.595 340.195,592.562 340.623,592.579 341.033,592.554 341.472,592.518 341.900,592.522 342.331,592.573 342.816,592.582 343.370,592.584 343.945,592.628 344.397,592.630 344.950,592.625 345.794,592.526 346.736,592.366 347.649,592.208 348.345,592.110 349.110,592.034 350.147,591.920 350.962,591.793 351.517,591.731 352.103,591.680 352.809,591.620 353.403,591.503 353.984,591.479 354.667,591.459 355.332,591.387 355.938,591.308 356.444,591.273 356.971,591.242 357.561,591.163 358.143,591.076 358.714,591.036 359.319,591.003 360.024,590.971 360.758,590.845 361.566,590.802 362.501,590.723 363.465,590.640 364.364,590.561 365.251,590.440 366.171,590.315 367.135,590.236 368.099,590.119 369.011,590.000 369.939,589.885 370.958,589.769 371.890,589.747 372.774,589.691 373.806,589.583 374.675,589.553 375.340,589.533 376.099,589.467 377.033,589.431 378.030,589.440 379.018,589.453 379.998,589.466 381.051,589.429 382.082,589.476 383.011,589.483 383.847,589.440 384.745,589.389 385.643,589.287 386.458,589.184 387.279,589.134 388.165,589.095 389.047,589.015 389.837,588.981 390.598,588.954 391.484,588.971 392.430,588.946 393.342,588.913 394.302,588.921 395.365,588.930 396.373,588.985 397.254,589.044 398.083,589.052 398.951,589.093 399.766,589.136 400.598,589.221 401.446,589.307 402.275,589.394 403.053,589.477 403.821,589.554 404.641,589.582 405.481,589.696 406.290,589.820 407.082,589.900 407.909,590.017 408.718,590.140 409.554,590.213 410.393,590.326 411.119,590.447 411.916,590.514 412.833,590.529 413.718,590.542 414.639,590.605 415.693,590.678 416.674,590.716 417.593,590.750 418.642,590.782 419.836,590.726 421.052,590.752 422.158,590.842 423.171,590.803 424.110,590.843 424.998,590.935 425.920,590.985 426.830,591.076 427.709,591.120 428.503,591.156 429.283,591.187 430.160,591.215 431.170,591.152 432.260,591.081 433.357,591.015 434.434,590.913 435.608,590.907 436.847,590.918 438.006,590.894 439.144,590.865 440.235,590.834 441.231,590.800 442.148,590.765 443.099,590.726 444.005,590.686 444.824,590.692 445.505,590.658 446.208,590.618 446.795,590.622 447.324,590.583 447.852,590.541 448.265,590.495 448.765,590.496 449.329,590.458 449.891,590.415 450.434,590.373 450.900,590.286 451.419,590.244 452.042,590.207 452.784,590.125 453.541,589.992 454.361,589.951 455.222,589.924 455.996,589.945 456.831,590.016 457.730,590.043 458.681,590.104 459.585,590.115 460.457,590.160 461.475,590.155 462.508,590.188 463.404,590.227 464.310,590.219 465.281,590.206 466.242,590.239 467.182,590.234 468.035,590.275 468.824,590.367 469.565,590.418 470.268,590.417 470.813,590.455 471.362,590.445 471.945,590.476 472.572,590.466 473.173,590.501 473.776,590.496 474.466,590.443 475.272,590.431 476.068,590.427 476.872,590.383 477.745,590.338 478.596,590.340 479.333,590.351 480.094,590.408 480.999,590.466 481.879,590.477 482.680,590.480 483.365,590.523 483.949,590.522 484.470,590.515 484.915,590.552 485.363,590.546 485.835,590.537 486.304,590.482 486.820,590.424 487.284,590.416 487.692,590.419 488.083,590.426 488.488,590.390 488.984,590.347 489.392,590.350 489.598,590.360 489.811,590.369 490.112,590.375 490.421,590.331 490.799,590.328 491.288,590.327 491.934,590.236 492.529,590.181 493.033,590.089 493.484,590.047 493.922,590.057 494.435,590.032 495.015,589.954 495.654,589.867 496.335,589.871 497.021,589.843 497.691,589.810 498.467,589.730 499.278,589.687 500.078,589.649 500.771,589.615 501.343,589.582 501.998,589.548 502.586,589.511 503.070,589.520 503.440,589.534 503.728,589.500 504.094,589.502 504.564,589.503 505.121,589.549 505.701,589.553 506.440,589.551 506.986,589.599 507.276,589.604 507.622,589.684 508.090,589.778 508.601,589.876 509.186,589.872 509.878,589.894 510.639,589.878 511.315,589.906 511.974,589.941 512.625,589.935 513.230,589.974 513.850,590.017 514.399,590.110 514.846,590.207 515.307,590.252 515.841,590.242 516.372,590.267 516.779,590.300 517.143,590.333 517.556,590.366 518.050,590.357 518.648,590.343 519.397,590.285 520.183,590.225 520.906,590.172 521.617,590.174 522.358,590.230 523.102,590.250 523.747,590.312 524.273,590.327 524.803,590.375 525.442,590.420 526.054,590.416 526.645,590.405 527.313,590.435 527.985,590.473 528.604,590.562 529.201,590.563 529.918,590.552 530.682,590.584 531.406,590.624 532.171,590.710 532.959,590.757 533.705,590.754 534.417,590.788 535.160,590.915 535.801,591.013 536.518,591.098 537.394,591.176 538.217,591.257 539.020,591.423 539.740,591.553 540.358,591.632 540.978,591.695 541.623,591.802 542.329,591.914 543.097,591.982 543.726,592.052 544.133,592.171 544.400,592.244 544.779,592.351 545.160,592.475 545.433,592.558 545.786,592.662 546.165,592.825 546.568,592.951 546.958,593.112 547.359,593.230 547.792,593.429 548.194,593.687 548.580,593.991 548.948,594.421 549.282,594.917 549.566,595.407 549.566,595.407 549.566,595.407 " />
<polyline style="fill:none;stroke:yellow;stroke-width:13.043;opacity:0.2" points="307.744,605.812 307.744,605.812 308.112,605.216 308.492,604.452 308.662,604.411 308.648,604.613 308.613,604.727 308.647,604.811 308.624,604.865 308.628,604.925 308.659,604.938 308.662,604.928 308.740,604.904 308.976,604.873 309.329,604.845 309.736,604.776 310.406,604.713 311.144,604.655 311.927,604.562 312.903,604.431 314.045,604.296 315.300,604.074 316.567,603.900 317.746,603.692 318.892,603.494 320.093,603.302 321.307,603.205 322.467,603.075 323.479,602.987 324.410,602.946 325.617,602.902 326.559,602.893 327.142,602.881 327.771,602.819 328.447,602.732 329.239,602.728 329.994,602.689 330.792,602.691 331.729,602.695 332.724,602.701 333.751,602.753 334.804,602.761 335.931,602.763 337.101,602.761 338.257,602.850 339.542,602.944 340.862,602.994 342.205,603.035 343.326,603.029 344.277,603.015 345.299,603.042 346.394,603.030 347.397,603.019 348.279,603.011 349.065,603.052 349.774,603.055 350.361,603.102 350.900,603.151 351.421,603.197 351.892,603.243 352.447,603.281 353.138,603.361 353.808,603.450 354.449,603.536 355.154,603.616 355.887,603.743 356.733,603.868 357.563,603.901 358.242,603.924 359.004,603.985 359.937,603.963 360.842,603.939 361.693,603.919 362.759,603.813 363.710,603.797 364.423,603.753 365.113,603.672 365.810,603.630 366.643,603.639 367.403,603.704 368.101,603.728 368.858,603.743 369.626,603.796 370.431,603.892 371.164,603.991 371.916,603.991 372.552,604.021 373.074,604.100 373.644,604.176 374.224,604.212 374.695,604.243 375.125,604.271 375.689,604.341 376.164,604.429 376.478,604.471 376.816,604.500 377.170,604.531 377.619,604.516 378.016,604.545 378.398,604.535 378.769,604.570 379.191,604.566 379.628,604.562 380.023,604.559 380.396,604.603 380.678,604.748 380.678,604.748 " />
<polyline style="fill:none;stroke:yellow;stroke-width:13.043;opacity:0.2" points="383.411,680.406 383.411,680.406 383.411,680.288 383.471,679.874 383.465,679.617 383.458,679.438 383.505,679.330 383.502,679.251 383.448,679.183 383.487,679.146 383.621,679.110 383.728,679.058 383.859,679.042 384.042,678.976 384.356,678.893 384.739,678.802 385.240,678.711 385.908,678.578 386.609,678.436 387.348,678.351 388.100,678.234 388.634,678.111 389.101,677.959 389.639,677.802 390.186,677.588 390.765,677.424 391.397,677.363 392.094,677.269 392.888,677.171 393.710,677.113 394.561,677.009 395.283,676.895 396.066,676.782 396.953,676.710 397.835,676.687 398.722,676.624 399.606,676.598 400.568,676.525 401.667,676.444 402.804,676.358 403.922,676.273 404.889,676.240 405.835,676.214 406.741,676.233 407.569,676.209 408.409,676.177 409.158,676.184 409.889,676.238 410.670,676.246 411.498,676.294 412.303,676.341 413.140,676.339 413.953,676.330 414.757,676.319 415.593,676.308 416.486,676.207 417.471,676.055 418.636,675.902 419.805,675.708 420.854,675.526 421.831,675.317 422.831,675.113 423.843,674.960 424.971,674.823 426.179,674.734 427.363,674.648 428.474,674.654 429.518,674.662 430.504,674.659 431.439,674.687 432.331,674.662 433.182,674.667 434.117,674.666 435.023,674.615 435.880,674.559 436.801,674.548 437.807,674.499 438.838,674.449 439.859,674.403 440.870,674.316 441.908,674.319 443.070,674.423 444.271,674.449 445.337,674.513 446.293,674.619 447.183,674.674 448.027,674.763 448.709,674.898 449.353,675.025 449.982,675.101 450.644,675.120 451.293,675.129 451.914,675.189 452.660,675.163 453.424,675.137 454.185,675.117 454.969,675.104 455.803,675.053 456.842,674.958 458.019,674.907 459.285,674.819 460.610,674.736 462.002,674.657 463.498,674.629 464.833,674.611 465.869,674.595 467.028,674.574 468.403,674.543 469.659,674.553 470.704,674.567 471.613,674.578 472.487,674.537 473.380,674.487 474.270,674.479 475.098,674.477 475.879,674.524 476.711,674.530 477.703,674.574 478.638,674.625 479.411,674.676 480.198,674.764 481.062,674.900 482.079,675.036 483.093,675.125 484.085,675.200 485.128,675.359 486.194,675.527 487.170,675.651 488.015,675.719 488.742,675.730 489.526,675.778 490.436,675.880 491.207,675.957 491.871,675.939 492.396,675.959 492.914,675.985 493.535,675.971 494.101,675.910 494.605,675.851 495.176,675.798 495.760,675.749 496.303,675.707 496.863,675.718 497.523,675.735 498.255,675.798 499.035,675.909 499.813,676.020 500.653,676.076 501.657,676.206 502.705,676.387 503.651,676.476 504.601,676.498 505.596,676.553 506.644,676.523 507.687,676.441 508.596,676.408 509.491,676.343 510.315,676.240 511.052,676.141 511.645,676.053 512.098,675.973 512.659,675.857 513.426,675.689 514.165,675.603 514.864,675.491 515.632,675.383 516.403,675.317 517.114,675.258 517.831,675.155 518.519,675.086 519.312,674.973 520.180,674.897 521.143,674.960 522.156,674.991 523.206,675.064 524.365,675.221 525.467,675.384 526.476,675.489 527.434,675.572 528.268,675.553 529.098,675.515 530.107,675.427 531.002,675.245 531.835,675.119 532.773,675.013 533.624,674.921 534.228,674.798 534.790,674.736 535.314,674.676 535.732,674.569 536.008,674.505 536.195,674.489 536.394,674.475 536.719,674.455 537.076,674.470 537.480,674.574 537.862,674.687 538.357,674.788 539.082,674.922 539.794,675.113 540.649,675.284 541.757,675.489 542.890,675.706 543.872,675.869 544.663,676.108 545.396,676.346 545.913,676.595 545.913,676.595 " />
<polyline style="fill:none;stroke:yellow;stroke-width:13.043;opacity:0.2" points="302.088,696.508 302.088,696.508 301.972,696.384 301.808,696.217 301.715,696.125 301.817,696.073 301.953,696.019 302.073,695.957 302.043,695.877 302.083,695.758 302.262,695.629 302.413,695.449 302.661,695.335 303.181,695.183 303.696,695.003 304.115,694.835 304.550,694.729 304.953,694.627 305.284,694.481 305.504,694.376 305.738,694.323 305.910,694.315 306.035,694.309 306.119,694.249 306.220,694.264 306.505,694.277 306.863,694.285 307.275,694.246 307.845,694.195 308.579,694.140 309.491,694.041 310.529,693.896 311.678,693.707 312.926,693.476 314.312,693.251 315.611,693.035 316.821,692.838 318.129,692.611 319.319,692.469 320.317,692.390 321.245,692.321 322.239,692.242 323.087,692.241 323.810,692.241 324.643,692.228 325.254,692.248 325.631,692.263 326.156,692.267 326.862,692.215 327.599,692.155 328.438,692.140 329.397,692.179 330.305,692.185 331.230,692.235 332.270,692.288 333.381,692.293 334.395,692.340 335.463,692.384 336.867,692.377 338.263,692.413 339.547,692.501 340.752,692.502 341.824,692.588 342.765,692.678 343.596,692.676 344.342,692.705 345.134,692.733 345.902,692.718 346.725,692.653 347.586,692.587 348.438,692.525 349.401,692.427 350.490,692.330 351.571,692.195 352.692,692.066 353.930,691.944 355.276,691.735 356.821,691.523 358.438,691.312 359.990,691.205 361.424,691.167 362.923,691.136 364.368,691.097 365.619,691.094 366.753,691.086 367.846,691.065 368.883,691.031 369.923,691.034 370.958,691.036 371.898,691.083 372.741,691.132 373.499,691.180 374.182,691.224 374.947,691.216 375.733,691.201 376.616,691.183 377.689,691.166 378.790,691.109 379.902,690.963 381.028,690.861 382.147,690.676 383.198,690.540 384.207,690.466 385.280,690.360 386.302,690.251 387.258,690.144 388.031,690.037 388.721,689.977 389.451,690.008 390.078,690.002 390.639,689.984 391.206,689.911 391.818,689.821 392.375,689.820 392.961,689.783 393.690,689.696 394.523,689.556 395.368,689.412 396.186,689.276 397.019,689.242 397.846,689.228 398.657,689.122 399.452,689.052 400.319,688.981 401.169,688.908 402.003,688.835 402.824,688.807 403.569,688.735 404.245,688.704 404.948,688.720 405.643,688.785 406.260,688.853 406.817,688.822 407.373,688.773 407.909,688.854 408.529,688.944 409.070,688.994 409.543,688.991 409.916,689.023 410.237,689.104 410.640,689.141 411.127,689.265 411.737,689.352 412.454,689.385 413.267,689.503 414.093,689.587 414.925,689.665 415.695,689.696 416.425,689.720 417.046,689.794 417.716,689.734 418.568,689.663 419.335,689.639 419.922,689.583 420.360,689.535 420.832,689.492 421.426,689.451 421.959,689.413 422.304,689.427 422.511,689.447 422.714,689.464 422.957,689.431 423.155,689.385 423.266,689.384 423.404,689.386 423.578,689.388 423.739,689.343 423.892,689.296 423.921,689.189 424.051,689.147 424.379,689.113 424.609,689.069 424.766,689.041 424.784,689.005 424.850,689.021 424.983,689.038 425.057,689.104 425.062,689.197 425.062,689.197 " />
<polyline style="fill:none;stroke:yellow;stroke-width:13.043;opacity:0.2" points="322.492,706.535 322.492,706.535 322.674,706.482 323.194,706.429 323.518,706.438 323.735,706.506 323.965,706.562 324.313,706.664 324.688,706.715 325.006,706.806 325.338,706.889 325.642,706.924 325.970,706.948 326.310,706.926 326.694,706.900 327.128,706.877 327.696,706.769 328.299,706.657 328.970,706.510 329.680,706.323 330.426,706.142 331.236,705.928 332.050,705.764 332.799,705.616 333.546,705.526 334.173,705.440 334.757,705.448 335.415,705.458 336.127,705.454 336.734,705.388 337.458,705.354 338.403,705.357 339.267,705.318 340.009,705.276 340.822,705.275 341.686,705.233 342.587,705.187 343.602,705.141 344.654,705.095 345.731,705.007 346.873,704.918 347.829,704.830 348.771,704.706 349.838,704.624 350.890,704.546 351.866,704.429 352.853,704.357 353.905,704.242 354.980,704.168 356.054,704.054 357.004,703.935 358.067,703.864 359.187,703.704 360.364,703.534 361.616,703.366 363.089,703.110 364.540,702.844 365.896,702.636 367.342,702.359 368.873,702.028 370.450,701.788 371.962,701.568 373.357,701.452 374.625,701.348 375.783,701.237 376.889,701.161 378.005,701.169 379.077,701.127 380.033,701.112 380.849,701.181 381.535,701.248 382.058,701.309 382.647,701.353 383.314,701.343 384.198,701.274 385.076,701.245 385.897,701.179 386.797,701.030 387.817,700.875 389.018,700.637 390.242,700.354 391.553,700.130 392.974,699.929 394.525,699.790 395.993,699.616 397.346,699.537 398.757,699.468 400.040,699.436 401.143,699.446 402.146,699.491 403.046,699.483 403.701,699.548 404.388,699.602 405.276,699.644 406.046,699.636 406.677,699.619 407.285,699.554 407.977,699.530 408.592,699.328 409.379,699.127 410.398,699.016 411.369,698.833 412.382,698.669 413.397,698.606 414.481,698.560 415.714,698.473 416.946,698.418 418.133,698.454 419.475,698.492 420.875,698.523 422.223,698.498 423.472,698.551 424.649,698.649 425.888,698.700 427.118,698.786 428.308,698.871 429.481,698.950 430.826,698.975 432.001,699.095 432.900,699.175 433.863,699.244 434.800,699.270 435.660,699.290 436.450,699.313 437.257,699.430 438.098,699.514 438.922,699.599 439.825,699.769 440.890,699.946 442.049,700.031 443.407,700.048 444.803,700.151 446.128,700.317 447.459,700.485 448.704,700.613 449.818,700.733 450.912,700.935 451.832,701.058 452.614,701.212 453.417,701.403 454.330,701.601 455.259,701.847 456.086,702.005 456.840,702.098 457.673,702.177 458.480,702.265 459.234,702.314 459.883,702.413 460.560,702.476 461.221,702.543 461.846,702.569 462.540,702.637 463.435,702.712 464.441,702.748 465.490,702.781 466.600,702.814 467.752,702.806 468.845,702.796 469.723,702.932 470.517,703.077 471.264,703.087 471.978,703.076 472.774,703.098 473.547,703.128 474.355,703.160 474.985,703.199 475.682,703.279 476.508,703.320 477.360,703.266 478.266,703.290 479.112,703.237 479.842,703.135 480.482,703.033 481.149,702.982 481.761,702.943 482.237,702.912 482.636,702.885 482.926,702.857 483.287,702.872 483.865,702.930 484.425,702.901 484.909,702.860 485.437,702.947 486.045,703.049 486.547,703.109 487.068,703.155 487.723,703.234 488.349,703.369 488.976,703.455 489.630,703.530 490.341,703.601 491.213,703.712 492.095,703.695 492.825,703.668 493.513,703.640 494.164,703.619 494.809,703.604 495.373,703.552 495.998,703.547 496.425,703.554 496.706,703.611 497.081,703.667 497.591,703.723 498.233,703.726 498.825,703.816 499.350,703.909 499.841,703.998 500.374,704.038 501.000,704.064 501.572,704.092 502.025,704.123 502.509,704.196 503.110,704.231 503.675,704.221 504.283,704.205 504.988,704.189 505.649,704.179 506.145,704.176 506.657,704.176 507.203,704.132 507.688,704.084 508.100,704.039 508.423,703.996 508.735,703.911 509.106,703.822 509.477,703.825 509.848,703.797 510.221,703.811 510.687,703.873 511.268,703.891 511.874,703.948 512.584,704.000 513.273,704.049 513.888,704.095 514.493,704.088 515.056,704.120 515.597,704.246 516.137,704.245 516.598,704.277 516.956,704.358 517.297,704.440 517.739,704.475 518.314,704.595 518.943,704.633 519.604,704.707 520.265,704.785 520.790,704.964 521.420,705.089 522.332,705.162 523.098,705.238 523.672,705.309 524.206,705.328 524.729,705.345 525.332,705.273 525.928,705.197 526.525,705.173 527.161,705.119 527.819,705.025 528.642,704.979 529.477,704.988 530.451,704.918 531.370,704.793 532.170,704.709 532.937,704.634 533.788,704.515 534.594,704.389 535.446,704.267 536.396,704.194 537.387,704.080 538.449,703.964 539.564,703.941 540.684,703.836 541.819,703.766 542.908,703.790 543.729,703.731 544.286,703.662 544.707,703.633 545.026,703.554 545.197,703.466 545.447,703.425 545.591,703.382 545.562,703.243 545.653,703.129 545.759,703.025 545.993,703.036 546.190,703.022 546.253,702.943 546.321,702.926 546.406,702.898 546.485,702.869 546.556,702.840 546.591,702.753 546.622,702.707 546.685,702.757 546.685,702.757 " />
<polyline style="fill:none;stroke:blue;stroke-width:1.304;opacity:1" points="20.246,272.800 20.246,272.800 19.809,272.855 19.435,272.868 19.123,272.796 18.826,272.850 18.744,272.849 18.799,272.845 18.863,272.883 19.042,272.835 19.010,272.863 19.054,272.763 19.071,272.676 19.115,272.658 19.137,272.649 19.126,272.576 19.063,272.491 19.039,272.310 19.121,272.113 19.387,271.906 19.733,271.692 20.045,271.515 20.185,271.309 20.192,271.119 20.216,270.854 20.200,270.515 20.327,270.176 20.435,269.803 20.503,269.432 20.704,269.039 20.934,268.634 21.250,268.204 21.615,267.731 21.937,267.284 22.263,266.745 22.668,265.977 22.938,265.503 23.204,265.101 23.601,264.757 24.010,264.331 24.039,263.920 24.328,263.646 24.916,263.373 25.344,263.032 25.740,262.717 26.118,262.304 26.423,261.841 26.704,261.475 27.052,261.100 27.471,260.671 27.956,260.187 28.410,259.737 28.839,259.269 29.303,258.808 29.554,258.328 29.895,257.975 30.375,257.643 30.692,257.314 31.040,256.981 31.447,256.539 31.889,256.005 32.414,255.426 33.042,254.887 33.676,254.363 34.374,253.865 35.029,253.323 35.660,252.783 36.309,252.255 37.045,251.776 37.747,251.253 38.392,250.767 39.014,250.338 39.630,249.914 40.121,249.386 40.683,248.852 41.274,248.343 41.751,247.876 42.282,247.491 42.963,247.069 43.705,246.615 44.442,246.112 45.204,245.563 46.050,244.962 47.035,244.401 48.022,243.714 48.826,243.053 49.638,242.484 50.528,241.978 51.325,241.511 52.074,241.022 52.745,240.605 53.323,240.233 53.965,239.873 54.701,239.487 55.435,239.029 56.125,238.558 56.883,238.003 57.800,237.429 58.796,236.849 59.823,236.242 60.836,235.597 61.789,235.002 62.572,234.427 63.386,233.927 64.220,233.473 65.025,233.016 65.908,232.655 66.700,232.326 67.301,232.081 67.886,231.806 68.472,231.582 69.078,231.394 69.694,231.244 70.290,231.034 70.889,230.806 71.499,230.658 72.071,230.469 72.750,230.233 73.599,230.030 74.410,229.823 75.129,229.676 75.721,229.493 76.443,229.356 77.299,229.264 77.992,229.166 78.513,229.074 78.911,229.069 79.266,229.066 79.549,229.098 79.878,229.122 80.251,229.226 80.587,229.287 80.862,229.425 81.220,229.599 81.590,229.738 81.774,229.965 82.128,230.158 82.661,230.398 83.128,230.668 83.542,230.911 83.834,231.186 84.146,231.499 84.510,231.818 84.710,232.198 84.933,232.510 85.201,232.801 85.498,233.097 85.770,233.353 86.068,233.632 86.381,233.926 86.605,234.321 86.777,234.688 86.980,235.035 87.106,235.345 87.179,235.680 87.207,236.058 87.152,236.495 87.100,236.942 87.018,237.381 87.084,237.890 86.951,238.382 86.674,238.809 86.437,239.295 86.079,239.872 85.753,240.533 85.404,241.149 85.040,241.813 84.632,242.447 84.187,243.021 83.799,243.571 83.384,244.151 83.056,244.798 82.607,245.447 81.880,246.048 81.228,246.674 80.791,247.327 80.196,247.950 79.561,248.605 78.710,249.162 77.799,249.799 76.963,250.503 76.090,251.241 75.218,251.905 74.206,252.583 73.208,253.232 72.281,254.003 71.298,254.778 70.210,255.516 69.115,256.247 68.075,256.967 67.058,257.676 66.003,258.294 65.108,258.825 64.438,259.380 63.843,259.851 63.233,260.284 62.674,260.737 62.177,261.118 61.598,261.532 60.919,262.023 60.147,262.499 59.245,263.054 58.317,263.808 57.388,264.591 56.493,265.305 55.471,266.013 54.427,266.766 53.472,267.428 52.372,267.943 51.279,268.458 50.398,268.941 49.686,269.359 48.960,269.737 48.319,270.105 47.807,270.396 47.279,270.722 46.614,271.171 45.911,271.626 45.208,272.120 44.425,272.695 43.601,273.246 42.585,273.852 41.450,274.599 40.376,275.325 39.418,275.960 38.438,276.504 37.450,276.951 36.476,277.382 35.514,277.859 34.542,278.314 33.732,278.699 33.057,278.982 32.408,279.259 31.763,279.563 31.135,279.843 30.580,280.134 30.065,280.342 29.463,280.498 28.931,280.622 28.461,280.742 27.803,280.821 27.053,280.872 26.055,280.881 25.240,280.845 24.646,280.906 23.835,280.895 22.817,280.933 21.841,280.932 21.462,280.977 21.182,280.974 20.898,280.970 20.461,280.972 20.051,280.974 19.467,280.979 18.689,281.031 17.761,281.089 16.627,281.096 15.736,281.138 15.073,281.125 14.667,281.059 14.474,280.941 14.328,280.833 14.260,280.729 14.219,280.552 14.128,280.421 14.079,280.214 13.951,280.006 13.830,279.757 13.740,279.505 13.695,279.183 13.792,278.768 13.954,278.370 14.153,277.921 14.438,277.428 14.770,276.883 15.042,276.301 15.464,275.701 15.946,275.141 16.586,274.574 17.368,274.010 18.161,273.433 18.912,272.869 19.667,272.358 20.315,271.801 20.838,271.195 21.290,270.541 21.693,269.786 22.405,268.860 23.885,267.567 25.379,266.870 26.559,266.346 27.414,266.033 28.175,265.727 28.987,265.403 29.721,265.113 30.305,264.843 30.701,264.735 30.701,264.735 " />
<polyline style="fill:none;stroke:blue;stroke-width:1.304;opacity:1" points="35.735,267.736 35.735,267.736 35.594,267.736 35.539,267.654 35.567,267.695 35.622,267.725 35.588,267.743 35.604,267.841 35.654,267.863 35.670,267.853 35.673,267.899 35.721,267.939 35.684,267.925 35.633,267.910 35.574,267.929 35.526,267.928 35.376,267.881 35.253,267.874 35.212,267.829 35.225,267.787 35.174,267.700 34.984,267.530 34.974,267.263 35.180,267.073 35.267,266.904 35.411,266.723 35.654,266.568 35.949,266.419 36.226,266.282 36.527,266.190 36.899,266.193 37.281,266.155 37.687,266.150 38.008,266.227 38.333,266.256 38.654,266.316 38.907,266.372 39.008,266.420 38.980,266.537 38.957,266.699 38.792,266.833 38.676,266.998 38.677,267.160 38.546,267.360 38.361,267.622 38.141,267.920 37.875,268.040 37.626,268.125 37.396,268.196 37.205,268.184 36.915,268.170 36.629,268.170 36.434,268.086 36.164,267.931 35.847,267.768 35.671,267.704 35.537,267.554 35.478,267.302 35.406,267.070 35.243,266.876 35.226,266.673 35.314,266.529 35.400,266.416 35.516,266.342 35.749,266.310 35.963,266.267 36.023,266.249 36.096,266.322 36.279,266.401 36.487,266.518 36.692,266.625 36.813,266.726 36.900,266.844 37.027,267.002 37.136,267.133 37.136,267.133 37.136,267.133 37.136,267.133 " />
<polyline style="fill:none;stroke:blue;stroke-width:1.304;opacity:1" points="71.023,243.294 71.023,243.294 70.880,243.234 70.605,243.054 70.518,242.935 70.536,242.877 70.592,242.788 70.635,242.667 70.708,242.505 70.821,242.335 70.929,242.162 71.147,241.925 71.519,241.714 71.910,241.551 72.346,241.413 72.743,241.317 73.026,241.224 73.212,241.273 73.333,241.375 73.407,241.472 73.523,241.591 73.507,241.716 73.325,241.756 73.169,241.816 73.034,241.953 73.054,242.086 72.982,242.300 72.905,242.565 72.701,242.824 72.405,243.113 72.164,243.333 71.962,243.465 71.822,243.534 71.734,243.510 71.852,243.487 71.853,243.425 71.685,243.283 71.601,243.101 71.492,242.922 71.614,242.667 71.512,242.334 71.150,242.077 71.061,241.841 71.064,241.746 71.091,241.721 71.200,241.764 71.373,241.801 71.586,241.818 71.586,241.818 71.586,241.818 71.586,241.818 71.586,241.818 " />
<polyline style="fill:none;stroke:blue;stroke-width:1.304;opacity:1" points="39.935,262.348 39.935,262.348 39.861,262.476 39.805,262.500 39.855,262.497 39.819,262.494 39.805,262.492 39.801,262.529 39.802,262.605 39.855,262.683 39.860,262.746 39.923,262.747 39.919,262.778 39.969,262.770 40.007,262.757 40.043,262.745 40.174,262.735 40.229,262.672 40.341,262.671 40.474,262.676 40.605,262.637 40.721,262.598 40.752,262.455 40.938,262.366 41.286,262.235 41.545,262.087 41.744,261.923 41.889,261.755 42.146,261.598 42.512,261.399 42.862,261.141 43.193,260.935 43.584,260.705 44.078,260.471 44.510,260.275 44.853,260.098 45.162,259.887 45.560,259.664 45.983,259.339 46.412,258.957 46.925,258.621 47.410,258.292 47.873,257.938 48.371,257.590 48.754,257.231 49.100,256.939 49.393,256.659 49.691,256.421 49.957,256.229 50.264,256.043 50.598,255.843 50.909,255.670 51.168,255.542 51.454,255.420 51.717,255.236 51.899,255.076 52.134,254.848 52.443,254.592 52.734,254.323 53.091,254.124 53.584,253.988 53.949,253.795 54.251,253.618 54.450,253.438 54.714,253.260 54.958,253.069 55.204,252.877 55.491,252.692 55.758,252.450 55.940,252.244 56.140,252.063 56.393,251.838 56.674,251.596 57.076,251.234 57.563,250.885 57.974,250.629 58.283,250.463 58.558,250.318 58.794,250.162 59.023,250.001 59.214,249.827 59.447,249.649 59.701,249.458 60.051,249.267 60.386,249.020 60.716,248.814 61.112,248.581 61.487,248.289 61.809,248.040 62.057,247.810 62.290,247.634 62.522,247.467 62.844,247.303 63.284,247.131 63.629,246.889 63.937,246.699 64.309,246.477 64.673,246.276 64.850,246.073 65.015,245.904 65.277,245.643 65.630,245.302 66.007,244.997 66.291,244.751 66.499,244.535 66.615,244.410 66.751,244.309 66.864,244.197 66.993,244.209 67.079,244.180 67.126,244.178 67.128,244.250 67.097,244.315 67.065,244.336 67.049,244.339 66.981,244.329 66.934,244.313 66.941,244.295 66.998,244.280 66.950,244.271 66.928,244.266 67.022,244.263 66.991,244.266 66.968,244.269 66.925,244.273 66.944,244.250 66.967,244.239 66.935,244.235 66.899,244.235 66.899,244.235 66.899,244.235 " />
<polyline style="fill:none;stroke:blue;stroke-width:1.304;opacity:1" points="63.554,243.475 63.554,243.475 63.574,243.445 63.411,243.474 63.448,243.496 63.534,243.548 63.548,243.649 63.625,243.715 63.665,243.745 63.709,243.726 63.834,243.704 63.979,243.684 64.120,243.669 64.355,243.702 64.753,243.701 65.185,243.748 65.637,243.706 66.068,243.658 66.437,243.607 66.647,243.559 66.916,243.519 67.271,243.432 67.581,243.434 67.817,243.448 67.996,243.465 68.136,243.526 68.403,243.539 68.682,243.636 68.932,243.691 69.111,243.780 69.322,243.864 69.594,243.946 69.705,244.130 69.648,244.304 69.745,244.457 69.879,244.658 69.960,244.845 69.980,245.042 70.171,245.221 70.219,245.428 70.113,245.617 70.125,245.798 70.063,246.013 69.997,246.175 69.899,246.351 69.848,246.491 69.764,246.626 69.599,246.759 69.461,246.954 69.333,247.111 69.052,247.210 68.946,247.336 69.131,247.375 69.157,247.422 69.141,247.388 69.180,247.288 69.230,247.186 69.250,247.111 69.250,247.111 69.250,247.111 69.250,247.111 " />
<polyline style="fill:none;stroke:blue;stroke-width:1.304;opacity:1" points="35.416,260.447 35.416,260.447 35.384,260.315 35.402,260.264 35.483,260.326 35.418,260.324 35.415,260.372 35.442,260.378 35.504,260.379 35.595,260.376 35.583,260.300 35.567,260.250 35.476,260.262 35.479,260.265 35.523,260.228 35.527,260.193 35.492,260.115 35.372,260.046 35.370,259.980 35.327,259.944 35.337,259.925 35.420,259.974 35.459,260.002 35.490,260.038 35.488,260.090 35.481,260.163 35.504,260.176 35.507,260.209 35.503,260.272 35.498,260.341 35.494,260.371 35.490,260.409 35.488,260.440 35.580,260.470 35.636,260.592 35.639,260.706 35.548,260.782 35.611,260.895 35.834,261.008 35.923,261.124 35.972,261.206 35.990,261.330 36.065,261.412 36.090,261.523 36.163,261.595 36.145,261.663 36.181,261.634 36.201,261.638 36.207,261.616 36.196,261.597 36.173,261.585 36.170,261.580 36.161,261.581 36.138,261.585 36.125,261.567 36.100,261.543 36.065,261.482 36.133,261.328 36.100,261.103 36.012,260.868 35.905,260.665 35.806,260.403 35.807,260.146 35.721,259.984 35.558,259.869 35.459,259.783 35.371,259.750 35.312,259.690 35.283,259.682 35.275,259.642 35.259,259.621 35.237,259.594 35.167,259.562 35.173,259.473 35.044,259.423 35.045,259.491 35.198,259.492 35.275,259.495 35.297,259.498 35.234,259.500 35.167,259.500 35.301,259.465 35.375,259.396 35.375,259.396 " />
<polyline style="fill:none;stroke:blue;stroke-width:1.304;opacity:1" points="34.074,260.926 34.074,260.926 33.905,260.926 33.717,260.867 33.643,260.777 33.630,260.752 33.626,260.643 33.601,260.541 33.575,260.413 33.498,260.286 33.458,260.072 33.369,259.886 33.234,259.725 33.190,259.489 33.158,259.231 33.179,258.947 33.156,258.660 33.124,258.336 33.180,257.969 33.291,257.555 33.308,257.180 33.305,256.876 33.294,256.557 33.377,256.347 33.596,256.184 33.705,256.041 33.561,255.903 33.615,255.831 33.592,255.745 33.613,255.716 33.683,255.720 33.687,255.786 33.685,255.840 33.680,255.881 33.709,255.940 33.806,256.038 34.011,256.082 34.172,256.217 34.318,256.307 34.479,256.375 34.636,256.485 34.805,256.563 34.955,256.631 35.056,256.700 35.148,256.768 35.320,256.831 35.484,256.907 35.647,256.937 35.746,257.051 35.850,257.136 35.951,257.171 35.965,257.202 36.013,257.226 36.071,257.251 36.109,257.237 36.255,257.221 36.255,257.221 36.255,257.221 36.255,257.221 " />
<rect x="0" y="0" width="595" height="790" fill-opacity="0"/></g></svg>