<svg xmlns="http://www.w3.org/2000/svg" height="790" width="595">
        <script type="application/ecmascript"> <![CDATA[
            var visiblePage = 'p1';
            function goToPage(page) {
                document.getElementById(visiblePage).setAttribute('style', 'display: none');
                document.getElementById(page).setAttribute('style', 'display: inline');
                visiblePage = page;
            }
        ]]> </script>
    <g id="p1" style="display:inline"><polyline style="fill:none;stroke:yellow;stroke-width:13.043;opacity:0.2" points="161.544,333.935 161.544,333.935 161.178,333.948 160.717,333.955 160.835,334.050 160.980,333.963 161.099,333.949 161.228,333.943 161.224,333.868 161.250,333.836 161.295,333.842 161.322,333.803 161.284,333.812 161.378,333.785 161.474,333.787 161.602,333.792 161.896,333.754 162.284,333.796 162.722,333.849 163.173,333.902 163.851,333.948 164.353,333.952 164.570,334.051 164.839,334.130 165.135,334.219 165.607,334.255 166.209,334.369 166.818,334.454 167.512,334.480 168.266,334.501 168.984,334.572 169.656,334.605 170.220,334.592 170.864,334.574 171.703,334.599 172.374,334.594 172.702,334.594 172.996,334.551 173.431,334.543 173.910,334.446 174.391,334.393 174.879,334.393 175.304,334.311 175.745,334.227 176.123,334.187 176.562,334.156 176.943,333.986 177.396,333.898 178.066,333.865 178.653,333.840 179.129,333.821 179.794,333.799 180.396,333.768 180.777,333.786 181.219,333.759 181.733,333.718 182.274,333.718 182.804,333.721 183.297,333.679 183.817,333.678 184.313,333.634 184.840,333.587 185.376,333.540 185.878,333.495 186.518,333.453 187.255,333.412 187.931,333.325 188.509,333.334 189.054,333.308 189.636,333.321 190.157,333.337 190.733,333.304 191.296,333.261 191.861,333.260 192.500,333.263 193.134,333.266 193.794,333.315 194.258,333.373 194.929,333.420 195.932,333.460 196.771,333.558 197.549,333.646 198.143,333.689 198.813,333.719 199.790,333.697 200.611,333.675 201.239,333.657 201.911,333.599 202.536,333.586 203.136,333.583 203.769,333.586 204.444,333.546 205.052,333.549 205.634,333.557 206.300,333.474 207.050,333.378 207.819,333.326 208.613,333.376 209.406,333.487 210.350,333.602 211.379,333.668 212.689,333.759 213.783,333.905 214.585,334.094 215.584,334.214 216.631,334.333 217.753,334.393 218.785,334.446 219.634,334.505 220.613,334.513 221.795,334.478 222.812,334.399 223.683,334.329 224.638,334.224 225.626,334.076 226.574,333.887 227.379,333.754 228.107,333.638 228.870,333.533 229.715,333.384 230.677,333.276 231.676,333.219 232.673,333.169 233.655,333.162 234.667,333.107 235.802,333.038 236.930,333.007 238.185,333.020 239.228,333.039 239.976,333.058 240.855,333.068 241.730,333.024 242.726,332.924 243.633,332.817 244.365,332.761 245.070,332.719 245.851,332.635 246.562,332.596 247.242,332.611 247.567,332.637 248.266,332.654 249.594,332.616 250.713,332.618 251.533,332.674 252.272,332.729 253.047,332.783 253.820,332.832 254.505,332.922 255.127,333.011 255.822,333.092 256.531,333.125 257.244,333.196 257.959,333.268 258.685,333.343 259.493,333.416 260.370,333.490 261.339,333.611 262.238,333.788 263.334,333.913 264.367,334.039 265.150,334.214 266.055,334.366 267.047,334.479 268.144,334.581 269.086,334.640 269.762,334.747 270.512,334.803 271.261,334.863 272.022,334.927 272.784,334.947 273.051,334.931 273.699,334.944 275.081,335.051 276.108,335.166 276.803,335.263 277.344,335.307 277.883,335.343 278.651,335.367 279.362,335.397 279.912,335.527 280.562,335.606 281.332,335.688 282.264,335.718 283.145,335.791 283.985,335.824 284.833,335.852 285.527,335.933 285.997,335.926 286.432,335.955 286.829,335.990 287.280,335.979 287.845,336.009 288.359,336.002 288.804,335.948 289.271,335.938 289.612,335.936 289.704,335.942 289.763,335.907 289.827,335.861 289.927,335.811 290.008,335.762 289.608,335.792 289.696,335.734 290.234,335.731 290.418,335.742 290.399,335.756 290.160,335.771 289.977,335.779 290.165,335.777 290.182,335.836 290.070,335.858 289.992,335.914 289.803,336.092 289.803,336.092 289.803,336.092 " />
<polyline style="fill:none;stroke:yellow;stroke-width:13.043;opacity:0.2" points="51.909,349.389 51.909,349.389 52.047,349.279 52.380,349.172 52.652,349.132 52.903,349.104 53.128,349.026 53.358,348.891 53.628,348.809 53.943,348.781 53.885,348.665 54.237,348.622 55.057,348.572 55.693,348.489 56.227,348.425 56.736,348.346 57.492,348.266 58.464,348.231 59.398,348.202 60.333,348.129 61.364,348.185 62.463,348.253 63.544,348.322 64.588,348.384 65.530,348.392 66.387,348.431 67.144,348.469 67.886,348.457 68.606,348.485 69.465,348.423 70.348,348.402 71.082,348.391 71.910,348.340 72.881,348.378 74.106,348.472 75.226,348.489 76.102,348.547 77.030,348.597 78.053,348.642 79.066,348.685 80.203,348.766 81.310,348.853 82.230,348.942 83.027,348.979 83.611,349.058 84.073,349.042 84.447,349.062 84.730,349.042 84.940,349.021 85.013,348.957 85.005,348.897 84.977,348.889 84.951,348.892 84.864,348.852 84.791,348.867 84.817,348.959 84.855,349.038 84.700,349.077 84.700,349.077 84.700,349.077 " />
<polyline style="fill:none;stroke:yellow;stroke-width:13.043;opacity:0.2" points="156.504,311.552 156.504,311.552 156.476,311.020 156.495,310.370 156.500,310.337 156.500,310.421 156.527,310.526 156.631,310.605 156.732,310.618 156.822,310.641 156.959,310.648 157.104,310.549 157.281,310.436 157.585,310.318 157.954,310.251 158.355,310.204 158.745,310.117 159.158,310.078 159.604,310.049 160.087,310.067 160.649,310.047 161.305,310.060 162.174,310.117 163.054,310.178 164.050,310.232 165.214,310.234 166.293,310.228 167.237,310.219 168.430,310.206 169.569,310.196 170.526,310.144 171.541,310.181 172.587,310.185 173.598,310.235 174.581,310.288 175.495,310.386 176.554,310.480 177.840,310.522 178.963,310.608 179.981,310.644 180.883,310.719 181.937,310.792 183.450,310.815 184.885,310.840 186.052,310.920 187.326,310.954 188.729,311.032 190.157,311.163 191.469,311.208 192.653,311.242 193.798,311.226 194.831,311.206 195.678,311.187 196.443,311.127 197.351,311.066 198.236,311.008 199.037,310.960 199.896,310.874 200.975,310.831 202.055,310.889 203.020,310.963 204.044,311.033 205.068,311.100 205.879,311.161 206.669,311.296 207.489,311.434 208.220,311.572 208.992,311.647 209.884,311.707 210.753,311.815 211.596,311.880 212.388,311.895 213.252,311.906 214.184,311.968 215.176,311.997 216.128,311.984 217.052,312.015 217.962,312.009 218.867,312.003 219.727,311.999 220.451,311.999 221.054,311.909 221.639,311.857 222.093,311.809 222.760,311.722 224.015,311.671 225.212,311.628 226.122,311.645 227.083,311.626 228.116,311.597 229.109,311.609 229.927,311.579 230.568,311.543 231.245,311.547 232.096,311.505 232.947,311.456 233.742,311.409 234.397,311.364 235.181,311.322 236.273,311.278 237.235,311.333 238.130,311.396 239.232,311.456 240.198,311.518 240.782,311.578 241.379,311.577 242.136,311.562 242.937,311.542 243.766,311.523 244.611,311.509 245.509,311.500 246.536,311.495 247.562,311.541 248.520,311.596 249.191,311.704 250.046,311.757 251.278,311.794 252.214,311.790 252.796,311.827 253.349,311.861 253.864,311.852 254.377,311.837 254.948,311.822 255.577,311.763 256.272,311.704 257.032,311.650 257.852,311.557 258.637,311.466 259.390,311.428 260.201,311.402 260.991,311.378 261.678,311.307 262.358,311.232 263.092,311.197 263.732,311.118 264.288,311.084 264.829,311.099 265.316,311.026 265.713,310.942 266.137,310.812 266.721,310.763 267.374,310.633 268.033,310.454 268.722,310.322 269.415,310.247 270.092,310.186 270.950,310.130 272.150,310.069 273.121,309.997 273.851,309.933 274.603,309.870 275.295,309.842 276.191,309.816 276.767,309.734 276.983,309.601 277.295,309.526 277.587,309.436 278.047,309.309 278.540,309.130 279.112,308.948 279.773,308.869 280.504,308.762 281.234,308.655 281.940,308.550 282.538,308.491 283.204,308.393 284.057,308.375 284.653,308.360 284.951,308.393 285.244,308.337 285.572,308.251 285.930,308.248 286.187,308.205 286.427,308.118 286.649,308.114 286.892,308.120 287.185,308.129 287.509,308.184 287.527,308.200 287.740,308.242 288.389,308.242 288.841,308.298 289.124,308.341 289.424,308.336 289.695,308.372 289.730,308.427 289.851,308.414 290.035,308.440 290.188,308.482 290.314,308.473 290.398,308.507 290.493,308.547 290.508,308.593 290.519,308.590 290.566,308.617 290.477,308.616 290.453,308.666 290.442,308.672 290.481,308.719 290.687,308.758 290.713,308.842 290.716,308.972 290.787,309.213 290.836,309.432 290.776,309.539 290.761,309.632 290.748,309.723 290.694,309.907 290.694,309.907 290.694,309.907 " />
<polyline style="fill:none;stroke:yellow;stroke-width:13.043;opacity:0.2" points="207.238,361.043 207.238,361.043 207.033,360.658 206.903,360.382 207.028,360.460 207.011,360.529 207.066,360.554 207.132,360.573 207.158,360.520 207.208,360.532 207.305,360.494 207.358,360.439 207.459,360.472 207.720,360.564 208.133,360.620 208.734,360.667 209.497,360.752 210.344,360.795 211.276,360.878 212.153,360.966 212.924,361.006 213.583,361.038 214.284,361.065 215.088,361.046 215.928,361.024 216.805,361.005 217.769,360.992 218.804,360.938 219.723,360.934 220.621,360.939 221.874,360.943 222.948,360.904 223.615,360.964 224.320,360.978 225.245,361.026 226.387,361.073 227.289,361.125 227.880,361.175 228.536,361.255 229.250,361.251 229.872,361.282 230.450,361.313 230.849,361.302 231.443,361.284 232.384,361.220 233.256,361.203 234.031,361.199 234.759,361.158 235.571,361.161 236.480,361.123 237.328,361.129 238.086,361.187 238.848,361.248 239.627,361.352 240.333,361.457 240.970,361.553 241.594,361.683 242.283,361.719 242.959,361.785 243.554,361.854 244.082,361.922 244.606,361.944 245.067,361.965 245.555,361.987 246.028,362.014 246.548,362.001 247.246,361.985 247.853,361.975 248.239,361.973 248.694,361.973 249.299,361.974 249.959,362.022 250.525,362.031 250.807,362.039 251.234,362.039 251.996,362.032 252.688,362.028 253.284,362.026 253.637,362.075 254.053,362.079 254.705,362.075 255.305,362.120 255.802,362.167 256.334,362.255 256.873,362.351 257.526,362.440 258.171,362.528 258.647,362.616 259.126,362.644 259.671,362.620 260.213,362.590 260.696,362.564 260.802,362.491 261.183,362.440 262.044,362.339 262.767,362.175 263.455,362.045 264.169,361.924 264.874,361.851 265.409,361.792 266.000,361.740 266.671,361.682 267.374,361.616 268.105,361.594 268.765,361.617 269.354,361.598 269.920,361.612 270.418,361.578 270.936,361.580 271.278,361.584 271.648,361.584 272.134,361.582 272.493,361.580 272.747,361.532 272.982,361.526 273.293,361.523 273.874,361.520 274.397,361.472 274.663,361.423 274.973,361.386 275.308,361.389 275.651,361.398 275.976,361.455 276.067,361.528 276.402,361.574 277.214,361.570 277.922,361.609 278.488,361.697 278.939,361.741 279.377,361.827 279.841,361.911 280.361,361.948 280.893,362.023 281.347,362.104 281.692,362.091 281.923,362.114 282.142,362.184 282.468,362.217 282.726,362.254 282.957,362.379 283.082,362.428 283.139,362.464 282.599,362.496 282.691,362.540 283.426,362.515 283.767,362.579 283.990,362.619 284.037,362.648 284.130,362.650 284.247,362.686 284.388,362.731 284.533,362.776 284.587,362.868 284.637,362.913 284.762,362.946 284.697,362.987 284.465,363.018 284.322,363.050 284.211,363.115 283.992,363.158 283.992,363.158 283.992,363.158 " />
<polyline style="fill:none;stroke:yellow;stroke-width:13.043;opacity:0.2" points="54.397,371.308 54.397,371.308 54.122,370.054 53.314,369.027 52.976,369.645 52.986,369.984 52.854,370.219 52.450,370.398 52.377,370.567 52.589,370.586 52.616,370.575 52.564,370.517 52.622,370.451 52.632,370.393 52.450,370.351 52.322,370.325 52.227,370.312 52.146,370.311 52.108,370.317 52.112,370.326 52.046,370.337 52.042,370.345 52.091,370.351 52.238,370.323 52.325,370.314 52.395,370.311 52.562,370.309 52.885,370.220 53.244,370.162 53.655,370.067 54.257,369.976 55.068,369.934 55.785,369.901 56.284,369.828 56.804,369.759 57.395,369.727 58.046,369.653 58.694,369.620 59.218,369.636 59.734,369.612 60.345,369.578 60.888,369.537 61.471,369.496 62.075,369.407 63.019,369.357 64.389,369.311 65.711,369.221 66.947,369.230 68.229,369.208 69.520,369.272 70.890,369.251 72.138,369.263 73.238,369.366 74.280,369.470 75.295,369.524 76.237,369.612 77.129,369.739 78.037,369.864 78.940,369.940 79.896,370.050 80.728,370.168 81.400,370.284 82.112,370.346 82.800,370.454 83.253,370.529 83.744,370.587 84.421,370.645 85.276,370.663 86.281,370.725 87.317,370.803 88.329,370.888 89.258,370.975 90.144,371.016 90.923,371.050 91.622,371.130 92.263,371.213 92.986,371.247 93.559,371.280 93.925,371.312 94.360,371.295 94.762,371.275 95.132,371.258 95.377,371.200 95.612,371.190 95.871,371.189 96.122,371.193 96.337,371.155 96.429,371.160 96.452,371.123 96.670,371.084 97.147,371.037 97.697,370.988 98.217,370.947 98.741,370.953 99.174,370.922 99.470,370.841 99.714,370.759 99.798,370.714 99.835,370.682 99.885,370.609 99.901,370.562 99.836,370.575 99.733,370.550 99.639,370.567 99.517,370.521 99.362,370.593 99.204,370.649 99.006,370.746 98.893,370.949 98.799,371.095 98.548,371.126 98.090,371.144 97.417,371.202 97.417,371.202 " />
<rect x="0" y="0" width="595" height="790" fill-opacity="0"/></g></svg>