<svg xmlns="http://www.w3.org/2000/svg" height="792" width="612">
        <script type="application/ecmascript"> <![CDATA[
            var visiblePage = 'p1';
            function goToPage(page) {
                document.getElementById(visiblePage).setAttribute('style', 'display: none');
                document.getElementById(page).setAttribute('style', 'display: inline');
                visiblePage = page;
            }
        ]]> </script>
    <g id="p1" style="display:inline"><polyline style="fill:none;stroke:black;stroke-width:2.174;opacity:0.9" points="282.433,629.301 281.469,630.045 280.149,631.002 280.205,631.352 280.400,631.836 280.499,633.572 280.660,636.283 281.008,639.037 281.574,641.607 282.205,644.203 282.836,647.070 283.519,650.062 284.116,652.995 284.568,655.820 284.932,658.572 285.328,661.166 285.734,663.504 286.109,665.533 286.490,667.350 287.032,668.969 287.613,670.331 288.291,671.437 289.175,672.130 289.175,672.130 289.175,672.130 291.583,672.904 291.583,672.904 " />
<polyline style="fill:none;stroke:black;stroke-width:2.174;opacity:0.9" points="303.098,628.041 302.384,628.755 300.911,630.368 300.283,632.346 299.931,634.760 299.700,637.611 299.560,640.288 299.604,642.696 299.738,644.937 299.746,647.192 299.645,649.306 299.400,651.112 299.400,651.112 298.722,654.224 298.722,654.224 297.533,657.083 296.277,658.952 296.277,658.952 " />
<polyline style="fill:none;stroke:black;stroke-width:2.174;opacity:0.9" points="272.831,656.956 272.135,656.089 270.866,654.668 270.661,654.142 270.839,654.170 271.042,654.498 271.215,654.711 271.556,654.762 272.205,654.679 273.119,654.521 274.161,654.410 275.257,654.358 276.428,654.257 277.808,654.103 279.493,653.945 281.296,653.793 283.047,653.658 284.582,653.537 285.969,653.426 287.346,653.319 288.740,653.305 290.192,653.299 291.589,653.332 292.856,653.412 294.254,653.575 295.862,653.783 297.428,653.991 298.938,654.179 300.300,654.400 301.748,654.604 303.238,654.610 304.658,654.548 305.910,654.432 307.034,654.181 308.223,653.889 309.427,653.422 310.652,652.918 311.924,652.305 313.223,651.477 314.661,650.388 315.967,649.088 317.044,647.638 317.972,646.152 318.753,644.702 319.379,643.235 319.788,641.841 319.978,640.667 319.946,639.831 319.803,639.247 319.619,639.050 319.358,639.118 319.127,639.207 318.630,639.237 318.048,639.194 317.446,639.168 316.526,639.210 315.515,639.355 314.411,639.626 313.340,639.935 312.266,640.279 311.318,640.756 310.595,641.335 310.068,641.946 309.579,642.756 309.186,643.784 308.952,644.961 308.933,646.116 308.990,647.334 308.998,648.668 309.087,650.054 309.287,651.360 309.605,652.603 310.048,653.774 310.767,654.741 311.561,655.712 312.338,656.638 313.352,657.328 314.520,657.956 316.042,658.514 317.664,658.945 319.230,659.166 320.865,659.057 322.454,658.657 324.071,657.936 325.664,656.815 327.207,655.429 328.711,653.694 330.134,651.764 331.361,649.635 332.327,647.152 333.113,644.377 333.918,641.456 334.860,638.479 335.729,635.524 336.584,632.747 337.406,629.956 338.258,627.166 339.087,624.503 339.771,621.977 340.352,619.722 340.688,617.760 340.817,616.050 340.665,614.622 340.472,613.566 340.084,612.870 339.547,612.501 339.136,612.462 338.774,612.661 338.599,612.959 338.723,613.215 338.725,613.457 338.480,613.834 338.357,614.598 338.278,615.717 338.244,617.119 338.287,618.890 338.264,621.147 338.269,623.844 338.325,626.587 338.287,629.226 338.284,631.883 338.139,634.533 338.027,637.243 338.113,639.844 338.230,642.259 338.398,644.522 338.749,646.808 339.158,649.071 339.751,651.100 340.287,652.795 340.725,654.231 341.269,655.364 341.896,656.241 342.608,656.878 343.407,657.289 344.150,657.584 344.909,657.715 345.778,657.669 346.592,657.521 347.369,657.138 347.953,656.547 348.579,655.728 349.232,654.595 349.776,653.132 350.267,651.471 350.662,649.421 351.070,647.005 351.454,644.369 351.848,641.631 352.302,638.850 352.729,636.059 353.115,633.343 353.497,630.583 353.885,627.791 354.137,625.291 354.275,623.168 354.358,621.261 354.262,619.501 354.072,618.003 353.803,616.772 353.511,615.778 353.249,615.001 353.119,614.440 352.975,614.188 352.853,614.187 352.870,614.400 352.962,614.650 352.976,614.909 352.930,615.233 352.780,615.822 352.537,616.931 352.378,618.636 352.229,620.952 352.135,623.830 351.910,627.065 351.634,630.390 351.560,633.768 351.664,637.309 352.040,640.677 352.525,643.792 353.169,646.886 354.078,649.954 354.830,652.750 355.544,655.153 356.247,657.114 357.096,658.736 358.032,660.082 358.967,661.145 360.013,661.892 361.141,662.433 362.368,662.748 363.510,662.880 364.639,662.756 365.794,662.491 366.846,662.185 367.762,661.709 368.598,661.006 369.452,660.132 370.282,658.955 371.126,657.339 371.827,655.404 372.525,653.403 372.986,651.357 373.388,649.264 373.713,647.134 373.966,645.047 374.191,643.067 374.350,641.267 374.340,639.693 374.002,638.506 373.713,637.638 373.412,637.122 372.827,636.969 372.306,636.942 371.606,637.015 370.845,637.164 370.149,637.483 369.559,637.764 369.060,638.102 368.462,638.571 367.733,639.219 367.015,640.110 366.496,641.271 366.140,642.529 365.894,643.840 365.788,645.278 365.906,646.962 366.208,648.720 366.773,650.468 367.545,652.199 368.471,653.901 369.449,655.449 370.354,656.813 371.268,658.033 372.193,659.079 373.017,659.732 373.697,659.881 374.303,659.726 374.880,659.370 375.440,658.756 375.967,657.765 376.526,656.282 377.358,654.315 377.879,651.893 378.175,649.122 378.771,646.118 379.315,643.042 379.957,640.151 380.417,637.513 380.526,635.345 380.647,633.762 380.637,632.645 380.413,631.765 380.064,631.061 379.493,630.693 378.875,630.541 378.094,630.388 377.127,630.178 376.070,629.938 375.176,629.802 374.274,629.781 373.588,629.897 372.943,630.140 372.096,630.422 371.392,630.764 371.011,631.032 371.275,631.104 371.374,631.141 371.008,631.610 370.475,632.389 369.978,633.010 369.814,633.545 369.837,634.048 369.972,634.553 369.972,634.553 " />
<rect x="0" y="0" width="612" height="792" fill-opacity="0"/></g></svg>