<svg xmlns="http://www.w3.org/2000/svg" height="792" width="612">
        <script type="application/ecmascript"> <![CDATA[
            var visiblePage = 'p1';
            function goToPage(page) {
                document.getElementById(visiblePage).setAttribute('style', 'display: none');
                document.getElementById(page).setAttribute('style', 'display: inline');
                visiblePage = page;
            }
        ]]> </script>
    <g id="p1" style="display:inline"><polyline style="fill:none;stroke:black;stroke-width:2.174;opacity:0.9" points="311.551,360.617 311.165,360.550 310.586,360.486 310.688,360.353 310.718,360.291 310.801,360.102 310.874,359.620 310.966,358.836 311.097,357.768 311.209,356.497 311.302,355.084 311.378,353.460 311.399,351.550 311.410,349.505 311.418,347.436 311.524,345.405 311.648,343.608 311.676,342.223 311.696,341.107 311.766,340.181 311.850,339.406 311.891,338.820 311.929,338.583 312.011,338.501 312.055,338.478 312.050,338.573 312.064,338.721 312.134,338.802 312.228,338.857 312.497,338.876 312.992,338.869 313.569,338.999 314.414,339.268 315.420,339.758 316.627,340.550 317.988,341.735 319.344,343.156 320.749,344.801 322.207,346.551 323.739,348.201 325.007,349.718 326.004,351.120 326.946,352.397 327.802,353.698 328.456,354.980 328.838,356.176 328.895,357.315 328.737,358.501 328.576,359.863 328.161,361.229 327.418,362.322 326.728,363.213 326.107,363.855 325.430,364.283 324.862,364.368 324.418,364.304 323.850,364.234 323.198,364.159 322.532,363.949 321.845,363.606 320.969,363.162 320.097,362.408 319.380,361.325 318.755,359.939 318.187,358.237 317.660,356.227 317.215,353.971 316.810,351.541 316.780,348.827 317.103,345.919 317.570,343.012 318.183,340.254 318.977,337.613 319.825,335.239 320.753,333.257 321.852,331.634 323.070,330.416 324.344,329.559 325.697,328.809 327.229,328.169 328.939,327.466 330.705,326.771 332.316,326.270 333.857,325.940 335.411,325.722 337.063,325.614 338.741,325.477 340.542,325.207 342.423,324.799 344.232,324.174 345.906,323.348 347.495,322.384 349.068,321.298 350.521,320.095 351.818,318.709 353.058,317.134 354.153,315.426 355.156,313.633 355.948,311.746 356.701,309.728 357.538,307.507 358.114,305.166 358.645,302.920 358.907,300.709 359.224,298.494 359.582,296.200 359.797,293.887 359.836,291.552 359.693,289.096 359.459,286.637 359.011,284.120 358.398,281.266 357.703,278.089 356.848,274.783 355.991,271.227 355.025,267.567 353.896,263.995 352.648,260.657 351.178,257.775 349.604,255.160 347.998,252.829 346.378,250.857 344.724,249.217 343.005,247.897 341.118,246.981 339.253,246.641 337.458,246.633 335.652,246.908 333.957,247.535 332.318,248.317 330.730,249.351 329.255,250.580 327.784,251.806 326.374,252.988 325.005,254.175 323.911,255.153 323.306,255.792 323.081,255.834 323.288,255.451 323.660,255.038 323.967,254.703 324.412,254.562 325.100,254.712 325.930,255.049 326.989,255.478 328.471,256.003 330.363,256.422 332.557,256.884 334.974,257.456 337.691,258.001 340.680,258.558 343.772,259.093 346.856,259.604 350.005,260.094 353.326,260.526 356.737,260.811 360.028,261.042 363.182,261.377 366.198,261.933 369.100,262.761 371.778,263.912 374.173,265.318 376.401,267.072 378.551,269.050 380.629,271.220 382.539,273.471 384.313,275.551 385.969,277.416 387.483,279.010 388.918,280.429 390.214,281.655 391.253,282.751 392.004,283.773 392.630,284.615 393.137,285.442 393.375,286.218 393.448,286.933 393.231,287.670 392.955,288.504 392.642,289.478 392.064,290.581 391.229,291.715 390.234,292.877 389.127,293.928 387.805,294.871 386.361,295.742 384.979,296.465 383.724,296.918 382.471,297.154 381.302,297.171 380.457,296.971 379.807,296.649 379.207,296.164 378.851,295.522 378.729,294.862 378.873,293.992 379.399,292.605 379.399,292.605 " />
<polyline style="fill:none;stroke:black;stroke-width:2.174;opacity:0.9" points="530.197,319.087 531.226,316.565 532.681,311.708 533.531,308.502 534.263,306.044 534.956,303.443 535.854,300.425 536.747,297.165 537.584,293.747 538.646,290.139 539.829,286.302 540.838,282.390 541.617,278.202 542.179,273.593 542.489,268.521 542.696,262.949 542.451,257.119 541.872,251.393 541.076,246.051 540.043,241.413 538.664,237.407 536.963,234.119 535.117,231.801 533.259,230.251 531.386,229.097 529.379,228.335 527.122,227.854 524.563,227.446 522.240,226.977 520.319,226.528 518.639,226.157 517.020,225.845 515.203,225.588 513.435,225.398 511.711,225.408 509.904,225.527 508.101,225.746 506.423,225.958 504.834,226.242 503.327,226.565 501.785,226.825 500.296,227.013 499.102,227.136 498.374,227.194 498.205,227.149 498.460,227.057 498.810,226.957 499.149,226.904 499.552,226.865 500.084,226.797 501.185,226.768 502.968,226.663 505.334,226.700 508.216,226.857 511.511,227.129 515.252,227.548 519.412,228.062 523.941,228.609 528.564,229.230 533.120,229.870 537.757,230.611 542.016,231.495 545.987,232.538 549.846,233.884 553.455,235.537 556.770,237.408 559.722,239.525 562.113,242.035 563.940,245.091 565.624,248.704 567.080,253.027 568.204,257.864 568.949,263.106 569.403,268.603 569.619,274.079 569.822,279.565 569.848,284.777 569.664,289.476 569.245,293.545 568.626,297.176 567.987,300.701 567.105,304.175 565.820,307.507 564.218,310.737 562.271,314.133 560.262,317.359 558.424,320.020 556.657,322.189 554.901,323.821 552.966,324.986 551.008,325.556 549.237,325.564 547.803,325.118 546.583,324.233 545.179,322.817 543.606,320.747 542.028,318.096 540.783,315.041 539.849,311.642 539.035,307.715 538.434,303.028 538.084,297.787 538.088,292.269 538.355,286.560 539.003,280.959 540.038,275.840 541.299,271.278 542.720,267.271 544.100,263.618 545.521,260.176 546.874,256.817 548.248,253.349 549.786,249.804 551.176,246.038 552.485,242.121 553.729,237.967 555.024,233.665 556.385,229.352 557.392,225.211 557.847,221.402 557.882,218.026 557.488,215.137 556.500,212.933 554.903,211.449 552.789,210.485 550.337,209.777 547.631,209.144 544.776,208.563 541.917,208.051 539.125,207.557 536.445,207.293 533.989,207.216 531.717,207.375 529.525,207.649 527.268,207.985 524.941,208.433 522.885,208.954 521.110,209.532 519.501,210.313 518.267,211.211 517.298,212.116 516.675,213.126 516.334,214.175 516.229,215.276 516.385,216.617 516.653,218.388 517.155,220.757 517.873,223.697 518.767,227.029 519.892,230.530 521.259,234.047 522.728,237.566 524.438,240.879 526.061,243.985 527.908,247.079 530.526,250.270 532.961,253.748 534.818,257.243 536.768,260.792 538.632,264.428 540.544,267.947 542.252,271.492 543.719,275.256 545.107,279.112 546.351,282.765 547.352,286.568 548.105,290.633 548.755,294.939 549.199,299.926 549.463,305.590 549.586,311.816 549.432,318.330 549.130,324.801 548.500,330.874 547.525,336.108 546.496,340.683 545.429,344.689 544.232,348.186 543.043,351.462 541.752,354.531 540.391,357.305 539.027,359.979 537.409,362.702 535.666,365.432 533.846,368.156 531.867,370.797 529.750,373.209 527.304,375.308 524.702,377.078 522.115,378.461 519.478,379.391 516.749,379.911 513.901,379.955 511.023,379.487 508.561,378.451 506.554,376.687 504.707,374.068 502.900,370.430 501.365,365.931 499.970,360.708 498.731,354.902 498.132,348.737 498.009,342.413 498.425,336.042 499.267,329.971 500.502,324.532 502.162,319.830 504.200,315.860 506.468,312.534 508.720,309.841 510.926,307.799 513.389,306.004 516.299,304.242 519.242,302.688 522.151,301.278 525.282,300.020 528.468,298.944 531.727,298.089 534.958,297.421 537.913,296.799 540.621,296.095 543.243,295.484 545.429,294.743 547.259,293.950 548.814,293.239 549.735,292.655 549.963,292.306 549.627,292.194 549.091,292.336 548.616,292.504 548.280,292.590 547.710,292.397 546.760,291.759 545.520,290.909 544.069,290.021 542.365,289.138 540.397,288.303 538.174,287.621 535.715,287.146 533.031,286.678 530.105,286.360 526.747,286.053 522.717,285.775 518.235,285.744 513.579,286.013 509.128,286.791 505.377,288.047 502.410,289.784 499.952,291.840 497.990,294.035 496.745,296.269 496.130,298.310 495.938,300.154 496.053,301.901 496.545,303.851 497.380,306.119 498.567,308.943 499.853,312.391 501.376,316.199 503.025,320.327 504.928,324.581 506.946,328.710 508.675,332.482 510.272,336.114 511.965,339.764 513.871,343.477 515.943,347.374 518.137,351.465 520.215,355.585 522.079,359.514 523.684,363.489 525.041,367.500 526.151,371.567 527.113,375.876 527.996,380.145 528.553,384.205 529.025,388.474 529.474,392.938 529.716,397.293 530.038,401.569 530.096,405.468 529.700,408.708 529.255,411.499 528.746,414.108 528.131,416.344 527.329,418.180 526.609,419.780 525.651,421.078 524.433,422.045 523.131,422.858 521.544,423.574 519.623,424.217 517.288,424.761 514.624,425.088 511.677,425.209 508.475,424.932 505.352,424.194 502.301,423.048 499.186,421.472 496.251,419.441 493.549,417.012 490.843,414.091 488.388,410.764 486.261,407.298 484.620,403.801 483.773,400.414 483.459,397.330 483.516,394.488 484.121,392.123 485.334,390.328 486.940,388.931 488.930,387.751 491.214,386.547 493.701,385.175 496.475,383.739 499.684,382.204 503.314,380.578 507.237,379.184 511.165,377.958 514.669,376.746 518.081,375.568 521.335,374.371 524.021,373.382 526.137,372.681 527.672,372.187 528.770,372.018 529.471,372.173 529.656,372.481 529.325,372.737 528.816,372.896 528.470,372.989 528.249,373.023 528.188,372.977 528.232,372.936 528.017,372.825 527.024,372.524 525.054,371.941 522.806,371.318 520.670,371.016 518.305,370.934 515.379,370.904 512.121,370.787 508.852,370.695 505.735,370.725 502.760,370.849 499.474,371.204 496.052,371.853 492.897,372.986 490.024,374.480 487.475,376.464 485.318,378.938 483.504,381.772 482.053,385.156 480.904,388.917 479.851,392.738 478.993,396.864 478.457,401.293 478.180,405.813 478.170,410.174 478.572,414.465 479.213,418.573 480.023,422.440 480.938,426.106 481.924,429.390 482.943,432.025 484.005,434.369 485.199,436.826 486.637,439.350 488.211,441.943 490.027,444.784 492.094,447.892 494.159,451.276 496.324,454.636 498.498,457.896 500.521,461.173 502.407,464.367 504.546,467.681 506.628,470.886 508.115,473.594 509.186,475.774 509.908,477.454 510.627,478.911 511.289,480.312 511.771,481.670 512.249,483.083 512.665,484.622 513.098,486.266 513.531,488.052 513.770,489.944 513.826,491.846 513.691,493.796 513.368,495.779 512.865,497.864 512.049,499.984 510.958,502.041 509.662,504.000 507.901,505.725 505.824,507.194 503.465,508.260 500.570,509.048 497.272,509.461 493.743,509.526 489.775,509.260 485.649,508.727 481.540,508.073 477.791,507.293 474.396,506.522 471.593,505.892 469.405,505.502 467.510,505.155 465.551,504.645 463.667,503.846 462.375,502.917 461.750,502.139 461.812,501.590 462.303,501.135 463.000,500.437 463.946,499.352 465.189,498.029 466.848,496.424 468.982,494.433 471.537,492.000 474.555,488.904 477.825,485.273 481.223,481.071 484.739,476.450 488.347,471.513 491.950,466.214 495.395,460.652 498.636,455.155 501.753,449.888 504.342,444.844 506.849,440.336 509.104,436.256 510.543,432.799 511.436,430.114 511.707,428.125 511.445,426.910 510.720,426.338 509.680,426.152 508.184,425.997 506.186,425.483 503.627,424.693 500.672,423.905 497.646,423.128 494.650,422.477 491.680,421.852 488.466,421.310 485.059,420.986 481.819,421.033 478.930,421.679 476.045,422.734 472.649,424.204 469.144,426.283 465.790,428.962 462.440,432.365 459.389,436.753 456.649,441.924 454.071,447.532 451.297,453.489 448.983,459.506 447.276,465.317 445.658,470.842 444.390,476.272 443.393,481.502 442.849,486.325 442.832,490.791 442.942,494.781 443.222,498.497 443.729,501.856 444.385,504.800 445.325,507.577 446.445,510.362 447.885,513.246 449.750,516.372 451.832,519.920 454.014,523.783 456.137,527.653 458.024,531.368 459.479,535.055 460.476,538.810 461.485,542.398 462.201,545.838 462.670,549.040 462.624,551.978 462.188,554.649 461.854,557.334 461.400,560.162 460.712,563.059 459.764,565.832 458.645,568.587 457.432,571.417 456.077,574.209 454.405,576.933 452.327,579.476 449.886,581.903 446.974,584.484 443.701,587.056 439.678,589.377 435.025,591.593 430.255,593.748 425.362,595.685 420.306,597.335 415.198,598.718 410.042,599.919 405.039,600.976 400.105,601.888 395.015,602.807 389.688,603.571 384.347,604.291 379.452,604.958 374.808,605.456 370.112,605.786 365.192,605.763 360.261,605.420 355.702,604.757 351.599,603.791 347.586,602.554 343.410,601.092 339.456,599.195 335.762,596.984 332.372,594.700 329.460,592.405 326.701,590.119 324.226,587.698 322.332,585.188 320.528,582.657 318.842,579.943 317.548,577.127 316.412,574.330 315.315,571.266 314.398,567.813 313.606,564.042 312.949,560.086 312.668,556.227 312.758,552.664 313.166,549.421 313.877,546.322 314.831,543.153 315.825,539.830 316.872,536.316 318.033,532.818 319.174,529.286 320.538,525.801 322.073,522.275 323.637,518.652 325.075,514.920 326.372,511.184 327.726,507.607 329.123,504.175 330.483,500.821 331.711,497.639 332.734,494.455 333.618,491.324 334.326,488.376 334.803,485.678 335.012,483.221 335.242,480.780 335.446,478.300 335.331,475.959 335.051,473.650 334.712,471.173 333.985,468.641 332.992,466.056 331.837,463.373 330.247,460.724 328.439,458.175 326.330,455.602 324.016,453.055 321.609,450.692 319.034,448.533 316.245,446.534 313.337,444.746 310.433,443.279 307.616,442.052 304.944,441.072 302.161,440.537 299.108,440.393 295.919,440.666 292.649,441.357 289.227,442.370 285.645,443.710 282.047,445.187 278.583,446.728 275.074,448.280 271.475,449.978 267.939,451.780 264.365,453.614 260.912,455.470 257.635,457.574 254.590,460.241 251.399,463.154 248.080,466.075 244.872,469.158 241.636,472.405 238.402,475.683 235.248,478.860 232.431,481.870 229.926,485.014 227.391,488.344 224.865,491.833 222.496,495.599 220.310,499.870 218.271,504.543 216.187,509.193 214.261,513.813 212.694,518.348 211.368,522.618 210.520,526.932 209.745,531.134 208.988,535.146 208.636,539.065 208.487,542.787 208.522,546.534 208.877,550.306 209.377,554.058 209.957,557.659 210.846,561.189 211.937,564.699 213.276,568.113 214.936,571.629 216.858,575.219 218.938,578.765 221.033,582.286 223.085,585.935 225.359,589.604 227.727,593.110 230.132,596.548 232.716,600.129 235.421,603.784 237.909,607.169 240.228,610.429 242.416,613.681 244.440,616.764 246.247,619.717 247.937,622.828 249.684,626.074 251.272,629.355 252.639,632.665 253.906,636.389 255.232,640.539 256.445,644.868 257.294,649.353 257.818,653.754 257.923,657.846 257.837,661.839 257.514,665.811 257.104,669.661 256.535,673.415 255.842,677.005 254.927,680.290 253.595,683.346 252.091,686.385 250.467,689.293 248.680,692.081 246.760,694.816 244.553,697.383 242.011,699.784 239.196,701.896 236.408,703.832 233.450,705.529 230.378,706.989 227.180,708.475 223.733,709.750 220.268,710.751 216.841,711.527 213.305,712.094 209.702,712.521 206.114,712.760 202.320,712.900 198.255,712.814 194.131,712.500 189.895,711.996 185.616,711.345 181.561,710.592 177.801,709.750 174.180,708.774 170.764,707.681 167.667,706.571 164.846,705.325 162.096,704.014 159.533,702.475 157.127,700.619 154.847,698.478 152.484,695.898 150.182,693.001 148.166,689.763 146.275,686.113 144.599,682.264 143.117,678.121 141.894,673.725 140.695,669.079 140.117,664.040 140.163,659.000 140.055,653.988 140.067,648.933 140.371,643.778 140.957,638.524 141.734,633.399 142.776,628.315 144.244,623.291 145.971,618.262 147.919,613.102 150.046,607.881 152.284,602.516 154.827,597.084 157.566,591.548 160.342,585.832 162.919,580.126 165.534,574.535 168.147,568.834 170.713,563.051 173.180,557.400 175.615,551.830 177.977,546.441 180.260,541.388 182.627,536.475 185.017,531.901 187.094,527.607 188.985,523.439 190.936,519.281 192.932,514.981 194.834,510.569 196.517,506.092 198.176,501.308 199.915,496.159 201.564,490.920 203.198,485.551 204.757,480.160 206.274,474.783 207.740,469.238 209.231,463.714 210.450,458.246 211.505,452.815 212.703,447.358 213.663,441.839 214.156,436.111 214.776,430.370 215.300,424.675 215.531,418.903 215.640,413.184 215.542,407.662 215.190,402.308 214.676,397.101 214.108,392.109 213.359,387.364 212.315,383.058 211.211,379.104 210.156,375.449 208.780,372.199 207.345,369.068 205.836,366.128 204.168,363.476 202.436,361.142 200.373,359.105 198.159,357.178 195.955,355.249 193.614,353.483 191.080,351.858 188.503,350.268 186.089,348.717 183.460,347.317 180.584,345.935 177.637,344.735 174.535,343.750 171.345,342.854 168.189,342.164 165.107,341.706 161.955,341.380 158.898,341.343 156.025,341.520 153.225,341.874 150.202,342.457 146.949,343.281 143.880,344.400 140.707,345.822 137.312,347.536 134.091,349.521 131.239,351.656 128.505,354.006 125.743,356.510 123.127,359.295 120.787,362.270 118.722,365.155 116.897,367.891 115.298,370.714 113.923,373.679 112.669,376.534 111.639,379.163 110.901,381.595 110.455,383.954 110.203,386.500 110.213,389.119 110.647,391.967 111.324,395.140 112.274,398.627 113.639,402.226 115.295,405.707 117.166,408.955 119.280,411.955 121.480,414.591 124.089,416.750 127.026,418.590 127.026,418.590 " />
<rect x="0" y="0" width="612" height="792" fill-opacity="0"/></g></svg>