<svg xmlns="http://www.w3.org/2000/svg" height="792" width="612">
        <script type="application/ecmascript"> <![CDATA[
            var visiblePage = 'p1';
            function goToPage(page) {
                document.getElementById(visiblePage).setAttribute('style', 'display: none');
                document.getElementById(page).setAttribute('style', 'display: inline');
                visiblePage = page;
            }
        ]]> </script>
    <g id="p1" style="display:inline"><polyline style="fill:none;stroke:black;stroke-width:2.174;opacity:0.9" points="362.296,716.213 360.384,717.952 357.775,720.634 357.356,721.608 357.619,721.458 357.960,721.189 358.155,721.066 358.411,720.842 358.586,720.560 358.685,720.279 358.680,719.822 358.618,718.856 358.439,717.241 358.256,715.047 358.143,712.196 358.104,708.712 358.241,704.392 358.507,699.149 358.927,693.027 359.539,686.224 360.330,679.145 361.238,671.884 362.346,664.614 363.518,657.377 364.734,650.229 365.857,643.286 367.016,636.511 368.202,630.113 369.079,624.130 369.769,618.549 370.497,613.461 371.156,609.050 371.698,605.487 372.113,602.493 372.417,599.876 372.662,597.661 372.888,595.738 373.058,594.228 373.299,593.035 373.666,591.976 374.072,590.946 374.404,590.262 374.605,589.907 374.809,589.567 375.036,589.190 375.195,589.041 375.258,589.109 375.210,589.202 375.218,589.227 375.513,589.194 375.889,588.971 376.042,588.792 376.137,588.725 376.310,588.627 376.728,588.484 377.295,588.148 377.975,587.792 378.514,587.491 378.514,587.491 378.514,587.491 378.514,587.491 " />
<polyline style="fill:none;stroke:black;stroke-width:2.174;opacity:0.9" points="371.506,587.914 372.134,586.832 372.507,585.806 372.804,586.688 373.445,587.669 374.640,588.796 376.472,590.124 379.063,591.564 381.907,593.264 384.683,595.145 387.580,597.133 390.740,599.286 393.967,601.514 397.255,603.846 400.561,606.319 403.991,608.991 407.690,611.604 411.209,614.025 414.471,616.350 417.911,618.603 421.491,620.754 425.024,622.637 428.305,624.080 431.345,624.977 434.121,625.399 436.568,625.533 438.805,625.511 441.146,625.359 443.745,625.109 446.200,624.811 448.395,624.321 450.451,623.615 450.451,623.615 450.451,623.615 450.451,623.615 450.451,623.615 457.178,618.148 457.178,618.148 " />
<polyline style="fill:none;stroke:black;stroke-width:2.174;opacity:0.9" points="442.195,490.026 442.312,484.386 441.691,474.320 440.572,469.082 439.761,466.412 439.331,464.585 438.927,462.450 438.597,460.470 438.424,458.810 438.222,457.446 438.104,456.314 438.119,455.350 438.019,454.611 437.735,454.086 437.545,453.687 437.258,453.306 437.078,453.032 437.002,452.944 437.036,453.041 437.104,453.114 437.186,453.149 437.215,453.132 437.253,453.072 437.280,452.931 437.497,452.222 438.159,450.491 439.221,447.768 440.555,444.266 442.338,440.107 444.194,435.358 446.012,430.340 447.939,425.130 449.878,419.586 451.818,414.050 453.638,408.462 455.510,403.080 457.326,397.994 458.973,392.962 460.438,387.872 461.773,382.893 462.690,378.008 463.647,373.164 464.759,368.379 465.620,363.640 466.412,359.105 467.285,355.051 468.335,351.398 469.582,348.074 470.927,345.274 472.249,342.833 473.363,340.772 474.513,339.025 476.009,337.493 477.532,336.213 478.855,335.444 480.396,335.163 481.962,335.210 483.319,335.554 484.478,336.197 485.527,337.082 486.554,337.988 487.465,338.891 488.245,339.743 488.824,340.346 489.216,340.580 489.506,340.499 489.904,340.179 490.561,339.475 491.494,338.156 492.556,336.225 492.556,336.225 492.556,336.225 492.556,336.225 492.556,336.225 492.556,336.225 " />
<polyline style="fill:none;stroke:black;stroke-width:2.174;opacity:0.9" points="276.653,417.598 273.213,417.822 266.913,418.284 263.880,418.595 262.984,418.536 262.879,418.135 262.939,417.407 263.140,416.498 263.509,415.270 264.043,413.486 264.970,410.841 266.473,406.921 268.494,401.560 270.934,394.943 273.773,387.363 277.022,379.116 280.732,370.334 284.789,361.316 288.744,352.317 292.685,343.819 296.515,336.222 299.828,329.850 302.538,324.696 304.714,320.771 306.572,318.093 308.083,316.625 309.307,316.216 310.216,316.599 310.887,317.527 311.843,318.706 313.300,320.059 315.048,321.495 316.932,323.005 319.001,324.389 321.132,325.697 323.373,326.827 325.694,327.729 328.043,328.297 330.564,328.578 333.044,328.688 335.458,328.446 337.961,327.925 340.709,327.179 343.605,326.218 346.544,325.148 349.536,324.029 352.314,322.934 354.900,321.744 357.437,320.556 360.042,319.484 362.844,318.595 365.718,317.824 368.732,317.109 371.820,316.417 374.754,315.780 377.594,315.127 380.778,314.353 384.146,313.557 387.231,312.833 390.015,312.039 392.935,311.202 395.997,310.430 398.762,309.661 401.395,308.836 404.201,307.870 407.132,306.914 409.914,305.873 412.799,304.633 415.839,303.274 418.940,302.144 422.003,301.374 424.943,300.912 427.508,300.716 429.575,300.859 431.468,301.478 433.416,302.447 435.471,303.839 437.418,305.376 439.332,306.883 441.358,308.341 443.707,309.917 446.514,311.487 449.695,312.726 453.093,313.595 456.645,314.365 460.191,315.223 460.191,315.223 " />
<rect x="0" y="0" width="612" height="792" fill-opacity="0"/></g></svg>