<svg xmlns="http://www.w3.org/2000/svg" height="1872" width="1404">
        <script type="application/ecmascript"> <![CDATA[
            var visiblePage = 'p1';
            function goToPage(page) {
                document.getElementById(visiblePage).setAttribute('style', 'display: none');
                document.getElementById(page).setAttribute('style', 'display: inline');
                visiblePage = page;
            }
        ]]> </script>
    <g id="p1" style="display:inline"><filter id="blurMe"><feGaussianBlur in="SourceGraphic" stdDeviation="10" /></filter><!-- pen Calligraphy --> 
<polyline style="fill:none;stroke:[0, 0, 0];stroke-width:2.125;opacity:1" stroke-linecap="round" points=""/>
<polyline style="fill:none; stroke:rgb(0, 0, 0) ;stroke-width:1.194;opacity:1" stroke-linecap="round" points="361.798,178.894 365.905,175.598 "/>
<polyline style="fill:none; stroke:rgb(0, 0, 0) ;stroke-width:2.438;opacity:1" stroke-linecap="round" points="365.905,175.598 366.034,176.403 365.231,177.225 "/>
<polyline style="fill:none; stroke:rgb(0, 0, 0) ;stroke-width:2.446;opacity:1" stroke-linecap="round" points="365.231,177.225 359.131,193.282 353.985,204.430 "/>
<polyline style="fill:none; stroke:rgb(0, 0, 0) ;stroke-width:3.176;opacity:1" stroke-linecap="round" points="353.985,204.430 347.451,217.492 340.636,233.556 "/>
<polyline style="fill:none; stroke:rgb(0, 0, 0) ;stroke-width:5.769;opacity:1" stroke-linecap="round" points="340.636,233.556 324.805,273.409 316.810,296.755 "/>
<polyline style="fill:none; stroke:rgb(0, 0, 0) ;stroke-width:8.182;opacity:1" stroke-linecap="round" points="316.810,296.755 309.490,321.715 302.719,346.641 "/>
<polyline style="fill:none; stroke:rgb(0, 0, 0) ;stroke-width:11.425;opacity:1" stroke-linecap="round" points="302.719,346.641 291.846,396.560 285.992,421.225 "/>
<polyline style="fill:none; stroke:rgb(0, 0, 0) ;stroke-width:13.758;opacity:1" stroke-linecap="round" points="285.992,421.225 270.514,488.975 264.305,514.092 "/>
<polyline style="fill:none; stroke:rgb(0, 0, 0) ;stroke-width:14.913;opacity:1" stroke-linecap="round" points="264.305,514.092 264.297,515.252 266.465,510.142 "/>
<polyline style="fill:none; stroke:rgb(0, 0, 0) ;stroke-width:9.666;opacity:1" stroke-linecap="round" points="266.465,510.142 269.377,502.718 274.379,493.697 "/>
<polyline style="fill:none; stroke:rgb(0, 0, 0) ;stroke-width:6.747;opacity:1" stroke-linecap="round" points="274.379,493.697 281.075,481.802 289.545,467.371 "/>
<polyline style="fill:none; stroke:rgb(0, 0, 0) ;stroke-width:4.758;opacity:1" stroke-linecap="round" points="289.545,467.371 309.488,434.965 319.390,417.487 "/>
<polyline style="fill:none; stroke:rgb(0, 0, 0) ;stroke-width:4.080;opacity:1" stroke-linecap="round" points="319.390,417.487 329.081,398.971 340.061,379.498 "/>
<polyline style="fill:none; stroke:rgb(0, 0, 0) ;stroke-width:3.749;opacity:1" stroke-linecap="round" points="340.061,379.498 352.450,358.931 366.409,337.961 "/>
<polyline style="fill:none; stroke:rgb(0, 0, 0) ;stroke-width:3.608;opacity:1" stroke-linecap="round" points="366.409,337.961 395.320,296.860 409.337,278.326 "/>
<polyline style="fill:none; stroke:rgb(0, 0, 0) ;stroke-width:3.548;opacity:1" stroke-linecap="round" points="409.337,278.326 423.619,262.055 436.713,248.834 "/>
<polyline style="fill:none; stroke:rgb(0, 0, 0) ;stroke-width:3.488;opacity:1" stroke-linecap="round" points="436.713,248.834 447.350,239.119 455.014,233.445 "/>
<polyline style="fill:none; stroke:rgb(0, 0, 0) ;stroke-width:3.358;opacity:1" stroke-linecap="round" points="455.014,233.445 459.829,231.648 462.131,233.251 "/>
<polyline style="fill:none; stroke:rgb(0, 0, 0) ;stroke-width:6.904;opacity:1" stroke-linecap="round" points="462.131,233.251 461.674,237.115 458.918,242.446 "/>
<polyline style="fill:none; stroke:rgb(0, 0, 0) ;stroke-width:6.817;opacity:1" stroke-linecap="round" points="458.918,242.446 449.178,259.852 433.229,286.155 "/>
<polyline style="fill:none; stroke:rgb(0, 0, 0) ;stroke-width:6.244;opacity:1" stroke-linecap="round" points="433.229,286.155 424.446,301.443 415.833,317.415 "/>
<polyline style="fill:none; stroke:rgb(0, 0, 0) ;stroke-width:6.028;opacity:1" stroke-linecap="round" points="415.833,317.415 398.582,347.708 382.171,378.421 "/>
<polyline style="fill:none; stroke:rgb(0, 0, 0) ;stroke-width:5.753;opacity:1" stroke-linecap="round" points="382.171,378.421 374.274,393.956 361.670,423.418 "/>
<polyline style="fill:none; stroke:rgb(0, 0, 0) ;stroke-width:4.218;opacity:1" stroke-linecap="round" points="361.670,423.418 349.186,454.139 349.593,456.578 "/>
<polyline style="fill:none; stroke:rgb(0, 0, 0) ;stroke-width:2.573;opacity:1" stroke-linecap="round" points="349.593,456.578 352.720,454.461 357.497,449.584 "/>
<polyline style="fill:none; stroke:rgb(0, 0, 0) ;stroke-width:1.946;opacity:1" stroke-linecap="round" points="357.497,449.584 376.404,432.472 402.317,410.504 "/>
<polyline style="fill:none; stroke:rgb(0, 0, 0) ;stroke-width:1.923;opacity:1" stroke-linecap="round" points="402.317,410.504 430.115,384.708 444.694,370.585 "/>
<polyline style="fill:none; stroke:rgb(0, 0, 0) ;stroke-width:2.422;opacity:1" stroke-linecap="round" points="444.694,370.585 470.125,343.883 482.376,331.202 "/>
<polyline style="fill:none; stroke:rgb(0, 0, 0) ;stroke-width:2.837;opacity:1" stroke-linecap="round" points="482.376,331.202 503.359,308.642 528.496,282.053 "/>
<polyline style="fill:none; stroke:rgb(0, 0, 0) ;stroke-width:3.159;opacity:1" stroke-linecap="round" points="528.496,282.053 530.211,279.764 529.280,279.505 "/>
<polyline style="fill:none; stroke:rgb(0, 0, 0) ;stroke-width:4.144;opacity:1" stroke-linecap="round" points="529.280,279.505 522.173,283.078 515.136,286.792 "/>
<polyline style="fill:none; stroke:rgb(0, 0, 0) ;stroke-width:4.333;opacity:1" stroke-linecap="round" points="515.136,286.792 505.743,292.554 494.445,300.399 "/>
<polyline style="fill:none; stroke:rgb(0, 0, 0) ;stroke-width:4.811;opacity:1" stroke-linecap="round" points="494.445,300.399 482.189,310.814 470.089,323.145 "/>
<polyline style="fill:none; stroke:rgb(0, 0, 0) ;stroke-width:6.152;opacity:1" stroke-linecap="round" points="470.089,323.145 457.680,336.922 445.252,353.314 "/>
<polyline style="fill:none; stroke:rgb(0, 0, 0) ;stroke-width:8.001;opacity:1" stroke-linecap="round" points="445.252,353.314 433.220,371.761 421.813,390.643 "/>
<polyline style="fill:none; stroke:rgb(0, 0, 0) ;stroke-width:9.929;opacity:1" stroke-linecap="round" points="421.813,390.643 412.454,409.383 397.425,441.977 "/>
<polyline style="fill:none; stroke:rgb(0, 0, 0) ;stroke-width:12.248;opacity:1" stroke-linecap="round" points="397.425,441.977 392.985,454.033 391.214,462.650 "/>
<polyline style="fill:none; stroke:rgb(0, 0, 0) ;stroke-width:15.433;opacity:1" stroke-linecap="round" points="391.214,462.650 391.769,467.906 394.352,469.284 "/>
<polyline style="fill:none; stroke:rgb(0, 0, 0) ;stroke-width:10.292;opacity:1" stroke-linecap="round" points="394.352,469.284 398.527,467.456 403.591,464.013 "/>
<polyline style="fill:none; stroke:rgb(0, 0, 0) ;stroke-width:7.274;opacity:1" stroke-linecap="round" points="403.591,464.013 410.286,460.486 419.369,455.324 "/>
<polyline style="fill:none; stroke:rgb(0, 0, 0) ;stroke-width:5.656;opacity:1" stroke-linecap="round" points="419.369,455.324 430.060,447.476 441.653,436.904 "/>
<polyline style="fill:none; stroke:rgb(0, 0, 0) ;stroke-width:4.822;opacity:1" stroke-linecap="round" points="441.653,436.904 454.599,424.130 468.369,409.373 "/>
<polyline style="fill:none; stroke:rgb(0, 0, 0) ;stroke-width:4.236;opacity:1" stroke-linecap="round" points="468.369,409.373 499.219,375.415 530.659,339.867 "/>
<polyline style="fill:none; stroke:rgb(0, 0, 0) ;stroke-width:3.877;opacity:1" stroke-linecap="round" points="530.659,339.867 563.644,305.942 577.968,290.537 "/>
<polyline style="fill:none; stroke:rgb(0, 0, 0) ;stroke-width:3.780;opacity:1" stroke-linecap="round" points="577.968,290.537 590.834,277.383 610.556,259.311 "/>
<polyline style="fill:none; stroke:rgb(0, 0, 0) ;stroke-width:3.156;opacity:1" stroke-linecap="round" points="610.556,259.311 615.417,254.295 616.998,252.336 "/>
<polyline style="fill:none; stroke:rgb(0, 0, 0) ;stroke-width:2.553;opacity:1" stroke-linecap="round" points="616.998,252.336 611.833,257.784 611.833,257.784 " />
<!-- pen Calligraphy --> 
<polyline style="fill:none;stroke:[0, 0, 0];stroke-width:2.125;opacity:1" stroke-linecap="round" points=""/>
<polyline style="fill:none; stroke:rgb(0, 0, 0) ;stroke-width:2.179;opacity:1" stroke-linecap="round" points="530.194,347.712 503.485,393.796 "/>
<polyline style="fill:none; stroke:rgb(0, 0, 0) ;stroke-width:2.368;opacity:1" stroke-linecap="round" points="503.485,393.796 496.205,408.224 495.433,412.839 "/>
<polyline style="fill:none; stroke:rgb(0, 0, 0) ;stroke-width:2.893;opacity:1" stroke-linecap="round" points="495.433,412.839 497.267,413.139 499.827,412.264 "/>
<polyline style="fill:none; stroke:rgb(0, 0, 0) ;stroke-width:1.458;opacity:1" stroke-linecap="round" points="499.827,412.264 508.146,406.406 522.119,398.595 "/>
<polyline style="fill:none; stroke:rgb(0, 0, 0) ;stroke-width:1.361;opacity:1" stroke-linecap="round" points="522.119,398.595 550.854,381.622 561.429,375.727 "/>
<polyline style="fill:none; stroke:rgb(0, 0, 0) ;stroke-width:1.348;opacity:1" stroke-linecap="round" points="561.429,375.727 572.149,370.332 582.746,365.562 "/>
<polyline style="fill:none; stroke:rgb(0, 0, 0) ;stroke-width:1.334;opacity:1" stroke-linecap="round" points="582.746,365.562 621.024,349.883 627.171,346.911 "/>
<polyline style="fill:none; stroke:rgb(0, 0, 0) ;stroke-width:1.430;opacity:1" stroke-linecap="round" points="627.171,346.911 631.479,343.598 634.330,340.504 "/>
<polyline style="fill:none; stroke:rgb(0, 0, 0) ;stroke-width:1.580;opacity:1" stroke-linecap="round" points="634.330,340.504 635.529,338.496 635.024,338.014 "/>
<polyline style="fill:none; stroke:rgb(0, 0, 0) ;stroke-width:2.382;opacity:1" stroke-linecap="round" points="635.024,338.014 633.205,339.076 631.060,340.912 "/>
<polyline style="fill:none; stroke:rgb(0, 0, 0) ;stroke-width:2.902;opacity:1" stroke-linecap="round" points="631.060,340.912 627.507,344.827 615.727,360.170 "/>
<polyline style="fill:none; stroke:rgb(0, 0, 0) ;stroke-width:4.345;opacity:1" stroke-linecap="round" points="615.727,360.170 608.462,370.616 601.298,382.284 "/>
<polyline style="fill:none; stroke:rgb(0, 0, 0) ;stroke-width:6.291;opacity:1" stroke-linecap="round" points="601.298,382.284 594.605,394.710 588.839,408.486 "/>
<polyline style="fill:none; stroke:rgb(0, 0, 0) ;stroke-width:9.006;opacity:1" stroke-linecap="round" points="588.839,408.486 583.869,422.543 574.341,448.183 "/>
<polyline style="fill:none; stroke:rgb(0, 0, 0) ;stroke-width:12.317;opacity:1" stroke-linecap="round" points="574.341,448.183 571.261,458.026 569.877,464.742 "/>
<polyline style="fill:none; stroke:rgb(0, 0, 0) ;stroke-width:15.951;opacity:1" stroke-linecap="round" points="569.877,464.742 570.111,467.771 571.287,467.101 "/>
<polyline style="fill:none; stroke:rgb(0, 0, 0) ;stroke-width:10.823;opacity:1" stroke-linecap="round" points="571.287,467.101 573.197,463.923 575.129,460.822 "/>
<polyline style="fill:none; stroke:rgb(0, 0, 0) ;stroke-width:7.715;opacity:1" stroke-linecap="round" points="575.129,460.822 578.375,457.426 583.257,451.718 "/>
<polyline style="fill:none; stroke:rgb(0, 0, 0) ;stroke-width:6.054;opacity:1" stroke-linecap="round" points="583.257,451.718 590.138,442.092 598.569,428.512 "/>
<polyline style="fill:none; stroke:rgb(0, 0, 0) ;stroke-width:4.919;opacity:1" stroke-linecap="round" points="598.569,428.512 616.590,396.433 643.696,353.381 "/>
<polyline style="fill:none; stroke:rgb(0, 0, 0) ;stroke-width:4.315;opacity:1" stroke-linecap="round" points="643.696,353.381 653.232,340.204 663.010,327.432 "/>
<polyline style="fill:none; stroke:rgb(0, 0, 0) ;stroke-width:4.135;opacity:1" stroke-linecap="round" points="663.010,327.432 673.613,315.171 695.880,293.124 "/>
<polyline style="fill:none; stroke:rgb(0, 0, 0) ;stroke-width:3.988;opacity:1" stroke-linecap="round" points="695.880,293.124 708.528,283.401 721.383,275.032 "/>
<polyline style="fill:none; stroke:rgb(0, 0, 0) ;stroke-width:3.901;opacity:1" stroke-linecap="round" points="721.383,275.032 732.984,268.859 743.045,264.934 "/>
<polyline style="fill:none; stroke:rgb(0, 0, 0) ;stroke-width:3.810;opacity:1" stroke-linecap="round" points="743.045,264.934 751.601,262.694 758.848,261.747 "/>
<polyline style="fill:none; stroke:rgb(0, 0, 0) ;stroke-width:5.372;opacity:1" stroke-linecap="round" points="758.848,261.747 765.002,262.332 769.814,264.446 "/>
<polyline style="fill:none; stroke:rgb(0, 0, 0) ;stroke-width:6.937;opacity:1" stroke-linecap="round" points="769.814,264.446 772.869,268.034 774.853,272.324 "/>
<polyline style="fill:none; stroke:rgb(0, 0, 0) ;stroke-width:9.368;opacity:1" stroke-linecap="round" points="774.853,272.324 776.767,277.300 776.767,277.300 "/>
<polyline style="fill:none; stroke:rgb(0, 0, 0) ;stroke-width:5.895;opacity:1" stroke-linecap="round" points="776.767,277.300 776.767,277.300 776.767,277.300 " />
<!-- pen Calligraphy --> 
<polyline style="fill:none;stroke:[0, 0, 0];stroke-width:2.125;opacity:1" stroke-linecap="round" points=""/>
<polyline style="fill:none; stroke:rgb(0, 0, 0) ;stroke-width:1.911;opacity:1" stroke-linecap="round" points="791.202,294.410 777.102,303.790 "/>
<polyline style="fill:none; stroke:rgb(0, 0, 0) ;stroke-width:2.269;opacity:1" stroke-linecap="round" points="777.102,303.790 770.981,310.574 763.971,319.755 "/>
<polyline style="fill:none; stroke:rgb(0, 0, 0) ;stroke-width:3.722;opacity:1" stroke-linecap="round" points="763.971,319.755 762.697,323.753 762.525,328.259 "/>
<polyline style="fill:none; stroke:rgb(0, 0, 0) ;stroke-width:6.475;opacity:1" stroke-linecap="round" points="762.525,328.259 762.868,333.042 763.846,337.025 "/>
<polyline style="fill:none; stroke:rgb(0, 0, 0) ;stroke-width:8.286;opacity:1" stroke-linecap="round" points="763.846,337.025 765.344,339.513 767.508,340.434 "/>
<polyline style="fill:none; stroke:rgb(0, 0, 0) ;stroke-width:7.153;opacity:1" stroke-linecap="round" points="767.508,340.434 770.544,340.457 779.627,339.601 "/>
<polyline style="fill:none; stroke:rgb(0, 0, 0) ;stroke-width:4.182;opacity:1" stroke-linecap="round" points="779.627,339.601 786.104,338.252 793.727,335.769 "/>
<polyline style="fill:none; stroke:rgb(0, 0, 0) ;stroke-width:3.568;opacity:1" stroke-linecap="round" points="793.727,335.769 802.620,331.919 812.289,326.838 "/>
<polyline style="fill:none; stroke:rgb(0, 0, 0) ;stroke-width:3.306;opacity:1" stroke-linecap="round" points="812.289,326.838 831.889,314.662 840.000,308.986 "/>
<polyline style="fill:none; stroke:rgb(0, 0, 0) ;stroke-width:3.225;opacity:1" stroke-linecap="round" points="840.000,308.986 847.296,303.786 852.917,298.552 "/>
<polyline style="fill:none; stroke:rgb(0, 0, 0) ;stroke-width:3.252;opacity:1" stroke-linecap="round" points="852.917,298.552 856.892,294.196 860.100,291.794 "/>
<polyline style="fill:none; stroke:rgb(0, 0, 0) ;stroke-width:3.162;opacity:1" stroke-linecap="round" points="860.100,291.794 861.766,290.925 862.180,291.656 "/>
<polyline style="fill:none; stroke:rgb(0, 0, 0) ;stroke-width:7.019;opacity:1" stroke-linecap="round" points="862.180,291.656 858.033,297.336 855.757,301.361 "/>
<polyline style="fill:none; stroke:rgb(0, 0, 0) ;stroke-width:8.692;opacity:1" stroke-linecap="round" points="855.757,301.361 852.835,307.722 849.968,315.707 "/>
<polyline style="fill:none; stroke:rgb(0, 0, 0) ;stroke-width:11.102;opacity:1" stroke-linecap="round" points="849.968,315.707 845.164,333.227 840.293,354.481 "/>
<polyline style="fill:none; stroke:rgb(0, 0, 0) ;stroke-width:13.334;opacity:1" stroke-linecap="round" points="840.293,354.481 829.680,410.017 826.539,427.270 "/>
<polyline style="fill:none; stroke:rgb(0, 0, 0) ;stroke-width:13.629;opacity:1" stroke-linecap="round" points="826.539,427.270 822.914,445.251 814.796,478.987 "/>
<polyline style="fill:none; stroke:rgb(0, 0, 0) ;stroke-width:13.092;opacity:1" stroke-linecap="round" points="814.796,478.987 810.209,493.367 804.391,506.391 "/>
<polyline style="fill:none; stroke:rgb(0, 0, 0) ;stroke-width:11.922;opacity:1" stroke-linecap="round" points="804.391,506.391 797.744,518.673 790.358,530.924 "/>
<polyline style="fill:none; stroke:rgb(0, 0, 0) ;stroke-width:10.784;opacity:1" stroke-linecap="round" points="790.358,530.924 782.033,542.696 773.476,553.592 "/>
<polyline style="fill:none; stroke:rgb(0, 0, 0) ;stroke-width:9.272;opacity:1" stroke-linecap="round" points="773.476,553.592 757.222,572.409 748.827,581.227 "/>
<polyline style="fill:none; stroke:rgb(0, 0, 0) ;stroke-width:7.208;opacity:1" stroke-linecap="round" points="748.827,581.227 728.614,597.885 717.808,605.972 "/>
<polyline style="fill:none; stroke:rgb(0, 0, 0) ;stroke-width:5.734;opacity:1" stroke-linecap="round" points="717.808,605.972 696.192,620.497 684.675,627.503 "/>
<polyline style="fill:none; stroke:rgb(0, 0, 0) ;stroke-width:4.632;opacity:1" stroke-linecap="round" points="684.675,627.503 671.781,634.062 671.781,634.062 "/>
<polyline style="fill:none; stroke:rgb(0, 0, 0) ;stroke-width:3.419;opacity:1" stroke-linecap="round" points="671.781,634.062 671.781,634.062 " />
<!-- pen Calligraphy --> 
<polyline style="fill:none;stroke:[0, 0, 0];stroke-width:2.125;opacity:1" stroke-linecap="round" points=""/>
<polyline style="fill:none; stroke:rgb(0, 0, 0) ;stroke-width:2.026;opacity:1" stroke-linecap="round" points="355.788,554.905 355.957,561.156 "/>
<polyline style="fill:none; stroke:rgb(0, 0, 0) ;stroke-width:2.421;opacity:1" stroke-linecap="round" points="355.957,561.156 352.905,575.309 348.158,588.203 "/>
<polyline style="fill:none; stroke:rgb(0, 0, 0) ;stroke-width:2.428;opacity:1" stroke-linecap="round" points="348.158,588.203 334.474,628.947 317.667,684.968 "/>
<polyline style="fill:none; stroke:rgb(0, 0, 0) ;stroke-width:2.964;opacity:1" stroke-linecap="round" points="317.667,684.968 311.864,706.717 294.600,779.577 "/>
<polyline style="fill:none; stroke:rgb(0, 0, 0) ;stroke-width:3.679;opacity:1" stroke-linecap="round" points="294.600,779.577 288.381,802.725 272.940,863.171 "/>
<polyline style="fill:none; stroke:rgb(0, 0, 0) ;stroke-width:2.932;opacity:1" stroke-linecap="round" points="272.940,863.171 271.714,866.505 273.267,858.986 "/>
<polyline style="fill:none; stroke:rgb(0, 0, 0) ;stroke-width:3.114;opacity:1" stroke-linecap="round" points="273.267,858.986 275.659,850.843 " />
<!-- pen Calligraphy --> 
<polyline style="fill:none;stroke:[0, 0, 0];stroke-width:2.125;opacity:1" stroke-linecap="round" points=""/>
<polyline style="fill:none; stroke:rgb(0, 0, 0) ;stroke-width:2.057;opacity:1" stroke-linecap="round" points="347.349,579.717 346.961,581.753 "/>
<polyline style="fill:none; stroke:rgb(0, 0, 0) ;stroke-width:2.381;opacity:1" stroke-linecap="round" points="346.961,581.753 344.622,587.732 336.114,603.873 "/>
<polyline style="fill:none; stroke:rgb(0, 0, 0) ;stroke-width:2.370;opacity:1" stroke-linecap="round" points="336.114,603.873 325.144,622.413 311.046,650.716 "/>
<polyline style="fill:none; stroke:rgb(0, 0, 0) ;stroke-width:2.414;opacity:1" stroke-linecap="round" points="311.046,650.716 306.387,660.933 306.001,661.023 "/>
<polyline style="fill:none; stroke:rgb(0, 0, 0) ;stroke-width:1.969;opacity:1" stroke-linecap="round" points="306.001,661.023 309.126,654.480 312.190,649.216 "/>
<polyline style="fill:none; stroke:rgb(0, 0, 0) ;stroke-width:2.149;opacity:1" stroke-linecap="round" points="312.190,649.216 317.726,640.830 326.414,629.463 "/>
<polyline style="fill:none; stroke:rgb(0, 0, 0) ;stroke-width:2.257;opacity:1" stroke-linecap="round" points="326.414,629.463 337.421,616.038 349.996,601.959 "/>
<polyline style="fill:none; stroke:rgb(0, 0, 0) ;stroke-width:2.296;opacity:1" stroke-linecap="round" points="349.996,601.959 364.280,588.531 378.956,575.784 "/>
<polyline style="fill:none; stroke:rgb(0, 0, 0) ;stroke-width:2.299;opacity:1" stroke-linecap="round" points="378.956,575.784 393.781,563.729 408.772,552.825 "/>
<polyline style="fill:none; stroke:rgb(0, 0, 0) ;stroke-width:2.295;opacity:1" stroke-linecap="round" points="408.772,552.825 423.684,542.260 466.569,513.396 "/>
<polyline style="fill:none; stroke:rgb(0, 0, 0) ;stroke-width:2.224;opacity:1" stroke-linecap="round" points="466.569,513.396 492.873,496.740 504.552,490.164 "/>
<polyline style="fill:none; stroke:rgb(0, 0, 0) ;stroke-width:1.810;opacity:1" stroke-linecap="round" points="504.552,490.164 513.779,485.440 513.779,485.440 "/>
<polyline style="fill:none; stroke:rgb(0, 0, 0) ;stroke-width:2.881;opacity:1" stroke-linecap="round" points="513.779,485.440 513.779,485.440 " />
<!-- pen Calligraphy --> 
<polyline style="fill:none;stroke:[0, 0, 0];stroke-width:2.125;opacity:1" stroke-linecap="round" points=""/>
<polyline style="fill:none; stroke:rgb(0, 0, 0) ;stroke-width:1.392;opacity:1" stroke-linecap="round" points="216.602,848.688 215.778,847.131 "/>
<polyline style="fill:none; stroke:rgb(0, 0, 0) ;stroke-width:1.521;opacity:1" stroke-linecap="round" points="215.778,847.131 216.461,843.098 231.863,826.694 "/>
<polyline style="fill:none; stroke:rgb(0, 0, 0) ;stroke-width:1.743;opacity:1" stroke-linecap="round" points="231.863,826.694 257.358,797.244 278.946,769.690 "/>
<polyline style="fill:none; stroke:rgb(0, 0, 0) ;stroke-width:2.290;opacity:1" stroke-linecap="round" points="278.946,769.690 291.920,753.415 307.326,736.355 "/>
<polyline style="fill:none; stroke:rgb(0, 0, 0) ;stroke-width:2.579;opacity:1" stroke-linecap="round" points="307.326,736.355 324.646,719.263 342.351,702.818 "/>
<polyline style="fill:none; stroke:rgb(0, 0, 0) ;stroke-width:2.756;opacity:1" stroke-linecap="round" points="342.351,702.818 360.196,687.235 378.463,672.221 "/>
<polyline style="fill:none; stroke:rgb(0, 0, 0) ;stroke-width:2.867;opacity:1" stroke-linecap="round" points="378.463,672.221 414.266,645.045 431.463,632.978 "/>
<polyline style="fill:none; stroke:rgb(0, 0, 0) ;stroke-width:2.868;opacity:1" stroke-linecap="round" points="431.463,632.978 448.574,621.718 464.660,611.850 "/>
<polyline style="fill:none; stroke:rgb(0, 0, 0) ;stroke-width:2.848;opacity:1" stroke-linecap="round" points="464.660,611.850 479.993,602.936 494.254,594.990 "/>
<polyline style="fill:none; stroke:rgb(0, 0, 0) ;stroke-width:2.535;opacity:1" stroke-linecap="round" points="494.254,594.990 506.646,588.196 506.646,588.196 "/>
<polyline style="fill:none; stroke:rgb(0, 0, 0) ;stroke-width:3.114;opacity:1" stroke-linecap="round" points="506.646,588.196 506.646,588.196 506.646,588.196 " />
<!-- pen Calligraphy --> 
<polyline style="fill:none;stroke:[0, 0, 0];stroke-width:2.125;opacity:1" stroke-linecap="round" points=""/>
<polyline style="fill:none; stroke:rgb(0, 0, 0) ;stroke-width:1.572;opacity:1" stroke-linecap="round" points="325.633,926.352 322.083,925.398 "/>
<polyline style="fill:none; stroke:rgb(0, 0, 0) ;stroke-width:1.778;opacity:1" stroke-linecap="round" points="322.083,925.398 318.502,920.865 321.359,913.427 "/>
<polyline style="fill:none; stroke:rgb(0, 0, 0) ;stroke-width:2.084;opacity:1" stroke-linecap="round" points="321.359,913.427 331.743,889.741 344.016,857.000 "/>
<polyline style="fill:none; stroke:rgb(0, 0, 0) ;stroke-width:2.509;opacity:1" stroke-linecap="round" points="344.016,857.000 351.479,838.985 360.006,820.645 "/>
<polyline style="fill:none; stroke:rgb(0, 0, 0) ;stroke-width:2.769;opacity:1" stroke-linecap="round" points="360.006,820.645 369.051,802.753 378.180,785.711 "/>
<polyline style="fill:none; stroke:rgb(0, 0, 0) ;stroke-width:2.984;opacity:1" stroke-linecap="round" points="378.180,785.711 388.132,769.242 398.415,753.187 "/>
<polyline style="fill:none; stroke:rgb(0, 0, 0) ;stroke-width:3.127;opacity:1" stroke-linecap="round" points="398.415,753.187 408.868,737.742 430.755,708.454 "/>
<polyline style="fill:none; stroke:rgb(0, 0, 0) ;stroke-width:3.230;opacity:1" stroke-linecap="round" points="430.755,708.454 448.418,683.692 466.893,655.891 "/>
<polyline style="fill:none; stroke:rgb(0, 0, 0) ;stroke-width:3.218;opacity:1" stroke-linecap="round" points="466.893,655.891 468.540,654.372 469.685,654.758 "/>
<polyline style="fill:none; stroke:rgb(0, 0, 0) ;stroke-width:6.288;opacity:1" stroke-linecap="round" points="469.685,654.758 469.495,656.477 464.725,666.757 "/>
<polyline style="fill:none; stroke:rgb(0, 0, 0) ;stroke-width:7.649;opacity:1" stroke-linecap="round" points="464.725,666.757 456.764,685.518 446.074,713.429 "/>
<polyline style="fill:none; stroke:rgb(0, 0, 0) ;stroke-width:8.803;opacity:1" stroke-linecap="round" points="446.074,713.429 432.790,746.668 417.746,787.336 "/>
<polyline style="fill:none; stroke:rgb(0, 0, 0) ;stroke-width:9.673;opacity:1" stroke-linecap="round" points="417.746,787.336 410.197,809.230 402.081,830.884 "/>
<polyline style="fill:none; stroke:rgb(0, 0, 0) ;stroke-width:9.893;opacity:1" stroke-linecap="round" points="402.081,830.884 393.616,851.563 368.866,914.757 "/>
<polyline style="fill:none; stroke:rgb(0, 0, 0) ;stroke-width:9.074;opacity:1" stroke-linecap="round" points="368.866,914.757 362.781,929.151 361.177,931.554 "/>
<polyline style="fill:none; stroke:rgb(0, 0, 0) ;stroke-width:6.621;opacity:1" stroke-linecap="round" points="361.177,931.554 360.665,930.961 360.844,928.132 "/>
<polyline style="fill:none; stroke:rgb(0, 0, 0) ;stroke-width:4.780;opacity:1" stroke-linecap="round" points="360.844,928.132 361.465,924.565 361.951,920.215 "/>
<polyline style="fill:none; stroke:rgb(0, 0, 0) ;stroke-width:4.686;opacity:1" stroke-linecap="round" points="361.951,920.215 361.951,920.215 363.479,905.144 "/>
<polyline style="fill:none; stroke:rgb(0, 0, 0) ;stroke-width:2.574;opacity:1" stroke-linecap="round" points="363.479,905.144 364.347,894.831 366.233,873.868 "/>
<polyline style="fill:none; stroke:rgb(0, 0, 0) ;stroke-width:1.767;opacity:1" stroke-linecap="round" points="366.233,873.868 374.450,812.598 376.573,802.180 "/>
<polyline style="fill:none; stroke:rgb(0, 0, 0) ;stroke-width:1.684;opacity:1" stroke-linecap="round" points="376.573,802.180 379.541,792.263 382.992,783.250 "/>
<polyline style="fill:none; stroke:rgb(0, 0, 0) ;stroke-width:1.778;opacity:1" stroke-linecap="round" points="382.992,783.250 386.615,775.494 390.133,769.389 "/>
<polyline style="fill:none; stroke:rgb(0, 0, 0) ;stroke-width:1.884;opacity:1" stroke-linecap="round" points="390.133,769.389 393.705,765.305 400.086,760.153 "/>
<polyline style="fill:none; stroke:rgb(0, 0, 0) ;stroke-width:1.985;opacity:1" stroke-linecap="round" points="400.086,760.153 406.297,757.502 413.738,755.819 "/>
<polyline style="fill:none; stroke:rgb(0, 0, 0) ;stroke-width:1.977;opacity:1" stroke-linecap="round" points="413.738,755.819 425.369,754.922 433.388,753.455 "/>
<polyline style="fill:none; stroke:rgb(0, 0, 0) ;stroke-width:2.063;opacity:1" stroke-linecap="round" points="433.388,753.455 472.532,742.300 477.497,740.778 "/>
<polyline style="fill:none; stroke:rgb(0, 0, 0) ;stroke-width:2.142;opacity:1" stroke-linecap="round" points="477.497,740.778 483.834,738.002 485.686,736.588 "/>
<polyline style="fill:none; stroke:rgb(0, 0, 0) ;stroke-width:2.273;opacity:1" stroke-linecap="round" points="485.686,736.588 486.874,735.021 489.988,727.460 "/>
<polyline style="fill:none; stroke:rgb(0, 0, 0) ;stroke-width:2.338;opacity:1" stroke-linecap="round" points="489.988,727.460 493.203,721.117 497.699,714.478 "/>
<polyline style="fill:none; stroke:rgb(0, 0, 0) ;stroke-width:1.902;opacity:1" stroke-linecap="round" points="497.699,714.478 499.583,711.415 502.424,706.906 "/>
<polyline style="fill:none; stroke:rgb(0, 0, 0) ;stroke-width:1.561;opacity:1" stroke-linecap="round" points="502.424,706.906 503.270,703.730 503.019,702.745 "/>
<polyline style="fill:none; stroke:rgb(0, 0, 0) ;stroke-width:1.869;opacity:1" stroke-linecap="round" points="503.019,702.745 500.893,701.178 499.359,700.967 "/>
<polyline style="fill:none; stroke:rgb(0, 0, 0) ;stroke-width:2.112;opacity:1" stroke-linecap="round" points="499.359,700.967 497.693,701.432 495.631,702.885 "/>
<polyline style="fill:none; stroke:rgb(0, 0, 0) ;stroke-width:2.265;opacity:1" stroke-linecap="round" points="495.631,702.885 480.280,717.134 475.643,720.920 "/>
<polyline style="fill:none; stroke:rgb(0, 0, 0) ;stroke-width:2.256;opacity:1" stroke-linecap="round" points="475.643,720.920 467.240,727.562 454.411,736.565 "/>
<polyline style="fill:none; stroke:rgb(0, 0, 0) ;stroke-width:2.280;opacity:1" stroke-linecap="round" points="454.411,736.565 451.631,739.155 450.232,741.291 "/>
<polyline style="fill:none; stroke:rgb(0, 0, 0) ;stroke-width:2.490;opacity:1" stroke-linecap="round" points="450.232,741.291 450.104,742.701 451.396,743.153 "/>
<polyline style="fill:none; stroke:rgb(0, 0, 0) ;stroke-width:1.355;opacity:1" stroke-linecap="round" points="451.396,743.153 457.584,740.927 496.989,722.955 "/>
<polyline style="fill:none; stroke:rgb(0, 0, 0) ;stroke-width:1.233;opacity:1" stroke-linecap="round" points="496.989,722.955 510.312,718.140 524.059,713.832 "/>
<polyline style="fill:none; stroke:rgb(0, 0, 0) ;stroke-width:1.187;opacity:1" stroke-linecap="round" points="524.059,713.832 538.614,710.546 600.808,702.227 "/>
<polyline style="fill:none; stroke:rgb(0, 0, 0) ;stroke-width:1.175;opacity:1" stroke-linecap="round" points="600.808,702.227 609.179,701.807 615.659,702.587 "/>
<polyline style="fill:none; stroke:rgb(0, 0, 0) ;stroke-width:2.807;opacity:1" stroke-linecap="round" points="615.659,702.587 620.252,704.508 622.652,707.673 "/>
<polyline style="fill:none; stroke:rgb(0, 0, 0) ;stroke-width:2.965;opacity:1" stroke-linecap="round" points="622.652,707.673 622.900,711.523 621.301,715.613 "/>
<polyline style="fill:none; stroke:rgb(0, 0, 0) ;stroke-width:3.236;opacity:1" stroke-linecap="round" points="621.301,715.613 618.131,720.493 605.856,735.920 "/>
<polyline style="fill:none; stroke:rgb(0, 0, 0) ;stroke-width:4.986;opacity:1" stroke-linecap="round" points="605.856,735.920 587.773,760.358 577.228,774.257 "/>
<polyline style="fill:none; stroke:rgb(0, 0, 0) ;stroke-width:5.827;opacity:1" stroke-linecap="round" points="577.228,774.257 564.987,788.393 536.542,816.136 "/>
<polyline style="fill:none; stroke:rgb(0, 0, 0) ;stroke-width:5.560;opacity:1" stroke-linecap="round" points="536.542,816.136 510.705,839.731 488.593,857.728 "/>
<polyline style="fill:none; stroke:rgb(0, 0, 0) ;stroke-width:5.081;opacity:1" stroke-linecap="round" points="488.593,857.728 481.526,862.965 477.363,864.873 "/>
<polyline style="fill:none; stroke:rgb(0, 0, 0) ;stroke-width:4.471;opacity:1" stroke-linecap="round" points="477.363,864.873 475.251,863.714 474.876,860.780 "/>
<polyline style="fill:none; stroke:rgb(0, 0, 0) ;stroke-width:3.744;opacity:1" stroke-linecap="round" points="474.876,860.780 475.994,857.300 477.725,854.318 "/>
<polyline style="fill:none; stroke:rgb(0, 0, 0) ;stroke-width:3.106;opacity:1" stroke-linecap="round" points="477.725,854.318 479.817,851.785 486.954,845.677 "/>
<polyline style="fill:none; stroke:rgb(0, 0, 0) ;stroke-width:2.385;opacity:1" stroke-linecap="round" points="486.954,845.677 492.444,841.817 507.674,832.823 "/>
<polyline style="fill:none; stroke:rgb(0, 0, 0) ;stroke-width:2.015;opacity:1" stroke-linecap="round" points="507.674,832.823 517.281,827.753 553.975,809.478 "/>
<polyline style="fill:none; stroke:rgb(0, 0, 0) ;stroke-width:1.832;opacity:1" stroke-linecap="round" points="553.975,809.478 567.748,803.426 596.282,792.849 "/>
<polyline style="fill:none; stroke:rgb(0, 0, 0) ;stroke-width:1.536;opacity:1" stroke-linecap="round" points="596.282,792.849 620.539,782.670 629.910,779.053 "/>
<polyline style="fill:none; stroke:rgb(0, 0, 0) ;stroke-width:2.854;opacity:1" stroke-linecap="round" points="629.910,779.053 637.036,777.166 " />
<!-- pen Calligraphy --> 
<polyline style="fill:none;stroke:[0, 0, 0];stroke-width:2.125;opacity:1" stroke-linecap="round" points=""/>
<polyline style="fill:none; stroke:rgb(0, 0, 0) ;stroke-width:1.996;opacity:1" stroke-linecap="round" points="675.443,650.921 674.567,664.652 "/>
<polyline style="fill:none; stroke:rgb(0, 0, 0) ;stroke-width:3.981;opacity:1" stroke-linecap="round" points="674.567,664.652 674.896,677.288 676.230,691.369 "/>
<polyline style="fill:none; stroke:rgb(0, 0, 0) ;stroke-width:7.443;opacity:1" stroke-linecap="round" points="676.230,691.369 677.331,705.359 677.079,718.674 "/>
<polyline style="fill:none; stroke:rgb(0, 0, 0) ;stroke-width:10.224;opacity:1" stroke-linecap="round" points="677.079,718.674 675.835,730.621 673.551,741.322 "/>
<polyline style="fill:none; stroke:rgb(0, 0, 0) ;stroke-width:11.382;opacity:1" stroke-linecap="round" points="673.551,741.322 670.385,752.057 666.208,762.783 "/>
<polyline style="fill:none; stroke:rgb(0, 0, 0) ;stroke-width:10.979;opacity:1" stroke-linecap="round" points="666.208,762.783 649.041,798.032 643.404,810.373 "/>
<polyline style="fill:none; stroke:rgb(0, 0, 0) ;stroke-width:9.994;opacity:1" stroke-linecap="round" points="643.404,810.373 634.251,831.091 631.255,838.406 "/>
<polyline style="fill:none; stroke:rgb(0, 0, 0) ;stroke-width:7.707;opacity:1" stroke-linecap="round" points="631.255,838.406 631.255,838.406 629.620,843.660 "/>
<polyline style="fill:none; stroke:rgb(0, 0, 0) ;stroke-width:5.189;opacity:1" stroke-linecap="round" points="629.620,843.660 629.620,843.660 629.620,843.660 " />
<!-- pen Calligraphy --> 
<polyline style="fill:none;stroke:[0, 0, 0];stroke-width:2.125;opacity:1" stroke-linecap="round" points=""/>
<polyline style="fill:none; stroke:rgb(0, 0, 0) ;stroke-width:1.307;opacity:1" stroke-linecap="round" points="629.975,765.332 628.436,749.939 "/>
<polyline style="fill:none; stroke:rgb(0, 0, 0) ;stroke-width:1.574;opacity:1" stroke-linecap="round" points="628.436,749.939 626.617,718.340 626.859,695.281 "/>
<polyline style="fill:none; stroke:rgb(0, 0, 0) ;stroke-width:1.554;opacity:1" stroke-linecap="round" points="626.859,695.281 628.819,678.047 633.169,664.058 "/>
<polyline style="fill:none; stroke:rgb(0, 0, 0) ;stroke-width:1.497;opacity:1" stroke-linecap="round" points="633.169,664.058 638.598,651.045 644.342,640.417 "/>
<polyline style="fill:none; stroke:rgb(0, 0, 0) ;stroke-width:1.877;opacity:1" stroke-linecap="round" points="644.342,640.417 650.677,632.109 657.546,625.508 "/>
<polyline style="fill:none; stroke:rgb(0, 0, 0) ;stroke-width:2.378;opacity:1" stroke-linecap="round" points="657.546,625.508 665.466,620.461 684.009,612.069 "/>
<polyline style="fill:none; stroke:rgb(0, 0, 0) ;stroke-width:2.952;opacity:1" stroke-linecap="round" points="684.009,612.069 694.543,606.955 737.153,587.004 "/>
<polyline style="fill:none; stroke:rgb(0, 0, 0) ;stroke-width:3.137;opacity:1" stroke-linecap="round" points="737.153,587.004 754.798,579.107 774.028,571.642 "/>
<polyline style="fill:none; stroke:rgb(0, 0, 0) ;stroke-width:2.426;opacity:1" stroke-linecap="round" points="774.028,571.642 794.421,564.327 794.421,564.327 " />
<rect x="0" y="0" width="1404" height="1872" fill-opacity="0"/></g></svg>