<svg xmlns="http://www.w3.org/2000/svg" height="1872" width="1404">
        <script type="application/ecmascript"> <![CDATA[
            var visiblePage = 'p1';
            function goToPage(page) {
                document.getElementById(visiblePage).setAttribute('style', 'display: none');
                document.getElementById(page).setAttribute('style', 'display: inline');
                visiblePage = page;
            }
        ]]> </script>
    <g id="p1" style="display:inline"><polyline style="fill:none;stroke:black;stroke-width:2.347826086956522;opacity:1" points="64.174,185.159 66.015,184.212 65.110,183.210 65.072,183.090 65.167,182.946 65.347,182.814 65.227,182.837 65.258,182.742 64.954,182.853 64.989,183.335 65.563,184.130 67.020,189.172 67.968,196.558 68.090,199.684 68.856,203.956 69.602,205.533 69.867,208.756 69.577,208.856 69.776,208.813 69.607,208.704 69.803,208.555 69.832,208.407 69.726,208.480 69.660,208.359 69.660,208.359 69.736,208.358 69.736,208.358 " />
<polyline style="fill:none;stroke:black;stroke-width:2.347826086956522;opacity:1" points="58.402,186.895 57.735,186.676 56.621,186.872 55.819,186.531 55.502,186.327 55.363,186.201 55.401,186.010 55.455,185.730 55.461,185.502 54.941,184.593 55.271,181.107 55.929,179.263 57.527,176.670 58.257,175.775 60.961,173.722 61.945,172.218 67.822,168.656 72.581,167.773 75.926,167.769 78.723,169.913 79.158,170.633 79.991,174.078 79.729,178.503 78.545,181.830 76.960,184.673 73.277,188.251 73.699,188.115 81.334,191.919 86.892,195.683 88.594,197.322 89.843,199.104 91.396,204.485 90.785,209.083 86.889,211.795 83.860,213.190 79.409,213.351 74.173,212.136 71.135,210.690 71.360,210.878 71.436,210.643 72.302,210.527 73.219,210.289 74.276,210.036 75.393,209.910 75.393,209.910 " />
<polyline style="fill:none;stroke:black;stroke-width:2.347826086956522;opacity:1" points="106.189,194.806 103.583,193.848 103.068,194.073 102.730,194.290 102.273,194.453 101.571,194.806 100.498,195.381 99.538,196.099 96.802,199.988 97.094,204.827 99.846,209.125 102.221,210.842 103.438,210.820 105.388,209.557 106.114,208.609 107.380,204.995 107.854,201.630 108.698,198.705 108.578,197.778 109.503,195.717 109.341,194.771 109.363,195.273 110.396,197.414 110.886,199.607 111.705,205.095 112.661,208.403 114.107,212.495 115.365,214.099 116.198,214.543 116.198,214.543 116.198,214.543 114.354,216.954 114.354,216.954 " />
<polyline style="fill:none;stroke:black;stroke-width:2.347826086956522;opacity:1" points="125.440,174.808 129.597,175.075 128.832,176.958 128.682,177.920 128.609,179.205 128.719,180.704 128.793,182.282 129.034,185.841 129.445,192.958 130.085,200.574 131.690,207.854 132.156,208.901 133.055,209.266 133.432,209.126 133.790,208.774 133.790,208.774 134.390,207.465 134.390,207.465 134.390,207.465 " />
<polyline style="fill:none;stroke:black;stroke-width:2.347826086956522;opacity:1" points="139.840,166.416 139.563,166.416 139.674,166.449 139.740,166.789 140.044,167.129 140.101,167.655 140.172,169.530 140.148,170.626 140.324,172.156 140.428,173.971 140.639,175.778 141.140,181.856 141.362,195.549 142.118,201.277 142.535,202.302 142.784,205.449 143.058,205.614 142.916,205.894 142.608,205.725 142.513,205.870 142.484,206.237 142.484,206.237 142.484,206.237 " />
<polyline style="fill:none;stroke:black;stroke-width:2.347826086956522;opacity:1" points="159.337,196.678 156.787,196.684 154.368,196.391 154.816,196.903 155.271,196.784 155.656,196.828 155.955,197.127 156.255,197.666 157.068,199.911 157.878,203.847 159.315,209.539 159.721,211.746 159.366,218.086 160.327,221.805 160.623,221.933 160.385,220.714 158.868,218.649 156.564,214.518 154.547,208.259 154.394,205.143 154.842,200.500 156.603,195.707 159.500,191.062 162.163,188.901 163.348,188.473 164.491,188.479 166.990,189.452 169.358,191.553 171.154,193.520 171.918,194.845 173.090,198.345 173.119,199.216 172.425,201.881 170.145,204.960 168.404,206.849 165.562,208.597 162.479,209.336 158.580,208.473 158.920,208.345 159.770,208.249 163.742,207.362 165.761,206.874 167.403,206.408 167.403,206.408 " />
<polyline style="fill:none;stroke:black;stroke-width:2.347826086956522;opacity:1" points="187.684,189.683 190.836,190.243 189.540,190.720 188.688,191.188 187.999,191.860 186.922,192.898 185.828,194.362 184.523,197.540 187.062,202.018 189.104,204.106 191.606,205.686 194.436,205.150 195.599,204.541 197.217,203.073 198.850,200.063 199.635,197.313 199.979,191.246 199.367,188.982 198.908,188.268 196.658,186.951 193.339,186.340 191.540,186.833 189.385,189.697 188.424,192.351 187.893,194.870 187.970,196.250 188.858,197.849 189.697,198.446 190.775,198.891 191.903,199.351 191.903,199.351 191.903,199.351 191.903,199.351 191.903,199.351 " />
<polyline style="fill:none;stroke:black;stroke-width:2.347826086956522;opacity:1" points="208.646,187.487 208.613,187.846 208.928,187.826 208.922,188.231 208.774,188.998 208.745,190.115 208.724,191.732 208.601,193.956 209.334,201.905 210.609,204.226 211.295,204.764 212.126,205.043 212.126,205.043 212.126,205.043 212.126,205.043 " />
<polyline style="fill:none;stroke:black;stroke-width:2.347826086956522;opacity:1" points="211.939,178.196 210.183,177.729 210.440,178.025 210.728,177.995 210.801,178.159 210.852,178.392 211.171,179.000 211.691,180.048 211.691,180.048 211.691,180.048 211.691,180.048 " />
<polyline style="fill:none;stroke:black;stroke-width:2.347826086956522;opacity:1" points="220.098,189.625 219.857,190.314 220.472,191.197 220.850,192.400 221.109,193.839 221.846,196.381 222.019,197.668 222.748,200.247 223.208,201.962 223.595,203.722 224.783,206.709 225.480,207.716 225.116,205.780 225.348,204.985 224.392,202.282 224.487,200.399 225.234,197.437 227.980,192.728 231.647,188.731 234.374,186.361 239.308,184.832 241.703,185.102 242.725,186.549 242.922,188.204 243.797,190.223 243.563,195.015 244.269,196.667 244.328,198.306 243.655,199.653 243.302,203.096 243.699,206.977 243.628,207.496 242.893,208.025 242.913,208.487 243.760,208.705 244.333,208.127 245.052,207.726 245.419,207.646 245.790,207.384 245.790,207.384 " />
<polyline style="fill:none;stroke:black;stroke-width:2.347826086956522;opacity:1" points="260.756,177.482 263.550,178.027 262.998,178.401 263.102,178.714 264.108,180.269 264.330,181.077 264.701,181.957 265.581,184.702 265.976,186.585 266.499,190.037 266.828,191.866 267.074,193.849 267.390,202.325 267.875,204.056 268.856,204.766 268.693,205.039 268.949,205.324 268.896,205.385 268.896,205.385 268.896,205.385 " />
<polyline style="fill:none;stroke:black;stroke-width:2.347826086956522;opacity:1" points="259.997,196.949 258.289,196.786 258.325,196.805 258.656,196.764 258.954,196.675 259.615,196.318 265.950,191.260 270.147,189.436 275.533,188.500 277.506,188.879 277.891,189.094 278.571,189.287 279.747,189.678 279.747,189.678 " />
<polyline style="fill:none;stroke:black;stroke-width:1.565217391304348;opacity:1" points="456.379,192.039 458.794,191.363 456.227,191.487 455.783,191.268 455.681,191.056 455.494,190.962 455.073,190.546 454.869,190.440 454.719,190.527 454.796,190.485 454.505,190.428 454.750,190.599 455.751,190.543 455.153,190.401 455.664,190.209 459.570,189.424 464.801,189.027 470.694,189.343 479.713,188.966 486.458,189.535 499.535,189.738 502.279,189.379 504.230,189.604 512.951,188.502 519.062,188.382 525.198,187.737 540.686,184.706 544.507,185.326 544.697,185.690 545.009,185.482 542.306,186.721 541.396,186.735 540.659,187.009 540.659,187.009 " />
<polyline style="fill:none;stroke:black;stroke-width:2.347826086956522;opacity:1" points="702.343,185.399 700.149,186.126 700.263,185.866 699.941,185.809 699.839,185.477 699.791,185.487 699.564,185.363 699.873,185.395 699.981,185.487 699.998,185.676 700.373,185.748 700.168,185.500 700.441,185.465 701.042,185.896 705.620,186.690 711.046,188.165 728.958,191.501 733.142,191.888 738.523,191.851 748.140,192.796 762.411,192.515 768.282,193.215 771.177,194.300 783.145,195.218 789.941,196.229 789.288,196.187 789.884,196.231 789.623,196.671 788.931,197.075 788.015,198.040 787.161,199.005 787.161,199.005 " />
<polyline style="fill:none;stroke:black;stroke-width:3.91304347826087;opacity:1" points="929.264,197.753 928.549,197.520 928.498,197.702 928.563,197.706 928.602,197.704 928.748,197.538 928.894,197.539 928.861,197.557 928.988,197.565 929.150,197.698 929.087,197.585 930.202,197.318 929.817,197.354 930.145,197.155 935.028,195.820 938.953,195.083 951.805,195.070 966.666,195.559 969.226,195.892 971.245,196.539 978.705,197.533 986.033,197.778 993.847,198.716 1006.634,198.172 1009.082,198.636 1021.194,199.015 1029.797,198.426 1035.839,197.395 1037.102,197.494 1036.111,197.270 1036.073,197.321 1036.154,197.666 1036.199,198.389 1036.199,198.389 " />
<polyline style="fill:none;stroke:black;stroke-width:2.347826086956522;opacity:1" points="59.620,290.052 59.197,288.025 59.534,288.353 57.830,304.036 56.706,320.628 56.904,326.021 57.451,328.727 57.706,328.168 " />
<polyline style="fill:none;stroke:black;stroke-width:2.347826086956522;opacity:1" points="52.114,287.924 53.465,287.002 53.199,287.173 53.517,287.217 54.611,287.160 74.154,285.422 81.490,285.092 " />
<polyline style="fill:none;stroke:black;stroke-width:2.347826086956522;opacity:1" points="58.894,310.517 60.157,311.145 65.427,312.036 69.884,311.843 73.417,311.237 " />
<polyline style="fill:none;stroke:black;stroke-width:2.347826086956522;opacity:1" points="85.218,306.140 84.497,309.793 85.099,316.441 85.921,318.573 87.055,319.564 " />
<polyline style="fill:none;stroke:black;stroke-width:2.347826086956522;opacity:1" points="87.349,298.459 84.031,299.786 85.664,299.339 " />
<polyline style="fill:none;stroke:black;stroke-width:2.347826086956522;opacity:1" points="98.524,313.940 99.321,314.528 100.130,316.020 99.972,317.891 101.823,323.641 102.431,323.546 101.675,323.002 102.261,322.457 101.007,320.753 100.747,319.676 101.164,315.264 101.813,312.684 106.238,304.476 109.545,302.111 113.265,301.066 115.210,301.686 115.787,302.203 116.378,303.636 117.143,307.107 117.082,310.489 117.461,312.058 117.208,320.534 117.934,321.996 119.459,323.611 121.680,324.013 127.498,321.425 134.763,314.409 136.780,311.590 137.131,308.961 135.539,306.905 133.939,306.254 132.010,307.030 130.377,309.077 128.984,314.776 131.337,319.847 135.044,322.809 137.217,324.066 140.143,324.177 142.351,323.353 146.778,319.414 " />
<polyline style="fill:none;stroke:black;stroke-width:2.347826086956522;opacity:1" points="149.255,288.812 152.236,316.120 153.149,320.085 153.954,321.117 154.774,323.165 " />
<polyline style="fill:none;stroke:black;stroke-width:2.347826086956522;opacity:1" points="161.247,307.551 161.298,308.495 162.430,311.745 163.378,317.982 164.404,320.333 " />
<polyline style="fill:none;stroke:black;stroke-width:2.347826086956522;opacity:1" points="166.290,297.737 163.878,298.949 163.814,299.347 164.091,299.283 164.518,299.929 " />
<polyline style="fill:none;stroke:black;stroke-width:2.347826086956522;opacity:1" points="175.555,320.690 176.574,320.021 176.080,319.883 174.857,317.487 174.345,313.969 174.486,308.656 175.885,306.235 177.688,304.784 179.468,304.665 180.366,304.988 182.573,306.855 184.201,310.125 186.551,317.580 189.280,320.035 190.273,320.485 193.713,321.066 197.442,320.423 200.067,319.003 203.196,315.805 206.049,309.625 205.192,307.054 202.707,305.871 201.578,305.847 200.931,306.465 200.508,308.296 200.621,310.712 201.106,313.435 203.833,318.319 207.171,320.407 209.460,321.184 214.544,322.195 217.898,322.337 221.797,321.791 222.162,322.017 222.014,320.270 220.806,318.111 220.606,316.736 220.124,316.110 220.105,312.959 221.025,310.634 224.164,306.817 226.896,305.193 229.590,304.290 236.894,303.294 240.716,303.716 " />
<polyline style="fill:none;stroke:black;stroke-width:1.565217391304348;opacity:1" points="482.101,303.474 481.798,304.779 482.030,305.969 480.532,308.842 480.157,310.279 480.258,311.551 " />
<polyline style="fill:none;stroke:black;stroke-width:1.565217391304348;opacity:1" points="480.294,314.967 479.335,314.527 479.207,314.046 479.453,313.972 479.243,314.201 479.204,313.993 478.923,314.209 479.431,314.259 479.283,314.098 479.779,313.883 485.099,313.500 506.622,315.543 531.163,314.649 539.950,315.209 543.835,314.682 " />
<polyline style="fill:none;stroke:black;stroke-width:2.347826086956522;opacity:1" points="681.190,295.023 679.205,295.182 680.153,295.079 680.794,295.561 684.807,296.997 689.178,297.496 702.725,297.405 706.555,297.663 716.916,296.892 725.199,296.705 733.008,297.824 739.200,297.721 754.521,299.290 778.324,301.057 780.245,300.908 782.649,301.274 782.164,301.283 781.703,300.649 780.264,299.945 779.541,300.421 " />
<polyline style="fill:none;stroke:black;stroke-width:3.91304347826087;opacity:1" points="919.212,297.477 918.526,297.942 921.606,298.754 929.181,298.285 932.702,298.413 942.522,297.364 963.388,296.207 977.348,294.956 989.086,294.809 1009.288,295.600 1030.775,299.323 1033.178,300.079 1036.031,300.170 1043.437,299.300 1047.229,299.302 1047.955,299.135 1047.226,298.946 1047.204,298.636 1046.841,298.782 1046.780,299.214 " />
<polyline style="fill:none;stroke:black;stroke-width:6.9565217391304355;opacity:0.9" points="60.121,482.110 60.610,484.781 61.693,485.823 61.824,485.678 61.692,485.552 61.674,485.261 61.863,484.966 61.768,484.801 62.794,483.776 62.952,482.776 64.025,479.360 64.663,476.600 66.271,466.646 68.223,458.952 69.024,451.885 68.975,453.544 69.847,455.382 70.556,459.765 71.857,464.307 73.845,468.476 74.945,469.484 75.937,469.611 77.730,468.583 79.485,466.915 83.455,460.157 87.596,447.809 88.269,446.294 89.258,445.125 89.418,445.707 90.461,447.636 91.389,451.191 92.207,457.276 92.671,466.430 93.250,471.966 94.735,477.496 95.353,483.067 96.047,484.152 96.650,484.438 97.020,484.472 97.417,484.369 " />
<polyline style="fill:none;stroke:black;stroke-width:6.9565217391304355;opacity:0.9" points="132.855,462.992 129.099,462.448 128.851,461.892 129.029,461.762 129.072,461.731 128.761,461.715 128.556,461.550 128.255,461.512 125.966,461.835 121.428,463.666 117.815,466.641 116.009,469.165 115.506,471.509 115.988,478.200 117.151,480.536 117.904,481.519 118.875,482.065 121.940,482.795 124.564,482.302 127.300,480.853 128.343,479.700 130.024,476.936 132.900,472.966 133.629,470.958 133.584,470.212 133.727,468.238 133.628,467.646 137.023,473.773 137.541,475.397 141.144,480.257 142.993,482.358 143.965,482.949 146.439,483.575 146.439,483.575 146.859,487.772 146.859,487.772 " />
<polyline style="fill:none;stroke:black;stroke-width:6.9565217391304355;opacity:0.9" points="164.622,483.027 165.695,482.977 164.584,482.452 164.407,481.727 163.968,480.513 163.777,479.544 163.909,473.915 164.071,471.136 164.632,468.506 165.630,466.700 170.576,463.365 174.638,461.670 179.487,460.966 180.560,461.146 180.560,461.146 180.560,461.146 180.560,461.146 180.560,461.146 " />
<polyline style="fill:none;stroke:black;stroke-width:6.9565217391304355;opacity:0.9" points="200.572,449.519 200.785,449.383 200.577,450.266 201.359,456.679 201.101,460.524 200.923,464.389 201.162,472.341 201.181,476.789 201.886,480.594 202.872,481.627 204.152,481.272 205.115,480.381 209.722,474.594 215.362,470.574 218.524,467.809 226.829,461.483 231.493,458.424 231.898,458.456 231.898,458.456 232.209,458.931 232.209,458.931 232.493,459.521 232.216,459.737 " />
<polyline style="fill:none;stroke:black;stroke-width:6.9565217391304355;opacity:0.9" points="221.320,469.093 220.939,469.674 221.085,469.652 221.193,469.799 221.160,470.073 222.063,471.437 228.592,479.142 230.670,482.206 231.109,483.579 231.843,484.389 231.843,484.389 231.843,484.389 231.843,484.389 " />
<polyline style="fill:none;stroke:black;stroke-width:6.9565217391304355;opacity:0.9" points="252.856,484.517 256.035,484.516 256.760,484.806 258.144,483.646 261.331,479.889 262.131,478.534 264.959,471.620 265.230,470.093 264.776,469.175 264.186,468.750 261.886,468.726 258.485,469.309 257.021,470.146 256.696,471.009 256.159,471.423 255.494,472.576 254.847,474.868 255.416,478.827 257.259,481.702 263.549,486.063 265.619,487.916 268.377,488.995 271.560,488.828 273.639,489.121 277.341,488.585 279.617,488.879 280.543,488.721 280.543,488.721 284.035,488.373 284.893,487.944 285.782,487.378 287.476,486.569 287.835,487.009 287.587,487.327 287.190,485.275 287.493,481.620 287.748,480.128 288.703,477.159 289.249,475.907 290.053,474.844 291.439,474.403 292.456,473.676 298.251,467.554 304.800,463.342 307.604,462.187 309.258,462.163 311.580,462.949 312.589,463.578 313.234,464.596 313.916,466.025 313.916,466.025 " />
<polyline style="fill:none;stroke:black;stroke-width:6.9565217391304355;opacity:0.9" points="690.129,453.090 689.376,452.344 689.438,452.294 689.478,452.350 689.425,452.344 689.584,452.392 689.895,452.296 689.972,452.383 690.652,452.058 698.437,451.478 703.118,451.802 710.896,453.048 723.873,453.567 736.603,455.120 748.968,454.869 761.352,455.918 766.709,455.618 769.412,456.113 772.507,457.218 774.223,457.068 774.140,457.429 773.809,458.276 773.809,458.276 " />
<polyline style="fill:none;stroke:black;stroke-width:3.4782608695652177;opacity:0.9" points="483.217,433.083 481.300,434.124 480.389,433.158 480.611,433.612 482.381,433.955 489.151,433.312 497.569,432.979 507.805,433.466 524.231,431.361 533.261,430.629 538.851,430.840 543.021,431.574 545.024,432.161 544.717,432.015 544.979,431.932 545.213,431.927 544.796,431.934 544.843,431.931 544.815,431.930 544.733,432.234 544.733,432.234 " />
<polyline style="fill:none;stroke:black;stroke-width:10.434782608695652;opacity:0.9" points="900.229,442.645 899.903,442.019 900.023,442.211 900.526,441.670 900.955,441.594 902.108,441.093 903.257,440.895 908.958,439.594 915.559,438.253 922.540,437.134 929.524,436.512 937.702,435.502 940.638,435.347 947.561,434.596 951.291,434.304 961.939,434.245 974.511,434.653 983.260,435.733 995.415,436.684 1006.892,436.817 1017.328,437.491 1025.964,438.525 1029.675,438.567 1030.824,438.407 1029.812,438.426 1029.854,438.347 1029.425,438.339 1029.425,438.339 1029.425,438.339 " />
<polyline style="fill:none;stroke:black;stroke-width:2.173913043478261;opacity:0.9" points="61.153,611.018 61.543,610.022 61.466,608.618 60.851,607.736 60.961,608.323 61.209,612.421 61.644,618.265 62.362,630.791 62.781,633.277 64.365,638.950 64.966,640.104 65.666,640.804 66.503,641.415 66.890,641.539 66.890,641.539 66.890,641.539 " />
<polyline style="fill:none;stroke:black;stroke-width:2.173913043478261;opacity:0.9" points="58.195,611.017 57.549,610.570 55.944,607.275 55.980,603.282 56.349,600.933 57.679,597.763 58.595,594.352 59.722,592.785 63.139,589.693 66.382,587.849 69.496,586.865 72.978,586.904 79.637,588.056 84.882,589.977 87.332,591.271 91.015,594.547 94.102,598.485 95.160,600.371 96.159,604.389 96.419,608.685 95.149,615.537 92.957,621.175 92.020,622.570 89.822,624.453 88.407,625.026 85.354,625.779 82.671,625.572 79.658,624.931 77.159,624.009 75.279,622.949 75.335,622.786 76.126,622.642 76.410,622.703 76.410,622.703 76.410,622.703 76.410,622.703 76.410,622.703 " />
<polyline style="fill:none;stroke:black;stroke-width:2.173913043478261;opacity:0.9" points="103.978,631.115 102.703,633.504 106.604,634.661 110.484,635.286 114.536,634.955 116.681,634.404 120.906,632.323 125.402,628.130 126.166,626.642 126.472,624.348 126.217,621.949 125.720,620.982 124.000,619.922 121.817,619.511 115.584,620.168 113.710,621.645 111.620,624.719 110.541,627.791 110.409,632.314 111.740,635.739 113.452,637.507 115.945,639.391 117.572,640.220 123.319,642.283 129.566,643.687 132.162,643.386 136.487,641.903 140.420,639.372 141.384,638.459 142.377,637.493 142.377,637.493 142.377,637.493 142.377,637.493 142.377,637.493 142.377,637.493 " />
<polyline style="fill:none;stroke:black;stroke-width:2.173913043478261;opacity:0.9" points="142.679,618.041 143.886,617.557 143.540,618.174 143.631,618.701 144.806,622.787 145.945,626.382 146.802,628.408 147.316,630.575 147.442,632.684 147.717,634.686 148.077,638.345 149.148,643.531 149.444,646.895 149.874,646.700 149.605,645.641 149.804,645.179 148.339,637.782 148.032,633.728 149.203,629.108 154.566,621.526 157.629,619.489 160.802,618.436 162.608,618.232 165.591,618.607 169.126,620.501 171.759,624.044 172.273,625.711 173.349,636.389 173.134,642.044 172.083,646.408 172.598,647.609 172.160,648.095 172.476,646.954 174.807,646.601 175.813,646.332 175.813,646.332 " />
<polyline style="fill:none;stroke:black;stroke-width:2.173913043478261;opacity:0.9" points="203.029,627.445 202.248,625.831 200.766,625.894 199.243,626.309 198.402,626.498 197.560,626.991 195.531,628.015 194.285,628.753 192.591,630.519 189.516,633.141 187.086,635.700 186.174,637.736 185.896,640.404 186.565,643.343 188.948,646.534 191.108,648.354 194.206,649.878 197.879,650.512 199.636,650.195 202.537,649.097 203.376,648.416 206.327,646.885 207.940,645.932 209.515,644.972 210.876,644.135 210.876,644.135 210.876,644.135 210.876,644.135 210.876,644.135 " />
<polyline style="fill:none;stroke:black;stroke-width:2.173913043478261;opacity:0.9" points="220.675,628.339 221.005,628.119 220.960,628.458 220.780,628.925 220.464,629.346 220.305,630.152 220.943,631.524 220.840,634.998 221.031,638.067 221.476,639.494 221.894,643.668 222.195,644.607 222.823,645.242 223.495,645.590 223.929,645.766 223.929,645.766 223.929,645.766 223.929,645.766 223.929,645.766 " />
<polyline style="fill:none;stroke:black;stroke-width:2.173913043478261;opacity:0.9" points="225.965,620.928 225.792,619.390 224.936,617.452 224.178,617.370 223.852,617.638 223.747,618.127 224.010,618.418 224.378,618.537 224.868,618.315 " />
<polyline style="fill:none;stroke:black;stroke-width:2.173913043478261;opacity:0.9" points="243.831,604.816 245.756,606.830 245.223,606.870 245.204,607.928 246.421,611.346 246.620,613.451 247.000,615.552 248.091,620.418 248.601,623.086 248.963,625.852 250.310,631.188 251.075,641.632 252.306,648.566 253.616,651.078 253.771,649.777 254.452,648.210 " />
<polyline style="fill:none;stroke:black;stroke-width:2.173913043478261;opacity:0.9" points="691.177,626.820 690.296,625.547 688.425,623.886 685.997,623.329 684.973,623.411 684.620,623.106 684.321,623.159 684.303,622.898 684.513,622.819 684.550,622.824 684.587,622.899 684.877,622.934 684.856,623.050 686.971,623.188 703.848,623.684 726.275,622.943 744.972,624.777 747.621,625.203 749.930,626.072 754.666,626.759 759.327,626.888 767.639,626.330 771.599,626.656 769.650,626.770 770.690,626.452 769.755,627.003 " />
<polyline style="fill:none;stroke:black;stroke-width:1.3043478260869565;opacity:0.9" points="483.600,591.026 481.484,590.049 480.829,589.434 480.438,588.871 480.516,588.842 480.924,588.956 480.924,589.040 482.302,589.295 486.389,589.487 503.180,589.172 513.398,588.769 543.594,590.197 546.033,590.037 548.075,589.671 548.436,589.675 549.242,589.411 548.813,589.610 548.386,589.401 " />
<polyline style="fill:none;stroke:black;stroke-width:3.0434782608695654;opacity:0.9" points="899.873,613.257 899.139,612.807 900.092,611.807 901.883,610.995 904.172,610.506 907.601,610.427 914.776,610.603 917.058,610.643 923.109,610.422 936.479,609.567 951.284,609.112 982.922,608.889 1001.422,607.471 1008.044,607.281 1010.461,606.945 1008.917,607.029 1009.208,606.703 1008.988,606.601 " />
<polyline style="fill:none;stroke:black;stroke-width:2.173913043478261;opacity:0.9" points="66.993,837.435 65.233,839.544 66.523,843.727 66.787,843.619 66.246,843.301 66.712,842.979 66.724,842.172 66.943,840.238 66.947,838.708 68.122,831.468 76.056,803.986 76.006,800.083 75.892,801.822 77.233,810.012 79.718,815.223 82.133,818.761 86.060,823.392 87.208,824.381 88.336,824.790 90.480,824.718 92.559,823.179 93.620,821.828 99.363,812.360 102.255,806.897 104.286,801.640 109.239,791.379 110.976,787.035 110.532,787.856 110.448,794.619 109.754,802.951 107.719,817.505 107.178,828.141 108.209,839.934 108.816,841.227 109.885,838.396 105.658,842.767 " />
<polyline style="fill:none;stroke:black;stroke-width:2.173913043478261;opacity:0.9" points="127.983,831.939 129.336,835.009 130.139,835.684 132.838,834.903 133.955,834.094 138.075,829.413 142.134,823.485 142.722,822.025 143.168,819.439 142.935,817.783 142.455,816.562 142.047,816.431 139.330,816.781 137.078,817.890 135.822,818.726 133.573,821.546 130.947,826.820 129.842,830.251 129.565,833.238 130.110,834.954 130.103,836.227 132.753,839.401 134.288,840.458 136.105,840.918 137.181,840.782 141.303,839.053 146.852,835.755 148.959,834.639 148.959,834.639 148.959,834.639 " />
<polyline style="fill:none;stroke:black;stroke-width:2.173913043478261;opacity:0.9" points="179.280,816.816 173.826,820.495 172.334,821.079 170.771,822.081 169.643,822.953 163.974,825.699 162.951,827.243 162.261,830.687 162.342,833.822 162.697,834.577 164.310,836.370 165.907,837.121 168.111,837.255 170.810,836.902 174.090,836.003 177.058,834.799 179.225,834.113 179.225,834.113 179.225,834.113 179.225,834.113 179.225,834.113 " />
<polyline style="fill:none;stroke:black;stroke-width:2.173913043478261;opacity:0.9" points="191.394,801.618 191.506,801.934 191.341,802.146 192.228,804.673 192.983,808.497 193.640,820.601 193.425,826.193 193.685,828.714 194.827,834.666 195.160,838.190 196.188,841.492 197.224,842.974 198.010,842.914 198.057,842.064 199.015,839.795 202.668,832.686 204.839,829.925 209.900,825.740 213.460,823.362 215.385,822.584 217.065,823.030 218.715,824.458 220.599,829.804 220.995,836.785 221.700,839.058 " />
<polyline style="fill:none;stroke:black;stroke-width:2.173913043478261;opacity:0.9" points="698.314,819.491 697.436,818.335 695.563,817.214 692.637,817.025 693.097,817.187 693.763,817.082 693.986,817.137 694.063,816.999 696.853,817.498 704.847,817.473 713.431,817.885 727.976,819.607 746.196,823.822 749.073,824.089 747.806,823.944 748.418,823.668 " />
<polyline style="fill:none;stroke:black;stroke-width:1.3043478260869565;opacity:0.9" points="486.386,822.437 482.849,822.986 482.704,823.570 483.149,823.627 483.097,823.845 483.559,823.824 486.699,825.792 496.242,828.287 511.898,832.943 528.846,834.914 535.227,836.127 536.291,835.946 535.438,835.877 535.795,835.633 535.450,835.515 " />
<polyline style="fill:none;stroke:black;stroke-width:3.0434782608695654;opacity:0.9" points="903.930,824.223 902.767,824.100 904.132,823.917 915.560,824.814 933.787,828.038 941.502,828.779 948.891,829.065 956.992,828.752 969.336,827.592 987.599,825.205 994.265,824.889 997.791,825.238 998.022,825.170 997.747,825.086 998.033,825.088 997.902,825.074 998.012,825.039 998.183,824.824 998.277,824.723 998.277,824.723 " />
<polyline style="fill:none;stroke:black;stroke-width:0.923913043478261;opacity:1" points="67.226,1005.452 66.726,1004.863 66.113,1002.818 65.838,1000.612 65.930,1000.097 65.765,1000.112 65.761,1000.255 65.815,1000.556 65.718,1000.982 66.148,1002.561 66.220,1009.583 66.394,1016.022 66.391,1019.086 66.600,1021.973 67.548,1026.342 68.785,1028.714 69.287,1029.221 69.731,1029.460 70.055,1029.427 70.055,1029.427 70.055,1029.427 70.055,1029.427 70.055,1029.427 " />
<polyline style="fill:none;stroke:black;stroke-width:0.923913043478261;opacity:1" points="60.331,999.288 60.589,997.343 60.397,994.860 59.894,993.951 60.092,993.574 61.411,992.362 64.435,989.829 68.672,987.227 73.319,985.530 79.651,985.306 85.323,985.989 88.063,987.083 88.882,987.913 89.749,990.221 90.207,993.373 90.224,995.251 89.272,999.515 87.458,1002.907 85.814,1004.056 83.427,1004.933 82.155,1005.609 81.804,1006.271 82.998,1007.252 87.111,1008.900 94.373,1010.670 101.442,1013.223 102.985,1014.212 106.240,1018.261 106.695,1019.756 107.485,1024.305 106.809,1028.152 105.743,1029.972 104.426,1031.097 102.321,1032.286 97.144,1034.273 93.369,1035.011 89.718,1035.140 87.470,1035.014 82.844,1033.762 79.314,1031.890 76.648,1030.085 75.468,1028.865 75.028,1028.017 75.133,1027.712 75.391,1027.447 75.588,1027.254 75.718,1026.768 76.509,1026.066 76.509,1026.066 " />
<polyline style="fill:none;stroke:black;stroke-width:0.923913043478261;opacity:1" points="122.731,1018.051 122.613,1017.507 123.204,1017.738 123.456,1021.483 123.744,1022.893 123.902,1025.749 124.289,1027.835 124.840,1030.092 125.260,1030.835 124.909,1030.182 125.000,1029.451 123.500,1026.835 123.015,1025.376 122.849,1023.819 121.728,1020.105 121.297,1015.774 121.643,1013.536 122.395,1011.325 127.433,1006.136 128.968,1005.229 132.306,1004.205 136.687,1004.753 144.209,1006.631 " />
<polyline style="fill:none;stroke:black;stroke-width:0.923913043478261;opacity:1" points="152.145,1006.645 151.357,1010.317 151.273,1012.186 152.205,1016.298 153.030,1017.636 155.356,1020.240 156.868,1021.278 160.499,1022.996 164.225,1024.214 165.927,1024.376 168.875,1023.883 172.040,1021.960 173.428,1020.273 174.614,1017.141 174.741,1014.509 174.347,1011.288 173.677,1009.608 173.224,1007.798 172.532,1006.746 172.328,1005.681 172.302,1004.956 172.423,1004.661 172.423,1004.661 172.423,1004.661 172.423,1004.661 " />
<polyline style="fill:none;stroke:black;stroke-width:0.923913043478261;opacity:1" points="200.858,1000.635 198.770,1000.441 198.131,1000.484 196.606,1001.015 194.752,1002.199 191.785,1004.913 190.849,1006.338 189.912,1006.999 189.485,1007.744 189.416,1009.029 190.970,1011.939 192.374,1013.497 194.302,1015.039 200.410,1018.562 205.284,1021.885 206.618,1023.744 207.273,1025.492 206.783,1029.579 205.381,1031.718 204.696,1032.419 203.409,1033.433 201.361,1034.279 198.920,1034.759 195.273,1034.856 193.566,1034.770 192.389,1034.339 191.586,1033.921 190.778,1033.562 189.799,1033.036 188.907,1032.096 188.705,1031.694 188.973,1031.165 189.107,1030.831 189.107,1030.831 189.107,1030.831 189.107,1030.831 " />
<polyline style="fill:none;stroke:black;stroke-width:0.923913043478261;opacity:1" points="215.896,986.674 215.492,986.702 216.010,987.503 217.330,991.534 219.320,998.136 219.878,1000.330 221.011,1005.295 222.788,1016.109 223.419,1020.829 224.301,1023.981 224.647,1025.454 225.096,1026.929 225.701,1029.304 225.924,1030.057 226.151,1031.252 226.294,1031.668 226.466,1031.782 226.200,1031.416 226.412,1030.778 226.462,1030.423 226.165,1029.867 226.364,1028.734 228.856,1023.599 230.942,1020.461 236.823,1015.479 240.488,1014.206 242.521,1014.246 244.571,1015.093 247.808,1020.182 249.882,1025.271 250.184,1026.368 250.425,1028.068 250.983,1029.734 250.938,1033.623 251.122,1034.538 251.360,1035.244 251.360,1035.244 251.360,1035.244 " />
<polyline style="fill:none;stroke:black;stroke-width:0.8152173913043479;opacity:1" points="444.848,1011.626 440.223,1011.991 439.359,1011.420 438.985,1011.397 437.740,1011.053 437.709,1010.843 437.779,1010.795 437.786,1010.383 437.400,1009.381 438.088,1005.862 442.313,998.163 444.867,995.681 450.070,992.248 454.964,991.389 459.766,991.370 465.798,991.824 470.572,993.525 472.096,994.706 474.217,997.633 475.722,1000.359 481.134,1011.230 483.265,1013.672 484.508,1014.599 490.847,1018.120 494.642,1018.977 499.124,1018.873 508.491,1016.638 514.757,1014.434 " />
<polyline style="fill:none;stroke:black;stroke-width:0.8695652173913044;opacity:1" points="658.348,1009.477 657.724,1009.356 657.787,1009.147 657.832,1007.762 658.064,1006.227 660.010,1001.710 660.345,1001.043 661.607,999.794 663.302,997.932 664.439,996.859 665.670,995.801 672.116,992.002 677.527,989.730 681.648,988.685 686.455,988.894 688.964,989.812 693.339,992.938 696.603,996.184 698.900,997.574 705.630,1000.185 712.852,1003.465 720.780,1005.908 726.488,1006.701 731.283,1006.690 733.719,1006.370 739.466,1004.700 747.838,1001.170 757.845,996.102 763.131,993.748 768.636,991.480 768.636,991.480 768.636,991.480 " />
<polyline style="fill:none;stroke:black;stroke-width:0.923913043478261;opacity:1" points="893.006,993.853 891.907,992.885 891.910,992.440 891.583,991.659 891.213,990.304 890.869,988.326 890.959,987.152 891.497,985.602 891.961,984.433 893.445,981.989 894.504,980.864 895.770,979.664 898.096,977.270 900.169,975.539 902.550,974.266 903.124,974.013 904.683,974.240 907.356,975.861 912.093,980.661 921.361,988.242 929.264,992.548 938.490,994.698 941.150,994.863 946.664,994.115 965.387,989.337 980.985,986.188 983.429,985.487 983.429,985.487 983.429,985.487 983.429,985.487 " />
<polyline style="fill:none;stroke:grey;stroke-width:13.043478260869566;opacity:0.2" points="64.534,1137.132 63.172,1134.636 63.715,1135.549 63.813,1136.601 64.071,1153.571 63.277,1161.686 62.842,1183.272 63.859,1201.966 64.742,1206.605 " />
<polyline style="fill:none;stroke:grey;stroke-width:13.043478260869566;opacity:0.2" points="105.588,1138.571 105.345,1138.658 104.305,1148.171 103.753,1158.530 104.154,1168.230 104.941,1176.968 104.484,1179.458 104.585,1182.004 106.025,1196.585 " />
<polyline style="fill:none;stroke:grey;stroke-width:13.043478260869566;opacity:0.2" points="63.320,1175.407 62.780,1176.172 62.065,1176.110 62.588,1175.360 75.821,1174.396 91.563,1170.654 95.382,1170.121 101.159,1170.091 102.548,1170.375 " />
<polyline style="fill:none;stroke:grey;stroke-width:13.043478260869566;opacity:0.2" points="146.368,1161.352 145.725,1162.005 144.738,1162.235 145.022,1161.800 145.275,1162.096 146.313,1167.830 147.129,1176.044 147.254,1186.133 148.807,1190.543 150.440,1191.812 " />
<polyline style="fill:none;stroke:grey;stroke-width:13.043478260869566;opacity:0.2" points="151.474,1141.592 150.905,1142.025 150.158,1141.337 149.153,1139.073 149.358,1139.495 150.368,1139.827 " />
<polyline style="fill:none;stroke:black;stroke-width:3.4782608695652177;opacity:0.9" points=""/>
<polyline style="fill:none; stroke:black; stroke-width:2.35" points="87.178,1328.113 85.969,1327.362 "/>
<polyline style="fill:none; stroke:black; stroke-width:0.01730809688568119" points="87.178,1328.113 86.594,1327.113 87.128,1326.229 "/>
<polyline style="fill:none; stroke:black; stroke-width:0.09435469775646922" points="86.594,1327.113 87.817,1323.036 88.009,1320.138 "/>
<polyline style="fill:none; stroke:black; stroke-width:0.5168315669588746" points="87.817,1323.036 87.841,1317.265 87.764,1315.767 "/>
<polyline style="fill:none; stroke:black; stroke-width:0.9205175509124249" points="87.841,1317.265 87.109,1313.563 86.535,1312.649 "/>
<polyline style="fill:none; stroke:black; stroke-width:1.3164151643720194" points="87.109,1313.563 84.855,1311.179 83.795,1310.751 "/>
<polyline style="fill:none; stroke:black; stroke-width:1.6439478740593487" points="84.855,1311.179 78.698,1310.595 65.650,1311.988 "/>
<polyline style="fill:none; stroke:black; stroke-width:1.7818847869386345" points="78.698,1310.595 62.791,1312.696 60.297,1314.270 "/>
<polyline style="fill:none; stroke:black; stroke-width:2.272107769050698" points="62.791,1312.696 57.447,1317.865 56.306,1320.209 "/>
<polyline style="fill:none; stroke:black; stroke-width:3.531602423515979" points="57.447,1317.865 54.692,1325.711 52.355,1331.224 "/>
<polyline style="fill:none; stroke:black; stroke-width:4.66005241645889" points="54.692,1325.711 52.189,1335.947 53.018,1342.572 "/>
<polyline style="fill:none; stroke:black; stroke-width:4.936443957029192" points="52.189,1335.947 55.087,1346.530 61.008,1354.589 "/>
<polyline style="fill:none; stroke:black; stroke-width:3.436256753666217" points="55.087,1346.530 65.071,1356.872 73.874,1359.996 "/>
<polyline style="fill:none; stroke:black; stroke-width:0.9442910835178024" points="65.071,1356.872 80.770,1359.946 84.422,1359.483 "/>
<polyline style="fill:none; stroke:black; stroke-width:0.3660642880205255" points="80.770,1359.946 86.260,1359.108 86.260,1359.108 "/>
<polyline style="fill:none; stroke:black; stroke-width:-0.02289511434106225" points="86.260,1359.108 90.111,1357.887 93.160,1356.152 "/>
<polyline style="fill:none; stroke:black; stroke-width:1.3526531560501773" points="90.111,1357.887 94.655,1355.154 " />
<polyline style="fill:none;stroke:black;stroke-width:3.4782608695652177;opacity:0.9" points=""/>
<polyline style="fill:none; stroke:black; stroke-width:2.3216977797448637" points="115.942,1340.360 114.012,1334.950 "/>
<polyline style="fill:none; stroke:black; stroke-width:0.6802429219335319" points="115.942,1340.360 112.842,1334.714 112.215,1334.980 "/>
<polyline style="fill:none; stroke:black; stroke-width:0.9025839578136802" points="112.842,1334.714 110.187,1335.477 107.542,1335.755 "/>
<polyline style="fill:none; stroke:black; stroke-width:1.2170771400235596" points="110.187,1335.477 106.229,1336.090 103.753,1337.151 "/>
<polyline style="fill:none; stroke:black; stroke-width:1.7038020616499199" points="106.229,1336.090 98.690,1340.716 97.181,1343.233 "/>
<polyline style="fill:none; stroke:black; stroke-width:3.907382169264897" points="98.690,1340.716 96.640,1346.490 98.737,1349.600 "/>
<polyline style="fill:none; stroke:black; stroke-width:2.809932630748288" points="96.640,1346.490 101.971,1353.718 106.212,1357.612 "/>
<polyline style="fill:none; stroke:black; stroke-width:2.3867465931884846" points="101.971,1353.718 107.428,1358.258 108.803,1358.512 "/>
<polyline style="fill:none; stroke:black; stroke-width:0.7336202678644707" points="107.428,1358.258 110.621,1358.313 112.277,1357.632 "/>
<polyline style="fill:none; stroke:black; stroke-width:0.6968231564712681" points="110.621,1358.313 113.422,1356.643 115.508,1354.003 "/>
<polyline style="fill:none; stroke:black; stroke-width:0.80317220658727" points="113.422,1356.643 118.458,1348.392 119.538,1343.869 "/>
<polyline style="fill:none; stroke:black; stroke-width:0.9564373225593592" points="118.458,1348.392 120.098,1335.734 120.276,1330.850 "/>
<polyline style="fill:none; stroke:black; stroke-width:1.122671941575189" points="120.098,1335.734 119.759,1329.049 119.719,1329.573 "/>
<polyline style="fill:none; stroke:black; stroke-width:3.0933541140197964" points="119.759,1329.049 119.765,1330.115 119.806,1332.267 "/>
<polyline style="fill:none; stroke:black; stroke-width:4.728807289230232" points="119.765,1330.115 119.254,1338.414 119.915,1341.804 "/>
<polyline style="fill:none; stroke:black; stroke-width:4.959220241028889" points="119.254,1338.414 119.749,1343.064 120.375,1344.256 "/>
<polyline style="fill:none; stroke:black; stroke-width:3.7459962479844373" points="119.749,1343.064 122.910,1347.559 123.874,1348.626 "/>
<polyline style="fill:none; stroke:black; stroke-width:3.173315673019257" points="122.910,1347.559 125.812,1351.324 128.907,1354.584 "/>
<polyline style="fill:none; stroke:black; stroke-width:2.6841287696751763" points="125.812,1351.324 131.441,1355.352 133.805,1354.857 "/>
<polyline style="fill:none; stroke:black; stroke-width:0.8718475902580396" points="131.441,1355.352 134.790,1354.153 136.108,1352.356 "/>
<polyline style="fill:none; stroke:black; stroke-width:0.24027374789810413" points="134.790,1354.153 137.346,1351.070 138.115,1349.489 "/>
<polyline style="fill:none; stroke:black; stroke-width:1.3814186845279695" points="137.346,1351.070 138.657,1347.765 " />
<polyline style="fill:none;stroke:black;stroke-width:3.4782608695652177;opacity:0.9" points=""/>
<polyline style="fill:none; stroke:black; stroke-width:1.4334426379203797" points="142.825,1308.109 142.387,1308.846 "/>
<polyline style="fill:none; stroke:black; stroke-width:1.377389075499028" points="142.825,1308.109 142.843,1309.098 142.712,1310.716 "/>
<polyline style="fill:none; stroke:black; stroke-width:1.994795567838607" points="142.843,1309.098 142.903,1314.351 143.503,1318.586 "/>
<polyline style="fill:none; stroke:black; stroke-width:3.356102127228169" points="142.903,1314.351 143.376,1320.685 143.567,1327.166 "/>
<polyline style="fill:none; stroke:black; stroke-width:5.580449681831207" points="143.376,1320.685 143.610,1332.102 143.237,1337.224 "/>
<polyline style="fill:none; stroke:black; stroke-width:6.865267452291345" points="143.610,1332.102 143.329,1341.365 143.989,1345.491 "/>
<polyline style="fill:none; stroke:black; stroke-width:6.299271019005753" points="143.329,1341.365 144.763,1347.453 145.812,1348.288 "/>
<polyline style="fill:none; stroke:black; stroke-width:2.8141835395870096" points="144.763,1347.453 146.529,1348.252 147.160,1347.977 "/>
<polyline style="fill:none; stroke:black; stroke-width:2.9742978023106152" points="146.529,1348.252 147.160,1347.977 147.160,1347.977 "/>
<polyline style="fill:none; stroke:black; stroke-width:2.0602291233803016" points="147.160,1347.977 147.160,1347.977 147.160,1347.977 " />
<polyline style="fill:none;stroke:black;stroke-width:3.4782608695652177;opacity:0.9" points=""/>
<polyline style="fill:none; stroke:black; stroke-width:1.3924491930007934" points="154.880,1331.140 153.297,1330.629 "/>
<polyline style="fill:none; stroke:black; stroke-width:1.2222454662919044" points="154.880,1331.140 153.580,1331.263 153.420,1332.068 "/>
<polyline style="fill:none; stroke:black; stroke-width:1.8021039236467822" points="153.580,1331.263 153.378,1333.250 152.536,1337.502 "/>
<polyline style="fill:none; stroke:black; stroke-width:3.9852753223280564" points="153.378,1333.250 151.878,1342.882 152.083,1344.252 "/>
<polyline style="fill:none; stroke:black; stroke-width:3.9449753367841884" points="151.878,1342.882 153.219,1346.125 154.662,1347.222 "/>
<polyline style="fill:none; stroke:black; stroke-width:2.9606745183803724" points="153.219,1346.125 155.819,1347.429 155.819,1347.429 "/>
<polyline style="fill:none; stroke:black; stroke-width:2.093276838316033" points="155.819,1347.429 155.819,1347.429 155.819,1347.429 " />
<polyline style="fill:none;stroke:black;stroke-width:3.4782608695652177;opacity:0.9" points=""/>
<polyline style="fill:none; stroke:black; stroke-width:2.346684740623459" points="164.392,1326.329 162.497,1325.768 "/>
<polyline style="fill:none; stroke:black; stroke-width:0.7369219356914982" points="164.392,1326.329 159.454,1324.439 157.906,1323.620 "/>
<polyline style="fill:none; stroke:black; stroke-width:1.0677000870718623" points="159.454,1324.439 157.187,1323.211 156.848,1323.051 "/>
<polyline style="fill:none; stroke:black; stroke-width:3.0230296606615883" points="157.187,1323.211 156.510,1323.385 157.524,1323.779 "/>
<polyline style="fill:none; stroke:black; stroke-width:3.0816070210574518" points="156.510,1323.385 157.919,1324.253 158.476,1325.431 "/>
<polyline style="fill:none; stroke:black; stroke-width:2.8250740822350067" points="157.919,1324.253 158.476,1325.431 158.476,1325.431 "/>
<polyline style="fill:none; stroke:black; stroke-width:1.8715680763505658" points="158.476,1325.431 158.476,1325.431 " />
<polyline style="fill:none;stroke:black;stroke-width:3.4782608695652177;opacity:0.9" points=""/>
<polyline style="fill:none; stroke:black; stroke-width:0.658444757461548" points="183.739,1329.984 182.515,1330.652 "/>
<polyline style="fill:none; stroke:black; stroke-width:0.6633572225347162" points="183.739,1329.984 180.489,1331.017 179.301,1330.600 "/>
<polyline style="fill:none; stroke:black; stroke-width:1.0375527194596827" points="180.489,1331.017 178.273,1330.611 177.103,1330.713 "/>
<polyline style="fill:none; stroke:black; stroke-width:1.5025528507576138" points="178.273,1330.611 175.677,1331.167 174.137,1331.763 "/>
<polyline style="fill:none; stroke:black; stroke-width:1.8425999339138048" points="175.677,1331.167 172.840,1332.684 171.871,1334.012 "/>
<polyline style="fill:none; stroke:black; stroke-width:3.5506658878809514" points="172.840,1332.684 170.040,1337.821 169.280,1341.873 "/>
<polyline style="fill:none; stroke:black; stroke-width:5.862254160373678" points="170.040,1337.821 169.522,1343.089 170.072,1343.895 "/>
<polyline style="fill:none; stroke:black; stroke-width:4.728544109630295" points="169.522,1343.089 171.619,1344.893 173.100,1345.356 "/>
<polyline style="fill:none; stroke:black; stroke-width:1.638544386901359" points="171.619,1344.893 175.871,1345.146 177.381,1344.555 "/>
<polyline style="fill:none; stroke:black; stroke-width:1.1747484961002366" points="175.871,1345.146 178.955,1342.924 179.608,1341.276 "/>
<polyline style="fill:none; stroke:black; stroke-width:1.0068681701894542" points="178.955,1342.924 179.886,1340.307 180.200,1339.099 "/>
<polyline style="fill:none; stroke:black; stroke-width:0.6726590284512131" points="179.886,1340.307 180.291,1338.927 180.084,1339.699 "/>
<polyline style="fill:none; stroke:black; stroke-width:1.5670733481437515" points="180.291,1338.927 180.119,1340.885 180.340,1341.650 "/>
<polyline style="fill:none; stroke:black; stroke-width:1.3952886289028692" points="180.119,1340.885 183.201,1346.748 187.232,1352.726 "/>
<polyline style="fill:none; stroke:black; stroke-width:1.2993262989268048" points="183.201,1346.748 188.358,1355.253 189.814,1360.200 "/>
<polyline style="fill:none; stroke:black; stroke-width:1.2454653127550703" points="188.358,1355.253 190.308,1365.247 190.283,1370.085 "/>
<polyline style="fill:none; stroke:black; stroke-width:1.6005057101263842" points="190.308,1365.247 189.497,1374.073 188.471,1377.218 "/>
<polyline style="fill:none; stroke:black; stroke-width:2.0402137903335897" points="189.497,1374.073 186.805,1379.903 184.663,1381.866 "/>
<polyline style="fill:none; stroke:black; stroke-width:1.848859538656856" points="186.805,1379.903 181.974,1382.606 179.084,1382.587 "/>
<polyline style="fill:none; stroke:black; stroke-width:1.7235000019151276" points="181.974,1382.606 178.226,1382.130 175.102,1379.902 "/>
<polyline style="fill:none; stroke:black; stroke-width:1.8139721302113347" points="178.226,1382.130 171.208,1377.645 165.529,1373.311 "/>
<polyline style="fill:none; stroke:black; stroke-width:1.7743575707262638" points="171.208,1377.645 163.928,1371.694 163.150,1369.758 "/>
<polyline style="fill:none; stroke:black; stroke-width:1.5534573098353703" points="163.928,1371.694 162.937,1365.765 163.524,1364.165 "/>
<polyline style="fill:none; stroke:black; stroke-width:1.2127469721570072" points="162.937,1365.765 165.427,1362.010 168.599,1359.964 "/>
<polyline style="fill:none; stroke:black; stroke-width:0.42574007177672596" points="165.427,1362.010 170.390,1359.453 170.390,1359.453 " />
<polyline style="fill:none;stroke:black;stroke-width:3.4782608695652177;opacity:0.9" points=""/>
<polyline style="fill:none; stroke:black; stroke-width:1.5831529664993287" points="200.665,1349.221 200.397,1351.701 "/>
<polyline style="fill:none; stroke:black; stroke-width:0.005171435598284008" points="200.665,1349.221 200.730,1351.459 200.646,1351.227 "/>
<polyline style="fill:none; stroke:black; stroke-width:0.3723646378044039" points="200.730,1351.459 200.744,1350.811 200.878,1350.251 "/>
<polyline style="fill:none; stroke:black; stroke-width:0.906444575543441" points="200.744,1350.811 200.745,1349.679 200.612,1348.879 "/>
<polyline style="fill:none; stroke:black; stroke-width:1.141900022840027" points="200.745,1349.679 200.481,1347.695 200.382,1342.594 "/>
<polyline style="fill:none; stroke:black; stroke-width:1.3137608363246447" points="200.481,1347.695 200.511,1339.062 200.184,1334.232 "/>
<polyline style="fill:none; stroke:black; stroke-width:1.386700145741458" points="200.511,1339.062 200.297,1330.782 201.050,1326.904 "/>
<polyline style="fill:none; stroke:black; stroke-width:1.336284472181415" points="200.297,1330.782 202.107,1324.007 203.119,1322.976 "/>
<polyline style="fill:none; stroke:black; stroke-width:2.570438500805101" points="202.107,1324.007 204.144,1323.312 211.131,1327.823 "/>
<polyline style="fill:none; stroke:black; stroke-width:2.6478724995619674" points="204.144,1323.312 215.964,1332.185 215.964,1332.185 "/>
<polyline style="fill:none; stroke:black; stroke-width:2.136963998459547" points="215.964,1332.185 219.198,1334.232 219.198,1334.232 "/>
<polyline style="fill:none; stroke:black; stroke-width:1.6889183169674653" points="219.198,1334.232 219.198,1334.232 223.434,1335.305 "/>
<polyline style="fill:none; stroke:black; stroke-width:1.5137143086500147" points="219.198,1334.232 224.517,1335.498 224.938,1336.628 "/>
<polyline style="fill:none; stroke:black; stroke-width:1.4671029464513778" points="224.517,1335.498 229.291,1336.352 228.752,1336.967 "/>
<polyline style="fill:none; stroke:black; stroke-width:0.5920014140523616" points="229.291,1336.352 227.430,1335.741 226.856,1335.323 "/>
<polyline style="fill:none; stroke:black; stroke-width:1.0172994330400948" points="227.430,1335.741 226.061,1335.031 225.036,1334.880 "/>
<polyline style="fill:none; stroke:black; stroke-width:1.4390316994341368" points="226.061,1335.031 223.794,1334.759 220.899,1335.473 "/>
<polyline style="fill:none; stroke:black; stroke-width:1.9419360055679202" points="223.794,1334.759 216.758,1337.231 215.085,1338.773 "/>
<polyline style="fill:none; stroke:black; stroke-width:2.8364713839066864" points="216.758,1337.231 214.580,1339.574 214.360,1341.118 "/>
<polyline style="fill:none; stroke:black; stroke-width:5.502809463843849" points="214.580,1339.574 215.290,1342.948 215.228,1343.972 "/>
<polyline style="fill:none; stroke:black; stroke-width:6.331524285686866" points="215.290,1342.948 216.337,1346.176 218.528,1348.297 "/>
<polyline style="fill:none; stroke:black; stroke-width:4.868433478697121" points="216.337,1346.176 219.789,1349.045 222.679,1349.429 "/>
<polyline style="fill:none; stroke:black; stroke-width:2.017201506919098" points="219.789,1349.045 225.898,1348.329 230.108,1345.680 "/>
<polyline style="fill:none; stroke:black; stroke-width:1.3897476936408608" points="225.898,1348.329 233.252,1340.144 233.495,1339.057 "/>
<polyline style="fill:none; stroke:black; stroke-width:1.4459533533036901" points="233.252,1340.144 232.527,1335.190 231.878,1334.631 "/>
<polyline style="fill:none; stroke:black; stroke-width:2.0769822403228884" points="232.527,1335.190 230.706,1335.330 230.850,1335.619 "/>
<polyline style="fill:none; stroke:black; stroke-width:4.090976601980423" points="230.706,1335.330 230.358,1336.990 230.530,1338.277 "/>
<polyline style="fill:none; stroke:black; stroke-width:6.196367875084485" points="230.358,1336.990 230.670,1341.976 231.997,1347.411 "/>
<polyline style="fill:none; stroke:black; stroke-width:5.659111099231054" points="230.670,1341.976 234.351,1351.253 236.039,1352.615 "/>
<polyline style="fill:none; stroke:black; stroke-width:3.587931454594083" points="234.351,1351.253 239.998,1353.251 243.185,1352.896 "/>
<polyline style="fill:none; stroke:black; stroke-width:0.8099841728433084" points="239.998,1353.251 244.426,1352.328 245.771,1351.618 "/>
<polyline style="fill:none; stroke:black; stroke-width:1.5211601223014206" points="244.426,1352.328 245.771,1351.618 " />
<polyline style="fill:none;stroke:black;stroke-width:3.4782608695652177;opacity:0.9" points=""/>
<polyline style="fill:none; stroke:black; stroke-width:1.552398500442505" points="249.483,1331.158 249.313,1333.939 "/>
<polyline style="fill:none; stroke:black; stroke-width:1.320909330066896" points="249.483,1331.158 249.235,1334.041 249.452,1335.015 "/>
<polyline style="fill:none; stroke:black; stroke-width:2.6833722263731934" points="249.235,1334.041 249.839,1336.853 250.323,1339.179 "/>
<polyline style="fill:none; stroke:black; stroke-width:4.149077458592358" points="249.839,1336.853 250.791,1341.601 251.972,1348.397 "/>
<polyline style="fill:none; stroke:black; stroke-width:6.393504596787154" points="250.791,1341.601 252.426,1350.530 253.294,1362.679 "/>
<polyline style="fill:none; stroke:black; stroke-width:7.813800150365635" points="252.426,1350.530 253.942,1365.298 254.677,1366.682 "/>
<polyline style="fill:none; stroke:black; stroke-width:6.203478068462082" points="253.942,1365.298 254.999,1366.853 254.503,1366.717 "/>
<polyline style="fill:none; stroke:black; stroke-width:3.8384283754988324" points="254.999,1366.853 254.218,1366.483 254.701,1365.919 "/>
<polyline style="fill:none; stroke:black; stroke-width:2.23858861016811" points="254.218,1366.483 254.679,1365.414 253.827,1363.408 "/>
<polyline style="fill:none; stroke:black; stroke-width:1.235225155621204" points="254.679,1365.414 250.037,1346.261 250.087,1343.452 "/>
<polyline style="fill:none; stroke:black; stroke-width:1.0390951464460065" points="250.037,1346.261 250.780,1340.040 253.433,1335.832 "/>
<polyline style="fill:none; stroke:black; stroke-width:0.8546008728345932" points="250.780,1340.040 256.911,1332.568 257.624,1332.545 "/>
<polyline style="fill:none; stroke:black; stroke-width:2.201493002550954" points="256.911,1332.568 260.487,1333.552 263.825,1335.894 "/>
<polyline style="fill:none; stroke:black; stroke-width:2.848869422801883" points="260.487,1333.552 265.961,1338.310 268.396,1342.140 "/>
<polyline style="fill:none; stroke:black; stroke-width:4.073536391800896" points="265.961,1338.310 268.693,1343.158 268.844,1344.106 "/>
<polyline style="fill:none; stroke:black; stroke-width:5.379302584405932" points="268.693,1343.158 268.010,1348.711 266.589,1350.338 "/>
<polyline style="fill:none; stroke:black; stroke-width:3.2544979201626787" points="268.010,1348.711 264.216,1351.534 263.401,1351.766 "/>
<polyline style="fill:none; stroke:black; stroke-width:2.325982260309933" points="264.216,1351.534 260.218,1351.419 254.821,1348.247 "/>
<polyline style="fill:none; stroke:black; stroke-width:1.7694842230515033" points="260.218,1351.419 252.747,1345.916 252.431,1345.074 "/>
<polyline style="fill:none; stroke:black; stroke-width:1.2854079164113683" points="252.747,1345.916 252.621,1344.459 252.923,1344.121 "/>
<polyline style="fill:none; stroke:black; stroke-width:0.48494906647801084" points="252.621,1344.459 253.043,1344.013 253.043,1344.013 " />
<polyline style="fill:none;stroke:black;stroke-width:3.4782608695652177;opacity:0.9" points=""/>
<polyline style="fill:none; stroke:black; stroke-width:1.681477599143982" points="276.955,1313.175 278.010,1310.179 "/>
<polyline style="fill:none; stroke:black; stroke-width:1.3813235804599318" points="276.955,1313.175 277.908,1311.305 277.808,1312.596 "/>
<polyline style="fill:none; stroke:black; stroke-width:2.4442818229733896" points="277.908,1311.305 277.615,1314.202 277.543,1316.090 "/>
<polyline style="fill:none; stroke:black; stroke-width:4.241819785656486" points="277.615,1314.202 277.732,1318.181 277.739,1322.699 "/>
<polyline style="fill:none; stroke:black; stroke-width:6.60457146105146" points="277.732,1318.181 277.852,1325.051 277.874,1331.635 "/>
<polyline style="fill:none; stroke:black; stroke-width:8.616179844942172" points="277.852,1325.051 277.380,1339.346 277.672,1342.907 "/>
<polyline style="fill:none; stroke:black; stroke-width:8.872319462100634" points="277.380,1339.346 278.417,1345.265 277.889,1346.304 "/>
<polyline style="fill:none; stroke:black; stroke-width:7.854179754348104" points="278.417,1345.265 278.314,1347.472 278.757,1347.524 "/>
<polyline style="fill:none; stroke:black; stroke-width:3.981500901636576" points="278.314,1347.472 278.944,1347.145 279.025,1346.823 "/>
<polyline style="fill:none; stroke:black; stroke-width:2.2185334942054546" points="278.944,1347.145 279.125,1345.207 284.990,1337.702 "/>
<polyline style="fill:none; stroke:black; stroke-width:1.542878447923138" points="279.125,1345.207 285.260,1336.956 290.565,1332.457 "/>
<polyline style="fill:none; stroke:black; stroke-width:1.1882915811372157" points="285.260,1336.956 291.396,1332.210 292.313,1332.881 "/>
<polyline style="fill:none; stroke:black; stroke-width:4.882862207761318" points="291.396,1332.210 292.383,1334.629 292.647,1335.813 "/>
<polyline style="fill:none; stroke:black; stroke-width:5.604029727540878" points="292.383,1334.629 293.661,1337.055 294.142,1338.442 "/>
<polyline style="fill:none; stroke:black; stroke-width:6.886641337169567" points="293.661,1337.055 294.905,1342.044 295.820,1343.225 "/>
<polyline style="fill:none; stroke:black; stroke-width:6.900771999141721" points="294.905,1342.044 296.543,1345.740 297.622,1347.074 "/>
<polyline style="fill:none; stroke:black; stroke-width:4.828473160713315" points="296.543,1345.740 299.437,1347.892 300.503,1348.880 "/>
<polyline style="fill:none; stroke:black; stroke-width:3.70481000568705" points="299.437,1347.892 302.220,1349.454 307.600,1347.322 "/>
<polyline style="fill:none; stroke:black; stroke-width:1.8538806825722545" points="302.220,1349.454 307.591,1346.662 310.670,1343.434 "/>
<polyline style="fill:none; stroke:black; stroke-width:1.389511605864855" points="307.591,1346.662 314.836,1337.607 314.622,1336.446 "/>
<polyline style="fill:none; stroke:black; stroke-width:1.5129387511588892" points="314.836,1337.607 315.605,1335.112 315.217,1335.544 "/>
<polyline style="fill:none; stroke:black; stroke-width:3.8026985935990254" points="315.605,1335.112 315.112,1335.945 314.970,1337.040 "/>
<polyline style="fill:none; stroke:black; stroke-width:6.871271300226036" points="315.112,1335.945 316.042,1341.982 316.295,1344.339 "/>
<polyline style="fill:none; stroke:black; stroke-width:7.163709381766631" points="316.042,1341.982 316.898,1345.749 317.420,1345.897 "/>
<polyline style="fill:none; stroke:black; stroke-width:4.999396802597812" points="316.898,1345.749 318.317,1346.026 320.614,1346.958 "/>
<polyline style="fill:none; stroke:black; stroke-width:3.387997934470806" points="318.317,1346.026 323.315,1349.109 324.837,1349.495 "/>
<polyline style="fill:none; stroke:black; stroke-width:2.9884814413935965" points="323.315,1349.109 326.812,1349.444 327.635,1349.823 "/>
<polyline style="fill:none; stroke:black; stroke-width:3.3549964053395973" points="326.812,1349.444 328.794,1351.271 329.684,1354.304 "/>
<polyline style="fill:none; stroke:black; stroke-width:5.097251513376761" points="328.794,1351.271 330.658,1356.264 331.281,1358.464 "/>
<polyline style="fill:none; stroke:black; stroke-width:6.6405402675004215" points="330.658,1356.264 331.931,1362.583 332.173,1366.198 "/>
<polyline style="fill:none; stroke:black; stroke-width:8.25067485353999" points="331.931,1362.583 331.901,1369.270 331.353,1370.732 "/>
<polyline style="fill:none; stroke:black; stroke-width:7.546911133453964" points="331.901,1369.270 329.963,1373.528 329.009,1374.709 "/>
<polyline style="fill:none; stroke:black; stroke-width:5.409720576081413" points="329.963,1373.528 326.061,1377.413 320.456,1381.733 "/>
<polyline style="fill:none; stroke:black; stroke-width:3.011084840211431" points="326.061,1377.413 314.055,1384.527 312.009,1385.136 "/>
<polyline style="fill:none; stroke:black; stroke-width:2.4542225450820325" points="314.055,1384.527 309.763,1385.269 305.297,1384.414 "/>
<polyline style="fill:none; stroke:black; stroke-width:1.9223516528380962" points="309.763,1385.269 299.715,1382.118 296.152,1381.378 "/>
<polyline style="fill:none; stroke:black; stroke-width:1.815874406429108" points="299.715,1382.118 296.152,1381.378 " />
<polyline style="fill:none;stroke:black;stroke-width:3.4782608695652177;opacity:0.9" points=""/>
<polyline style="fill:none; stroke:black; stroke-width:0.9196917009353638" points="417.635,1349.601 412.090,1350.213 "/>
<polyline style="fill:none; stroke:black; stroke-width:0.750916277885437" points="417.635,1349.601 411.680,1350.963 410.733,1351.391 "/>
<polyline style="fill:none; stroke:black; stroke-width:1.0421251514077188" points="411.680,1350.963 410.496,1351.442 410.288,1351.391 "/>
<polyline style="fill:none; stroke:black; stroke-width:0.9937351254475117" points="410.496,1351.442 410.185,1351.133 410.052,1350.866 "/>
<polyline style="fill:none; stroke:black; stroke-width:1.2171133360053301" points="410.185,1351.133 409.907,1350.211 409.705,1349.656 "/>
<polyline style="fill:none; stroke:black; stroke-width:1.3424455692448736" points="409.907,1350.211 409.472,1348.122 409.856,1346.016 "/>
<polyline style="fill:none; stroke:black; stroke-width:1.2060590611902726" points="409.472,1348.122 411.628,1343.316 419.119,1337.084 "/>
<polyline style="fill:none; stroke:black; stroke-width:1.079301458468118" points="411.628,1343.316 422.250,1335.004 425.420,1333.471 "/>
<polyline style="fill:none; stroke:black; stroke-width:0.9510917281975428" points="422.250,1335.004 426.351,1333.335 428.679,1334.686 "/>
<polyline style="fill:none; stroke:black; stroke-width:3.1795038062825673" points="426.351,1333.335 429.511,1336.032 430.207,1337.760 "/>
<polyline style="fill:none; stroke:black; stroke-width:5.310299294070142" points="429.511,1336.032 431.481,1342.053 431.868,1344.437 "/>
<polyline style="fill:none; stroke:black; stroke-width:6.253332154857681" points="431.481,1342.053 432.791,1346.610 435.771,1349.932 "/>
<polyline style="fill:none; stroke:black; stroke-width:4.602563766467165" points="432.791,1346.610 439.230,1351.828 441.169,1352.354 "/>
<polyline style="fill:none; stroke:black; stroke-width:1.9468795380325834" points="439.230,1351.828 445.355,1352.541 447.387,1352.275 "/>
<polyline style="fill:none; stroke:black; stroke-width:1.1877512747386385" points="445.355,1352.541 460.167,1348.940 470.038,1346.755 "/>
<polyline style="fill:none; stroke:black; stroke-width:1.1712183722628648" points="460.167,1348.940 474.334,1344.600 475.076,1343.507 "/>
<polyline style="fill:none; stroke:black; stroke-width:1.2102450789619617" points="474.334,1344.600 475.506,1343.076 476.051,1342.640 "/>
<polyline style="fill:none; stroke:black; stroke-width:2.4027936127159264" points="475.506,1343.076 476.051,1342.640 476.051,1342.640 " />
<polyline style="fill:none;stroke:black;stroke-width:6.9565217391304355;opacity:0.9" points=""/>
<polyline style="fill:none; stroke:black; stroke-width:2.8" points="674.193,1344.808 671.037,1346.094 "/>
<polyline style="fill:none; stroke:black; stroke-width:1.4780389493703845" points="674.193,1344.808 670.224,1346.289 669.819,1346.237 "/>
<polyline style="fill:none; stroke:black; stroke-width:1.346168920457363" points="670.224,1346.289 669.848,1346.164 669.930,1346.028 "/>
<polyline style="fill:none; stroke:black; stroke-width:1.5844426819741726" points="669.848,1346.164 670.046,1345.900 670.135,1345.688 "/>
<polyline style="fill:none; stroke:black; stroke-width:2.1780614609426263" points="670.046,1345.900 669.977,1344.828 669.723,1344.134 "/>
<polyline style="fill:none; stroke:black; stroke-width:2.337871594378412" points="669.977,1344.828 669.447,1341.789 670.022,1338.659 "/>
<polyline style="fill:none; stroke:black; stroke-width:2.271325585360235" points="669.447,1341.789 671.985,1334.325 673.925,1331.533 "/>
<polyline style="fill:none; stroke:black; stroke-width:2.166960320186109" points="671.985,1334.325 676.309,1329.438 681.178,1326.408 "/>
<polyline style="fill:none; stroke:black; stroke-width:2.0003523454379533" points="676.309,1329.438 684.832,1325.610 688.362,1325.828 "/>
<polyline style="fill:none; stroke:black; stroke-width:4.13472066673269" points="684.832,1325.610 694.419,1328.890 697.463,1330.904 "/>
<polyline style="fill:none; stroke:black; stroke-width:4.495844067405811" points="694.419,1328.890 702.353,1332.767 712.942,1338.397 "/>
<polyline style="fill:none; stroke:black; stroke-width:4.4143711582208915" points="702.353,1332.767 716.900,1339.658 719.023,1339.885 "/>
<polyline style="fill:none; stroke:black; stroke-width:2.528579034918748" points="716.900,1339.658 720.999,1339.680 722.908,1339.080 "/>
<polyline style="fill:none; stroke:black; stroke-width:2.2581691615583788" points="720.999,1339.680 725.099,1338.183 727.322,1336.773 "/>
<polyline style="fill:none; stroke:black; stroke-width:2.2182670438288543" points="725.099,1338.183 734.792,1329.241 737.191,1326.417 "/>
<polyline style="fill:none; stroke:black; stroke-width:2.1357300771906464" points="734.792,1329.241 739.115,1323.846 740.594,1321.603 "/>
<polyline style="fill:none; stroke:black; stroke-width:3.161893885235316" points="739.115,1323.846 740.594,1321.603 740.594,1321.603 "/>
<polyline style="fill:none; stroke:black; stroke-width:2.1589578877146076" points="740.594,1321.603 740.594,1321.603 " />
<polyline style="fill:none;stroke:black;stroke-width:10.434782608695652;opacity:0.9" points=""/>
<polyline style="fill:none; stroke:black; stroke-width:2.9385639691352843" points="874.807,1337.172 874.465,1337.497 "/>
<polyline style="fill:none; stroke:black; stroke-width:3.933904671609402" points="874.807,1337.172 874.547,1337.498 874.660,1337.425 "/>
<polyline style="fill:none; stroke:black; stroke-width:3.2722412049710754" points="874.547,1337.498 874.752,1337.038 874.694,1336.469 "/>
<polyline style="fill:none; stroke:black; stroke-width:3.687381473183036" points="874.752,1337.038 874.592,1335.663 874.331,1334.062 "/>
<polyline style="fill:none; stroke:black; stroke-width:4.233700744211614" points="874.592,1335.663 873.896,1333.307 873.861,1332.435 "/>
<polyline style="fill:none; stroke:black; stroke-width:4.390128618866199" points="873.896,1333.307 874.620,1325.049 875.545,1321.901 "/>
<polyline style="fill:none; stroke:black; stroke-width:4.34907271567881" points="874.620,1325.049 876.808,1319.342 879.132,1316.343 "/>
<polyline style="fill:none; stroke:black; stroke-width:4.217612129155696" points="876.808,1319.342 883.050,1313.720 885.691,1312.476 "/>
<polyline style="fill:none; stroke:black; stroke-width:5.741882222023249" points="883.050,1313.720 888.401,1312.296 889.734,1312.751 "/>
<polyline style="fill:none; stroke:black; stroke-width:7.596188378960317" points="888.401,1312.296 890.891,1313.571 892.295,1314.576 "/>
<polyline style="fill:none; stroke:black; stroke-width:10.057929493040533" points="890.891,1313.571 894.324,1316.040 896.285,1317.704 "/>
<polyline style="fill:none; stroke:black; stroke-width:12.971869176720306" points="894.324,1316.040 897.920,1319.462 899.614,1321.153 "/>
<polyline style="fill:none; stroke:black; stroke-width:15.417258226622325" points="897.920,1319.462 904.040,1325.263 907.227,1327.365 "/>
<polyline style="fill:none; stroke:black; stroke-width:12.882426289409919" points="904.040,1325.263 908.922,1327.897 913.220,1329.553 "/>
<polyline style="fill:none; stroke:black; stroke-width:9.897961899998167" points="908.922,1327.897 917.240,1330.757 923.201,1333.800 "/>
<polyline style="fill:none; stroke:black; stroke-width:9.209125507715573" points="917.240,1330.757 928.413,1335.758 933.407,1336.484 "/>
<polyline style="fill:none; stroke:black; stroke-width:7.5000640526968665" points="928.413,1335.758 935.387,1336.493 939.290,1335.634 "/>
<polyline style="fill:none; stroke:black; stroke-width:4.88114853104236" points="935.387,1336.493 943.666,1333.984 950.118,1330.548 "/>
<polyline style="fill:none; stroke:black; stroke-width:4.415122203055708" points="943.666,1333.984 953.208,1328.258 955.500,1325.806 "/>
<polyline style="fill:none; stroke:black; stroke-width:4.48913315850429" points="953.208,1328.258 955.825,1324.414 957.862,1320.968 "/>
<polyline style="fill:none; stroke:black; stroke-width:4.299808666716169" points="955.825,1324.414 959.394,1317.405 960.158,1315.949 "/>
<polyline style="fill:none; stroke:black; stroke-width:3.687145431992013" points="959.394,1317.405 961.188,1314.329 962.360,1312.683 "/>
<polyline style="fill:none; stroke:black; stroke-width:3.178467501429755" points="961.188,1314.329 962.360,1312.683 " />
<rect x="0" y="0" width="1404" height="1872" fill-opacity="0"/></g></svg>