<svg xmlns="http://www.w3.org/2000/svg" height="1872" width="1404">
        <script type="application/ecmascript"> <![CDATA[
            var visiblePage = 'p1';
            function goToPage(page) {
                document.getElementById(visiblePage).setAttribute('style', 'display: none');
                document.getElementById(page).setAttribute('style', 'display: inline');
                visiblePage = page;
            }
        ]]> </script>
    <g id="p1" style="display:inline"><filter id="blurMe"><feGaussianBlur in="SourceGraphic" stdDeviation="10" /></filter><polyline style="fill:none;stroke:[0, 0, 0];stroke-width:2.125;opacity:1" stroke-linecap="round" points=""/>
<polyline style="fill:none; stroke:rgb(0, 0, 0) ;stroke-width:6.330;opacity:1" stroke-linecap="round" points="259.516,273.121 259.516,273.121 " />
<polyline style="fill:none;stroke:[0, 0, 0];stroke-width:2.125;opacity:1" stroke-linecap="round" points=""/>
<polyline style="fill:none; stroke:rgb(0, 0, 0) ;stroke-width:6.330;opacity:1" stroke-linecap="round" points="250.082,275.964 248.424,276.574 248.843,277.068 249.067,276.780 249.364,276.841 249.227,277.082 250.623,277.329 254.246,277.554 266.123,277.298 282.443,275.585 290.612,275.927 310.234,275.647 315.726,276.212 321.737,276.240 351.991,275.290 359.686,275.755 381.109,275.868 388.613,276.292 396.173,275.891 405.612,274.460 415.821,273.428 420.868,273.290 430.106,272.338 452.388,271.267 457.709,270.622 481.159,270.323 513.514,268.896 526.651,269.453 548.082,268.523 581.767,268.464 617.597,269.792 651.862,269.601 661.590,269.841 685.300,269.198 714.018,269.091 769.039,266.931 816.266,267.405 828.749,267.177 829.596,267.098 828.145,266.977 826.032,268.160 " />
<polyline style="fill:none;stroke:[0, 0, 0];stroke-width:2.125;opacity:1" stroke-linecap="round" points=""/>
<polyline style="fill:none; stroke:rgb(0, 0, 0) ;stroke-width:6.330;opacity:1" stroke-linecap="round" points="869.836,251.497 869.405,251.622 868.577,257.288 867.883,265.124 867.923,269.881 868.965,275.585 871.302,280.837 871.480,281.442 871.156,281.982 " />
<polyline style="fill:none;stroke:[0, 0, 0];stroke-width:2.125;opacity:1" stroke-linecap="round" points=""/>
<polyline style="fill:none; stroke:rgb(0, 0, 0) ;stroke-width:6.330;opacity:1" stroke-linecap="round" points="863.465,266.429 861.045,258.973 857.409,252.482 857.487,251.466 858.492,249.130 860.412,246.394 864.177,243.294 865.564,242.522 867.277,241.827 871.394,240.902 875.383,241.091 877.273,241.491 880.461,242.828 883.402,244.941 884.642,245.890 885.930,247.922 886.778,250.610 887.351,254.624 886.671,258.534 884.858,262.013 883.370,263.049 880.315,263.583 877.546,263.498 872.129,261.589 871.619,261.585 871.490,261.878 872.592,262.285 " />
<polyline style="fill:none;stroke:[0, 0, 0];stroke-width:2.125;opacity:1" stroke-linecap="round" points=""/>
<polyline style="fill:none; stroke:rgb(0, 0, 0) ;stroke-width:6.330;opacity:1" stroke-linecap="round" points="896.243,282.228 893.238,282.738 893.867,282.698 892.223,280.244 889.954,272.781 889.075,266.474 889.198,264.908 890.763,261.471 892.725,260.452 894.669,260.366 895.758,260.870 898.211,262.800 904.108,268.666 908.727,271.097 911.115,271.734 912.538,271.737 913.951,271.569 916.404,270.658 917.218,269.921 918.249,268.196 919.306,264.741 919.406,262.676 918.843,261.174 917.564,259.399 915.891,258.865 914.217,258.764 911.742,261.031 909.477,263.724 908.019,268.566 907.703,271.324 909.309,278.134 910.784,280.415 912.745,282.147 914.125,282.769 918.958,283.347 924.544,282.471 932.511,280.064 940.327,277.176 943.386,275.468 945.945,273.235 949.139,267.690 949.536,266.179 948.898,264.129 949.214,263.452 943.413,260.433 939.512,259.425 936.979,259.230 935.060,260.862 935.215,261.894 934.401,262.943 934.267,263.618 935.166,264.075 935.938,266.464 938.108,268.670 943.490,271.957 943.941,272.623 945.437,273.642 945.704,274.452 945.030,276.977 943.143,280.066 940.932,281.732 938.418,282.927 937.486,283.018 934.539,282.278 932.242,281.077 934.896,280.952 940.735,279.640 948.549,277.229 961.243,271.253 967.324,267.842 971.712,264.743 972.835,263.619 973.848,261.450 973.547,261.063 972.371,260.790 953.473,261.033 954.263,261.658 953.965,263.173 954.557,264.913 956.391,267.164 960.828,269.994 967.169,272.109 968.247,272.903 968.932,274.590 967.537,280.224 964.904,282.646 964.481,283.635 963.650,284.228 958.129,285.614 955.194,285.621 950.657,285.029 946.431,283.337 946.280,282.998 947.897,282.868 949.124,281.692 951.132,281.464 950.571,285.286 " />
<polyline style="fill:none;stroke:[0, 0, 0];stroke-width:2.125;opacity:1" stroke-linecap="round" points=""/>
<polyline style="fill:none; stroke:rgb(0, 0, 0) ;stroke-width:6.330;opacity:1" stroke-linecap="round" points="973.248,266.967 973.471,264.841 974.203,267.086 976.511,271.291 978.747,274.575 981.478,276.510 984.405,276.392 987.962,274.586 989.342,273.563 991.177,271.431 991.482,270.316 991.243,269.217 991.497,262.739 990.272,259.809 990.100,262.068 990.882,265.582 993.325,272.103 1000.174,281.797 1003.889,285.667 1005.409,286.519 1006.037,286.533 1006.303,286.406 1005.477,285.731 1005.112,283.337 1003.729,279.333 1002.297,278.137 1001.607,276.693 1001.836,275.303 1000.745,272.656 999.556,271.449 999.372,270.460 1000.603,269.858 1001.058,270.010 1011.493,266.884 1012.994,266.584 1015.073,266.818 1016.242,267.408 1020.879,271.064 1026.356,276.519 1028.939,278.496 1031.974,279.876 1034.324,280.417 1038.439,278.603 1040.936,276.579 1042.718,274.039 1043.699,271.793 1042.804,270.354 1042.877,269.745 1042.463,268.886 1041.856,268.035 1039.625,266.256 1039.122,265.065 1037.637,264.087 1034.063,262.858 1033.473,262.870 1033.322,272.153 1035.028,277.414 1036.602,279.946 1038.795,282.047 1040.213,282.956 1043.851,284.297 1051.372,285.667 1060.731,284.778 1064.964,285.369 " />
<polyline style="fill:none;stroke:[0, 0, 0];stroke-width:2.125;opacity:1" stroke-linecap="round" points=""/>
<polyline style="fill:none; stroke:rgb(0, 0, 0) ;stroke-width:6.330;opacity:1" stroke-linecap="round" points="279.722,387.024 278.171,388.381 275.861,389.259 275.075,388.077 275.153,387.481 274.738,387.830 " />
<polyline style="fill:none;stroke:[0, 0, 0];stroke-width:2.125;opacity:1" stroke-linecap="round" points=""/>
<polyline style="fill:none; stroke:rgb(0, 0, 0) ;stroke-width:6.330;opacity:1" stroke-linecap="round" points="265.591,390.337 263.739,392.138 260.405,394.257 258.512,394.594 256.825,393.931 255.084,393.699 239.732,398.402 242.240,398.833 245.765,398.341 247.584,398.417 252.163,399.132 253.386,399.816 " />
<polyline style="fill:none;stroke:[0, 0, 0];stroke-width:2.125;opacity:1" stroke-linecap="round" points=""/>
<polyline style="fill:none; stroke:rgb(0, 0, 0) ;stroke-width:6.330;opacity:1" stroke-linecap="round" points="275.683,396.779 285.401,394.224 297.129,394.280 306.416,393.765 328.549,390.641 358.145,387.803 423.661,383.276 470.785,383.507 482.729,382.989 499.662,382.826 544.120,383.000 563.225,383.441 593.428,383.224 653.486,381.136 692.579,378.822 733.482,377.099 742.693,377.212 750.922,376.535 771.202,375.576 796.643,375.423 804.101,376.100 806.532,377.524 " />
<polyline style="fill:none;stroke:[0, 0, 0];stroke-width:2.125;opacity:1" stroke-linecap="round" points=""/>
<polyline style="fill:none; stroke:rgb(0, 0, 0) ;stroke-width:6.330;opacity:1" stroke-linecap="round" points="229.039,459.965 230.076,454.649 232.759,455.253 233.990,455.026 251.320,450.305 259.454,449.051 299.114,447.575 358.836,448.002 408.387,447.153 426.110,446.429 444.281,445.138 472.027,442.542 541.222,434.444 " />
<polyline style="fill:none;stroke:[0, 0, 0];stroke-width:2.125;opacity:1" stroke-linecap="round" points=""/>
<polyline style="fill:none; stroke:rgb(0, 0, 0) ;stroke-width:6.330;opacity:1" stroke-linecap="round" points="867.054,373.891 866.457,370.967 866.369,368.541 865.347,367.918 864.752,366.791 864.848,366.330 864.692,366.796 864.814,371.657 863.816,379.917 861.289,393.933 862.347,392.217 862.729,390.353 864.122,387.369 864.939,383.761 865.277,379.048 866.433,373.989 868.157,370.502 871.674,365.047 877.551,359.311 879.071,359.003 880.794,359.670 882.070,361.213 882.227,362.277 882.332,367.761 880.049,378.034 880.210,382.118 880.681,382.662 883.418,383.113 885.242,383.935 886.967,384.115 890.467,383.416 893.171,382.062 895.651,379.991 898.068,377.357 901.655,372.106 902.020,371.326 901.615,369.746 901.231,369.243 900.069,368.765 896.767,369.983 895.833,370.673 895.249,371.784 894.613,376.000 894.846,377.528 896.013,380.523 897.948,382.786 900.672,383.637 904.733,383.038 906.692,382.314 908.115,381.349 910.780,377.574 911.747,375.348 911.634,373.297 910.548,371.519 909.796,370.951 906.782,369.654 902.956,369.039 901.180,369.718 " />
<polyline style="fill:none;stroke:[0, 0, 0];stroke-width:2.125;opacity:1" stroke-linecap="round" points=""/>
<polyline style="fill:none; stroke:rgb(0, 0, 0) ;stroke-width:6.330;opacity:1" stroke-linecap="round" points="951.428,376.308 950.737,376.563 949.623,377.624 949.064,379.200 948.111,391.279 947.137,397.372 942.256,409.127 " />
<polyline style="fill:none;stroke:[0, 0, 0];stroke-width:2.125;opacity:1" stroke-linecap="round" points=""/>
<polyline style="fill:none; stroke:rgb(0, 0, 0) ;stroke-width:6.330;opacity:1" stroke-linecap="round" points="947.409,380.719 948.938,374.550 950.824,371.272 953.867,368.537 957.607,366.659 963.523,365.905 964.776,366.227 965.872,367.260 966.094,369.824 965.749,371.759 963.419,376.942 959.757,380.229 958.582,380.783 957.607,380.856 952.560,379.608 950.160,377.900 948.946,376.053 948.874,375.018 950.523,375.199 " />
<polyline style="fill:none;stroke:[0, 0, 0];stroke-width:2.125;opacity:1" stroke-linecap="round" points=""/>
<polyline style="fill:none; stroke:rgb(0, 0, 0) ;stroke-width:6.330;opacity:1" stroke-linecap="round" points="973.244,385.540 971.505,385.873 969.154,387.357 968.493,389.489 968.881,388.820 969.757,382.070 969.696,380.161 970.851,376.196 971.406,372.690 972.671,370.653 972.567,370.197 973.033,370.154 974.182,371.724 977.300,373.802 982.621,376.007 988.422,377.220 991.648,377.107 996.502,375.182 999.151,373.411 1001.206,371.364 1003.049,368.499 1003.148,367.826 1002.097,366.401 " />
<polyline style="fill:none;stroke:[0, 0, 0];stroke-width:2.125;opacity:1" stroke-linecap="round" points=""/>
<polyline style="fill:none; stroke:rgb(0, 0, 0) ;stroke-width:6.330;opacity:1" stroke-linecap="round" points="996.729,368.288 997.184,370.623 996.477,372.945 996.159,375.389 996.132,378.242 996.509,379.685 998.288,382.349 999.331,383.294 1002.236,384.771 " />
<polyline style="fill:none;stroke:[0, 0, 0];stroke-width:2.125;opacity:1" stroke-linecap="round" points=""/>
<polyline style="fill:none; stroke:rgb(0, 0, 0) ;stroke-width:6.330;opacity:1" stroke-linecap="round" points="1027.228,375.554 1030.383,367.824 1031.206,366.655 1031.011,365.940 1027.756,365.990 1026.146,366.456 1024.297,369.093 1023.666,372.125 1023.694,376.704 1024.147,378.426 1025.246,380.507 1025.545,382.481 1026.885,384.845 1026.740,387.145 1025.872,388.328 1022.734,390.589 1016.960,392.867 1014.993,393.340 1010.902,393.699 1008.502,393.408 " />
<polyline style="fill:none;stroke:[0, 0, 0];stroke-width:2.125;opacity:1" stroke-linecap="round" points=""/>
<polyline style="fill:none; stroke:rgb(0, 0, 0) ;stroke-width:6.330;opacity:1" stroke-linecap="round" points="1050.992,364.875 1049.891,365.966 1047.881,367.103 1044.824,367.347 1035.676,370.781 1033.514,372.346 1032.961,373.762 1033.825,375.494 1042.128,378.223 1048.910,381.754 1054.869,386.785 1056.360,388.674 1056.536,390.200 1056.152,390.718 1052.556,392.573 1047.562,393.702 1042.516,393.569 1035.223,392.181 " />
<polyline style="fill:none;stroke:[0, 0, 0];stroke-width:2.125;opacity:1" stroke-linecap="round" points=""/>
<polyline style="fill:none; stroke:rgb(0, 0, 0) ;stroke-width:6.330;opacity:1" stroke-linecap="round" points="1060.244,373.183 1059.286,376.099 1061.240,386.277 1062.998,391.942 1064.335,393.702 1065.078,394.083 1068.495,393.096 1069.766,392.413 1073.325,387.971 1075.257,382.936 1076.262,378.218 1076.096,375.572 1076.817,374.152 1080.838,376.644 1081.585,377.716 " />
<polyline style="fill:none;stroke:[0, 0, 0];stroke-width:2.125;opacity:1" stroke-linecap="round" points=""/>
<polyline style="fill:none; stroke:rgb(0, 0, 0) ;stroke-width:6.330;opacity:1" stroke-linecap="round" points="1084.513,393.414 1083.538,393.966 1082.594,396.587 1082.853,398.640 1083.271,399.560 1083.792,399.671 1085.038,398.256 1085.663,395.947 1090.923,385.766 1094.345,375.166 1096.477,371.783 1097.155,372.300 1097.420,373.378 1100.315,379.060 1101.636,380.470 1105.217,382.935 1107.807,383.392 1111.291,383.028 1113.048,382.509 1116.488,381.002 1118.969,379.134 1120.171,377.292 1120.567,374.917 1120.173,373.671 1118.201,371.856 1116.269,371.481 1115.596,372.056 1114.844,377.841 1115.278,381.422 1118.541,390.755 1119.898,391.884 1121.253,392.255 1123.338,392.385 1129.277,391.852 " />
<polyline style="fill:none;stroke:[0, 0, 0];stroke-width:2.125;opacity:1" stroke-linecap="round" points=""/>
<polyline style="fill:none; stroke:rgb(0, 0, 0) ;stroke-width:6.330;opacity:1" stroke-linecap="round" points="274.354,73.646 277.030,71.344 279.223,68.227 278.707,67.703 277.331,71.077 272.491,93.988 272.191,99.933 273.140,109.063 274.133,110.851 275.587,108.563 274.232,108.586 " />
<polyline style="fill:none;stroke:[0, 0, 0];stroke-width:2.125;opacity:1" stroke-linecap="round" points=""/>
<polyline style="fill:none; stroke:rgb(0, 0, 0) ;stroke-width:6.330;opacity:1" stroke-linecap="round" points="266.058,72.224 266.279,70.674 272.545,66.210 275.772,64.356 279.593,62.859 284.423,61.566 296.190,59.470 305.041,58.668 311.081,59.268 314.020,60.841 " />
<polyline style="fill:none;stroke:[0, 0, 0];stroke-width:2.125;opacity:1" stroke-linecap="round" points=""/>
<polyline style="fill:none; stroke:rgb(0, 0, 0) ;stroke-width:6.330;opacity:1" stroke-linecap="round" points="271.696,93.743 273.679,93.520 273.726,93.134 275.061,92.541 278.420,91.802 282.984,91.497 306.827,88.604 " />
<polyline style="fill:none;stroke:[0, 0, 0];stroke-width:2.125;opacity:1" stroke-linecap="round" points=""/>
<polyline style="fill:none; stroke:rgb(0, 0, 0) ;stroke-width:6.330;opacity:1" stroke-linecap="round" points="322.330,84.043 320.048,86.727 317.132,95.019 316.322,102.274 316.387,103.431 317.102,104.924 314.857,106.482 " />
<polyline style="fill:none;stroke:[0, 0, 0];stroke-width:2.125;opacity:1" stroke-linecap="round" points=""/>
<polyline style="fill:none; stroke:rgb(0, 0, 0) ;stroke-width:6.330;opacity:1" stroke-linecap="round" points="326.239,65.708 324.034,65.978 320.772,65.368 321.589,65.636 323.409,71.125 " />
<polyline style="fill:none;stroke:[0, 0, 0];stroke-width:2.125;opacity:1" stroke-linecap="round" points=""/>
<polyline style="fill:none; stroke:rgb(0, 0, 0) ;stroke-width:6.330;opacity:1" stroke-linecap="round" points="337.254,103.606 331.721,106.070 331.705,106.896 333.800,105.232 334.340,103.637 334.411,100.848 336.698,93.752 338.368,90.873 339.584,89.851 341.606,90.188 342.658,92.041 343.059,95.984 342.615,101.772 342.804,103.064 343.743,104.092 346.037,104.048 352.176,101.271 360.872,100.161 365.478,98.530 366.345,97.754 367.096,95.076 366.824,92.164 366.413,91.511 364.258,89.791 362.647,89.074 360.508,88.677 356.832,89.361 355.983,89.970 354.936,93.295 354.883,94.798 355.680,98.987 356.829,102.486 360.073,109.006 361.548,110.047 364.800,111.020 369.024,110.506 372.238,109.441 379.153,105.904 " />
<polyline style="fill:none;stroke:[0, 0, 0];stroke-width:2.125;opacity:1" stroke-linecap="round" points=""/>
<polyline style="fill:none; stroke:rgb(0, 0, 0) ;stroke-width:6.330;opacity:1" stroke-linecap="round" points="400.215,66.402 401.006,64.781 401.356,62.248 399.481,60.906 398.681,67.486 397.652,85.465 397.830,95.840 398.525,101.786 399.472,105.946 400.198,107.342 401.169,108.142 402.766,107.901 402.896,106.815 " />
<polyline style="fill:none;stroke:[0, 0, 0];stroke-width:2.125;opacity:1" stroke-linecap="round" points=""/>
<polyline style="fill:none; stroke:rgb(0, 0, 0) ;stroke-width:6.330;opacity:1" stroke-linecap="round" points="410.083,88.667 413.741,87.014 412.636,87.660 411.210,91.621 410.419,97.408 410.580,98.879 411.639,100.941 412.341,101.417 415.658,100.590 " />
<polyline style="fill:none;stroke:[0, 0, 0];stroke-width:2.125;opacity:1" stroke-linecap="round" points=""/>
<polyline style="fill:none; stroke:rgb(0, 0, 0) ;stroke-width:6.330;opacity:1" stroke-linecap="round" points="420.779,76.063 417.996,74.658 419.051,75.476 419.437,78.980 " />
<polyline style="fill:none;stroke:[0, 0, 0];stroke-width:2.125;opacity:1" stroke-linecap="round" points=""/>
<polyline style="fill:none; stroke:rgb(0, 0, 0) ;stroke-width:6.330;opacity:1" stroke-linecap="round" points="426.298,102.884 428.310,103.521 427.410,101.310 427.228,97.586 427.599,92.941 429.201,85.423 429.972,84.393 433.335,83.570 435.572,83.787 438.509,86.193 439.498,87.415 442.613,95.491 444.463,97.885 446.777,100.030 449.712,101.356 451.415,101.593 455.114,100.934 457.034,100.165 462.797,95.907 464.325,94.005 466.281,90.086 466.517,88.341 465.595,84.111 465.044,83.519 462.662,81.754 459.010,81.058 456.621,81.695 455.654,82.670 455.112,83.989 455.285,85.567 454.570,89.383 454.406,91.539 455.168,95.613 457.159,99.629 459.934,102.742 463.168,105.606 464.618,106.269 469.269,107.283 474.058,107.383 476.252,107.943 " />
<polyline style="fill:none;stroke:[0, 0, 0];stroke-width:2.125;opacity:1" stroke-linecap="round" points=""/>
<polyline style="fill:none; stroke:rgb(0, 0, 0) ;stroke-width:6.330;opacity:1" stroke-linecap="round" points="479.654,108.066 476.924,107.320 473.968,105.370 474.725,95.779 476.768,92.225 479.384,90.064 482.055,89.013 488.147,87.675 " />
<polyline style="fill:none;stroke:[0, 0, 0];stroke-width:2.125;opacity:1" stroke-linecap="round" points=""/>
<polyline style="fill:none; stroke:rgb(0, 0, 0) ;stroke-width:6.330;opacity:1" stroke-linecap="round" points="569.061,86.326 572.487,84.853 572.201,85.769 572.376,86.756 574.461,92.679 575.620,98.299 576.155,102.871 575.448,113.386 575.949,111.528 576.122,103.971 573.696,90.437 574.019,85.764 575.386,83.674 578.078,82.080 583.229,80.493 585.881,80.050 591.495,80.110 593.699,80.631 595.251,81.355 596.429,82.335 597.220,83.394 597.502,85.337 596.409,89.007 595.002,91.974 594.084,93.191 589.729,96.818 586.978,97.758 583.647,98.033 582.039,98.004 578.789,97.090 585.365,101.685 587.616,102.339 590.052,102.594 595.471,102.289 598.358,101.590 607.958,97.765 614.751,93.303 620.749,86.967 621.701,84.619 621.606,83.818 620.677,82.572 618.172,81.022 613.086,79.526 611.482,80.640 609.699,83.986 609.017,87.501 608.845,91.472 609.208,93.128 611.339,96.195 612.591,97.338 615.332,98.376 621.558,98.418 630.549,95.238 638.180,93.564 639.611,94.186 640.163,95.098 640.100,96.083 638.873,97.416 638.642,97.397 639.338,96.346 639.809,93.467 640.323,92.718 643.485,89.396 648.857,85.688 653.286,83.888 655.408,83.441 657.379,83.249 659.183,83.555 660.831,84.292 661.978,85.125 663.523,87.647 664.919,93.575 664.829,98.435 663.947,105.175 " />
<polyline style="fill:none;stroke:[0, 0, 0];stroke-width:2.125;opacity:1" stroke-linecap="round" points=""/>
<polyline style="fill:none; stroke:rgb(0, 0, 0) ;stroke-width:6.330;opacity:1" stroke-linecap="round" points="195.452,842.079 191.838,841.232 189.971,836.846 189.300,831.130 189.665,825.994 192.116,814.539 195.083,805.386 201.102,792.525 203.195,788.977 210.144,779.479 215.269,773.616 221.024,768.167 235.500,755.769 243.849,750.345 252.625,746.054 268.401,740.162 275.882,738.358 283.148,737.594 289.420,737.590 294.547,738.538 299.827,741.116 304.120,744.336 304.994,745.647 306.080,748.353 306.260,751.562 304.641,758.423 301.953,763.846 297.441,769.339 290.815,775.857 281.727,785.825 277.833,792.315 272.379,799.899 265.866,809.741 261.525,814.778 256.149,822.765 241.424,848.639 236.004,861.324 231.088,873.857 227.344,885.611 226.412,890.554 226.715,892.286 228.260,895.591 232.434,900.850 234.162,901.979 236.149,902.540 238.481,902.743 241.419,902.399 245.596,901.309 250.152,899.435 254.377,896.959 264.499,890.578 297.459,868.717 312.505,859.419 325.726,850.099 346.540,836.502 365.981,823.110 372.486,818.101 411.473,785.936 430.781,770.580 436.948,766.630 453.201,757.264 462.341,753.190 473.718,749.052 484.643,745.549 491.098,744.113 494.633,743.924 498.111,744.144 504.598,745.693 509.033,748.656 510.961,750.637 512.394,753.296 513.129,756.161 513.331,759.091 512.336,765.529 511.299,769.137 509.842,772.626 508.090,776.072 501.896,785.205 496.271,794.297 491.670,800.564 483.571,810.339 473.184,821.322 468.834,825.437 458.757,833.374 433.021,851.603 428.134,855.457 413.973,867.967 403.096,876.758 392.496,886.462 376.651,899.188 371.812,903.455 363.277,912.207 350.702,925.963 346.478,931.007 337.878,941.947 327.277,958.205 324.201,963.744 314.184,985.370 311.309,994.129 310.332,998.472 309.819,1002.935 309.789,1011.311 310.342,1015.702 312.296,1025.091 313.775,1029.886 315.742,1034.454 318.079,1038.826 320.910,1042.633 324.084,1046.008 327.494,1048.934 331.336,1051.318 335.634,1053.076 340.512,1053.796 345.847,1053.574 351.440,1052.927 357.439,1051.542 364.175,1049.338 371.298,1046.284 378.344,1042.729 393.467,1033.496 411.043,1020.957 420.806,1013.669 430.709,1005.701 460.903,979.664 483.086,961.451 560.961,895.417 581.527,879.380 635.681,840.495 642.569,835.917 649.450,831.852 660.832,826.122 666.007,824.240 675.314,821.790 681.276,821.053 683.578,821.123 685.326,821.570 688.599,823.632 690.120,825.024 693.529,829.898 694.614,834.547 694.585,837.485 693.803,841.042 692.457,845.157 690.487,849.781 688.033,854.871 684.724,860.580 680.304,866.973 668.012,882.310 660.157,890.873 651.506,899.263 631.657,917.482 620.032,927.302 594.221,947.111 568.088,968.265 554.203,979.984 525.470,1005.914 " />
<polyline style="fill:none;stroke:[0, 0, 0];stroke-width:2.125;opacity:1" stroke-linecap="round" points=""/>
<polyline style="fill:none; stroke:rgb(0, 0, 0) ;stroke-width:6.330;opacity:1" stroke-linecap="round" points="378.689,1172.324 388.985,1166.954 407.854,1156.294 423.675,1146.126 437.923,1136.662 468.046,1114.711 486.100,1102.197 527.671,1075.037 550.294,1061.268 620.214,1021.638 643.506,1008.962 666.541,997.180 732.449,966.813 772.284,950.593 789.678,944.014 804.685,939.283 816.655,936.439 825.099,935.205 829.173,935.789 828.764,938.504 824.444,942.666 817.182,948.453 791.169,968.007 731.485,1009.332 681.823,1040.617 654.676,1058.095 597.726,1093.327 542.348,1129.381 515.705,1147.458 489.170,1166.103 462.904,1184.977 438.705,1203.830 416.473,1221.644 396.919,1238.330 380.493,1253.219 366.871,1266.259 356.753,1277.749 350.237,1287.259 347.150,1294.025 347.316,1297.138 350.907,1297.116 365.660,1290.003 378.010,1283.509 457.775,1236.484 513.559,1204.485 545.748,1186.593 580.835,1168.411 617.909,1150.104 656.396,1131.570 696.615,1113.329 781.672,1078.731 824.223,1062.201 866.707,1047.032 910.048,1032.666 954.315,1018.882 998.016,1006.653 1082.055,988.420 " />
<polyline style="fill:none;stroke:[0, 0, 0];stroke-width:2.125;opacity:1" stroke-linecap="round" points=""/>
<polyline style="fill:none; stroke:rgb(0, 0, 0) ;stroke-width:6.330;opacity:1" stroke-linecap="round" points="220.976,1454.966 290.298,1434.950 327.780,1425.372 " />
<polyline style="fill:none;stroke:[0, 0, 0];stroke-width:2.125;opacity:1" stroke-linecap="round" points=""/>
<polyline style="fill:none; stroke:rgb(0, 0, 0) ;stroke-width:6.330;opacity:1" stroke-linecap="round" points="946.575,1376.050 996.495,1373.500 1097.440,1370.763 1162.627,1371.790 1206.299,1373.962 1243.687,1376.275 1282.509,1379.363 1320.448,1383.139 1357.694,1387.332 " />
<polyline style="fill:none;stroke:[0, 0, 0];stroke-width:2.125;opacity:1" stroke-linecap="round" points=""/>
<polyline style="fill:none; stroke:rgb(0, 0, 0) ;stroke-width:6.330;opacity:1" stroke-linecap="round" points="147.618,1568.812 150.129,1568.274 156.841,1565.521 180.205,1554.431 190.601,1550.285 230.593,1535.542 286.268,1515.809 309.920,1507.773 365.837,1489.934 396.826,1480.757 429.927,1472.144 464.189,1464.283 500.294,1457.140 537.574,1450.932 575.916,1445.641 651.164,1434.130 689.145,1428.873 727.215,1423.991 802.629,1415.456 874.125,1408.228 940.358,1402.573 972.978,1400.772 1004.446,1399.698 1034.157,1399.120 1061.639,1398.986 " />
<polyline style="fill:none;stroke:[0, 0, 0];stroke-width:2.125;opacity:1" stroke-linecap="round" points=""/>
<polyline style="fill:none; stroke:rgb(0, 0, 0) ;stroke-width:6.330;opacity:1" stroke-linecap="round" points="162.915,1488.979 164.484,1489.001 169.529,1484.461 176.506,1477.418 185.849,1470.048 197.505,1462.890 211.513,1455.869 263.334,1432.976 283.842,1424.822 305.908,1416.669 451.935,1369.143 489.408,1358.088 529.083,1347.141 663.249,1315.003 711.948,1304.923 762.712,1295.675 813.215,1287.132 863.677,1279.656 913.902,1273.111 962.893,1266.972 1011.158,1261.746 1059.146,1257.525 1105.443,1254.298 1149.468,1252.102 1191.301,1251.235 1263.359,1256.243 " />
<polyline style="fill:none;stroke:[0, 0, 0];stroke-width:2.125;opacity:1" stroke-linecap="round" points=""/>
<polyline style="fill:none; stroke:rgb(0, 0, 0) ;stroke-width:6.330;opacity:1" stroke-linecap="round" points="171.486,1440.263 270.394,1377.296 293.135,1360.920 306.250,1352.261 323.024,1343.467 345.130,1333.668 398.281,1311.755 429.041,1300.154 462.231,1288.140 534.787,1263.870 575.156,1250.845 617.564,1238.294 660.408,1226.198 752.884,1203.278 801.986,1191.779 852.445,1181.394 903.154,1171.734 955.596,1163.018 1009.559,1155.201 1064.270,1147.910 1118.667,1141.667 1172.061,1136.823 1224.379,1133.068 1275.079,1130.418 1403.000,1129.521 1384.984,1128.842 1403.911,1129.021 " />
<polyline style="fill:none;stroke:[0, 0, 0];stroke-width:2.125;opacity:1" stroke-linecap="round" points=""/>
<polyline style="fill:none; stroke:rgb(0, 0, 0) ;stroke-width:6.330;opacity:1" stroke-linecap="round" points="78.056,1398.678 76.939,1405.315 76.631,1414.388 77.411,1421.342 78.592,1425.650 " />
<polyline style="fill:none;stroke:[0, 0, 0];stroke-width:2.125;opacity:1" stroke-linecap="round" points=""/>
<polyline style="fill:none; stroke:rgb(0, 0, 0) ;stroke-width:6.330;opacity:1" stroke-linecap="round" points="68.218,1398.111 65.328,1398.616 64.772,1398.333 66.144,1397.434 72.134,1387.811 74.839,1384.306 80.964,1377.574 84.524,1374.810 88.140,1372.619 93.869,1369.503 98.021,1368.020 " />
<polyline style="fill:none;stroke:[0, 0, 0];stroke-width:2.125;opacity:1" stroke-linecap="round" points=""/>
<polyline style="fill:none; stroke:rgb(0, 0, 0) ;stroke-width:6.330;opacity:1" stroke-linecap="round" points="71.092,1421.231 70.174,1421.231 69.528,1420.850 70.501,1420.451 78.581,1412.341 83.475,1408.567 89.586,1405.559 95.402,1403.671 " />
<polyline style="fill:none;stroke:[0, 0, 0];stroke-width:2.125;opacity:1" stroke-linecap="round" points=""/>
<polyline style="fill:none; stroke:rgb(0, 0, 0) ;stroke-width:6.330;opacity:1" stroke-linecap="round" points="107.232,1398.375 106.056,1399.829 98.029,1406.390 96.974,1407.767 96.461,1411.714 96.831,1412.606 97.471,1413.118 99.839,1413.152 100.811,1412.825 103.431,1410.508 105.130,1408.310 108.565,1402.720 114.303,1391.069 113.717,1392.616 111.043,1404.564 111.088,1405.633 111.807,1406.835 112.938,1407.451 113.944,1407.262 118.348,1404.273 " />
<polyline style="fill:none;stroke:[0, 0, 0];stroke-width:2.125;opacity:1" stroke-linecap="round" points=""/>
<polyline style="fill:none; stroke:rgb(0, 0, 0) ;stroke-width:6.330;opacity:1" stroke-linecap="round" points="136.685,1382.114 134.678,1381.994 132.519,1381.430 131.994,1380.958 131.254,1381.324 127.110,1383.939 123.740,1386.756 120.061,1390.205 119.563,1391.210 119.795,1392.448 120.256,1392.798 124.855,1393.987 128.353,1395.495 131.561,1397.547 132.909,1399.570 133.116,1400.764 132.623,1403.153 131.848,1404.974 128.184,1410.772 125.770,1413.828 124.835,1414.448 124.099,1414.543 123.395,1412.965 " />
<polyline style="fill:none;stroke:[0, 0, 0];stroke-width:2.125;opacity:1" stroke-linecap="round" points=""/>
<polyline style="fill:none; stroke:rgb(0, 0, 0) ;stroke-width:6.330;opacity:1" stroke-linecap="round" points="156.358,1344.810 158.255,1345.744 157.487,1348.311 156.218,1363.455 156.015,1380.696 155.027,1398.286 155.307,1400.346 " />
<polyline style="fill:none;stroke:[0, 0, 0];stroke-width:2.125;opacity:1" stroke-linecap="round" points=""/>
<polyline style="fill:none; stroke:rgb(0, 0, 0) ;stroke-width:6.330;opacity:1" stroke-linecap="round" points="150.858,1384.965 147.264,1384.169 142.728,1382.684 142.024,1381.920 142.863,1381.938 145.807,1383.038 158.745,1383.080 " />
<polyline style="fill:none;stroke:[0, 0, 0];stroke-width:2.125;opacity:1" stroke-linecap="round" points=""/>
<polyline style="fill:none; stroke:rgb(0, 0, 0) ;stroke-width:6.330;opacity:1" stroke-linecap="round" points="116.330,1688.710 118.208,1689.055 118.579,1688.651 121.278,1687.747 125.780,1687.272 136.751,1687.983 157.903,1687.050 184.551,1687.723 " />
<polyline style="fill:none;stroke:[0, 0, 0];stroke-width:2.125;opacity:1" stroke-linecap="round" points=""/>
<polyline style="fill:none; stroke:rgb(0, 0, 0) ;stroke-width:6.330;opacity:1" stroke-linecap="round" points="334.923,1692.817 340.438,1691.495 351.338,1692.965 359.041,1693.283 362.752,1693.832 395.338,1695.357 412.563,1696.881 421.538,1697.117 442.785,1698.886 458.259,1699.076 465.821,1699.799 476.298,1699.661 481.118,1700.161 509.327,1701.140 523.151,1702.467 533.526,1702.437 538.682,1702.918 594.707,1702.004 597.347,1702.328 606.874,1702.274 618.930,1702.893 639.302,1701.907 648.604,1701.935 661.022,1701.423 683.887,1701.562 687.525,1702.014 691.261,1701.975 708.957,1703.260 721.308,1704.547 758.184,1709.281 763.637,1709.559 780.205,1712.141 791.458,1713.159 801.762,1714.756 817.053,1716.470 832.085,1717.132 856.835,1720.389 863.318,1720.612 871.437,1721.458 886.334,1722.403 899.812,1723.652 908.049,1724.934 920.332,1725.940 928.120,1726.976 954.325,1728.872 960.929,1729.826 971.407,1730.753 974.259,1731.455 976.704,1731.422 985.303,1732.271 991.554,1733.339 1003.178,1733.455 1007.501,1733.968 1022.256,1734.256 1040.493,1735.164 1045.619,1735.138 1054.975,1734.404 1073.852,1734.040 1071.693,1736.496 " />
<polyline style="fill:none;stroke:[0, 0, 0];stroke-width:2.125;opacity:1" stroke-linecap="round" points=""/>
<polyline style="fill:none; stroke:rgb(0, 0, 0) ;stroke-width:6.330;opacity:1" stroke-linecap="round" points="1131.610,1722.646 1129.647,1719.830 1128.258,1719.147 1127.502,1719.188 1122.673,1721.834 1121.610,1722.572 1120.592,1723.896 1120.273,1725.113 1120.795,1726.782 1122.324,1727.750 1129.333,1734.822 1130.383,1737.621 1130.301,1740.709 1127.119,1746.927 1126.395,1747.395 1123.941,1747.742 1120.821,1747.272 1119.420,1746.640 1118.645,1745.913 " />
<polyline style="fill:none;stroke:[0, 0, 0];stroke-width:2.125;opacity:1" stroke-linecap="round" points=""/>
<polyline style="fill:none; stroke:rgb(0, 0, 0) ;stroke-width:6.330;opacity:1" stroke-linecap="round" points="1161.745,1700.716 1159.673,1701.699 1157.172,1703.738 1156.435,1707.324 1156.258,1711.351 1153.296,1719.928 1151.683,1726.868 1150.949,1732.888 1151.208,1734.619 " />
<polyline style="fill:none;stroke:[0, 0, 0];stroke-width:2.125;opacity:1" stroke-linecap="round" points=""/>
<polyline style="fill:none; stroke:rgb(0, 0, 0) ;stroke-width:6.330;opacity:1" stroke-linecap="round" points="1172.385,1722.137 1170.238,1723.624 1168.853,1725.048 1166.235,1728.803 1164.208,1733.451 1163.008,1737.480 1163.212,1740.136 1163.880,1741.073 1166.007,1741.658 1168.339,1741.793 1170.739,1741.068 1174.757,1737.943 1178.401,1733.458 1180.610,1729.350 1180.892,1726.833 1180.120,1725.471 1175.730,1722.253 1173.903,1721.974 1171.281,1724.291 1170.791,1726.239 1171.695,1726.276 1174.670,1724.759 1183.124,1718.340 1186.634,1716.909 1185.467,1718.215 1184.370,1724.168 1184.137,1728.084 1183.325,1731.151 1183.789,1732.971 1185.146,1733.482 1187.318,1733.451 1192.367,1732.157 1194.658,1732.837 1196.378,1734.541 1199.683,1739.440 1201.463,1740.221 1203.721,1740.037 1206.276,1738.786 1207.705,1737.852 1211.591,1733.748 1216.123,1727.205 1217.858,1724.192 1217.881,1721.394 1218.526,1720.499 1218.986,1720.456 1218.913,1720.695 " />
<polyline style="fill:none;stroke:[0, 0, 0];stroke-width:2.125;opacity:1" stroke-linecap="round" points=""/>
<polyline style="fill:none; stroke:rgb(0, 0, 0) ;stroke-width:6.330;opacity:1" stroke-linecap="round" points="261.253,580.671 257.178,581.280 258.080,579.402 256.609,580.655 256.238,580.691 256.566,580.340 263.949,579.680 278.084,577.025 300.616,570.729 309.725,569.351 317.616,569.496 327.463,569.209 347.820,567.884 358.873,568.746 361.821,568.584 366.446,568.933 388.194,568.570 396.587,568.096 414.477,566.095 460.487,563.520 482.644,564.089 495.465,564.844 511.174,566.405 551.017,566.191 573.012,564.326 587.468,562.529 604.142,561.952 617.403,560.958 631.195,560.586 638.321,559.995 657.930,559.163 679.296,558.945 686.059,559.325 702.752,558.185 720.726,557.891 726.617,557.349 734.771,557.650 744.309,557.346 757.777,557.479 772.179,557.037 778.072,557.318 800.031,554.886 804.980,554.087 804.795,554.383 808.113,556.721 810.064,559.950 " />
<polyline style="fill:none;stroke:[0, 0, 0];stroke-width:2.125;opacity:1" stroke-linecap="round" points=""/>
<polyline style="fill:none; stroke:rgb(0, 0, 0) ;stroke-width:6.330;opacity:1" stroke-linecap="round" points="853.478,531.594 853.843,530.066 854.639,529.039 854.465,530.145 855.432,537.003 855.817,567.531 857.294,573.109 857.632,573.619 858.630,573.725 858.237,573.091 857.986,571.481 " />
<polyline style="fill:none;stroke:[0, 0, 0];stroke-width:2.125;opacity:1" stroke-linecap="round" points=""/>
<polyline style="fill:none; stroke:rgb(0, 0, 0) ;stroke-width:6.330;opacity:1" stroke-linecap="round" points="841.979,553.083 840.917,552.497 841.226,551.376 844.412,548.371 845.738,547.551 853.397,545.280 861.331,543.930 869.134,543.971 875.266,544.665 " />
<polyline style="fill:none;stroke:[0, 0, 0];stroke-width:2.125;opacity:1" stroke-linecap="round" points=""/>
<polyline style="fill:none; stroke:rgb(0, 0, 0) ;stroke-width:6.330;opacity:1" stroke-linecap="round" points="877.700,543.655 875.928,548.031 874.401,557.218 874.091,561.995 874.633,565.299 " />
<polyline style="fill:none;stroke:[0, 0, 0];stroke-width:2.125;opacity:1" stroke-linecap="round" points=""/>
<polyline style="fill:none; stroke:rgb(0, 0, 0) ;stroke-width:6.330;opacity:1" stroke-linecap="round" points="882.956,535.394 882.207,534.282 881.030,531.100 " />
<polyline style="fill:none;stroke:[0, 0, 0];stroke-width:2.125;opacity:1" stroke-linecap="round" points=""/>
<polyline style="fill:none; stroke:rgb(0, 0, 0) ;stroke-width:6.330;opacity:1" stroke-linecap="round" points="893.721,523.111 894.805,527.639 894.907,530.055 894.415,532.583 894.138,538.562 891.412,555.330 889.861,562.260 890.557,569.957 891.359,571.573 " />
<polyline style="fill:none;stroke:[0, 0, 0];stroke-width:2.125;opacity:1" stroke-linecap="round" points=""/>
<polyline style="fill:none; stroke:rgb(0, 0, 0) ;stroke-width:6.330;opacity:1" stroke-linecap="round" points="915.786,522.081 914.620,521.004 913.824,519.487 914.933,522.527 914.507,523.945 914.650,527.657 913.344,539.191 911.659,548.025 910.545,557.627 910.081,564.913 910.711,566.544 910.523,567.128 " />
<polyline style="fill:none;stroke:[0, 0, 0];stroke-width:2.125;opacity:1" stroke-linecap="round" points=""/>
<polyline style="fill:none; stroke:rgb(0, 0, 0) ;stroke-width:6.330;opacity:1" stroke-linecap="round" points="904.965,549.422 905.033,551.847 905.333,551.440 912.524,550.146 918.905,548.454 923.439,548.515 929.801,549.264 " />
<polyline style="fill:none;stroke:[0, 0, 0];stroke-width:2.125;opacity:1" stroke-linecap="round" points=""/>
<polyline style="fill:none; stroke:rgb(0, 0, 0) ;stroke-width:6.330;opacity:1" stroke-linecap="round" points="265.294,635.456 264.802,634.926 263.937,634.822 264.577,635.498 265.290,635.296 265.295,634.906 267.955,634.939 270.974,634.372 277.548,633.861 283.486,632.682 296.122,629.387 307.079,628.213 313.969,626.587 320.632,626.233 325.086,626.882 337.989,627.292 352.359,626.136 359.811,625.129 367.357,624.755 378.566,625.000 381.901,624.799 405.553,622.196 414.882,621.516 441.756,620.917 485.324,621.212 505.978,620.342 517.991,621.223 528.795,621.377 558.616,618.570 564.074,618.436 569.383,618.725 580.171,618.333 617.292,613.802 631.296,613.608 657.661,611.585 686.864,611.395 706.688,610.164 728.126,610.671 741.818,610.435 757.116,611.769 780.669,612.681 812.636,611.945 820.162,611.427 839.808,610.924 " />
<polyline style="fill:none;stroke:[0, 0, 0];stroke-width:2.125;opacity:1" stroke-linecap="round" points=""/>
<polyline style="fill:none; stroke:rgb(0, 0, 0) ;stroke-width:6.330;opacity:1" stroke-linecap="round" points="887.742,590.580 888.406,591.647 888.616,599.930 888.407,602.059 883.189,617.775 882.783,622.100 " />
<polyline style="fill:none;stroke:[0, 0, 0];stroke-width:2.125;opacity:1" stroke-linecap="round" points=""/>
<polyline style="fill:none; stroke:rgb(0, 0, 0) ;stroke-width:6.330;opacity:1" stroke-linecap="round" points="866.974,617.185 867.311,615.890 866.932,615.670 867.986,614.920 872.390,612.952 875.143,612.149 879.411,611.805 888.595,611.798 904.601,610.723 905.023,611.320 905.416,616.031 904.874,619.071 904.633,624.028 904.268,624.940 904.391,625.707 905.803,626.526 " />
<polyline style="fill:none;stroke:[0, 0, 0];stroke-width:2.125;opacity:1" stroke-linecap="round" points=""/>
<polyline style="fill:none; stroke:rgb(0, 0, 0) ;stroke-width:6.330;opacity:1" stroke-linecap="round" points="909.376,605.736 908.002,602.737 906.482,601.532 " />
<polyline style="fill:none;stroke:[0, 0, 0];stroke-width:2.125;opacity:1" stroke-linecap="round" points=""/>
<polyline style="fill:none; stroke:rgb(0, 0, 0) ;stroke-width:6.330;opacity:1" stroke-linecap="round" points="922.873,612.585 922.333,613.013 921.854,614.334 922.922,617.496 922.370,619.336 922.578,621.083 923.486,622.732 925.186,627.951 925.527,631.379 925.397,636.211 926.005,637.824 925.761,637.691 925.135,632.810 923.454,625.354 923.176,616.768 923.946,609.979 923.761,607.750 924.259,605.755 927.022,602.596 929.291,600.938 931.755,600.077 934.592,599.959 940.576,600.902 945.478,602.223 951.561,604.839 953.010,605.582 953.752,606.395 954.224,607.874 952.733,609.563 950.080,610.794 947.937,611.455 942.896,612.203 940.595,612.378 937.189,612.042 931.848,610.062 929.872,609.953 " />
<polyline style="fill:none;stroke:[0, 0, 0];stroke-width:1.875;opacity:1" stroke-linecap="round" points=""/>
<polyline style="fill:none; stroke:rgb(0, 0, 0) ;stroke-width:4.867;opacity:1" stroke-linecap="round" points="1047.606,787.370 1046.312,788.995 1046.541,789.547 1046.217,789.357 1046.790,788.821 1047.951,784.899 1049.520,781.923 1050.310,779.691 1053.988,773.861 1055.202,771.213 1057.415,767.898 1059.822,763.153 1067.822,753.027 1069.387,750.516 1072.881,746.358 1079.241,739.863 1083.841,736.135 1086.397,733.609 1092.375,730.987 1095.109,730.361 1097.847,730.757 1099.262,731.715 1102.100,735.303 1103.214,737.882 1103.549,739.780 1103.344,743.366 1101.432,750.147 1099.887,754.000 1097.453,759.018 1096.283,762.521 1094.029,766.076 1092.415,769.990 1090.252,773.780 1087.272,782.219 1085.723,800.514 1086.680,803.369 1087.471,807.436 1088.400,809.043 1090.517,809.787 1093.120,810.139 1096.644,809.505 1101.508,807.375 1105.715,803.814 1106.847,802.654 1115.506,790.749 1117.349,786.846 1119.950,782.817 1127.375,771.942 1131.299,766.972 1135.421,758.816 1139.851,753.909 1143.760,748.742 1146.194,747.354 1148.020,746.771 1152.514,746.486 1156.912,747.898 1162.051,750.189 1163.561,753.547 1163.831,757.564 1162.224,766.047 1160.099,771.881 1152.761,783.550 1148.685,788.505 1141.510,799.210 1138.516,808.329 1138.248,809.890 1138.717,814.435 1140.467,819.510 1142.006,821.245 1144.447,825.251 1145.989,826.695 1147.272,827.488 1150.125,828.006 1152.651,827.165 1155.815,825.301 1162.012,815.716 1165.290,810.134 1167.570,805.307 1169.320,802.758 1170.018,801.339 1170.098,799.953 1170.888,797.178 1175.118,786.033 1175.861,784.772 1187.646,770.253 1193.769,763.691 1197.631,761.107 1203.007,759.173 1205.508,758.895 1207.023,760.022 1208.743,761.913 1212.299,766.890 1213.305,768.929 1214.020,771.594 1214.591,781.118 1212.432,787.513 1210.621,791.078 1208.487,794.050 1208.188,794.982 1208.507,795.701 1208.225,796.374 1207.219,797.276 1205.568,799.813 1196.425,817.170 1194.569,823.118 1194.382,825.027 1193.262,826.747 1193.556,829.722 1193.026,836.490 1194.794,839.494 1196.631,840.827 1198.606,841.443 1201.226,841.460 1203.667,841.060 1205.403,840.513 1209.074,838.233 1212.622,835.537 1217.356,830.201 1221.397,823.608 1224.307,815.426 1227.692,807.652 1229.879,803.574 1233.516,798.973 1235.788,795.505 1240.783,789.393 1244.380,786.110 1244.810,785.397 1247.815,784.047 1252.134,781.373 1260.846,777.771 1265.130,777.815 1267.026,778.034 1267.006,778.345 1269.315,779.188 1273.729,783.691 1274.136,784.646 1274.352,787.395 1275.087,788.163 1275.281,789.082 1274.982,790.061 1275.450,796.374 1274.031,805.154 1272.630,808.725 1272.334,810.993 1269.792,814.460 1268.410,817.423 1268.253,818.888 1267.028,821.523 1266.752,823.511 1265.202,826.847 1264.861,828.970 1263.993,830.222 1262.866,833.920 1261.743,836.272 1262.096,836.654 1261.544,840.322 1262.235,841.526 1262.334,842.673 1261.906,843.706 1261.774,845.771 1263.022,851.306 1265.755,854.702 1268.505,856.903 1271.451,857.474 1275.016,857.639 1277.829,857.125 1283.105,855.477 1288.292,852.691 1292.652,849.644 " />
<polyline style="fill:none;stroke:[0, 0, 0];stroke-width:2.0;opacity:1" stroke-linecap="round" points=""/>
<polyline style="fill:none; stroke:rgb(0, 0, 0) ;stroke-width:5.573;opacity:1" stroke-linecap="round" points="999.869,895.110 1000.143,897.577 999.671,896.510 1000.158,896.139 1000.280,895.279 1001.377,893.031 1005.960,886.806 1006.374,885.811 1009.767,882.252 1014.070,876.235 1020.304,869.298 1029.114,861.264 1032.744,859.212 1039.993,857.828 1047.968,856.818 1051.354,857.268 1055.397,859.517 1056.847,861.092 1057.356,862.273 1057.259,863.419 1058.053,864.756 1057.674,867.476 1056.910,869.251 1056.225,873.703 1055.307,876.187 1054.262,877.885 1053.720,879.969 1051.449,884.645 1048.033,896.534 1047.759,899.062 1048.032,900.706 1047.457,901.956 1046.946,905.261 1047.306,908.079 1047.711,910.177 1048.460,910.607 1048.753,911.265 1050.591,912.931 1052.014,913.697 1056.277,914.813 1061.681,914.691 1066.896,912.208 1069.894,909.245 1073.111,902.947 1077.918,894.981 1079.178,894.235 1080.551,892.010 1082.489,890.582 1085.241,887.528 1088.683,884.740 1092.189,880.940 1101.086,874.450 1107.359,871.124 1114.764,868.634 1117.974,868.363 1121.621,869.776 1123.819,871.972 1126.086,876.337 1125.933,878.243 1126.492,879.139 1126.520,880.070 1125.645,881.875 1125.624,885.154 1123.464,893.381 1120.106,900.190 1118.974,901.582 1118.130,903.334 1116.598,909.326 1114.934,913.998 1115.357,915.222 1114.649,918.585 1115.364,925.508 1116.172,926.544 1117.077,928.945 1118.548,930.205 1120.201,930.899 1121.399,930.932 1123.265,930.767 1125.739,929.851 1127.909,928.544 1132.646,924.331 1135.862,919.621 1137.987,917.116 1138.120,916.134 1142.531,907.044 1144.873,903.608 1145.957,900.961 1151.757,891.325 1153.604,889.460 1155.754,886.081 1157.825,883.741 1159.997,881.892 1163.046,880.238 1163.788,880.581 1168.718,880.863 1174.356,881.849 1178.394,883.721 1181.349,886.241 1181.145,887.199 1181.941,891.565 1181.428,895.622 1178.667,902.641 1170.934,914.480 1166.951,922.926 1165.514,929.527 1165.540,933.331 1167.108,938.136 1168.293,939.965 1169.006,939.806 1169.354,940.052 1169.415,939.585 1169.091,939.617 1169.389,939.831 1172.610,938.704 1174.845,936.817 1182.263,928.441 1184.949,923.865 1187.967,917.743 1188.905,916.502 1189.597,914.999 1190.780,910.294 1192.044,907.621 1193.644,904.890 1199.021,898.273 1202.892,895.855 1205.675,894.862 1211.272,894.349 1216.522,895.049 1219.974,896.974 1222.266,898.698 1223.398,899.933 1224.446,901.963 1224.813,904.190 1225.781,906.156 1224.390,914.371 1222.841,918.269 1219.614,929.435 1217.828,932.319 1217.081,934.528 1216.302,942.623 1216.436,943.087 1217.212,943.512 1217.429,944.183 1216.983,944.781 1217.215,945.270 1219.213,947.471 1223.084,949.640 1227.417,950.528 1232.874,950.613 1237.090,950.048 1241.435,948.844 1246.799,946.217 1249.288,944.269 1249.853,943.252 " />
<polyline style="fill:none;stroke:[0, 0, 0];stroke-width:2.125;opacity:1" stroke-linecap="round" points=""/>
<polyline style="fill:none; stroke:rgb(0, 0, 0) ;stroke-width:6.330;opacity:1" stroke-linecap="round" points="960.914,981.285 961.112,982.121 960.713,983.485 959.438,984.100 959.808,983.725 959.646,983.521 960.024,983.409 960.433,982.184 962.275,979.886 963.646,977.105 966.786,972.845 970.447,968.941 973.888,963.685 981.979,955.782 988.223,951.406 992.160,949.913 995.905,949.258 998.492,949.566 1000.323,950.280 1001.261,950.986 1002.570,952.682 1003.557,954.951 1004.331,959.079 1004.305,961.834 1003.587,964.207 1002.440,972.131 1000.417,981.654 1000.743,984.026 1000.695,987.385 1001.298,988.854 1002.260,989.298 1006.925,992.996 1008.237,993.556 1010.682,993.394 1017.856,989.073 1020.541,986.759 1020.657,985.658 1021.297,984.542 1027.312,976.041 1028.152,973.380 1028.785,972.362 1030.493,970.451 1035.798,962.306 1038.892,959.234 1043.865,955.334 1046.887,953.994 1052.968,952.187 1056.940,952.086 1060.738,952.666 1064.062,954.136 1065.909,955.862 1067.218,959.341 1067.598,963.019 1066.713,964.890 1065.635,969.437 1063.706,975.698 1062.885,977.443 1062.979,979.297 1062.272,980.909 1062.327,988.182 1062.822,990.121 1063.697,989.952 1066.285,990.905 1068.604,991.038 1072.703,989.143 1085.017,979.704 1089.519,974.555 1090.435,972.343 1094.260,967.320 1098.650,963.892 1104.086,962.442 1107.886,962.043 1112.030,962.775 1113.241,963.522 1115.432,964.023 1117.434,966.160 1118.884,969.254 1119.362,971.417 1119.408,973.614 1118.509,978.794 1115.638,985.735 1115.220,989.299 1114.507,991.898 1114.847,994.824 1114.324,995.888 1114.188,998.052 1114.659,999.394 1114.546,1002.058 1114.850,1004.030 1115.728,1006.292 1117.125,1008.158 1122.616,1012.778 1125.831,1014.769 1127.726,1014.867 1130.190,1014.251 1133.142,1012.590 1135.387,1010.755 1138.128,1007.055 1148.139,995.245 1152.819,990.226 1156.635,986.954 1159.957,984.737 1165.389,982.374 1169.029,982.344 1172.252,983.475 1173.282,984.325 1174.842,987.001 1175.725,991.429 1175.788,992.920 1174.177,1001.642 1172.880,1012.929 1174.369,1019.709 1174.845,1020.597 1177.472,1022.982 1178.581,1024.891 1180.173,1026.608 1182.424,1028.248 1184.267,1028.970 1187.854,1029.262 1190.869,1028.556 1192.279,1027.354 1200.287,1018.465 1204.814,1009.680 1210.862,999.147 1213.081,997.367 1215.853,993.525 1220.832,990.765 1224.744,989.943 1230.895,989.632 1232.995,990.003 1232.931,990.877 1234.297,994.145 1234.145,996.761 1234.628,999.439 1234.560,1006.297 1234.074,1010.614 1234.079,1019.313 1234.369,1021.929 1234.880,1022.399 1238.001,1033.486 1240.193,1036.845 1241.350,1037.925 1243.811,1039.029 1243.586,1039.337 1246.162,1039.418 1250.303,1037.262 1252.957,1035.203 1257.268,1030.374 1260.305,1025.940 1261.574,1022.565 1261.593,1020.886 " />
<rect x="0" y="0" width="1404" height="1872" fill-opacity="0"/></g></svg>