<svg xmlns="http://www.w3.org/2000/svg" height="1872" width="1404">
        <script type="application/ecmascript"> <![CDATA[
            var visiblePage = 'p1';
            function goToPage(page) {
                document.getElementById(visiblePage).setAttribute('style', 'display: none');
                document.getElementById(page).setAttribute('style', 'display: inline');
                visiblePage = page;
            }
        ]]> </script>
    <g id="p1" style="display:inline"><filter id="blurMe"><feGaussianBlur in="SourceGraphic" stdDeviation="10" /></filter><polyline style="fill:none;stroke:[0, 0, 0];stroke-width:2.125;opacity:1" stroke-linecap="round" points=""/>
<polyline style="fill:none; stroke:rgb(0, 0, 0) ;stroke-width:4.516;opacity:0.7" stroke-linecap="round" points="344.911,225.376 341.896,231.921 342.405,232.753 343.318,230.990 344.448,223.812 349.531,202.676 353.075,189.499 353.835,185.423 353.716,175.477 353.229,172.863 351.152,167.177 351.179,166.055 353.911,180.680 355.542,195.058 356.273,198.705 357.372,201.563 358.431,203.059 359.409,203.226 361.990,201.404 366.743,195.949 377.302,179.049 379.719,174.109 383.402,163.124 385.040,160.134 384.666,162.290 385.416,168.707 385.520,175.740 385.069,179.199 382.414,191.452 381.514,207.901 381.534,216.458 382.637,228.369 383.122,230.305 384.111,230.998 385.423,230.592 389.246,227.809 391.621,225.495 " />
<polyline style="fill:none;stroke:[0, 0, 0];stroke-width:2.125;opacity:1" stroke-linecap="round" points=""/>
<polyline style="fill:none; stroke:rgb(0, 0, 0) ;stroke-width:4.516;opacity:0.7" stroke-linecap="round" points="397.498,209.383 396.927,211.662 397.901,214.266 401.580,218.369 403.437,219.393 405.651,219.773 408.124,219.539 410.939,218.492 414.320,216.669 417.759,214.082 420.743,210.836 423.172,207.037 425.252,202.962 426.844,198.845 427.759,195.146 428.217,192.062 427.983,189.517 427.189,187.790 424.647,185.977 420.649,185.260 418.308,185.378 412.266,186.741 409.026,188.022 405.467,189.920 402.592,192.694 400.724,196.240 399.261,200.093 398.194,204.096 396.963,216.376 397.659,223.514 398.471,226.196 399.506,228.250 400.782,229.468 402.176,229.817 403.634,229.665 407.971,227.917 419.035,222.041 422.829,220.170 426.365,218.650 426.365,218.650 " />
<polyline style="fill:none;stroke:[0, 0, 0];stroke-width:2.125;opacity:1" stroke-linecap="round" points=""/>
<polyline style="fill:none; stroke:rgb(0, 0, 0) ;stroke-width:4.516;opacity:0.7" stroke-linecap="round" points="462.408,197.589 460.538,195.142 460.231,193.835 459.410,192.535 457.262,190.604 453.618,189.202 451.099,188.862 448.386,189.071 445.762,189.890 443.491,191.213 441.706,193.001 440.087,195.311 438.667,198.103 435.755,205.587 435.421,207.641 436.563,212.696 439.473,214.863 444.684,216.086 449.680,215.876 452.284,215.339 457.679,213.092 460.002,211.755 465.390,206.620 466.811,204.531 469.666,196.298 472.751,175.286 473.251,167.858 472.654,167.433 472.895,168.338 473.517,175.824 473.838,182.925 473.316,209.026 473.553,209.960 476.033,211.603 477.932,210.822 480.147,208.431 485.237,199.936 484.748,201.350 484.964,202.243 486.397,205.258 489.286,216.003 489.830,216.254 490.561,216.104 492.382,215.435 494.113,214.907 499.224,213.213 " />
<polyline style="fill:none;stroke:[0, 0, 0];stroke-width:2.125;opacity:1" stroke-linecap="round" points=""/>
<polyline style="fill:none; stroke:rgb(0, 0, 0) ;stroke-width:4.516;opacity:0.7" stroke-linecap="round" points="534.087,188.823 533.877,187.956 532.650,186.849 529.006,186.670 523.629,188.460 521.612,189.914 519.889,191.782 518.837,194.098 517.799,199.181 518.049,203.205 519.208,207.083 521.086,208.163 523.421,207.022 531.907,199.022 536.352,193.980 536.096,195.428 536.503,196.430 539.082,201.906 540.647,206.128 541.550,207.760 542.524,209.130 542.524,209.130 " />
<polyline style="fill:none;stroke:[0, 0, 0];stroke-width:2.125;opacity:1" stroke-linecap="round" points=""/>
<polyline style="fill:none; stroke:rgb(0, 0, 0) ;stroke-width:4.516;opacity:0.7" stroke-linecap="round" points="549.105,213.366 547.587,214.021 545.433,214.414 544.851,213.878 545.347,211.477 545.262,210.029 546.707,203.411 549.116,197.979 550.637,195.132 555.663,188.140 557.385,186.717 561.351,184.274 565.089,182.902 566.794,182.837 568.008,183.223 569.400,184.526 569.342,188.742 568.848,192.891 568.728,201.719 569.831,205.670 570.419,206.871 572.116,208.935 574.009,210.140 575.516,210.133 579.391,208.495 582.749,204.903 584.623,202.502 587.591,195.800 587.896,192.945 587.733,190.700 587.287,189.329 587.589,189.210 587.624,190.634 587.167,192.546 587.562,196.657 587.521,201.148 587.999,203.911 588.565,204.734 589.267,205.129 " />
<polyline style="fill:none;stroke:[0, 0, 0];stroke-width:2.125;opacity:1" stroke-linecap="round" points=""/>
<polyline style="fill:none; stroke:rgb(0, 0, 0) ;stroke-width:4.516;opacity:0.7" stroke-linecap="round" points="598.049,177.450 598.580,174.496 598.512,169.642 597.887,167.919 597.506,167.666 597.023,167.834 597.401,168.782 " />
<polyline style="fill:none;stroke:[0, 0, 0];stroke-width:2.125;opacity:1" stroke-linecap="round" points=""/>
<polyline style="fill:none; stroke:rgb(0, 0, 0) ;stroke-width:4.516;opacity:0.7" stroke-linecap="round" points="635.703,194.866 632.668,194.080 628.586,191.898 625.623,189.028 624.234,188.543 624.624,187.735 624.909,185.387 624.709,182.781 624.244,181.595 622.568,180.929 619.491,180.985 615.464,182.936 613.598,184.459 610.719,188.292 608.569,193.096 607.787,195.971 606.800,201.200 607.156,204.595 608.511,206.849 610.869,208.374 615.065,209.636 620.797,210.724 627.194,210.922 636.191,209.519 639.254,208.701 " />
<polyline style="fill:none;stroke:[0, 0, 0];stroke-width:2.125;opacity:1" stroke-linecap="round" points=""/>
<polyline style="fill:none; stroke:rgb(0, 0, 0) ;stroke-width:4.516;opacity:0.7" stroke-linecap="round" points="647.964,202.453 647.769,200.851 648.885,195.272 648.711,191.900 646.804,188.698 646.020,188.626 643.602,189.638 640.934,192.148 635.904,200.756 633.820,206.387 633.727,208.354 634.864,210.066 635.887,210.474 637.166,210.499 641.938,209.149 643.659,207.969 648.469,203.508 652.809,198.967 653.725,198.708 654.285,200.327 654.961,201.262 655.362,202.636 655.282,203.997 656.076,206.856 658.018,211.568 658.983,212.694 660.325,213.328 663.599,213.358 " />
<polyline style="fill:none;stroke:[0, 0, 0];stroke-width:2.125;opacity:1" stroke-linecap="round" points=""/>
<polyline style="fill:none; stroke:rgb(0, 0, 0) ;stroke-width:4.516;opacity:0.7" stroke-linecap="round" points="680.464,166.630 679.975,162.569 679.307,161.512 680.633,167.146 681.077,171.007 681.333,180.054 681.137,184.553 680.597,188.659 678.247,200.328 677.024,208.862 676.971,211.085 677.590,214.495 678.204,215.688 680.173,217.906 680.709,219.273 681.466,220.413 681.466,220.413 " />
<polyline style="fill:none;stroke:[0, 0, 0];stroke-width:2.125;opacity:1" stroke-linecap="round" points=""/>
<polyline style="fill:none; stroke:rgb(0, 0, 0) ;stroke-width:4.516;opacity:0.7" stroke-linecap="round" points="766.606,174.627 766.182,172.694 766.760,170.600 766.537,170.785 766.624,172.290 767.983,178.642 768.322,182.491 768.947,198.194 768.505,206.114 770.074,210.410 770.711,210.765 772.532,210.735 " />
<polyline style="fill:none;stroke:[0, 0, 0];stroke-width:2.125;opacity:1" stroke-linecap="round" points=""/>
<polyline style="fill:none; stroke:rgb(0, 0, 0) ;stroke-width:4.516;opacity:0.7" stroke-linecap="round" points="762.142,182.641 757.241,178.968 756.943,178.290 758.668,174.696 761.037,171.217 762.988,169.125 765.492,167.278 768.272,165.764 771.440,164.727 775.252,164.220 779.406,164.405 783.567,165.088 787.455,166.311 796.427,170.890 798.448,172.314 801.968,176.160 802.283,177.163 801.721,179.239 798.303,184.148 796.458,186.202 791.841,190.253 786.677,192.994 782.084,194.296 780.368,194.474 777.314,193.490 776.151,192.631 775.603,191.759 775.701,191.246 776.539,191.087 776.966,191.303 776.966,191.303 779.223,192.247 " />
<polyline style="fill:none;stroke:[0, 0, 0];stroke-width:2.125;opacity:1" stroke-linecap="round" points=""/>
<polyline style="fill:none; stroke:rgb(0, 0, 0) ;stroke-width:4.516;opacity:0.7" stroke-linecap="round" points="800.019,201.361 798.702,202.609 798.089,204.513 801.285,205.164 804.436,204.732 809.620,202.513 814.613,199.006 816.719,196.903 818.895,193.148 819.671,191.172 820.239,187.659 818.970,185.134 816.803,183.712 815.451,183.226 813.120,183.160 810.445,184.716 808.809,186.161 806.267,190.467 804.766,195.880 804.377,198.692 804.548,202.451 805.481,204.664 808.428,206.873 812.773,209.193 819.013,211.522 821.381,213.259 822.089,214.161 823.476,216.571 823.404,217.256 823.123,216.151 823.698,215.391 823.571,212.795 824.466,209.081 825.795,204.867 826.998,203.029 832.401,197.431 835.932,194.853 841.653,191.727 842.999,191.412 843.928,191.555 847.314,198.889 847.490,201.906 846.858,208.674 847.678,211.066 848.906,213.792 849.801,215.333 " />
<polyline style="fill:none;stroke:[0, 0, 0];stroke-width:2.125;opacity:1" stroke-linecap="round" points=""/>
<polyline style="fill:none; stroke:rgb(0, 0, 0) ;stroke-width:4.516;opacity:0.7" stroke-linecap="round" points="877.076,192.575 878.798,191.069 879.471,188.496 878.069,187.584 876.355,187.144 872.584,186.908 869.926,187.562 868.886,188.254 867.433,190.326 865.149,195.668 864.390,199.448 864.653,203.927 866.110,205.123 866.085,205.503 870.474,208.400 873.139,209.119 876.345,208.861 878.957,208.077 883.844,205.884 895.053,199.553 897.091,197.006 897.486,195.646 896.936,194.586 895.513,193.264 894.895,194.028 892.731,199.102 891.176,206.559 892.041,208.922 893.110,208.975 894.007,208.407 894.560,207.801 " />
<polyline style="fill:none;stroke:[0, 0, 0];stroke-width:2.125;opacity:1" stroke-linecap="round" points=""/>
<polyline style="fill:none; stroke:rgb(0, 0, 0) ;stroke-width:4.516;opacity:0.7" stroke-linecap="round" points="900.886,191.997 903.165,190.290 905.331,186.947 904.903,185.133 903.751,183.843 903.728,183.211 902.192,182.538 902.475,183.233 901.901,183.356 " />
<polyline style="fill:none;stroke:[0, 0, 0];stroke-width:2.125;opacity:1" stroke-linecap="round" points=""/>
<polyline style="fill:none; stroke:rgb(0, 0, 0) ;stroke-width:4.516;opacity:0.7" stroke-linecap="round" points="918.937,157.710 915.292,158.870 916.741,162.243 917.347,164.800 917.909,171.028 917.664,177.689 916.771,187.827 914.884,199.805 915.152,203.439 915.193,205.104 " />
<polyline style="fill:none;stroke:[0, 0, 0];stroke-width:2.125;opacity:1" stroke-linecap="round" points=""/>
<polyline style="fill:none; stroke:rgb(0, 0, 0) ;stroke-width:4.516;opacity:0.7" stroke-linecap="round" points="123.295,399.969 122.784,399.831 122.512,399.367 122.665,399.007 123.287,399.151 123.868,399.081 124.311,398.898 125.142,399.196 124.719,398.975 124.464,399.202 125.814,399.139 129.317,398.594 150.165,394.508 159.589,393.198 174.528,392.776 186.039,392.007 197.079,390.812 222.544,390.672 232.943,391.014 253.167,393.295 262.687,393.393 284.405,394.447 298.913,394.734 312.905,394.574 336.810,395.077 350.361,395.693 373.721,395.493 396.277,394.373 404.413,394.788 428.300,393.384 445.022,392.954 483.087,390.539 513.284,389.523 557.346,386.790 577.731,385.096 589.267,384.802 617.708,383.052 654.557,382.117 713.259,382.319 738.518,382.066 768.473,382.352 779.663,382.993 796.985,383.367 806.770,384.076 815.961,384.074 821.455,384.413 822.755,384.666 822.237,385.017 820.093,384.807 817.359,385.949 815.349,387.206 " />
<polyline style="fill:none;stroke:[0, 0, 0];stroke-width:2.125;opacity:1" stroke-linecap="round" points=""/>
<polyline style="fill:none; stroke:rgb(0, 0, 0) ;stroke-width:4.516;opacity:0.7" stroke-linecap="round" points="856.261,366.926 856.203,359.461 856.288,359.598 856.749,359.596 857.116,359.919 857.422,360.610 856.863,364.054 856.608,374.251 855.582,382.912 855.623,385.665 856.472,388.530 856.640,391.580 855.904,394.090 855.922,410.317 855.361,414.259 855.342,415.044 855.773,415.605 855.452,414.949 856.063,414.618 855.395,414.334 854.667,410.192 855.941,403.879 " />
<polyline style="fill:none;stroke:[0, 0, 0];stroke-width:2.125;opacity:1" stroke-linecap="round" points=""/>
<polyline style="fill:none; stroke:rgb(0, 0, 0) ;stroke-width:4.516;opacity:0.7" stroke-linecap="round" points="852.602,365.770 851.034,364.402 850.714,363.625 850.623,362.885 851.080,361.307 851.367,361.295 851.428,361.671 854.183,359.333 856.371,358.094 859.741,356.991 864.007,354.752 868.919,353.343 871.750,352.860 874.133,352.943 875.848,353.360 877.251,353.971 878.297,354.857 880.060,357.463 881.938,361.736 882.519,364.144 882.668,367.440 881.094,374.138 879.976,376.503 876.591,381.809 872.583,386.625 868.814,389.944 864.998,391.547 859.789,392.634 855.058,392.331 854.110,392.128 854.577,391.874 853.434,391.682 856.231,390.337 " />
<polyline style="fill:none;stroke:[0, 0, 0];stroke-width:2.125;opacity:1" stroke-linecap="round" points=""/>
<polyline style="fill:none; stroke:rgb(0, 0, 0) ;stroke-width:4.516;opacity:0.7" stroke-linecap="round" points="891.237,394.245 889.868,389.476 890.210,387.901 890.814,386.462 892.054,384.785 892.699,384.683 892.775,385.431 894.576,387.794 895.608,391.445 895.487,396.350 896.416,399.130 896.412,401.978 895.491,410.297 894.264,414.156 894.435,414.542 894.562,412.465 893.466,408.804 892.599,403.053 891.965,395.543 891.926,391.375 892.720,383.043 893.630,379.222 894.741,376.162 895.891,373.850 897.180,372.368 901.307,370.246 903.155,369.653 907.572,369.097 911.311,369.617 912.935,370.261 915.004,371.775 915.842,372.810 916.589,375.159 916.349,377.607 916.877,378.829 916.711,380.510 916.210,382.469 913.434,388.123 908.117,395.348 907.718,397.131 907.849,399.449 907.423,400.408 907.764,401.441 910.543,404.805 910.952,405.733 911.857,406.417 913.605,407.133 918.629,410.133 922.407,410.939 924.946,411.078 927.875,410.647 929.467,410.040 933.097,407.585 935.184,405.645 " />
<polyline style="fill:none;stroke:[0, 0, 0];stroke-width:2.125;opacity:1" stroke-linecap="round" points=""/>
<polyline style="fill:none; stroke:rgb(0, 0, 0) ;stroke-width:4.516;opacity:0.7" stroke-linecap="round" points="947.553,372.670 950.181,372.872 949.254,373.362 948.078,374.069 943.263,379.978 939.081,387.441 936.176,395.646 935.216,400.204 936.219,403.769 936.029,405.300 936.554,406.557 937.491,407.674 939.794,409.158 941.859,409.602 943.375,409.404 946.914,408.173 951.814,405.158 955.390,402.354 961.152,396.714 964.904,392.029 " />
<polyline style="fill:none;stroke:[0, 0, 0];stroke-width:2.125;opacity:1" stroke-linecap="round" points=""/>
<polyline style="fill:none; stroke:rgb(0, 0, 0) ;stroke-width:4.516;opacity:0.7" stroke-linecap="round" points="940.165,387.310 935.727,389.906 934.478,391.148 934.536,391.669 935.902,392.764 937.754,393.357 940.120,393.491 942.521,393.173 945.034,392.491 947.147,391.497 954.315,387.436 956.447,385.789 959.804,382.417 " />
<polyline style="fill:none;stroke:[0, 0, 0];stroke-width:2.125;opacity:1" stroke-linecap="round" points=""/>
<polyline style="fill:none; stroke:rgb(0, 0, 0) ;stroke-width:4.516;opacity:0.7" stroke-linecap="round" points="947.283,375.418 942.527,374.918 940.035,375.292 940.104,375.338 941.684,375.236 944.224,374.494 951.150,371.990 963.585,369.391 974.386,368.064 " />
<polyline style="fill:none;stroke:[0, 0, 0];stroke-width:2.125;opacity:1" stroke-linecap="round" points=""/>
<polyline style="fill:none; stroke:rgb(0, 0, 0) ;stroke-width:4.516;opacity:0.7" stroke-linecap="round" points="993.529,365.686 988.584,365.827 987.875,365.978 986.808,366.164 979.650,368.509 974.507,371.388 972.195,373.503 971.883,374.275 971.805,376.500 972.961,378.809 973.199,379.973 974.107,381.033 976.642,381.936 979.692,383.868 981.336,384.515 990.934,387.517 991.728,388.625 989.967,390.876 989.484,392.193 988.335,393.860 986.673,395.894 981.010,400.767 978.969,403.045 971.461,407.733 968.820,408.890 966.212,409.467 960.383,409.588 961.642,409.467 962.336,408.857 967.186,406.514 " />
<polyline style="fill:none;stroke:[0, 0, 0];stroke-width:2.125;opacity:1" stroke-linecap="round" points=""/>
<polyline style="fill:none; stroke:rgb(0, 0, 0) ;stroke-width:4.516;opacity:0.7" stroke-linecap="round" points="1033.296,360.587 1033.846,354.522 1033.350,354.200 1032.869,354.279 1031.241,354.385 1029.894,354.729 1025.744,356.040 1020.294,358.606 1015.637,362.298 1012.546,366.384 1011.705,368.110 1011.472,371.373 1011.459,375.439 1012.416,377.842 1016.930,383.156 1021.493,386.866 1025.197,389.103 1028.499,392.168 1028.562,392.590 1026.784,392.345 1021.453,394.974 1017.744,396.085 1013.417,396.111 1011.642,395.459 1005.695,394.407 1004.846,394.357 1005.246,394.964 1005.515,394.843 1005.360,394.653 1005.976,394.621 1008.341,395.032 1010.470,394.721 1012.968,394.126 1012.968,394.126 1012.968,394.126 1012.968,394.126 " />
<polyline style="fill:none;stroke:[0, 0, 0];stroke-width:2.125;opacity:1" stroke-linecap="round" points=""/>
<polyline style="fill:none; stroke:rgb(0, 0, 0) ;stroke-width:4.516;opacity:0.7" stroke-linecap="round" points="1045.361,367.556 1047.356,366.746 1049.279,364.977 1048.884,364.037 1048.220,364.088 1047.611,364.867 1045.651,370.032 1044.022,376.010 1043.028,378.495 1043.069,380.746 1045.071,386.020 1047.626,388.575 1049.437,388.823 1050.859,388.322 1053.014,386.787 1055.131,383.523 1058.896,372.863 1060.397,364.849 1060.740,364.221 1060.922,364.188 1061.365,363.827 1062.074,363.450 1062.736,363.062 1062.736,363.062 1062.736,363.062 1062.736,363.062 " />
<polyline style="fill:none;stroke:[0, 0, 0];stroke-width:2.125;opacity:1" stroke-linecap="round" points=""/>
<polyline style="fill:none; stroke:rgb(0, 0, 0) ;stroke-width:4.516;opacity:0.7" stroke-linecap="round" points="1068.066,359.294 1068.892,360.897 1069.400,364.108 1070.471,366.472 1070.931,369.219 1070.522,372.152 1069.479,392.572 1070.150,396.080 1070.312,395.063 1069.870,393.891 1070.769,382.908 1073.806,367.173 1076.993,358.952 1078.012,357.293 1080.352,355.848 1082.917,356.019 1085.698,357.016 1091.713,358.036 1094.128,358.837 1095.681,359.968 1095.509,361.568 1095.926,362.542 1095.760,363.891 1093.847,367.615 1089.914,372.465 1083.186,377.919 1081.304,380.459 1080.335,383.353 1080.086,385.361 1081.032,388.622 1081.504,389.516 1082.940,390.357 1083.965,391.398 1083.785,392.459 1084.594,393.138 1085.928,393.695 1090.142,394.506 1092.839,394.529 1096.207,393.644 1102.763,391.056 1105.273,389.567 1113.987,379.981 1115.117,377.847 1116.410,375.898 1120.289,370.280 1122.587,365.162 1122.983,363.975 1122.876,363.212 1122.283,363.569 1122.063,363.883 1121.936,364.209 1122.338,364.426 1119.812,366.675 1116.069,372.230 1112.532,380.498 1111.476,385.719 1111.191,388.999 1111.877,391.835 1113.100,393.524 1114.707,394.458 1116.625,394.802 1119.552,394.716 1121.380,394.277 1129.570,391.221 1146.872,381.704 1142.848,385.331 1142.848,385.331 " />
<polyline style="fill:none;stroke:[0, 0, 0];stroke-width:2.125;opacity:1" stroke-linecap="round" points=""/>
<polyline style="fill:none; stroke:rgb(0, 0, 0) ;stroke-width:4.516;opacity:0.7" stroke-linecap="round" points="1120.998,380.621 1121.213,382.960 1121.825,382.545 1121.808,381.963 1122.385,381.633 1134.094,376.781 1142.408,372.946 1144.515,371.757 1144.515,371.757 1144.515,371.757 1144.515,371.757 " />
<polyline style="fill:none;stroke:[0, 0, 0];stroke-width:2.125;opacity:1" stroke-linecap="round" points=""/>
<polyline style="fill:none; stroke:rgb(0, 0, 0) ;stroke-width:4.516;opacity:0.7" stroke-linecap="round" points="1128.703,364.883 1127.450,364.138 1128.161,364.101 1128.439,364.002 1128.562,364.038 1132.067,360.128 1134.570,358.297 1140.219,355.491 1149.806,352.970 1171.170,350.037 " />
<polyline style="fill:none;stroke:[0, 0, 0];stroke-width:2.125;opacity:1" stroke-linecap="round" points=""/>
<polyline style="fill:none; stroke:rgb(0, 0, 0) ;stroke-width:4.516;opacity:0.7" stroke-linecap="round" points="113.579,500.408 112.236,497.960 110.291,499.369 109.671,499.443 109.582,498.944 109.667,499.158 109.369,499.178 111.000,499.689 112.538,499.671 118.505,497.928 123.579,497.235 136.225,497.588 151.798,495.412 158.682,495.595 168.625,497.291 174.873,497.695 215.814,492.403 240.865,487.966 257.353,485.587 291.121,482.274 313.611,480.859 347.723,477.927 374.937,477.024 398.752,475.427 409.842,475.320 424.037,474.668 437.375,474.921 455.452,474.557 480.527,472.479 491.522,472.206 503.326,472.331 526.033,471.142 558.593,470.844 580.875,472.313 596.902,472.037 609.135,472.181 626.532,473.221 660.870,473.628 689.295,474.909 696.995,475.598 716.663,476.284 748.161,476.291 762.940,476.771 788.849,478.300 826.801,478.485 863.720,479.796 873.386,480.719 879.529,481.726 " />
<polyline style="fill:none;stroke:[0, 0, 0];stroke-width:2.125;opacity:1" stroke-linecap="round" points=""/>
<polyline style="fill:none; stroke:rgb(0, 0, 0) ;stroke-width:4.516;opacity:0.7" stroke-linecap="round" points="922.982,483.125 921.106,490.011 919.857,498.252 918.847,501.988 918.892,503.243 920.132,497.049 923.572,485.979 925.895,481.869 928.365,476.443 933.604,468.669 936.411,465.261 940.137,462.256 940.676,462.038 941.372,462.285 942.111,462.867 943.100,464.974 944.113,469.208 944.135,471.138 943.489,475.360 940.716,486.155 940.539,487.646 940.878,490.289 941.347,491.469 943.033,493.483 944.166,494.031 946.707,493.591 " />
<polyline style="fill:none;stroke:[0, 0, 0];stroke-width:2.125;opacity:1" stroke-linecap="round" points=""/>
<polyline style="fill:none; stroke:rgb(0, 0, 0) ;stroke-width:4.516;opacity:0.7" stroke-linecap="round" points="964.641,476.538 965.497,473.403 965.180,471.811 964.246,472.491 962.992,475.314 962.031,481.533 962.155,483.725 962.652,485.412 963.936,487.971 964.786,488.846 967.009,490.149 968.856,490.135 971.280,489.474 972.557,488.731 975.140,486.402 978.259,481.980 979.509,480.747 980.049,479.563 979.661,477.735 978.878,476.483 975.297,474.892 971.707,473.890 970.384,474.489 969.415,475.743 " />
<polyline style="fill:none;stroke:[0, 0, 0];stroke-width:2.125;opacity:1" stroke-linecap="round" points=""/>
<polyline style="fill:none; stroke:rgb(0, 0, 0) ;stroke-width:4.516;opacity:0.7" stroke-linecap="round" points="1006.005,477.852 1006.468,480.872 1008.819,487.539 1010.243,495.433 1010.429,500.523 1010.196,504.782 1009.530,508.067 1009.704,512.215 1008.893,514.768 1008.320,515.397 1007.924,505.948 1008.534,494.390 1008.159,486.266 1008.515,483.347 1009.792,480.632 1012.688,477.195 1015.105,475.600 1018.350,474.279 1022.367,473.829 1024.387,473.998 1026.137,474.393 1027.278,475.108 1028.567,477.119 1029.265,479.194 1029.007,483.115 1028.162,485.838 1026.083,488.584 1024.468,489.918 1021.318,491.683 1019.818,492.059 1018.268,492.225 1015.908,491.810 1012.309,490.355 1010.575,488.998 1010.489,487.683 1014.325,486.315 1018.648,485.566 1025.583,485.508 1028.540,485.889 1029.641,486.350 1032.323,488.531 1033.624,490.335 1034.007,492.000 1035.410,494.709 1036.748,502.118 1037.614,500.410 1039.246,495.476 1040.089,487.385 1041.343,483.491 1043.104,479.914 1044.122,478.844 1046.070,477.724 1046.991,477.662 1050.335,480.299 1053.853,482.492 1056.983,483.995 1059.405,486.210 1061.023,487.172 1064.879,488.283 1068.050,488.063 1071.713,486.856 1073.363,485.913 1075.893,481.830 1077.243,477.571 1077.106,476.315 1075.798,474.939 1074.887,474.472 1072.880,474.450 1071.407,475.226 1070.739,476.232 1068.936,481.641 1068.845,483.890 1070.381,494.364 1073.141,499.589 1075.319,502.608 1076.374,503.095 " />
<polyline style="fill:none;stroke:[0, 0, 0];stroke-width:2.125;opacity:1" stroke-linecap="round" points=""/>
<polyline style="fill:none; stroke:rgb(0, 0, 0) ;stroke-width:4.516;opacity:0.7" stroke-linecap="round" points="1100.233,469.957 1099.744,469.467 1098.405,469.350 1098.011,470.428 1095.635,472.845 1094.784,475.514 1093.672,482.591 1093.853,483.489 1095.607,485.407 " />
<polyline style="fill:none;stroke:[0, 0, 0];stroke-width:2.125;opacity:1" stroke-linecap="round" points=""/>
<polyline style="fill:none; stroke:rgb(0, 0, 0) ;stroke-width:4.516;opacity:0.7" stroke-linecap="round" points="1099.591,493.317 1096.017,495.806 1090.971,498.490 1087.330,499.811 1082.572,500.251 " />
<polyline style="fill:none;stroke:[0, 0, 0];stroke-width:2.125;opacity:1" stroke-linecap="round" points=""/>
<polyline style="fill:none; stroke:rgb(0, 0, 0) ;stroke-width:4.516;opacity:0.7" stroke-linecap="round" points="1126.675,473.257 1126.627,470.457 1126.189,469.499 1123.227,469.835 1121.118,470.661 1118.522,471.907 1114.124,475.148 1112.723,477.199 1112.694,479.673 1113.177,480.865 1116.739,484.001 1121.697,487.054 1126.802,489.360 1127.733,490.057 1128.697,491.114 1128.674,492.060 1127.972,492.930 1125.383,494.891 1122.745,496.424 1120.040,497.508 1116.293,497.235 1111.989,495.903 " />
<polyline style="fill:none;stroke:[0, 0, 0];stroke-width:2.125;opacity:1" stroke-linecap="round" points=""/>
<polyline style="fill:none; stroke:rgb(0, 0, 0) ;stroke-width:4.516;opacity:0.7" stroke-linecap="round" points="1141.242,474.679 1141.279,472.770 1140.599,471.675 1140.303,476.291 1139.171,482.523 1139.411,487.031 1140.536,489.013 1142.375,491.050 1144.174,491.814 1146.339,491.617 1148.345,490.021 1150.500,487.006 1151.480,485.457 1153.223,481.017 1153.879,475.562 1154.835,471.753 1155.260,467.468 " />
<polyline style="fill:none;stroke:[0, 0, 0];stroke-width:2.125;opacity:1" stroke-linecap="round" points=""/>
<polyline style="fill:none; stroke:rgb(0, 0, 0) ;stroke-width:4.516;opacity:0.7" stroke-linecap="round" points="1158.158,486.771 1157.161,493.191 1156.394,493.909 1156.527,493.177 1163.451,479.426 1165.109,477.421 1166.202,476.830 1167.392,476.568 1169.127,477.625 1175.344,483.642 1178.812,483.942 1182.652,483.418 1188.958,480.765 1192.599,478.752 1195.810,476.427 1199.172,472.503 1199.682,471.723 1199.609,470.917 1197.963,471.046 1195.361,472.777 1194.297,474.764 1193.755,478.016 1194.847,483.526 1196.477,487.225 1200.645,491.774 " />
<polyline style="fill:none;stroke:[0, 0, 0];stroke-width:2.125;opacity:1" stroke-linecap="round" points=""/>
<polyline style="fill:none; stroke:rgb(0, 0, 0) ;stroke-width:4.516;opacity:0.7" stroke-linecap="round" points="79.136,673.235 77.376,676.651 75.171,679.879 74.857,679.197 77.013,677.012 77.005,677.448 79.353,677.612 91.494,676.738 152.110,669.483 265.285,660.343 381.431,653.143 452.185,649.645 527.996,647.432 566.036,646.760 603.873,646.723 641.474,647.278 679.305,648.343 716.553,649.998 751.729,652.240 786.115,654.659 820.639,657.548 854.594,660.977 918.675,668.449 948.458,672.577 1002.057,681.107 1046.533,689.509 " />
<polyline style="fill:none;stroke:[0, 0, 0];stroke-width:2.125;opacity:1" stroke-linecap="round" points=""/>
<polyline style="fill:none; stroke:rgb(0, 0, 0) ;stroke-width:4.516;opacity:0.7" stroke-linecap="round" points="1098.386,674.767 1099.369,671.031 1098.639,667.689 1098.786,666.944 1097.394,678.697 1096.564,701.787 1096.612,706.810 1097.635,709.714 1098.262,709.881 1098.710,709.447 " />
<polyline style="fill:none;stroke:[0, 0, 0];stroke-width:2.125;opacity:1" stroke-linecap="round" points=""/>
<polyline style="fill:none; stroke:rgb(0, 0, 0) ;stroke-width:4.516;opacity:0.7" stroke-linecap="round" points="1089.261,685.269 1085.366,678.786 1083.932,675.193 1084.119,672.670 1085.018,670.766 1086.603,668.544 1089.370,665.958 1091.578,664.703 1094.331,663.693 1101.284,662.256 1105.267,661.890 1116.364,661.832 1126.878,662.399 " />
<polyline style="fill:none;stroke:[0, 0, 0];stroke-width:2.125;opacity:1" stroke-linecap="round" points=""/>
<polyline style="fill:none; stroke:rgb(0, 0, 0) ;stroke-width:4.516;opacity:0.7" stroke-linecap="round" points="1093.054,687.386 1091.345,687.991 1097.230,687.437 1101.287,685.700 1108.428,681.526 1110.719,680.561 1114.931,679.650 " />
<polyline style="fill:none;stroke:[0, 0, 0];stroke-width:2.125;opacity:1" stroke-linecap="round" points=""/>
<polyline style="fill:none; stroke:rgb(0, 0, 0) ;stroke-width:4.516;opacity:0.7" stroke-linecap="round" points="1125.960,682.755 1120.288,687.615 1118.542,689.690 1115.993,693.966 1114.885,698.093 1114.855,700.058 1114.999,701.918 1116.032,705.218 1116.907,705.996 1119.170,705.941 1120.796,705.515 1124.582,703.619 1128.426,700.465 1133.182,695.185 1135.058,692.701 1135.780,690.838 1134.545,692.162 1134.227,693.000 1134.293,695.218 1133.319,700.808 1133.416,702.678 1133.775,704.314 1135.043,706.583 1137.219,706.774 " />
<polyline style="fill:none;stroke:[0, 0, 0];stroke-width:2.125;opacity:1" stroke-linecap="round" points=""/>
<polyline style="fill:none; stroke:rgb(0, 0, 0) ;stroke-width:4.516;opacity:0.7" stroke-linecap="round" points="1154.801,690.570 1152.799,690.708 1148.338,689.988 1143.973,690.322 1143.045,690.668 1142.537,691.898 1143.130,696.028 1145.666,700.719 " />
<polyline style="fill:none;stroke:[0, 0, 0];stroke-width:2.125;opacity:1" stroke-linecap="round" points=""/>
<polyline style="fill:none; stroke:rgb(0, 0, 0) ;stroke-width:4.516;opacity:0.7" stroke-linecap="round" points="1153.216,711.599 1153.422,712.415 1153.040,714.773 1152.010,716.217 1150.963,716.844 1149.157,717.219 1147.617,716.551 1145.388,713.881 1144.926,712.747 1144.828,710.864 " />
<polyline style="fill:none;stroke:[0, 0, 0];stroke-width:2.125;opacity:1" stroke-linecap="round" points=""/>
<polyline style="fill:none; stroke:rgb(0, 0, 0) ;stroke-width:4.516;opacity:0.7" stroke-linecap="round" points="1168.566,673.326 1170.244,672.677 1169.740,673.644 1170.197,675.930 1171.266,689.723 1168.358,703.001 " />
<polyline style="fill:none;stroke:[0, 0, 0];stroke-width:2.125;opacity:1" stroke-linecap="round" points=""/>
<polyline style="fill:none; stroke:rgb(0, 0, 0) ;stroke-width:4.516;opacity:0.7" stroke-linecap="round" points="1168.045,698.875 1167.641,699.257 1167.661,699.779 1168.568,699.837 1172.556,699.703 1177.246,698.963 " />
<polyline style="fill:none;stroke:[0, 0, 0];stroke-width:2.125;opacity:1" stroke-linecap="round" points=""/>
<polyline style="fill:none; stroke:rgb(0, 0, 0) ;stroke-width:4.516;opacity:0.7" stroke-linecap="round" points="76.547,792.212 76.570,795.100 76.924,794.819 76.810,794.150 79.064,793.115 78.428,793.298 79.804,793.436 81.162,794.711 86.204,796.504 86.331,796.964 87.389,797.568 92.288,798.302 93.351,798.025 93.893,798.258 96.495,798.130 100.934,797.447 104.133,797.515 106.228,796.867 106.715,796.444 108.713,796.548 111.075,796.021 112.107,796.287 114.267,796.176 117.859,796.793 131.799,795.675 134.636,796.263 136.938,796.060 140.483,796.574 151.785,796.660 159.489,796.192 169.464,796.949 176.205,796.222 179.145,796.623 182.127,796.531 184.866,796.983 192.627,797.002 198.830,797.793 207.000,797.463 211.748,798.074 215.618,798.177 217.982,798.726 223.239,798.799 224.183,798.535 223.698,798.603 224.576,798.899 229.676,798.013 233.856,797.746 245.986,798.661 253.465,798.131 255.297,798.474 255.839,798.880 261.933,798.446 276.970,799.190 287.541,798.881 291.780,800.000 293.005,799.727 293.715,800.064 296.286,800.022 302.512,800.854 313.964,801.197 323.012,802.468 338.624,802.588 344.909,803.318 355.892,803.707 368.632,802.922 381.390,803.091 394.749,801.568 400.167,801.802 402.586,802.405 404.311,802.348 408.742,801.467 417.741,800.747 434.673,798.570 443.849,798.054 459.587,797.957 468.879,797.101 475.909,796.909 500.735,797.620 512.325,798.661 523.277,798.370 530.825,798.520 538.083,797.443 538.057,797.238 538.086,797.539 538.297,797.361 538.857,797.895 545.413,797.519 555.221,797.646 558.397,797.866 560.687,798.446 568.894,798.674 616.157,798.602 640.162,799.801 654.802,799.030 656.626,798.242 661.860,797.711 673.712,797.890 677.145,797.545 699.519,796.964 719.069,797.280 746.586,796.133 755.961,796.190 763.054,795.550 806.018,794.664 815.874,794.002 826.003,794.137 831.225,794.783 834.658,794.798 848.880,794.084 853.202,794.381 861.027,794.127 869.017,794.709 879.468,796.132 904.216,797.887 916.483,797.196 933.704,795.584 942.245,795.472 954.408,794.708 980.298,795.138 990.803,794.950 995.283,795.333 1015.002,795.050 1016.600,795.161 1017.388,795.641 " />
<polyline style="fill:none;stroke:[0, 0, 0];stroke-width:2.125;opacity:1" stroke-linecap="round" points=""/>
<polyline style="fill:none; stroke:rgb(0, 0, 0) ;stroke-width:4.516;opacity:0.7" stroke-linecap="round" points="1092.005,783.955 1094.044,781.276 1093.175,781.910 1091.085,782.106 1088.433,783.079 1086.615,785.913 1085.636,787.978 1085.607,788.685 1085.800,789.647 1087.427,790.429 1091.512,793.802 1093.574,797.946 1093.900,800.584 1093.518,803.311 1092.682,805.494 1091.162,807.415 1088.504,809.587 1086.599,810.316 1085.127,810.415 1083.593,810.131 1081.922,809.050 1078.900,806.508 1078.463,805.740 1078.995,805.429 1077.213,809.886 " />
<polyline style="fill:none;stroke:[0, 0, 0];stroke-width:2.125;opacity:1" stroke-linecap="round" points=""/>
<polyline style="fill:none; stroke:rgb(0, 0, 0) ;stroke-width:4.516;opacity:0.7" stroke-linecap="round" points="1116.938,776.102 1116.900,776.504 1117.621,775.743 1117.570,776.291 1118.440,777.697 1118.716,778.775 1119.387,783.480 1119.348,787.947 1118.235,800.675 1116.760,808.798 1116.420,812.543 1115.591,815.684 " />
<polyline style="fill:none;stroke:[0, 0, 0];stroke-width:2.125;opacity:1" stroke-linecap="round" points=""/>
<polyline style="fill:none; stroke:rgb(0, 0, 0) ;stroke-width:4.516;opacity:0.7" stroke-linecap="round" points="1136.701,791.736 1136.735,787.944 1136.104,788.005 1136.531,789.196 1135.439,790.271 1133.205,793.792 1130.191,799.371 1129.179,801.966 1128.131,806.483 1128.282,807.895 1129.962,809.081 1132.910,810.206 1135.893,809.913 1139.919,808.671 1145.611,805.856 1148.665,802.864 1149.442,801.626 1150.370,799.493 1150.452,797.527 1148.967,793.302 1146.566,790.018 1145.069,788.649 1144.367,788.490 1142.154,789.477 1140.486,791.167 1137.257,796.754 " />
<polyline style="fill:none;stroke:[0, 0, 0];stroke-width:2.125;opacity:1" stroke-linecap="round" points=""/>
<polyline style="fill:none; stroke:rgb(0, 0, 0) ;stroke-width:4.516;opacity:0.7" stroke-linecap="round" points="1161.252,788.142 1159.763,788.842 1159.754,789.321 1157.288,793.496 1156.185,797.538 1156.004,800.378 1156.326,801.494 1156.985,802.347 1158.697,803.223 1159.839,803.452 1164.495,803.228 1166.823,802.621 1169.600,801.096 1170.402,799.869 1170.298,798.713 1169.703,799.208 1169.167,803.782 1169.737,807.887 1170.473,809.612 1171.056,810.118 1172.732,810.645 1175.563,810.058 1180.673,807.272 1189.263,801.774 1191.295,799.462 1192.481,796.229 1192.673,790.894 1191.642,787.906 1189.221,784.325 " />
<polyline style="fill:none;stroke:[0, 0, 0];stroke-width:2.125;opacity:1" stroke-linecap="round" points=""/>
<polyline style="fill:none; stroke:rgb(0, 0, 0) ;stroke-width:4.516;opacity:0.7" stroke-linecap="round" points="80.943,1730.099 77.599,1732.756 74.166,1733.766 76.988,1728.450 81.802,1716.184 86.676,1706.058 93.038,1694.821 96.996,1688.760 106.705,1675.535 111.633,1668.034 117.491,1660.795 131.246,1646.097 138.478,1638.994 145.819,1632.465 153.806,1626.421 177.461,1609.614 200.670,1594.627 207.898,1590.336 221.966,1583.023 234.912,1577.186 241.392,1574.673 252.572,1570.898 257.294,1569.912 261.335,1569.416 264.738,1569.390 267.661,1569.880 269.892,1571.047 271.456,1572.449 272.456,1574.221 272.772,1576.409 270.298,1585.511 268.553,1589.980 263.551,1600.827 256.371,1614.183 242.028,1637.640 224.691,1662.808 212.310,1682.278 206.364,1692.210 201.177,1702.189 196.659,1711.762 193.143,1721.609 190.704,1731.534 189.074,1740.681 188.215,1748.752 188.264,1755.532 189.100,1760.761 190.694,1764.415 193.033,1766.413 195.716,1767.523 198.892,1767.818 202.684,1767.628 211.702,1766.720 216.966,1765.721 222.373,1764.145 228.189,1761.745 241.287,1754.464 248.478,1749.511 255.632,1744.058 280.433,1723.821 334.729,1677.178 354.210,1658.780 369.163,1646.024 372.942,1643.223 376.640,1641.399 383.039,1639.861 385.387,1640.008 387.545,1640.783 389.077,1642.161 391.315,1646.113 391.704,1649.124 391.588,1653.079 390.987,1657.884 387.901,1669.586 374.220,1710.713 369.462,1732.306 368.206,1746.549 367.983,1753.073 368.583,1758.348 370.024,1762.380 372.066,1765.205 374.650,1766.778 378.162,1767.383 382.362,1767.289 392.184,1765.285 397.429,1763.199 403.076,1760.454 415.138,1753.206 439.997,1736.434 453.549,1726.186 475.519,1708.469 491.203,1694.723 507.105,1681.346 521.729,1667.741 545.373,1647.012 550.246,1643.849 554.578,1641.582 558.143,1640.643 561.046,1640.727 563.312,1641.592 565.248,1643.107 566.764,1645.023 569.490,1650.045 571.356,1656.903 572.545,1665.067 572.952,1681.215 572.529,1695.382 571.480,1708.832 571.270,1715.460 571.742,1727.860 572.476,1732.852 573.640,1737.083 575.005,1740.615 576.955,1743.335 579.811,1745.234 583.208,1746.234 590.413,1746.757 598.976,1746.081 603.965,1745.080 609.545,1743.329 615.554,1740.985 628.477,1734.179 635.790,1729.737 651.194,1719.499 666.951,1708.078 690.742,1693.121 698.011,1689.171 705.146,1686.028 711.618,1683.621 717.756,1682.292 723.429,1681.967 728.539,1682.483 733.123,1684.138 737.076,1686.826 740.867,1690.249 743.846,1694.467 746.129,1699.162 761.090,1731.833 766.746,1741.198 769.927,1745.423 773.436,1749.049 777.666,1751.682 782.327,1753.466 787.451,1754.459 793.121,1754.716 799.081,1754.411 805.415,1753.658 819.239,1750.911 845.442,1743.908 852.005,1741.669 865.488,1736.016 880.129,1730.374 894.390,1725.583 901.606,1723.905 908.782,1722.688 915.629,1722.012 921.964,1722.185 927.591,1723.356 932.885,1725.340 937.781,1727.669 942.311,1730.343 951.211,1736.764 963.977,1748.534 973.533,1756.380 978.593,1760.143 983.784,1763.443 989.417,1766.193 995.676,1768.473 1002.335,1770.053 1009.508,1770.667 1025.253,1771.204 1051.360,1770.945 " />
<polyline style="fill:none;stroke:[0, 0, 0];stroke-width:2.125;opacity:1" stroke-linecap="round" points=""/>
<polyline style="fill:none; stroke:rgb(0, 0, 0) ;stroke-width:4.516;opacity:0.7" stroke-linecap="round" points="108.211,962.962 104.073,962.584 100.203,962.813 " />
<polyline style="fill:none;stroke:[0, 0, 0];stroke-width:2.125;opacity:1" stroke-linecap="round" points=""/>
<polyline style="fill:none; stroke:rgb(0, 0, 0) ;stroke-width:4.516;opacity:0.7" stroke-linecap="round" points="93.642,964.714 88.303,965.162 90.555,964.689 90.851,964.710 90.224,964.831 90.416,964.961 90.650,964.766 90.839,964.834 90.979,964.732 95.341,964.821 100.771,964.283 115.229,964.625 130.866,964.542 141.803,963.414 152.444,962.866 183.216,962.802 225.973,961.573 254.302,961.546 282.713,962.726 302.718,962.868 334.534,962.082 347.329,961.159 359.956,960.655 381.682,960.569 422.855,959.002 446.685,959.775 493.882,957.785 520.657,958.494 534.746,958.380 545.416,957.928 569.798,958.197 581.324,957.918 613.995,955.894 653.676,955.847 703.662,954.732 743.896,955.190 763.688,955.762 776.189,956.465 816.228,960.161 844.156,961.752 899.868,966.148 935.171,966.422 951.059,965.959 957.065,965.432 959.922,965.494 960.662,965.263 959.706,965.271 958.847,965.559 " />
<polyline style="fill:none;stroke:[0, 0, 0];stroke-width:2.125;opacity:1" stroke-linecap="round" points=""/>
<polyline style="fill:none; stroke:rgb(0, 0, 0) ;stroke-width:4.516;opacity:0.7" stroke-linecap="round" points="1032.644,954.504 1033.738,953.269 1035.061,952.738 1034.676,957.540 1035.061,961.214 1037.558,971.608 1038.987,981.655 1040.201,982.315 " />
<polyline style="fill:none;stroke:[0, 0, 0];stroke-width:2.125;opacity:1" stroke-linecap="round" points=""/>
<polyline style="fill:none; stroke:rgb(0, 0, 0) ;stroke-width:4.516;opacity:0.7" stroke-linecap="round" points="1024.500,951.624 1026.127,948.772 1026.667,949.640 1026.007,950.101 1026.798,950.090 1043.848,947.888 1049.434,947.404 1055.731,947.329 1057.943,947.621 1061.946,948.534 1063.659,949.114 1065.191,949.769 1065.191,949.769 1065.191,949.769 1065.191,949.769 " />
<polyline style="fill:none;stroke:[0, 0, 0];stroke-width:2.125;opacity:1" stroke-linecap="round" points=""/>
<polyline style="fill:none; stroke:rgb(0, 0, 0) ;stroke-width:4.516;opacity:0.7" stroke-linecap="round" points="1068.242,967.910 1065.828,972.589 1065.125,974.638 1064.269,978.134 1064.167,980.180 1063.618,982.362 1062.541,984.257 1061.443,989.407 " />
<polyline style="fill:none;stroke:[0, 0, 0];stroke-width:2.125;opacity:1" stroke-linecap="round" points=""/>
<polyline style="fill:none; stroke:rgb(0, 0, 0) ;stroke-width:4.516;opacity:0.7" stroke-linecap="round" points="1078.500,951.440 1079.008,949.778 1078.636,947.938 1077.677,947.926 1076.974,949.201 " />
<polyline style="fill:none;stroke:[0, 0, 0];stroke-width:2.125;opacity:1" stroke-linecap="round" points=""/>
<polyline style="fill:none; stroke:rgb(0, 0, 0) ;stroke-width:4.516;opacity:0.7" stroke-linecap="round" points="1090.504,970.247 1089.208,973.067 1087.926,977.836 1088.874,983.891 1089.020,988.788 1088.619,995.359 1087.170,1006.256 1087.131,1006.734 1087.416,1006.925 1089.497,1002.042 1090.867,997.386 1091.594,992.047 1092.034,977.600 1091.764,974.467 1091.911,971.383 1092.678,968.544 1093.071,964.717 1093.515,963.656 1094.885,963.938 1099.438,963.879 1106.802,964.980 1111.778,966.478 1113.605,967.557 1116.076,970.806 1118.448,977.395 1118.888,979.780 1118.819,983.765 1118.268,985.011 1117.443,985.892 1116.356,986.663 1113.607,987.368 1111.678,987.505 1106.480,986.937 1103.464,986.329 1094.018,983.235 1082.112,980.125 1080.385,979.645 1078.812,979.068 " />
<polyline style="fill:none;stroke:[0, 0, 0];stroke-width:2.125;opacity:1" stroke-linecap="round" points=""/>
<polyline style="fill:none; stroke:rgb(0, 0, 0) ;stroke-width:4.516;opacity:0.7" stroke-linecap="round" points="76.806,1048.092 76.620,1053.265 76.460,1051.167 76.704,1051.340 76.600,1051.893 76.711,1051.753 76.509,1051.843 76.571,1051.577 76.274,1051.815 76.639,1051.505 82.817,1050.431 87.518,1050.393 99.301,1049.195 126.775,1048.550 154.832,1047.248 160.696,1047.686 170.101,1047.389 182.055,1047.618 201.143,1047.333 205.284,1047.566 215.630,1047.196 221.696,1047.487 238.141,1047.421 255.725,1046.172 296.545,1045.086 296.896,1044.770 311.207,1043.595 319.886,1043.569 349.072,1042.415 359.382,1042.413 363.846,1041.864 374.306,1042.443 378.691,1042.197 389.513,1042.547 395.641,1042.298 440.139,1042.586 487.344,1044.632 514.455,1045.233 526.732,1044.830 542.859,1044.798 565.871,1043.914 571.935,1043.410 588.714,1043.079 601.068,1041.353 617.001,1040.420 635.324,1036.670 650.055,1032.126 661.616,1030.587 689.867,1029.857 699.216,1029.276 729.961,1028.469 744.304,1028.617 756.751,1029.408 782.153,1032.227 790.206,1033.427 805.617,1034.793 811.716,1035.959 " />
<polyline style="fill:none;stroke:[0, 0, 0];stroke-width:2.125;opacity:1" stroke-linecap="round" points=""/>
<polyline style="fill:none; stroke:rgb(0, 0, 0) ;stroke-width:4.516;opacity:0.7" stroke-linecap="round" points="1016.382,1073.755 1016.288,1075.845 " />
<polyline style="fill:none;stroke:[0, 0, 0];stroke-width:2.125;opacity:1" stroke-linecap="round" points=""/>
<polyline style="fill:none; stroke:rgb(0, 0, 0) ;stroke-width:4.516;opacity:0.7" stroke-linecap="round" points="299.112,1080.556 298.632,1080.791 295.989,1079.774 " />
<polyline style="fill:none;stroke:[0, 0, 0];stroke-width:2.125;opacity:1" stroke-linecap="round" points=""/>
<polyline style="fill:none; stroke:rgb(0, 0, 0) ;stroke-width:4.516;opacity:0.7" stroke-linecap="round" points="112.130,1097.272 109.604,1105.770 110.793,1102.170 111.581,1101.477 114.424,1100.871 117.734,1100.911 119.531,1101.427 129.337,1102.460 143.960,1105.018 155.338,1106.628 177.304,1113.881 182.412,1114.691 186.032,1115.622 203.355,1116.574 215.376,1116.296 231.772,1114.910 258.116,1111.094 272.735,1109.869 283.170,1108.588 291.468,1107.938 295.128,1107.301 352.158,1102.954 372.790,1100.354 401.005,1097.606 427.880,1094.266 486.480,1089.744 502.457,1088.884 510.188,1088.813 531.805,1087.495 550.701,1086.984 563.731,1087.325 575.286,1087.235 578.839,1088.385 577.093,1090.267 577.093,1090.267 " />
<polyline style="fill:none;stroke:[0, 0, 0];stroke-width:2.125;opacity:1" stroke-linecap="round" points=""/>
<polyline style="fill:none; stroke:rgb(0, 0, 0) ;stroke-width:4.516;opacity:0.7" stroke-linecap="round" points="891.352,1075.553 890.870,1072.993 891.225,1071.829 891.307,1072.455 890.279,1078.074 889.681,1086.261 888.020,1097.832 888.115,1099.806 888.578,1100.706 886.333,1098.626 879.349,1095.771 877.301,1093.713 876.837,1092.226 877.979,1088.679 882.320,1086.678 884.117,1086.372 887.960,1086.358 892.446,1086.916 905.109,1087.698 908.462,1089.534 908.749,1090.451 909.186,1092.078 909.484,1095.702 909.735,1103.594 910.523,1105.973 911.206,1106.868 912.966,1107.651 914.219,1107.690 915.318,1107.055 915.962,1107.223 " />
<polyline style="fill:none;stroke:[0, 0, 0];stroke-width:2.125;opacity:1" stroke-linecap="round" points=""/>
<polyline style="fill:none; stroke:rgb(0, 0, 0) ;stroke-width:4.516;opacity:0.7" stroke-linecap="round" points="925.087,1083.884 925.860,1080.427 926.730,1073.888 926.267,1068.557 925.798,1067.484 925.743,1066.203 925.406,1066.108 925.318,1066.426 925.762,1067.257 925.122,1067.477 925.056,1067.843 925.172,1068.505 " />
<polyline style="fill:none;stroke:[0, 0, 0];stroke-width:2.125;opacity:1" stroke-linecap="round" points=""/>
<polyline style="fill:none; stroke:rgb(0, 0, 0) ;stroke-width:4.516;opacity:0.7" stroke-linecap="round" points="939.144,1064.247 940.088,1076.398 939.617,1079.445 939.263,1089.100 938.198,1096.990 937.994,1100.844 938.050,1103.707 938.538,1106.286 938.907,1107.263 938.907,1107.263 " />
<polyline style="fill:none;stroke:[0, 0, 0];stroke-width:2.125;opacity:1" stroke-linecap="round" points=""/>
<polyline style="fill:none; stroke:rgb(0, 0, 0) ;stroke-width:4.516;opacity:0.7" stroke-linecap="round" points="961.813,1064.829 961.790,1063.865 961.798,1065.891 960.717,1075.935 958.123,1091.429 956.623,1104.406 956.838,1110.199 957.561,1112.320 958.807,1114.092 960.074,1115.477 960.074,1115.477 960.074,1115.477 " />
<polyline style="fill:none;stroke:[0, 0, 0];stroke-width:2.125;opacity:1" stroke-linecap="round" points=""/>
<polyline style="fill:none; stroke:rgb(0, 0, 0) ;stroke-width:4.516;opacity:0.7" stroke-linecap="round" points="960.644,1077.083 959.559,1079.272 959.510,1081.449 959.574,1081.013 959.128,1081.376 959.674,1081.343 959.604,1081.418 959.767,1081.569 973.388,1079.976 982.777,1079.925 992.481,1078.932 995.242,1079.167 " />
<rect x="0" y="0" width="1404" height="1872" fill-opacity="0"/></g></svg>