<svg xmlns="http://www.w3.org/2000/svg" height="1872" width="1404">
        <script type="application/ecmascript"> <![CDATA[
            var visiblePage = 'p1';
            function goToPage(page) {
                document.getElementById(visiblePage).setAttribute('style', 'display: none');
                document.getElementById(page).setAttribute('style', 'display: inline');
                visiblePage = page;
            }
        ]]> </script>
    <g id="p1" style="display:inline"><filter id="blurMe"><feGaussianBlur in="SourceGraphic" stdDeviation="10" /></filter><polyline style="fill:none;stroke:black;stroke-width:0.923913043478261;opacity:1" points=""/>
<polyline style="fill:none; stroke:black; stroke-width:1.194011950492859" stroke-linecap="round" points="361.798,178.894 365.905,175.598 "/>
<polyline style="fill:none; stroke:black; stroke-width:2.438080776929856" stroke-linecap="round" points="361.798,178.894 366.034,176.403 365.231,177.225 "/>
<polyline style="fill:none; stroke:black; stroke-width:2.446449007063712" stroke-linecap="round" points="366.034,176.403 359.131,193.282 353.985,204.430 "/>
<polyline style="fill:none; stroke:black; stroke-width:3.175928264338757" stroke-linecap="round" points="359.131,193.282 347.451,217.492 340.636,233.556 "/>
<polyline style="fill:none; stroke:black; stroke-width:5.769150903666624" stroke-linecap="round" points="347.451,217.492 324.805,273.409 316.810,296.755 "/>
<polyline style="fill:none; stroke:black; stroke-width:8.181676080792776" stroke-linecap="round" points="324.805,273.409 309.490,321.715 302.719,346.641 "/>
<polyline style="fill:none; stroke:black; stroke-width:11.42549373709085" stroke-linecap="round" points="309.490,321.715 291.846,396.560 285.992,421.225 "/>
<polyline style="fill:none; stroke:black; stroke-width:13.757790915719129" stroke-linecap="round" points="291.846,396.560 270.514,488.975 264.305,514.092 "/>
<polyline style="fill:none; stroke:black; stroke-width:14.913405347934372" stroke-linecap="round" points="270.514,488.975 264.297,515.252 266.465,510.142 "/>
<polyline style="fill:none; stroke:black; stroke-width:9.666262644097472" stroke-linecap="round" points="264.297,515.252 269.377,502.718 274.379,493.697 "/>
<polyline style="fill:none; stroke:black; stroke-width:6.747183956955373" stroke-linecap="round" points="269.377,502.718 281.075,481.802 289.545,467.371 "/>
<polyline style="fill:none; stroke:black; stroke-width:4.758162559311879" stroke-linecap="round" points="281.075,481.802 309.488,434.965 319.390,417.487 "/>
<polyline style="fill:none; stroke:black; stroke-width:4.080451506367535" stroke-linecap="round" points="309.488,434.965 329.081,398.971 340.061,379.498 "/>
<polyline style="fill:none; stroke:black; stroke-width:3.748599419108624" stroke-linecap="round" points="329.081,398.971 352.450,358.931 366.409,337.961 "/>
<polyline style="fill:none; stroke:black; stroke-width:3.607696537612867" stroke-linecap="round" points="352.450,358.931 395.320,296.860 409.337,278.326 "/>
<polyline style="fill:none; stroke:black; stroke-width:3.5481726902652606" stroke-linecap="round" points="395.320,296.860 423.619,262.055 436.713,248.834 "/>
<polyline style="fill:none; stroke:black; stroke-width:3.4879227297877473" stroke-linecap="round" points="423.619,262.055 447.350,239.119 455.014,233.445 "/>
<polyline style="fill:none; stroke:black; stroke-width:3.3583747938259987" stroke-linecap="round" points="447.350,239.119 459.829,231.648 462.131,233.251 "/>
<polyline style="fill:none; stroke:black; stroke-width:6.90350477417963" stroke-linecap="round" points="459.829,231.648 461.674,237.115 458.918,242.446 "/>
<polyline style="fill:none; stroke:black; stroke-width:6.816853368886624" stroke-linecap="round" points="461.674,237.115 449.178,259.852 433.229,286.155 "/>
<polyline style="fill:none; stroke:black; stroke-width:6.244374194343863" stroke-linecap="round" points="449.178,259.852 424.446,301.443 415.833,317.415 "/>
<polyline style="fill:none; stroke:black; stroke-width:6.027649786297619" stroke-linecap="round" points="424.446,301.443 398.582,347.708 382.171,378.421 "/>
<polyline style="fill:none; stroke:black; stroke-width:5.752701632236912" stroke-linecap="round" points="398.582,347.708 374.274,393.956 361.670,423.418 "/>
<polyline style="fill:none; stroke:black; stroke-width:4.218494098261672" stroke-linecap="round" points="374.274,393.956 349.186,454.139 349.593,456.578 "/>
<polyline style="fill:none; stroke:black; stroke-width:2.5726341688386025" stroke-linecap="round" points="349.186,454.139 352.720,454.461 357.497,449.584 "/>
<polyline style="fill:none; stroke:black; stroke-width:1.945928871700182" stroke-linecap="round" points="352.720,454.461 376.404,432.472 402.317,410.504 "/>
<polyline style="fill:none; stroke:black; stroke-width:1.923334452062913" stroke-linecap="round" points="376.404,432.472 430.115,384.708 444.694,370.585 "/>
<polyline style="fill:none; stroke:black; stroke-width:2.4222359288628232" stroke-linecap="round" points="430.115,384.708 470.125,343.883 482.376,331.202 "/>
<polyline style="fill:none; stroke:black; stroke-width:2.8367390147051537" stroke-linecap="round" points="470.125,343.883 503.359,308.642 528.496,282.053 "/>
<polyline style="fill:none; stroke:black; stroke-width:3.159212704757657" stroke-linecap="round" points="503.359,308.642 530.211,279.764 529.280,279.505 "/>
<polyline style="fill:none; stroke:black; stroke-width:4.144194680599652" stroke-linecap="round" points="530.211,279.764 522.173,283.078 515.136,286.792 "/>
<polyline style="fill:none; stroke:black; stroke-width:4.3330664779895205" stroke-linecap="round" points="522.173,283.078 505.743,292.554 494.445,300.399 "/>
<polyline style="fill:none; stroke:black; stroke-width:4.8106574489975555" stroke-linecap="round" points="505.743,292.554 482.189,310.814 470.089,323.145 "/>
<polyline style="fill:none; stroke:black; stroke-width:6.151919843871512" stroke-linecap="round" points="482.189,310.814 457.680,336.922 445.252,353.314 "/>
<polyline style="fill:none; stroke:black; stroke-width:8.000774270929927" stroke-linecap="round" points="457.680,336.922 433.220,371.761 421.813,390.643 "/>
<polyline style="fill:none; stroke:black; stroke-width:9.928529528159642" stroke-linecap="round" points="433.220,371.761 412.454,409.383 397.425,441.977 "/>
<polyline style="fill:none; stroke:black; stroke-width:12.248427834775665" stroke-linecap="round" points="412.454,409.383 392.985,454.033 391.214,462.650 "/>
<polyline style="fill:none; stroke:black; stroke-width:15.433228292561465" stroke-linecap="round" points="392.985,454.033 391.769,467.906 394.352,469.284 "/>
<polyline style="fill:none; stroke:black; stroke-width:10.292068364723884" stroke-linecap="round" points="391.769,467.906 398.527,467.456 403.591,464.013 "/>
<polyline style="fill:none; stroke:black; stroke-width:7.274220166547155" stroke-linecap="round" points="398.527,467.456 410.286,460.486 419.369,455.324 "/>
<polyline style="fill:none; stroke:black; stroke-width:5.655863166668237" stroke-linecap="round" points="410.286,460.486 430.060,447.476 441.653,436.904 "/>
<polyline style="fill:none; stroke:black; stroke-width:4.822359431654682" stroke-linecap="round" points="430.060,447.476 454.599,424.130 468.369,409.373 "/>
<polyline style="fill:none; stroke:black; stroke-width:4.235774153865503" stroke-linecap="round" points="454.599,424.130 499.219,375.415 530.659,339.867 "/>
<polyline style="fill:none; stroke:black; stroke-width:3.8774146716661204" stroke-linecap="round" points="499.219,375.415 563.644,305.942 577.968,290.537 "/>
<polyline style="fill:none; stroke:black; stroke-width:3.779718356008711" stroke-linecap="round" points="563.644,305.942 590.834,277.383 610.556,259.311 "/>
<polyline style="fill:none; stroke:black; stroke-width:3.1558811766308006" stroke-linecap="round" points="590.834,277.383 615.417,254.295 616.998,252.336 "/>
<polyline style="fill:none; stroke:black; stroke-width:2.5528274947804785" stroke-linecap="round" points="615.417,254.295 611.833,257.784 611.833,257.784 " />
<polyline style="fill:none;stroke:black;stroke-width:0.923913043478261;opacity:1" points=""/>
<polyline style="fill:none; stroke:black; stroke-width:2.1791548669338225" stroke-linecap="round" points="530.194,347.712 503.485,393.796 "/>
<polyline style="fill:none; stroke:black; stroke-width:2.3676237219572065" stroke-linecap="round" points="530.194,347.712 496.205,408.224 495.433,412.839 "/>
<polyline style="fill:none; stroke:black; stroke-width:2.8929901694655418" stroke-linecap="round" points="496.205,408.224 497.267,413.139 499.827,412.264 "/>
<polyline style="fill:none; stroke:black; stroke-width:1.4582900772035121" stroke-linecap="round" points="497.267,413.139 508.146,406.406 522.119,398.595 "/>
<polyline style="fill:none; stroke:black; stroke-width:1.3606294433230162" stroke-linecap="round" points="508.146,406.406 550.854,381.622 561.429,375.727 "/>
<polyline style="fill:none; stroke:black; stroke-width:1.3479158984368445" stroke-linecap="round" points="550.854,381.622 572.149,370.332 582.746,365.562 "/>
<polyline style="fill:none; stroke:black; stroke-width:1.3335882458264172" stroke-linecap="round" points="572.149,370.332 621.024,349.883 627.171,346.911 "/>
<polyline style="fill:none; stroke:black; stroke-width:1.4302947209345753" stroke-linecap="round" points="621.024,349.883 631.479,343.598 634.330,340.504 "/>
<polyline style="fill:none; stroke:black; stroke-width:1.5797202028440185" stroke-linecap="round" points="631.479,343.598 635.529,338.496 635.024,338.014 "/>
<polyline style="fill:none; stroke:black; stroke-width:2.382143850849139" stroke-linecap="round" points="635.529,338.496 633.205,339.076 631.060,340.912 "/>
<polyline style="fill:none; stroke:black; stroke-width:2.901564023465596" stroke-linecap="round" points="633.205,339.076 627.507,344.827 615.727,360.170 "/>
<polyline style="fill:none; stroke:black; stroke-width:4.344929528612545" stroke-linecap="round" points="627.507,344.827 608.462,370.616 601.298,382.284 "/>
<polyline style="fill:none; stroke:black; stroke-width:6.291236861283764" stroke-linecap="round" points="608.462,370.616 594.605,394.710 588.839,408.486 "/>
<polyline style="fill:none; stroke:black; stroke-width:9.005980483067388" stroke-linecap="round" points="594.605,394.710 583.869,422.543 574.341,448.183 "/>
<polyline style="fill:none; stroke:black; stroke-width:12.31718257397596" stroke-linecap="round" points="583.869,422.543 571.261,458.026 569.877,464.742 "/>
<polyline style="fill:none; stroke:black; stroke-width:15.951092531466008" stroke-linecap="round" points="571.261,458.026 570.111,467.771 571.287,467.101 "/>
<polyline style="fill:none; stroke:black; stroke-width:10.823171133751579" stroke-linecap="round" points="570.111,467.771 573.197,463.923 575.129,460.822 "/>
<polyline style="fill:none; stroke:black; stroke-width:7.714589445406094" stroke-linecap="round" points="573.197,463.923 578.375,457.426 583.257,451.718 "/>
<polyline style="fill:none; stroke:black; stroke-width:6.05376012432974" stroke-linecap="round" points="578.375,457.426 590.138,442.092 598.569,428.512 "/>
<polyline style="fill:none; stroke:black; stroke-width:4.919268329890448" stroke-linecap="round" points="590.138,442.092 616.590,396.433 643.696,353.381 "/>
<polyline style="fill:none; stroke:black; stroke-width:4.315437569812583" stroke-linecap="round" points="616.590,396.433 653.232,340.204 663.010,327.432 "/>
<polyline style="fill:none; stroke:black; stroke-width:4.13499113910113" stroke-linecap="round" points="653.232,340.204 673.613,315.171 695.880,293.124 "/>
<polyline style="fill:none; stroke:black; stroke-width:3.9876616411628714" stroke-linecap="round" points="673.613,315.171 708.528,283.401 721.383,275.032 "/>
<polyline style="fill:none; stroke:black; stroke-width:3.900879068485036" stroke-linecap="round" points="708.528,283.401 732.984,268.859 743.045,264.934 "/>
<polyline style="fill:none; stroke:black; stroke-width:3.8098282040400075" stroke-linecap="round" points="732.984,268.859 751.601,262.694 758.848,261.747 "/>
<polyline style="fill:none; stroke:black; stroke-width:5.372419776678948" stroke-linecap="round" points="751.601,262.694 765.002,262.332 769.814,264.446 "/>
<polyline style="fill:none; stroke:black; stroke-width:6.937054596226075" stroke-linecap="round" points="765.002,262.332 772.869,268.034 774.853,272.324 "/>
<polyline style="fill:none; stroke:black; stroke-width:9.367835557892384" stroke-linecap="round" points="772.869,268.034 776.767,277.300 776.767,277.300 "/>
<polyline style="fill:none; stroke:black; stroke-width:5.895109084795992" stroke-linecap="round" points="776.767,277.300 776.767,277.300 776.767,277.300 " />
<polyline style="fill:none;stroke:black;stroke-width:0.923913043478261;opacity:1" points=""/>
<polyline style="fill:none; stroke:black; stroke-width:1.911069610118866" stroke-linecap="round" points="791.202,294.410 777.102,303.790 "/>
<polyline style="fill:none; stroke:black; stroke-width:2.2687930562496184" stroke-linecap="round" points="791.202,294.410 770.981,310.574 763.971,319.755 "/>
<polyline style="fill:none; stroke:black; stroke-width:3.721624299730239" stroke-linecap="round" points="770.981,310.574 762.697,323.753 762.525,328.259 "/>
<polyline style="fill:none; stroke:black; stroke-width:6.475146516640463" stroke-linecap="round" points="762.697,323.753 762.868,333.042 763.846,337.025 "/>
<polyline style="fill:none; stroke:black; stroke-width:8.285660618241362" stroke-linecap="round" points="762.868,333.042 765.344,339.513 767.508,340.434 "/>
<polyline style="fill:none; stroke:black; stroke-width:7.152911247062007" stroke-linecap="round" points="765.344,339.513 770.544,340.457 779.627,339.601 "/>
<polyline style="fill:none; stroke:black; stroke-width:4.182068641100183" stroke-linecap="round" points="770.544,340.457 786.104,338.252 793.727,335.769 "/>
<polyline style="fill:none; stroke:black; stroke-width:3.5682911092577547" stroke-linecap="round" points="786.104,338.252 802.620,331.919 812.289,326.838 "/>
<polyline style="fill:none; stroke:black; stroke-width:3.3062813267123583" stroke-linecap="round" points="802.620,331.919 831.889,314.662 840.000,308.986 "/>
<polyline style="fill:none; stroke:black; stroke-width:3.225462484490272" stroke-linecap="round" points="831.889,314.662 847.296,303.786 852.917,298.552 "/>
<polyline style="fill:none; stroke:black; stroke-width:3.252364566053444" stroke-linecap="round" points="847.296,303.786 856.892,294.196 860.100,291.794 "/>
<polyline style="fill:none; stroke:black; stroke-width:3.1619867625397102" stroke-linecap="round" points="856.892,294.196 861.766,290.925 862.180,291.656 "/>
<polyline style="fill:none; stroke:black; stroke-width:7.019060961259009" stroke-linecap="round" points="861.766,290.925 858.033,297.336 855.757,301.361 "/>
<polyline style="fill:none; stroke:black; stroke-width:8.692113143023482" stroke-linecap="round" points="858.033,297.336 852.835,307.722 849.968,315.707 "/>
<polyline style="fill:none; stroke:black; stroke-width:11.102217822309035" stroke-linecap="round" points="852.835,307.722 845.164,333.227 840.293,354.481 "/>
<polyline style="fill:none; stroke:black; stroke-width:13.333545926321346" stroke-linecap="round" points="845.164,333.227 829.680,410.017 826.539,427.270 "/>
<polyline style="fill:none; stroke:black; stroke-width:13.628802224966098" stroke-linecap="round" points="829.680,410.017 822.914,445.251 814.796,478.987 "/>
<polyline style="fill:none; stroke:black; stroke-width:13.092230415907583" stroke-linecap="round" points="822.914,445.251 810.209,493.367 804.391,506.391 "/>
<polyline style="fill:none; stroke:black; stroke-width:11.922289897971359" stroke-linecap="round" points="810.209,493.367 797.744,518.673 790.358,530.924 "/>
<polyline style="fill:none; stroke:black; stroke-width:10.78363053366547" stroke-linecap="round" points="797.744,518.673 782.033,542.696 773.476,553.592 "/>
<polyline style="fill:none; stroke:black; stroke-width:9.272233931860487" stroke-linecap="round" points="782.033,542.696 757.222,572.409 748.827,581.227 "/>
<polyline style="fill:none; stroke:black; stroke-width:7.2084355451476245" stroke-linecap="round" points="757.222,572.409 728.614,597.885 717.808,605.972 "/>
<polyline style="fill:none; stroke:black; stroke-width:5.7336231562891244" stroke-linecap="round" points="728.614,597.885 696.192,620.497 684.675,627.503 "/>
<polyline style="fill:none; stroke:black; stroke-width:4.632398662493049" stroke-linecap="round" points="696.192,620.497 671.781,634.062 671.781,634.062 "/>
<polyline style="fill:none; stroke:black; stroke-width:3.418934127432729" stroke-linecap="round" points="671.781,634.062 671.781,634.062 " />
<polyline style="fill:none;stroke:black;stroke-width:0.923913043478261;opacity:1" points=""/>
<polyline style="fill:none; stroke:black; stroke-width:2.026154916286469" stroke-linecap="round" points="355.788,554.905 355.957,561.156 "/>
<polyline style="fill:none; stroke:black; stroke-width:2.4211554114818576" stroke-linecap="round" points="355.788,554.905 352.905,575.309 348.158,588.203 "/>
<polyline style="fill:none; stroke:black; stroke-width:2.428448128151894" stroke-linecap="round" points="352.905,575.309 334.474,628.947 317.667,684.968 "/>
<polyline style="fill:none; stroke:black; stroke-width:2.964032024952857" stroke-linecap="round" points="334.474,628.947 311.864,706.717 294.600,779.577 "/>
<polyline style="fill:none; stroke:black; stroke-width:3.679235611221134" stroke-linecap="round" points="311.864,706.717 288.381,802.725 272.940,863.171 "/>
<polyline style="fill:none; stroke:black; stroke-width:2.93192776237674" stroke-linecap="round" points="288.381,802.725 271.714,866.505 273.267,858.986 "/>
<polyline style="fill:none; stroke:black; stroke-width:3.1140840134965853" stroke-linecap="round" points="271.714,866.505 275.659,850.843 " />
<polyline style="fill:none;stroke:black;stroke-width:0.923913043478261;opacity:1" points=""/>
<polyline style="fill:none; stroke:black; stroke-width:2.057359027862549" stroke-linecap="round" points="347.349,579.717 346.961,581.753 "/>
<polyline style="fill:none; stroke:black; stroke-width:2.3809624707698824" stroke-linecap="round" points="347.349,579.717 344.622,587.732 336.114,603.873 "/>
<polyline style="fill:none; stroke:black; stroke-width:2.3695378664731983" stroke-linecap="round" points="344.622,587.732 325.144,622.413 311.046,650.716 "/>
<polyline style="fill:none; stroke:black; stroke-width:2.4143098721099623" stroke-linecap="round" points="325.144,622.413 306.387,660.933 306.001,661.023 "/>
<polyline style="fill:none; stroke:black; stroke-width:1.968806876489945" stroke-linecap="round" points="306.387,660.933 309.126,654.480 312.190,649.216 "/>
<polyline style="fill:none; stroke:black; stroke-width:2.1490332634312987" stroke-linecap="round" points="309.126,654.480 317.726,640.830 326.414,629.463 "/>
<polyline style="fill:none; stroke:black; stroke-width:2.2574281326356482" stroke-linecap="round" points="317.726,640.830 337.421,616.038 349.996,601.959 "/>
<polyline style="fill:none; stroke:black; stroke-width:2.2962351012768494" stroke-linecap="round" points="337.421,616.038 364.280,588.531 378.956,575.784 "/>
<polyline style="fill:none; stroke:black; stroke-width:2.2991268554029545" stroke-linecap="round" points="364.280,588.531 393.781,563.729 408.772,552.825 "/>
<polyline style="fill:none; stroke:black; stroke-width:2.2952397830519615" stroke-linecap="round" points="393.781,563.729 423.684,542.260 466.569,513.396 "/>
<polyline style="fill:none; stroke:black; stroke-width:2.2243135792069775" stroke-linecap="round" points="423.684,542.260 492.873,496.740 504.552,490.164 "/>
<polyline style="fill:none; stroke:black; stroke-width:1.8101642910965097" stroke-linecap="round" points="492.873,496.740 513.779,485.440 513.779,485.440 "/>
<polyline style="fill:none; stroke:black; stroke-width:2.8810271579457107" stroke-linecap="round" points="513.779,485.440 513.779,485.440 " />
<polyline style="fill:none;stroke:black;stroke-width:0.923913043478261;opacity:1" points=""/>
<polyline style="fill:none; stroke:black; stroke-width:1.3915839385986328" stroke-linecap="round" points="216.602,848.688 215.778,847.131 "/>
<polyline style="fill:none; stroke:black; stroke-width:1.5214903850555421" stroke-linecap="round" points="216.602,848.688 216.461,843.098 231.863,826.694 "/>
<polyline style="fill:none; stroke:black; stroke-width:1.7434248893380166" stroke-linecap="round" points="216.461,843.098 257.358,797.244 278.946,769.690 "/>
<polyline style="fill:none; stroke:black; stroke-width:2.289615167666674" stroke-linecap="round" points="257.358,797.244 291.920,753.415 307.326,736.355 "/>
<polyline style="fill:none; stroke:black; stroke-width:2.5785998685647247" stroke-linecap="round" points="291.920,753.415 324.646,719.263 342.351,702.818 "/>
<polyline style="fill:none; stroke:black; stroke-width:2.7558179364948394" stroke-linecap="round" points="324.646,719.263 360.196,687.235 378.463,672.221 "/>
<polyline style="fill:none; stroke:black; stroke-width:2.8668189154699335" stroke-linecap="round" points="360.196,687.235 414.266,645.045 431.463,632.978 "/>
<polyline style="fill:none; stroke:black; stroke-width:2.8676097713573263" stroke-linecap="round" points="414.266,645.045 448.574,621.718 464.660,611.850 "/>
<polyline style="fill:none; stroke:black; stroke-width:2.848211030589178" stroke-linecap="round" points="448.574,621.718 479.993,602.936 494.254,594.990 "/>
<polyline style="fill:none; stroke:black; stroke-width:2.535429728470905" stroke-linecap="round" points="479.993,602.936 506.646,588.196 506.646,588.196 "/>
<polyline style="fill:none; stroke:black; stroke-width:3.11413105775343" stroke-linecap="round" points="506.646,588.196 506.646,588.196 506.646,588.196 " />
<polyline style="fill:none;stroke:black;stroke-width:0.923913043478261;opacity:1" points=""/>
<polyline style="fill:none; stroke:black; stroke-width:1.572183337211609" stroke-linecap="round" points="325.633,926.352 322.083,925.398 "/>
<polyline style="fill:none; stroke:black; stroke-width:1.777500880720094" stroke-linecap="round" points="325.633,926.352 318.502,920.865 321.359,913.427 "/>
<polyline style="fill:none; stroke:black; stroke-width:2.0838040504815063" stroke-linecap="round" points="318.502,920.865 331.743,889.741 344.016,857.000 "/>
<polyline style="fill:none; stroke:black; stroke-width:2.5091566762721724" stroke-linecap="round" points="331.743,889.741 351.479,838.985 360.006,820.645 "/>
<polyline style="fill:none; stroke:black; stroke-width:2.7685851981381195" stroke-linecap="round" points="351.479,838.985 369.051,802.753 378.180,785.711 "/>
<polyline style="fill:none; stroke:black; stroke-width:2.9835746853564147" stroke-linecap="round" points="369.051,802.753 388.132,769.242 398.415,753.187 "/>
<polyline style="fill:none; stroke:black; stroke-width:3.126954670836667" stroke-linecap="round" points="388.132,769.242 408.868,737.742 430.755,708.454 "/>
<polyline style="fill:none; stroke:black; stroke-width:3.2297300895144683" stroke-linecap="round" points="408.868,737.742 448.418,683.692 466.893,655.891 "/>
<polyline style="fill:none; stroke:black; stroke-width:3.2181043907015536" stroke-linecap="round" points="448.418,683.692 468.540,654.372 469.685,654.758 "/>
<polyline style="fill:none; stroke:black; stroke-width:6.287529666093284" stroke-linecap="round" points="468.540,654.372 469.495,656.477 464.725,666.757 "/>
<polyline style="fill:none; stroke:black; stroke-width:7.648995052811943" stroke-linecap="round" points="469.495,656.477 456.764,685.518 446.074,713.429 "/>
<polyline style="fill:none; stroke:black; stroke-width:8.802688512028686" stroke-linecap="round" points="456.764,685.518 432.790,746.668 417.746,787.336 "/>
<polyline style="fill:none; stroke:black; stroke-width:9.67325558129321" stroke-linecap="round" points="432.790,746.668 410.197,809.230 402.081,830.884 "/>
<polyline style="fill:none; stroke:black; stroke-width:9.8934854525111" stroke-linecap="round" points="410.197,809.230 393.616,851.563 368.866,914.757 "/>
<polyline style="fill:none; stroke:black; stroke-width:9.074044436591768" stroke-linecap="round" points="393.616,851.563 362.781,929.151 361.177,931.554 "/>
<polyline style="fill:none; stroke:black; stroke-width:6.620743433914326" stroke-linecap="round" points="362.781,929.151 360.665,930.961 360.844,928.132 "/>
<polyline style="fill:none; stroke:black; stroke-width:4.780419714723653" stroke-linecap="round" points="360.665,930.961 361.465,924.565 361.951,920.215 "/>
<polyline style="fill:none; stroke:black; stroke-width:4.685832485296444" stroke-linecap="round" points="361.465,924.565 361.951,920.215 363.479,905.144 "/>
<polyline style="fill:none; stroke:black; stroke-width:2.5744187674114576" stroke-linecap="round" points="361.951,920.215 364.347,894.831 366.233,873.868 "/>
<polyline style="fill:none; stroke:black; stroke-width:1.766715051494093" stroke-linecap="round" points="364.347,894.831 374.450,812.598 376.573,802.180 "/>
<polyline style="fill:none; stroke:black; stroke-width:1.6837238405743258" stroke-linecap="round" points="374.450,812.598 379.541,792.263 382.992,783.250 "/>
<polyline style="fill:none; stroke:black; stroke-width:1.7784523735335083" stroke-linecap="round" points="379.541,792.263 386.615,775.494 390.133,769.389 "/>
<polyline style="fill:none; stroke:black; stroke-width:1.883537175622004" stroke-linecap="round" points="386.615,775.494 393.705,765.305 400.086,760.153 "/>
<polyline style="fill:none; stroke:black; stroke-width:1.9849726879419034" stroke-linecap="round" points="393.705,765.305 406.297,757.502 413.738,755.819 "/>
<polyline style="fill:none; stroke:black; stroke-width:1.9774686178300243" stroke-linecap="round" points="406.297,757.502 425.369,754.922 433.388,753.455 "/>
<polyline style="fill:none; stroke:black; stroke-width:2.0625617438674464" stroke-linecap="round" points="425.369,754.922 472.532,742.300 477.497,740.778 "/>
<polyline style="fill:none; stroke:black; stroke-width:2.1420255344819616" stroke-linecap="round" points="472.532,742.300 483.834,738.002 485.686,736.588 "/>
<polyline style="fill:none; stroke:black; stroke-width:2.272847025090954" stroke-linecap="round" points="483.834,738.002 486.874,735.021 489.988,727.460 "/>
<polyline style="fill:none; stroke:black; stroke-width:2.3380243707180703" stroke-linecap="round" points="486.874,735.021 493.203,721.117 497.699,714.478 "/>
<polyline style="fill:none; stroke:black; stroke-width:1.9017962828146224" stroke-linecap="round" points="493.203,721.117 499.583,711.415 502.424,706.906 "/>
<polyline style="fill:none; stroke:black; stroke-width:1.5614567555473926" stroke-linecap="round" points="499.583,711.415 503.270,703.730 503.019,702.745 "/>
<polyline style="fill:none; stroke:black; stroke-width:1.8690558723358979" stroke-linecap="round" points="503.270,703.730 500.893,701.178 499.359,700.967 "/>
<polyline style="fill:none; stroke:black; stroke-width:2.11215732387452" stroke-linecap="round" points="500.893,701.178 497.693,701.432 495.631,702.885 "/>
<polyline style="fill:none; stroke:black; stroke-width:2.2651391509093335" stroke-linecap="round" points="497.693,701.432 480.280,717.134 475.643,720.920 "/>
<polyline style="fill:none; stroke:black; stroke-width:2.2559336805633454" stroke-linecap="round" points="480.280,717.134 467.240,727.562 454.411,736.565 "/>
<polyline style="fill:none; stroke:black; stroke-width:2.279878498557128" stroke-linecap="round" points="467.240,727.562 451.631,739.155 450.232,741.291 "/>
<polyline style="fill:none; stroke:black; stroke-width:2.4898624796188296" stroke-linecap="round" points="451.631,739.155 450.104,742.701 451.396,743.153 "/>
<polyline style="fill:none; stroke:black; stroke-width:1.3550426854542537" stroke-linecap="round" points="450.104,742.701 457.584,740.927 496.989,722.955 "/>
<polyline style="fill:none; stroke:black; stroke-width:1.2331714428847198" stroke-linecap="round" points="457.584,740.927 510.312,718.140 524.059,713.832 "/>
<polyline style="fill:none; stroke:black; stroke-width:1.1870844582456863" stroke-linecap="round" points="510.312,718.140 538.614,710.546 600.808,702.227 "/>
<polyline style="fill:none; stroke:black; stroke-width:1.1751689745932696" stroke-linecap="round" points="538.614,710.546 609.179,701.807 615.659,702.587 "/>
<polyline style="fill:none; stroke:black; stroke-width:2.806574837410477" stroke-linecap="round" points="609.179,701.807 620.252,704.508 622.652,707.673 "/>
<polyline style="fill:none; stroke:black; stroke-width:2.965009332889188" stroke-linecap="round" points="620.252,704.508 622.900,711.523 621.301,715.613 "/>
<polyline style="fill:none; stroke:black; stroke-width:3.2363739990615246" stroke-linecap="round" points="622.900,711.523 618.131,720.493 605.856,735.920 "/>
<polyline style="fill:none; stroke:black; stroke-width:4.985591970963718" stroke-linecap="round" points="618.131,720.493 587.773,760.358 577.228,774.257 "/>
<polyline style="fill:none; stroke:black; stroke-width:5.826878191813747" stroke-linecap="round" points="587.773,760.358 564.987,788.393 536.542,816.136 "/>
<polyline style="fill:none; stroke:black; stroke-width:5.56021598997758" stroke-linecap="round" points="564.987,788.393 510.705,839.731 488.593,857.728 "/>
<polyline style="fill:none; stroke:black; stroke-width:5.080752811417858" stroke-linecap="round" points="510.705,839.731 481.526,862.965 477.363,864.873 "/>
<polyline style="fill:none; stroke:black; stroke-width:4.470540380901029" stroke-linecap="round" points="481.526,862.965 475.251,863.714 474.876,860.780 "/>
<polyline style="fill:none; stroke:black; stroke-width:3.743530639909971" stroke-linecap="round" points="475.251,863.714 475.994,857.300 477.725,854.318 "/>
<polyline style="fill:none; stroke:black; stroke-width:3.105542198212553" stroke-linecap="round" points="475.994,857.300 479.817,851.785 486.954,845.677 "/>
<polyline style="fill:none; stroke:black; stroke-width:2.385475308593714" stroke-linecap="round" points="479.817,851.785 492.444,841.817 507.674,832.823 "/>
<polyline style="fill:none; stroke:black; stroke-width:2.014591583839625" stroke-linecap="round" points="492.444,841.817 517.281,827.753 553.975,809.478 "/>
<polyline style="fill:none; stroke:black; stroke-width:1.832205453443045" stroke-linecap="round" points="517.281,827.753 567.748,803.426 596.282,792.849 "/>
<polyline style="fill:none; stroke:black; stroke-width:1.5358265308462211" stroke-linecap="round" points="567.748,803.426 620.539,782.670 629.910,779.053 "/>
<polyline style="fill:none; stroke:black; stroke-width:2.85385602382742" stroke-linecap="round" points="620.539,782.670 637.036,777.166 " />
<polyline style="fill:none;stroke:black;stroke-width:0.923913043478261;opacity:1" points=""/>
<polyline style="fill:none; stroke:black; stroke-width:1.9963221430778504" stroke-linecap="round" points="675.443,650.921 674.567,664.652 "/>
<polyline style="fill:none; stroke:black; stroke-width:3.9806220633185685" stroke-linecap="round" points="675.443,650.921 674.896,677.288 676.230,691.369 "/>
<polyline style="fill:none; stroke:black; stroke-width:7.4428947110182575" stroke-linecap="round" points="674.896,677.288 677.331,705.359 677.079,718.674 "/>
<polyline style="fill:none; stroke:black; stroke-width:10.224182582534903" stroke-linecap="round" points="677.331,705.359 675.835,730.621 673.551,741.322 "/>
<polyline style="fill:none; stroke:black; stroke-width:11.381891059229222" stroke-linecap="round" points="675.835,730.621 670.385,752.057 666.208,762.783 "/>
<polyline style="fill:none; stroke:black; stroke-width:10.97945619919256" stroke-linecap="round" points="670.385,752.057 649.041,798.032 643.404,810.373 "/>
<polyline style="fill:none; stroke:black; stroke-width:9.993809062233096" stroke-linecap="round" points="649.041,798.032 634.251,831.091 631.255,838.406 "/>
<polyline style="fill:none; stroke:black; stroke-width:7.707003284988817" stroke-linecap="round" points="634.251,831.091 631.255,838.406 629.620,843.660 "/>
<polyline style="fill:none; stroke:black; stroke-width:5.1894358385595165" stroke-linecap="round" points="631.255,838.406 629.620,843.660 629.620,843.660 " />
<polyline style="fill:none;stroke:black;stroke-width:0.923913043478261;opacity:1" points=""/>
<polyline style="fill:none; stroke:black; stroke-width:1.3068017148971558" stroke-linecap="round" points="629.975,765.332 628.436,749.939 "/>
<polyline style="fill:none; stroke:black; stroke-width:1.5738597264289858" stroke-linecap="round" points="629.975,765.332 626.617,718.340 626.859,695.281 "/>
<polyline style="fill:none; stroke:black; stroke-width:1.5544664656162261" stroke-linecap="round" points="626.617,718.340 628.819,678.047 633.169,664.058 "/>
<polyline style="fill:none; stroke:black; stroke-width:1.4965274203976244" stroke-linecap="round" points="628.819,678.047 638.598,651.045 644.342,640.417 "/>
<polyline style="fill:none; stroke:black; stroke-width:1.8770314152952061" stroke-linecap="round" points="638.598,651.045 650.677,632.109 657.546,625.508 "/>
<polyline style="fill:none; stroke:black; stroke-width:2.3782118635964" stroke-linecap="round" points="650.677,632.109 665.466,620.461 684.009,612.069 "/>
<polyline style="fill:none; stroke:black; stroke-width:2.9520321412641968" stroke-linecap="round" points="665.466,620.461 694.543,606.955 737.153,587.004 "/>
<polyline style="fill:none; stroke:black; stroke-width:3.1373330084856272" stroke-linecap="round" points="694.543,606.955 754.798,579.107 774.028,571.642 "/>
<polyline style="fill:none; stroke:black; stroke-width:2.4262182739215685" stroke-linecap="round" points="754.798,579.107 794.421,564.327 794.421,564.327 " />
<rect x="0" y="0" width="1404" height="1872" fill-opacity="0"/></g></svg>