<svg xmlns="http://www.w3.org/2000/svg" height="1872" width="1404">
        <script type="application/ecmascript"> <![CDATA[
            var visiblePage = 'p1';
            function goToPage(page) {
                document.getElementById(visiblePage).setAttribute('style', 'display: none');
                document.getElementById(page).setAttribute('style', 'display: inline');
                visiblePage = page;
            }
        ]]> </script>
    <g id="p1" style="display:inline"><filter id="blurMe"><feGaussianBlur in="SourceGraphic" stdDeviation="10" /></filter><polyline style="fill:none;stroke:[0, 0, 0];stroke-width:2.0;opacity:1" stroke-linecap="round" points=""/>
<polyline style="fill:none; stroke:rgb(0, 0, 0) ;stroke-width:1.800;opacity:1" stroke-linecap="round" points="169.437,269.444 168.805,269.552 "/>
<polyline style="fill:none; stroke:rgb(0, 0, 0) ;stroke-width:0.284;opacity:1" stroke-linecap="round" points="168.805,269.552 169.639,269.954 173.817,269.220 "/>
<polyline style="fill:none; stroke:rgb(0, 0, 0) ;stroke-width:1.809;opacity:1" stroke-linecap="round" points="173.817,269.220 175.507,269.163 177.160,269.726 "/>
<polyline style="fill:none; stroke:rgb(0, 0, 0) ;stroke-width:0.327;opacity:1" stroke-linecap="round" points="177.160,269.726 182.462,269.179 190.665,269.862 "/>
<polyline style="fill:none; stroke:rgb(0, 0, 0) ;stroke-width:0.174;opacity:1" stroke-linecap="round" points="190.665,269.862 194.911,269.447 200.268,270.199 "/>
<polyline style="fill:none; stroke:rgb(0, 0, 0) ;stroke-width:0.121;opacity:1" stroke-linecap="round" points="200.268,270.199 207.731,270.243 216.481,269.268 "/>
<polyline style="fill:none; stroke:rgb(0, 0, 0) ;stroke-width:1.808;opacity:1" stroke-linecap="round" points="216.481,269.268 225.846,269.090 233.222,268.561 "/>
<polyline style="fill:none; stroke:rgb(0, 0, 0) ;stroke-width:0.299;opacity:1" stroke-linecap="round" points="233.222,268.561 241.539,267.590 246.746,267.513 "/>
<polyline style="fill:none; stroke:rgb(0, 0, 0) ;stroke-width:1.815;opacity:1" stroke-linecap="round" points="246.746,267.513 256.387,268.002 279.467,267.241 "/>
<polyline style="fill:none; stroke:rgb(0, 0, 0) ;stroke-width:1.978;opacity:1" stroke-linecap="round" points="279.467,267.241 290.877,268.158 300.975,267.623 "/>
<polyline style="fill:none; stroke:rgb(0, 0, 0) ;stroke-width:2.193;opacity:1" stroke-linecap="round" points="300.975,267.623 304.930,267.652 310.723,267.333 "/>
<polyline style="fill:none; stroke:rgb(0, 0, 0) ;stroke-width:2.526;opacity:1" stroke-linecap="round" points="310.723,267.333 318.392,268.027 320.261,268.075 "/>
<polyline style="fill:none; stroke:rgb(0, 0, 0) ;stroke-width:1.135;opacity:1" stroke-linecap="round" points="320.261,268.075 328.220,267.885 330.677,267.914 "/>
<polyline style="fill:none; stroke:rgb(0, 0, 0) ;stroke-width:2.703;opacity:1" stroke-linecap="round" points="330.677,267.914 331.634,268.286 333.665,268.438 "/>
<polyline style="fill:none; stroke:rgb(0, 0, 0) ;stroke-width:3.180;opacity:1" stroke-linecap="round" points="333.665,268.438 341.675,267.956 344.742,268.598 "/>
<polyline style="fill:none; stroke:rgb(0, 0, 0) ;stroke-width:3.318;opacity:1" stroke-linecap="round" points="344.742,268.598 348.153,268.834 358.355,268.368 "/>
<polyline style="fill:none; stroke:rgb(0, 0, 0) ;stroke-width:1.868;opacity:1" stroke-linecap="round" points="358.355,268.368 367.647,268.355 383.411,269.071 "/>
<polyline style="fill:none; stroke:rgb(0, 0, 0) ;stroke-width:1.841;opacity:1" stroke-linecap="round" points="383.411,269.071 402.123,268.553 412.243,268.773 "/>
<polyline style="fill:none; stroke:rgb(0, 0, 0) ;stroke-width:1.938;opacity:1" stroke-linecap="round" points="412.243,268.773 425.520,268.112 434.565,268.674 "/>
<polyline style="fill:none; stroke:rgb(0, 0, 0) ;stroke-width:2.030;opacity:1" stroke-linecap="round" points="434.565,268.674 446.494,268.246 464.464,268.174 "/>
<polyline style="fill:none; stroke:rgb(0, 0, 0) ;stroke-width:2.078;opacity:1" stroke-linecap="round" points="464.464,268.174 471.514,267.782 473.309,268.028 "/>
<polyline style="fill:none; stroke:rgb(0, 0, 0) ;stroke-width:3.763;opacity:1" stroke-linecap="round" points="473.309,268.028 489.294,268.004 498.301,267.749 "/>
<polyline style="fill:none; stroke:rgb(0, 0, 0) ;stroke-width:3.964;opacity:1" stroke-linecap="round" points="498.301,267.749 505.912,267.041 510.103,266.338 "/>
<polyline style="fill:none; stroke:rgb(0, 0, 0) ;stroke-width:2.317;opacity:1" stroke-linecap="round" points="510.103,266.338 517.664,265.889 535.078,264.105 "/>
<polyline style="fill:none; stroke:rgb(0, 0, 0) ;stroke-width:2.147;opacity:1" stroke-linecap="round" points="535.078,264.105 542.399,263.935 550.147,263.232 "/>
<polyline style="fill:none; stroke:rgb(0, 0, 0) ;stroke-width:3.814;opacity:1" stroke-linecap="round" points="550.147,263.232 593.589,261.800 647.367,259.360 "/>
<polyline style="fill:none; stroke:rgb(0, 0, 0) ;stroke-width:2.285;opacity:1" stroke-linecap="round" points="647.367,259.360 689.545,259.084 701.695,258.561 "/>
<polyline style="fill:none; stroke:rgb(0, 0, 0) ;stroke-width:2.134;opacity:1" stroke-linecap="round" points="701.695,258.561 722.311,258.703 742.053,259.496 "/>
<polyline style="fill:none; stroke:rgb(0, 0, 0) ;stroke-width:3.812;opacity:1" stroke-linecap="round" points="742.053,259.496 756.988,259.549 764.832,259.199 "/>
<polyline style="fill:none; stroke:rgb(0, 0, 0) ;stroke-width:3.979;opacity:1" stroke-linecap="round" points="764.832,259.199 775.063,259.502 793.703,259.326 "/>
<polyline style="fill:none; stroke:rgb(0, 0, 0) ;stroke-width:3.989;opacity:1" stroke-linecap="round" points="793.703,259.326 815.074,260.045 842.073,259.977 "/>
<polyline style="fill:none; stroke:rgb(0, 0, 0) ;stroke-width:3.999;opacity:1" stroke-linecap="round" points="842.073,259.977 883.105,258.917 900.113,259.884 "/>
<polyline style="fill:none; stroke:rgb(0, 0, 0) ;stroke-width:3.994;opacity:1" stroke-linecap="round" points="900.113,259.884 915.858,260.235 933.713,261.553 "/>
<polyline style="fill:none; stroke:rgb(0, 0, 0) ;stroke-width:3.997;opacity:1" stroke-linecap="round" points="933.713,261.553 949.381,261.703 964.754,263.201 "/>
<polyline style="fill:none; stroke:rgb(0, 0, 0) ;stroke-width:2.312;opacity:1" stroke-linecap="round" points="964.754,263.201 969.706,263.031 1015.708,264.280 "/>
<polyline style="fill:none; stroke:rgb(0, 0, 0) ;stroke-width:2.135;opacity:1" stroke-linecap="round" points="1015.708,264.280 1030.474,264.060 1054.482,262.220 "/>
<polyline style="fill:none; stroke:rgb(0, 0, 0) ;stroke-width:2.128;opacity:1" stroke-linecap="round" points="1054.482,262.220 1068.384,261.808 1123.698,262.157 "/>
<polyline style="fill:none; stroke:rgb(0, 0, 0) ;stroke-width:2.137;opacity:1" stroke-linecap="round" points="1123.698,262.157 1131.634,261.659 1157.973,261.302 "/>
<polyline style="fill:none; stroke:rgb(0, 0, 0) ;stroke-width:3.803;opacity:1" stroke-linecap="round" points="1157.973,261.302 1177.770,262.081 1190.862,262.258 "/>
<polyline style="fill:none; stroke:rgb(0, 0, 0) ;stroke-width:3.953;opacity:1" stroke-linecap="round" points="1190.862,262.258 1202.513,262.910 1220.227,262.930 "/>
<polyline style="fill:none; stroke:rgb(0, 0, 0) ;stroke-width:2.302;opacity:1" stroke-linecap="round" points="1220.227,262.930 1230.169,263.305 1243.431,263.897 "/>
<polyline style="fill:none; stroke:rgb(0, 0, 0) ;stroke-width:3.808;opacity:1" stroke-linecap="round" points="1243.431,263.897 1249.096,264.574 1258.687,264.978 "/>
<polyline style="fill:none; stroke:rgb(0, 0, 0) ;stroke-width:3.959;opacity:1" stroke-linecap="round" points="1258.687,264.978 1271.601,266.120 1279.296,266.251 "/>
<polyline style="fill:none; stroke:rgb(0, 0, 0) ;stroke-width:3.962;opacity:1" stroke-linecap="round" points="1279.296,266.251 1289.299,266.896 1294.371,266.733 "/>
<polyline style="fill:none; stroke:rgb(0, 0, 0) ;stroke-width:2.464;opacity:1" stroke-linecap="round" points="1294.371,266.733 1297.453,265.894 1298.476,266.061 "/>
<polyline style="fill:none; stroke:rgb(0, 0, 0) ;stroke-width:7.608;opacity:1" stroke-linecap="round" points="1298.476,266.061 1297.674,266.103 1297.861,266.080 "/>
<polyline style="fill:none; stroke:rgb(0, 0, 0) ;stroke-width:4.632;opacity:1" stroke-linecap="round" points="1297.861,266.080 1298.023,266.064 1298.083,266.021 "/>
<polyline style="fill:none; stroke:rgb(0, 0, 0) ;stroke-width:3.276;opacity:1" stroke-linecap="round" points="1298.083,266.021 1297.676,265.493 1298.331,264.634 "/>
<polyline style="fill:none; stroke:rgb(0, 0, 0) ;stroke-width:2.479;opacity:1" stroke-linecap="round" points="1298.331,264.634 1302.655,262.316 1303.390,262.638 " />
<polyline style="fill:none;stroke:[0, 0, 0];stroke-width:2.125;opacity:1" stroke-linecap="round" points=""/>
<polyline style="fill:none; stroke:rgb(0, 0, 0) ;stroke-width:6.330;opacity:1" stroke-linecap="round" points="129.351,148.377 133.908,146.227 133.084,145.814 131.859,147.019 132.183,146.889 133.086,148.857 136.463,160.186 137.376,161.367 137.856,161.433 138.712,160.433 144.402,146.444 146.942,138.286 147.439,138.111 145.756,140.398 " />
<polyline style="fill:none;stroke:[0, 0, 0];stroke-width:2.125;opacity:1" stroke-linecap="round" points=""/>
<polyline style="fill:none; stroke:rgb(0, 0, 0) ;stroke-width:6.330;opacity:1" stroke-linecap="round" points="167.305,141.328 164.000,140.789 162.243,141.067 160.476,142.273 158.171,145.418 158.138,147.489 158.543,149.481 160.351,151.248 161.537,151.491 162.189,151.144 165.508,147.797 167.932,144.609 169.157,141.951 169.154,142.502 172.908,149.881 174.895,154.802 177.624,157.748 176.806,159.289 " />
<polyline style="fill:none;stroke:[0, 0, 0];stroke-width:2.125;opacity:1" stroke-linecap="round" points=""/>
<polyline style="fill:none; stroke:rgb(0, 0, 0) ;stroke-width:6.330;opacity:1" stroke-linecap="round" points="183.859,160.523 185.307,160.162 185.923,159.129 184.738,157.308 184.509,156.430 184.637,153.643 185.198,151.762 187.173,147.225 189.427,144.660 193.117,144.370 194.378,144.767 198.134,151.588 199.440,152.462 200.746,152.445 202.507,151.391 204.354,149.130 205.468,147.126 206.316,146.260 209.567,140.115 209.325,140.393 209.548,140.761 211.437,142.872 216.156,146.483 217.027,147.709 218.406,148.142 219.673,149.084 220.865,150.727 222.109,155.411 222.014,161.248 220.889,165.235 219.460,168.799 216.563,171.553 214.184,172.691 211.426,172.775 208.371,170.503 207.455,169.638 205.746,166.344 205.008,164.213 " />
<polyline style="fill:none;stroke:[0, 0, 0];stroke-width:2.125;opacity:1" stroke-linecap="round" points=""/>
<polyline style="fill:none; stroke:rgb(0, 0, 0) ;stroke-width:6.330;opacity:1" stroke-linecap="round" points="252.476,140.173 253.872,139.063 253.474,138.945 253.168,139.971 253.806,145.334 254.424,156.170 253.575,149.535 253.755,146.577 253.161,140.967 253.294,139.555 253.944,137.147 256.008,133.738 258.727,131.523 260.277,130.729 264.833,129.627 268.820,130.463 270.491,131.279 271.524,132.309 271.369,135.468 270.364,138.072 269.490,139.305 265.348,143.002 262.937,143.931 262.073,143.680 261.643,142.089 261.968,142.308 263.053,141.926 274.427,143.013 280.267,143.266 284.644,142.988 287.710,142.153 289.763,140.780 290.130,140.830 289.495,141.056 289.993,140.957 290.220,138.672 289.844,137.976 290.077,137.497 289.865,137.292 290.078,137.334 289.736,137.553 290.120,137.496 290.005,137.136 289.745,137.539 289.999,137.461 289.684,138.622 289.706,141.293 289.276,142.222 289.389,142.658 289.029,142.963 289.211,142.331 288.531,139.631 288.834,137.303 288.509,132.948 289.286,128.129 289.886,126.769 290.900,125.949 291.921,125.978 294.379,127.187 299.482,128.197 " />
<polyline style="fill:none;stroke:[0, 0, 0];stroke-width:2.125;opacity:1" stroke-linecap="round" points=""/>
<polyline style="fill:none; stroke:rgb(0, 0, 0) ;stroke-width:6.330;opacity:1" stroke-linecap="round" points="307.845,136.061 308.749,137.329 311.008,139.287 313.826,139.497 315.948,139.110 321.270,135.964 324.024,132.542 324.652,131.045 324.442,130.560 321.079,128.927 315.318,128.365 313.000,128.832 312.114,129.315 310.443,131.436 309.341,134.053 307.475,140.960 307.912,143.956 309.041,144.530 315.246,144.696 " />
<polyline style="fill:none;stroke:[0, 0, 0];stroke-width:2.125;opacity:1" stroke-linecap="round" points=""/>
<polyline style="fill:none; stroke:rgb(0, 0, 0) ;stroke-width:6.330;opacity:1" stroke-linecap="round" points="343.081,124.717 341.763,122.904 338.251,121.491 335.376,123.350 329.633,126.236 331.788,125.936 333.506,126.405 335.649,128.058 339.475,132.087 341.409,135.379 342.677,138.286 342.648,138.690 340.951,140.866 338.004,142.392 335.243,143.061 332.649,143.263 330.357,143.018 329.438,142.577 328.353,141.292 328.293,140.680 " />
<polyline style="fill:none;stroke:[0, 0, 0];stroke-width:2.125;opacity:1" stroke-linecap="round" points=""/>
<polyline style="fill:none; stroke:rgb(0, 0, 0) ;stroke-width:6.330;opacity:1" stroke-linecap="round" points="367.237,122.315 364.868,124.192 361.354,125.453 359.528,124.704 356.736,125.014 353.367,125.949 351.115,127.793 350.710,128.482 351.270,136.566 352.859,139.178 354.108,144.277 353.914,146.428 352.843,148.091 348.265,149.923 345.985,150.377 343.500,150.370 340.022,148.759 339.265,147.620 339.370,147.299 " />
<polyline style="fill:none;stroke:[0, 0, 0];stroke-width:2.125;opacity:1" stroke-linecap="round" points=""/>
<polyline style="fill:none; stroke:rgb(0, 0, 0) ;stroke-width:6.330;opacity:1" stroke-linecap="round" points="377.514,130.354 379.278,130.896 378.528,131.389 377.769,132.868 377.769,135.333 378.246,137.522 380.336,140.843 381.440,141.908 382.366,141.944 387.742,139.637 391.094,135.091 391.620,132.666 391.471,130.627 389.301,128.195 " />
<polyline style="fill:none;stroke:[0, 0, 0];stroke-width:2.125;opacity:1" stroke-linecap="round" points=""/>
<polyline style="fill:none; stroke:rgb(0, 0, 0) ;stroke-width:6.330;opacity:1" stroke-linecap="round" points="403.986,143.078 402.180,141.780 400.111,141.565 400.639,144.146 401.103,143.839 401.214,143.253 400.442,140.680 400.827,131.615 400.432,127.859 401.451,125.041 403.312,125.428 408.902,128.067 412.510,128.878 415.595,129.233 418.578,129.040 421.011,129.277 422.514,129.071 425.140,128.121 428.808,126.136 428.686,125.560 427.933,125.457 428.388,125.234 428.237,124.882 424.995,124.241 423.350,124.565 421.799,125.560 420.009,128.444 417.988,134.029 417.883,135.623 418.949,138.629 420.579,140.647 423.205,142.606 428.306,143.816 434.507,144.054 434.434,145.369 " />
<polyline style="fill:none;stroke:[0, 0, 0];stroke-width:2.125;opacity:1" stroke-linecap="round" points=""/>
<polyline style="fill:none; stroke:rgb(0, 0, 0) ;stroke-width:6.330;opacity:1" stroke-linecap="round" points="527.894,144.742 530.712,141.854 532.049,142.214 544.262,139.879 554.240,139.176 " />
<polyline style="fill:none;stroke:[0, 0, 0];stroke-width:2.125;opacity:1" stroke-linecap="round" points=""/>
<polyline style="fill:none; stroke:rgb(0, 0, 0) ;stroke-width:6.330;opacity:1" stroke-linecap="round" points="558.285,132.019 560.765,128.803 560.474,128.643 559.873,130.044 567.834,134.540 568.709,135.867 569.009,137.750 568.490,139.170 566.575,141.753 562.672,143.769 556.225,146.148 " />
<polyline style="fill:none;stroke:[0, 0, 0];stroke-width:2.125;opacity:1" stroke-linecap="round" points=""/>
<polyline style="fill:none; stroke:rgb(0, 0, 0) ;stroke-width:6.330;opacity:1" stroke-linecap="round" points="101.025,493.799 100.451,493.337 100.196,492.542 100.241,490.898 100.482,490.966 100.438,491.292 103.500,493.590 105.091,495.590 107.473,501.223 109.883,508.456 111.941,511.730 113.238,512.861 114.591,513.358 118.849,502.339 121.076,493.395 121.833,487.568 123.658,483.413 124.694,482.763 124.410,483.019 124.607,483.677 " />
<polyline style="fill:none;stroke:[0, 0, 0];stroke-width:2.125;opacity:1" stroke-linecap="round" points=""/>
<polyline style="fill:none; stroke:rgb(0, 0, 0) ;stroke-width:6.330;opacity:1" stroke-linecap="round" points="151.615,496.579 149.406,492.175 146.907,490.863 144.935,490.382 142.471,490.539 140.979,490.873 138.625,492.127 137.190,493.785 135.080,500.167 135.386,503.892 136.942,507.256 138.539,508.531 140.213,508.649 142.245,507.732 144.859,505.678 148.303,502.101 150.188,498.068 150.116,497.091 149.650,496.556 148.952,498.671 150.471,502.497 153.939,504.895 159.030,507.034 " />
<polyline style="fill:none;stroke:[0, 0, 0];stroke-width:2.125;opacity:1" stroke-linecap="round" points=""/>
<polyline style="fill:none; stroke:rgb(0, 0, 0) ;stroke-width:6.330;opacity:1" stroke-linecap="round" points="170.730,511.479 169.012,511.191 167.060,509.965 166.925,508.840 167.506,506.609 167.278,505.308 167.530,504.143 168.905,501.352 170.613,496.248 172.720,495.496 175.225,495.273 " />
<polyline style="fill:none;stroke:[0, 0, 0];stroke-width:2.125;opacity:1" stroke-linecap="round" points=""/>
<polyline style="fill:none; stroke:rgb(0, 0, 0) ;stroke-width:6.330;opacity:1" stroke-linecap="round" points="190.985,494.273 191.252,495.169 188.392,500.674 187.769,502.846 188.103,503.647 189.598,505.230 192.232,507.127 193.384,507.434 195.831,507.661 196.959,507.299 198.811,506.054 201.496,503.387 202.097,502.736 202.945,500.504 202.580,498.183 203.037,497.123 202.735,496.829 204.185,502.024 204.706,505.884 204.439,511.940 203.144,517.938 201.207,522.748 198.135,526.264 195.480,528.274 189.839,530.816 185.959,531.442 181.695,531.335 179.928,530.799 176.435,528.778 173.391,526.525 172.263,524.890 " />
<polyline style="fill:none;stroke:[0, 0, 0];stroke-width:2.125;opacity:1" stroke-linecap="round" points=""/>
<polyline style="fill:none; stroke:rgb(0, 0, 0) ;stroke-width:6.330;opacity:1" stroke-linecap="round" points="250.267,478.479 250.345,482.517 249.303,500.328 249.584,506.456 250.306,510.684 " />
<polyline style="fill:none;stroke:[0, 0, 0];stroke-width:2.125;opacity:1" stroke-linecap="round" points=""/>
<polyline style="fill:none; stroke:rgb(0, 0, 0) ;stroke-width:6.330;opacity:1" stroke-linecap="round" points="245.990,504.694 245.303,504.097 249.051,503.947 253.542,503.986 258.089,504.707 262.366,504.833 " />
<polyline style="fill:none;stroke:[0, 0, 0];stroke-width:2.125;opacity:1" stroke-linecap="round" points=""/>
<polyline style="fill:none; stroke:rgb(0, 0, 0) ;stroke-width:6.330;opacity:1" stroke-linecap="round" points="276.354,498.753 276.369,496.598 276.283,500.553 274.891,503.524 274.029,507.611 273.832,511.399 " />
<polyline style="fill:none;stroke:[0, 0, 0];stroke-width:2.125;opacity:1" stroke-linecap="round" points=""/>
<polyline style="fill:none; stroke:rgb(0, 0, 0) ;stroke-width:6.330;opacity:1" stroke-linecap="round" points="281.513,489.068 280.055,485.576 278.967,484.920 278.486,485.436 279.081,485.969 " />
<polyline style="fill:none;stroke:[0, 0, 0];stroke-width:2.125;opacity:1" stroke-linecap="round" points=""/>
<polyline style="fill:none; stroke:rgb(0, 0, 0) ;stroke-width:6.330;opacity:1" stroke-linecap="round" points="291.281,478.265 292.926,481.903 293.407,485.594 292.636,494.520 290.452,505.811 290.043,513.592 " />
<polyline style="fill:none;stroke:[0, 0, 0];stroke-width:2.125;opacity:1" stroke-linecap="round" points=""/>
<polyline style="fill:none; stroke:rgb(0, 0, 0) ;stroke-width:6.330;opacity:1" stroke-linecap="round" points="312.478,474.696 312.616,476.970 312.865,476.486 312.638,476.421 312.512,476.842 312.892,481.149 312.777,485.550 307.687,510.080 307.392,512.738 " />
<polyline style="fill:none;stroke:[0, 0, 0];stroke-width:2.125;opacity:1" stroke-linecap="round" points=""/>
<polyline style="fill:none; stroke:rgb(0, 0, 0) ;stroke-width:6.330;opacity:1" stroke-linecap="round" points="304.880,501.642 305.552,499.306 304.814,499.851 305.412,500.172 309.940,500.418 313.244,499.935 317.766,498.769 " />
<polyline style="fill:none;stroke:[0, 0, 0];stroke-width:2.0;opacity:1" stroke-linecap="round" points=""/>
<polyline style="fill:none; stroke:rgb(0, 0, 0) ;stroke-width:1.074;opacity:1" stroke-linecap="round" points="83.627,641.255 79.067,639.072 "/>
<polyline style="fill:none; stroke:rgb(0, 0, 0) ;stroke-width:1.654;opacity:1" stroke-linecap="round" points="79.067,639.072 79.828,640.108 81.441,639.970 "/>
<polyline style="fill:none; stroke:rgb(0, 0, 0) ;stroke-width:0.497;opacity:1" stroke-linecap="round" points="81.441,639.970 82.121,639.289 81.246,639.465 "/>
<polyline style="fill:none; stroke:rgb(0, 0, 0) ;stroke-width:0.160;opacity:1" stroke-linecap="round" points="81.246,639.465 81.888,639.504 81.452,639.615 "/>
<polyline style="fill:none; stroke:rgb(0, 0, 0) ;stroke-width:0.263;opacity:1" stroke-linecap="round" points="81.452,639.615 81.914,639.457 81.695,639.656 "/>
<polyline style="fill:none; stroke:rgb(0, 0, 0) ;stroke-width:1.781;opacity:1" stroke-linecap="round" points="81.695,639.656 86.870,640.609 91.285,640.963 "/>
<polyline style="fill:none; stroke:rgb(0, 0, 0) ;stroke-width:1.684;opacity:1" stroke-linecap="round" points="91.285,640.963 91.570,641.465 92.265,641.764 "/>
<polyline style="fill:none; stroke:rgb(0, 0, 0) ;stroke-width:1.903;opacity:1" stroke-linecap="round" points="92.265,641.764 94.974,642.237 97.203,643.089 "/>
<polyline style="fill:none; stroke:rgb(0, 0, 0) ;stroke-width:1.949;opacity:1" stroke-linecap="round" points="97.203,643.089 101.560,643.746 117.329,643.110 "/>
<polyline style="fill:none; stroke:rgb(0, 0, 0) ;stroke-width:1.994;opacity:1" stroke-linecap="round" points="117.329,643.110 122.887,643.183 125.611,642.373 "/>
<polyline style="fill:none; stroke:rgb(0, 0, 0) ;stroke-width:0.316;opacity:1" stroke-linecap="round" points="125.611,642.373 128.223,642.243 130.663,641.518 "/>
<polyline style="fill:none; stroke:rgb(0, 0, 0) ;stroke-width:0.273;opacity:1" stroke-linecap="round" points="130.663,641.518 132.218,640.683 134.915,640.003 "/>
<polyline style="fill:none; stroke:rgb(0, 0, 0) ;stroke-width:1.597;opacity:1" stroke-linecap="round" points="134.915,640.003 135.019,640.335 136.105,640.403 "/>
<polyline style="fill:none; stroke:rgb(0, 0, 0) ;stroke-width:0.325;opacity:1" stroke-linecap="round" points="136.105,640.403 141.518,639.880 143.595,640.208 "/>
<polyline style="fill:none; stroke:rgb(0, 0, 0) ;stroke-width:0.183;opacity:1" stroke-linecap="round" points="143.595,640.208 150.259,639.923 158.036,637.431 "/>
<polyline style="fill:none; stroke:rgb(0, 0, 0) ;stroke-width:0.186;opacity:1" stroke-linecap="round" points="158.036,637.431 167.282,635.372 170.430,634.340 "/>
<polyline style="fill:none; stroke:rgb(0, 0, 0) ;stroke-width:0.141;opacity:1" stroke-linecap="round" points="170.430,634.340 172.981,634.406 180.022,632.040 "/>
<polyline style="fill:none; stroke:rgb(0, 0, 0) ;stroke-width:1.791;opacity:1" stroke-linecap="round" points="180.022,632.040 182.804,632.234 183.693,631.998 "/>
<polyline style="fill:none; stroke:rgb(0, 0, 0) ;stroke-width:0.293;opacity:1" stroke-linecap="round" points="183.693,631.998 187.942,632.433 197.316,630.655 "/>
<polyline style="fill:none; stroke:rgb(0, 0, 0) ;stroke-width:1.811;opacity:1" stroke-linecap="round" points="197.316,630.655 210.941,631.345 218.840,630.957 "/>
<polyline style="fill:none; stroke:rgb(0, 0, 0) ;stroke-width:0.326;opacity:1" stroke-linecap="round" points="218.840,630.957 224.633,630.114 227.525,630.373 "/>
<polyline style="fill:none; stroke:rgb(0, 0, 0) ;stroke-width:1.620;opacity:1" stroke-linecap="round" points="227.525,630.373 228.686,631.049 236.399,631.672 "/>
<polyline style="fill:none; stroke:rgb(0, 0, 0) ;stroke-width:1.943;opacity:1" stroke-linecap="round" points="236.399,631.672 242.123,631.775 246.560,632.429 "/>
<polyline style="fill:none; stroke:rgb(0, 0, 0) ;stroke-width:1.985;opacity:1" stroke-linecap="round" points="246.560,632.429 251.657,632.556 257.170,633.371 "/>
<polyline style="fill:none; stroke:rgb(0, 0, 0) ;stroke-width:1.977;opacity:1" stroke-linecap="round" points="257.170,633.371 265.425,634.087 273.441,634.307 "/>
<polyline style="fill:none; stroke:rgb(0, 0, 0) ;stroke-width:0.304;opacity:1" stroke-linecap="round" points="273.441,634.307 282.082,633.745 289.076,635.162 "/>
<polyline style="fill:none; stroke:rgb(0, 0, 0) ;stroke-width:0.137;opacity:1" stroke-linecap="round" points="289.076,635.162 299.091,634.967 315.959,636.122 "/>
<polyline style="fill:none; stroke:rgb(0, 0, 0) ;stroke-width:1.748;opacity:1" stroke-linecap="round" points="315.959,636.122 325.529,637.865 327.326,637.805 "/>
<polyline style="fill:none; stroke:rgb(0, 0, 0) ;stroke-width:1.854;opacity:1" stroke-linecap="round" points="327.326,637.805 331.372,639.003 336.631,639.288 "/>
<polyline style="fill:none; stroke:rgb(0, 0, 0) ;stroke-width:1.097;opacity:1" stroke-linecap="round" points="336.631,639.288 337.875,639.099 338.674,639.346 "/>
<polyline style="fill:none; stroke:rgb(0, 0, 0) ;stroke-width:0.241;opacity:1" stroke-linecap="round" points="338.674,639.346 353.959,637.301 368.394,634.539 "/>
<polyline style="fill:none; stroke:rgb(0, 0, 0) ;stroke-width:0.144;opacity:1" stroke-linecap="round" points="368.394,634.539 374.694,633.988 400.715,629.521 "/>
<polyline style="fill:none; stroke:rgb(0, 0, 0) ;stroke-width:1.795;opacity:1" stroke-linecap="round" points="400.715,629.521 403.733,629.631 415.627,628.917 "/>
<polyline style="fill:none; stroke:rgb(0, 0, 0) ;stroke-width:1.955;opacity:1" stroke-linecap="round" points="415.627,628.917 422.023,629.091 442.476,627.390 "/>
<polyline style="fill:none; stroke:rgb(0, 0, 0) ;stroke-width:1.942;opacity:1" stroke-linecap="round" points="442.476,627.390 447.441,628.140 455.391,628.680 "/>
<polyline style="fill:none; stroke:rgb(0, 0, 0) ;stroke-width:1.919;opacity:1" stroke-linecap="round" points="455.391,628.680 462.591,630.732 463.741,631.409 "/>
<polyline style="fill:none; stroke:rgb(0, 0, 0) ;stroke-width:0.705;opacity:1" stroke-linecap="round" points="463.741,631.409 463.521,630.930 464.481,631.209 "/>
<polyline style="fill:none; stroke:rgb(0, 0, 0) ;stroke-width:1.672;opacity:1" stroke-linecap="round" points="464.481,631.209 468.090,633.958 471.320,636.937 "/>
<polyline style="fill:none; stroke:rgb(0, 0, 0) ;stroke-width:1.744;opacity:1" stroke-linecap="round" points="471.320,636.937 473.474,639.413 477.184,642.668 "/>
<polyline style="fill:none; stroke:rgb(0, 0, 0) ;stroke-width:1.852;opacity:1" stroke-linecap="round" points="477.184,642.668 479.613,643.574 485.991,647.510 "/>
<polyline style="fill:none; stroke:rgb(0, 0, 0) ;stroke-width:1.875;opacity:1" stroke-linecap="round" points="485.991,647.510 493.390,650.480 502.782,652.929 "/>
<polyline style="fill:none; stroke:rgb(0, 0, 0) ;stroke-width:1.888;opacity:1" stroke-linecap="round" points="502.782,652.929 510.328,655.760 511.775,656.642 "/>
<polyline style="fill:none; stroke:rgb(0, 0, 0) ;stroke-width:1.989;opacity:1" stroke-linecap="round" points="511.775,656.642 515.936,657.317 " />
<polyline style="fill:none;stroke:[0, 0, 0];stroke-width:2.0;opacity:1" stroke-linecap="round" points=""/>
<polyline style="fill:none; stroke:rgb(0, 0, 0) ;stroke-width:1.800;opacity:1" stroke-linecap="round" points="667.000,633.077 678.947,628.786 "/>
<polyline style="fill:none; stroke:rgb(0, 0, 0) ;stroke-width:1.845;opacity:1" stroke-linecap="round" points="678.947,628.786 680.028,629.377 680.666,629.334 " />
<polyline style="fill:none;stroke:[0, 0, 0];stroke-width:2.0;opacity:1" stroke-linecap="round" points=""/>
<polyline style="fill:none; stroke:rgb(0, 0, 0) ;stroke-width:1.800;opacity:1" stroke-linecap="round" points="712.492,625.845 722.005,625.453 " />
<polyline style="fill:none;stroke:[0, 0, 0];stroke-width:2.0;opacity:1" stroke-linecap="round" points=""/>
<polyline style="fill:none; stroke:rgb(0, 0, 0) ;stroke-width:1.800;opacity:1" stroke-linecap="round" points="781.689,627.184 785.271,627.540 " />
<polyline style="fill:none;stroke:[0, 0, 0];stroke-width:2.0;opacity:1" stroke-linecap="round" points=""/>
<polyline style="fill:none; stroke:rgb(0, 0, 0) ;stroke-width:1.226;opacity:1" stroke-linecap="round" points="798.818,627.979 798.818,627.979 " />
<polyline style="fill:none;stroke:[0, 0, 0];stroke-width:2.0;opacity:1" stroke-linecap="round" points=""/>
<polyline style="fill:none; stroke:rgb(0, 0, 0) ;stroke-width:1.659;opacity:1" stroke-linecap="round" points="809.338,628.538 817.752,628.793 "/>
<polyline style="fill:none; stroke:rgb(0, 0, 0) ;stroke-width:1.920;opacity:1" stroke-linecap="round" points="817.752,628.793 823.358,629.860 825.873,629.662 "/>
<polyline style="fill:none; stroke:rgb(0, 0, 0) ;stroke-width:1.947;opacity:1" stroke-linecap="round" points="825.873,629.662 834.184,631.093 841.553,631.164 "/>
<polyline style="fill:none; stroke:rgb(0, 0, 0) ;stroke-width:1.584;opacity:1" stroke-linecap="round" points="841.553,631.164 841.081,631.380 843.032,631.624 "/>
<polyline style="fill:none; stroke:rgb(0, 0, 0) ;stroke-width:1.853;opacity:1" stroke-linecap="round" points="843.032,631.624 843.984,632.165 846.390,632.699 "/>
<polyline style="fill:none; stroke:rgb(0, 0, 0) ;stroke-width:1.970;opacity:1" stroke-linecap="round" points="846.390,632.699 851.272,633.046 853.714,633.615 "/>
<polyline style="fill:none; stroke:rgb(0, 0, 0) ;stroke-width:1.957;opacity:1" stroke-linecap="round" points="853.714,633.615 860.052,634.295 865.410,634.592 "/>
<polyline style="fill:none; stroke:rgb(0, 0, 0) ;stroke-width:1.926;opacity:1" stroke-linecap="round" points="865.410,634.592 866.871,634.976 870.563,635.057 "/>
<polyline style="fill:none; stroke:rgb(0, 0, 0) ;stroke-width:1.956;opacity:1" stroke-linecap="round" points="870.563,635.057 873.905,635.664 878.417,634.916 "/>
<polyline style="fill:none; stroke:rgb(0, 0, 0) ;stroke-width:0.409;opacity:1" stroke-linecap="round" points="878.417,634.916 879.465,634.467 880.584,634.883 "/>
<polyline style="fill:none; stroke:rgb(0, 0, 0) ;stroke-width:1.834;opacity:1" stroke-linecap="round" points="880.584,634.883 882.502,635.021 887.978,634.157 "/>
<polyline style="fill:none; stroke:rgb(0, 0, 0) ;stroke-width:0.348;opacity:1" stroke-linecap="round" points="887.978,634.157 897.430,631.733 904.933,630.969 "/>
<polyline style="fill:none; stroke:rgb(0, 0, 0) ;stroke-width:0.208;opacity:1" stroke-linecap="round" points="904.933,630.969 917.217,628.122 934.399,623.034 "/>
<polyline style="fill:none; stroke:rgb(0, 0, 0) ;stroke-width:0.162;opacity:1" stroke-linecap="round" points="934.399,623.034 942.844,621.703 956.573,618.444 "/>
<polyline style="fill:none; stroke:rgb(0, 0, 0) ;stroke-width:0.169;opacity:1" stroke-linecap="round" points="956.573,618.444 972.832,615.268 975.239,614.552 "/>
<polyline style="fill:none; stroke:rgb(0, 0, 0) ;stroke-width:0.157;opacity:1" stroke-linecap="round" points="975.239,614.552 983.888,613.531 991.105,612.115 "/>
<polyline style="fill:none; stroke:rgb(0, 0, 0) ;stroke-width:0.160;opacity:1" stroke-linecap="round" points="991.105,612.115 1005.409,610.408 1015.273,608.777 "/>
<polyline style="fill:none; stroke:rgb(0, 0, 0) ;stroke-width:1.841;opacity:1" stroke-linecap="round" points="1015.273,608.777 1017.564,608.988 1026.358,608.474 "/>
<polyline style="fill:none; stroke:rgb(0, 0, 0) ;stroke-width:2.010;opacity:1" stroke-linecap="round" points="1026.358,608.474 1030.572,608.762 1034.521,608.495 "/>
<polyline style="fill:none; stroke:rgb(0, 0, 0) ;stroke-width:2.065;opacity:1" stroke-linecap="round" points="1034.521,608.495 1040.728,609.075 1057.684,609.351 "/>
<polyline style="fill:none; stroke:rgb(0, 0, 0) ;stroke-width:0.439;opacity:1" stroke-linecap="round" points="1057.684,609.351 1060.251,609.113 1078.677,609.527 "/>
<polyline style="fill:none; stroke:rgb(0, 0, 0) ;stroke-width:0.292;opacity:1" stroke-linecap="round" points="1078.677,609.527 1088.206,609.392 1105.502,609.715 "/>
<polyline style="fill:none; stroke:rgb(0, 0, 0) ;stroke-width:2.172;opacity:1" stroke-linecap="round" points="1105.502,609.715 1109.450,609.575 1112.677,609.922 "/>
<polyline style="fill:none; stroke:rgb(0, 0, 0) ;stroke-width:2.619;opacity:1" stroke-linecap="round" points="1112.677,609.922 1113.297,610.342 1120.743,611.704 "/>
<polyline style="fill:none; stroke:rgb(0, 0, 0) ;stroke-width:2.597;opacity:1" stroke-linecap="round" points="1120.743,611.704 1134.123,613.199 1143.952,613.846 "/>
<polyline style="fill:none; stroke:rgb(0, 0, 0) ;stroke-width:2.536;opacity:1" stroke-linecap="round" points="1143.952,613.846 1152.167,613.895 1175.128,612.688 "/>
<polyline style="fill:none; stroke:rgb(0, 0, 0) ;stroke-width:0.706;opacity:1" stroke-linecap="round" points="1175.128,612.688 1186.219,611.569 1189.117,611.671 "/>
<polyline style="fill:none; stroke:rgb(0, 0, 0) ;stroke-width:0.601;opacity:1" stroke-linecap="round" points="1189.117,611.671 1196.220,610.620 1199.561,610.620 "/>
<polyline style="fill:none; stroke:rgb(0, 0, 0) ;stroke-width:0.641;opacity:1" stroke-linecap="round" points="1199.561,610.620 1214.911,609.377 1225.240,608.817 "/>
<polyline style="fill:none; stroke:rgb(0, 0, 0) ;stroke-width:2.305;opacity:1" stroke-linecap="round" points="1225.240,608.817 1233.526,609.204 1238.314,608.957 "/>
<polyline style="fill:none; stroke:rgb(0, 0, 0) ;stroke-width:2.693;opacity:1" stroke-linecap="round" points="1238.314,608.957 1254.715,610.133 1265.016,611.549 "/>
<polyline style="fill:none; stroke:rgb(0, 0, 0) ;stroke-width:2.819;opacity:1" stroke-linecap="round" points="1265.016,611.549 1268.844,611.699 1281.334,613.175 "/>
<polyline style="fill:none; stroke:rgb(0, 0, 0) ;stroke-width:2.758;opacity:1" stroke-linecap="round" points="1281.334,613.175 1285.362,614.308 1291.019,615.099 "/>
<polyline style="fill:none; stroke:rgb(0, 0, 0) ;stroke-width:2.945;opacity:1" stroke-linecap="round" points="1291.019,615.099 1292.071,615.560 1293.463,615.579 "/>
<polyline style="fill:none; stroke:rgb(0, 0, 0) ;stroke-width:2.628;opacity:1" stroke-linecap="round" points="1293.463,615.579 1297.880,616.621 1300.388,616.705 "/>
<polyline style="fill:none; stroke:rgb(0, 0, 0) ;stroke-width:2.545;opacity:1" stroke-linecap="round" points="1300.388,616.705 1303.812,617.377 1306.454,618.288 "/>
<polyline style="fill:none; stroke:rgb(0, 0, 0) ;stroke-width:2.455;opacity:1" stroke-linecap="round" points="1306.454,618.288 1310.095,618.701 1313.436,619.622 "/>
<polyline style="fill:none; stroke:rgb(0, 0, 0) ;stroke-width:0.605;opacity:1" stroke-linecap="round" points="1313.436,619.622 1321.013,620.550 1321.425,620.948 "/>
<polyline style="fill:none; stroke:rgb(0, 0, 0) ;stroke-width:1.953;opacity:1" stroke-linecap="round" points="1321.425,620.948 1324.521,621.657 1331.483,622.366 "/>
<polyline style="fill:none; stroke:rgb(0, 0, 0) ;stroke-width:0.665;opacity:1" stroke-linecap="round" points="1331.483,622.366 1336.594,623.351 1337.567,623.802 "/>
<polyline style="fill:none; stroke:rgb(0, 0, 0) ;stroke-width:0.305;opacity:1" stroke-linecap="round" points="1337.567,623.802 1338.125,623.563 1338.497,623.821 "/>
<polyline style="fill:none; stroke:rgb(0, 0, 0) ;stroke-width:1.018;opacity:1" stroke-linecap="round" points="1338.497,623.821 1338.039,623.792 1338.340,623.669 "/>
<polyline style="fill:none; stroke:rgb(0, 0, 0) ;stroke-width:1.093;opacity:1" stroke-linecap="round" points="1338.340,623.669 1337.989,623.693 1338.079,623.354 " />
<polyline style="fill:none;stroke:[0, 0, 0];stroke-width:2.0;opacity:1" stroke-linecap="round" points=""/>
<polyline style="fill:none; stroke:rgb(0, 0, 0) ;stroke-width:0.878;opacity:1" stroke-linecap="round" points="71.999,974.555 71.244,974.448 "/>
<polyline style="fill:none; stroke:rgb(0, 0, 0) ;stroke-width:1.129;opacity:1" stroke-linecap="round" points="71.244,974.448 70.149,974.823 69.860,975.682 " />
<polyline style="fill:none;stroke:[0, 0, 0];stroke-width:2.0;opacity:1" stroke-linecap="round" points=""/>
<polyline style="fill:none; stroke:rgb(0, 0, 0) ;stroke-width:1.067;opacity:1" stroke-linecap="round" points="70.533,974.868 73.857,974.525 "/>
<polyline style="fill:none; stroke:rgb(0, 0, 0) ;stroke-width:0.569;opacity:1" stroke-linecap="round" points="73.857,974.525 75.079,973.609 78.151,973.274 "/>
<polyline style="fill:none; stroke:rgb(0, 0, 0) ;stroke-width:0.215;opacity:1" stroke-linecap="round" points="78.151,973.274 80.247,972.661 83.216,972.565 "/>
<polyline style="fill:none; stroke:rgb(0, 0, 0) ;stroke-width:0.178;opacity:1" stroke-linecap="round" points="83.216,972.565 87.941,971.792 89.356,971.890 "/>
<polyline style="fill:none; stroke:rgb(0, 0, 0) ;stroke-width:0.244;opacity:1" stroke-linecap="round" points="89.356,971.890 90.437,971.464 96.302,970.566 "/>
<polyline style="fill:none; stroke:rgb(0, 0, 0) ;stroke-width:1.823;opacity:1" stroke-linecap="round" points="96.302,970.566 100.863,970.369 101.565,970.020 "/>
<polyline style="fill:none; stroke:rgb(0, 0, 0) ;stroke-width:0.310;opacity:1" stroke-linecap="round" points="101.565,970.020 106.448,969.654 109.311,968.910 "/>
<polyline style="fill:none; stroke:rgb(0, 0, 0) ;stroke-width:0.326;opacity:1" stroke-linecap="round" points="109.311,968.910 115.628,968.350 120.119,969.010 "/>
<polyline style="fill:none; stroke:rgb(0, 0, 0) ;stroke-width:0.172;opacity:1" stroke-linecap="round" points="120.119,969.010 126.046,968.496 127.100,968.874 "/>
<polyline style="fill:none; stroke:rgb(0, 0, 0) ;stroke-width:1.790;opacity:1" stroke-linecap="round" points="127.100,968.874 136.376,969.662 137.611,970.172 "/>
<polyline style="fill:none; stroke:rgb(0, 0, 0) ;stroke-width:1.957;opacity:1" stroke-linecap="round" points="137.611,970.172 139.643,970.463 146.003,970.328 "/>
<polyline style="fill:none; stroke:rgb(0, 0, 0) ;stroke-width:0.300;opacity:1" stroke-linecap="round" points="146.003,970.328 148.870,970.595 150.818,970.215 "/>
<polyline style="fill:none; stroke:rgb(0, 0, 0) ;stroke-width:1.823;opacity:1" stroke-linecap="round" points="150.818,970.215 155.474,970.190 156.338,970.645 "/>
<polyline style="fill:none; stroke:rgb(0, 0, 0) ;stroke-width:1.910;opacity:1" stroke-linecap="round" points="156.338,970.645 160.481,971.360 165.946,971.789 "/>
<polyline style="fill:none; stroke:rgb(0, 0, 0) ;stroke-width:1.990;opacity:1" stroke-linecap="round" points="165.946,971.789 186.212,971.189 197.341,970.527 "/>
<polyline style="fill:none; stroke:rgb(0, 0, 0) ;stroke-width:1.997;opacity:1" stroke-linecap="round" points="197.341,970.527 228.971,970.949 233.323,970.815 "/>
<polyline style="fill:none; stroke:rgb(0, 0, 0) ;stroke-width:0.788;opacity:1" stroke-linecap="round" points="233.323,970.815 235.426,970.133 236.080,970.402 "/>
<polyline style="fill:none; stroke:rgb(0, 0, 0) ;stroke-width:1.914;opacity:1" stroke-linecap="round" points="236.080,970.402 241.668,970.485 258.138,969.766 "/>
<polyline style="fill:none; stroke:rgb(0, 0, 0) ;stroke-width:2.016;opacity:1" stroke-linecap="round" points="258.138,969.766 268.634,969.744 278.796,970.319 "/>
<polyline style="fill:none; stroke:rgb(0, 0, 0) ;stroke-width:2.085;opacity:1" stroke-linecap="round" points="278.796,970.319 300.767,970.878 349.104,973.861 "/>
<polyline style="fill:none; stroke:rgb(0, 0, 0) ;stroke-width:2.189;opacity:1" stroke-linecap="round" points="349.104,973.861 374.127,974.678 384.001,974.269 "/>
<polyline style="fill:none; stroke:rgb(0, 0, 0) ;stroke-width:2.357;opacity:1" stroke-linecap="round" points="384.001,974.269 424.024,974.272 449.258,974.878 "/>
<polyline style="fill:none; stroke:rgb(0, 0, 0) ;stroke-width:2.464;opacity:1" stroke-linecap="round" points="449.258,974.878 467.866,975.784 492.770,975.497 "/>
<polyline style="fill:none; stroke:rgb(0, 0, 0) ;stroke-width:2.487;opacity:1" stroke-linecap="round" points="492.770,975.497 520.345,976.088 532.379,975.955 "/>
<polyline style="fill:none; stroke:rgb(0, 0, 0) ;stroke-width:0.817;opacity:1" stroke-linecap="round" points="532.379,975.955 557.933,974.968 585.995,974.948 "/>
<polyline style="fill:none; stroke:rgb(0, 0, 0) ;stroke-width:2.819;opacity:1" stroke-linecap="round" points="585.995,974.948 639.160,977.387 699.199,979.004 "/>
<polyline style="fill:none; stroke:rgb(0, 0, 0) ;stroke-width:3.390;opacity:1" stroke-linecap="round" points="699.199,979.004 731.428,979.212 766.322,979.766 "/>
<polyline style="fill:none; stroke:rgb(0, 0, 0) ;stroke-width:3.856;opacity:1" stroke-linecap="round" points="766.322,979.766 845.035,980.729 915.582,982.862 "/>
<polyline style="fill:none; stroke:rgb(0, 0, 0) ;stroke-width:4.315;opacity:1" stroke-linecap="round" points="915.582,982.862 930.836,982.881 1000.730,980.691 "/>
<polyline style="fill:none; stroke:rgb(0, 0, 0) ;stroke-width:2.894;opacity:1" stroke-linecap="round" points="1000.730,980.691 1021.177,980.318 1064.047,980.617 "/>
<polyline style="fill:none; stroke:rgb(0, 0, 0) ;stroke-width:4.590;opacity:1" stroke-linecap="round" points="1064.047,980.617 1085.996,981.130 1130.269,983.250 "/>
<polyline style="fill:none; stroke:rgb(0, 0, 0) ;stroke-width:5.200;opacity:1" stroke-linecap="round" points="1130.269,983.250 1195.515,986.977 1265.478,991.727 "/>
<polyline style="fill:none; stroke:rgb(0, 0, 0) ;stroke-width:5.892;opacity:1" stroke-linecap="round" points="1265.478,991.727 1315.285,997.887 1344.342,1000.130 "/>
<polyline style="fill:none; stroke:rgb(0, 0, 0) ;stroke-width:4.861;opacity:1" stroke-linecap="round" points="1344.342,1000.130 1354.834,1001.279 1366.614,1003.177 "/>
<polyline style="fill:none; stroke:rgb(0, 0, 0) ;stroke-width:3.846;opacity:1" stroke-linecap="round" points="1366.614,1003.177 1382.083,1006.455 1399.430,1010.072 "/>
<polyline style="fill:none; stroke:rgb(0, 0, 0) ;stroke-width:3.455;opacity:1" stroke-linecap="round" points="1399.430,1010.072 1403.000,1013.189 1403.911,1011.619 " />
<polyline style="fill:none;stroke:[0, 0, 0];stroke-width:2.125;opacity:1" stroke-linecap="round" points=""/>
<polyline style="fill:none; stroke:rgb(0, 0, 0) ;stroke-width:6.330;opacity:1" stroke-linecap="round" points="95.657,809.390 89.752,814.352 91.046,813.291 91.740,813.552 94.732,830.437 96.034,831.886 96.754,832.194 97.315,832.030 102.895,817.577 104.027,810.432 104.108,808.701 103.084,803.129 103.444,801.492 103.726,802.169 " />
<polyline style="fill:none;stroke:[0, 0, 0];stroke-width:2.125;opacity:1" stroke-linecap="round" points=""/>
<polyline style="fill:none; stroke:rgb(0, 0, 0) ;stroke-width:6.330;opacity:1" stroke-linecap="round" points="124.301,812.706 123.468,810.401 122.527,809.716 120.709,809.117 117.936,809.968 116.469,812.791 116.280,813.918 116.372,818.771 117.306,820.759 118.454,821.717 119.733,821.381 126.015,813.606 127.085,810.153 127.493,806.236 127.616,807.759 129.990,812.800 131.030,817.689 133.563,823.816 134.387,825.217 136.526,826.910 136.103,828.649 " />
<polyline style="fill:none;stroke:[0, 0, 0];stroke-width:2.125;opacity:1" stroke-linecap="round" points=""/>
<polyline style="fill:none; stroke:rgb(0, 0, 0) ;stroke-width:6.330;opacity:1" stroke-linecap="round" points="139.696,828.062 140.558,827.637 140.570,826.695 139.879,826.261 139.269,825.182 139.172,822.939 141.306,817.373 142.589,815.551 149.712,812.780 154.486,812.395 156.502,813.073 156.881,813.538 156.897,818.863 157.153,821.309 157.796,823.485 158.378,824.593 159.608,825.696 160.989,828.531 161.726,829.090 163.056,829.172 164.583,827.667 166.009,823.928 166.338,822.402 166.535,815.028 165.823,815.297 165.856,816.387 168.598,823.963 169.194,827.917 170.284,831.695 170.559,835.032 169.703,841.350 169.245,842.835 166.115,848.780 164.142,850.267 162.702,850.856 160.445,851.354 159.265,851.298 156.379,850.450 153.328,848.984 148.452,845.938 147.572,846.111 " />
<polyline style="fill:none;stroke:[0, 0, 0];stroke-width:2.125;opacity:1" stroke-linecap="round" points=""/>
<polyline style="fill:none; stroke:rgb(0, 0, 0) ;stroke-width:6.330;opacity:1" stroke-linecap="round" points="225.536,809.846 224.183,809.423 223.209,808.690 223.420,807.604 223.060,807.293 221.783,806.978 220.121,807.221 212.352,810.784 210.916,812.091 210.297,813.167 210.726,815.580 212.866,817.885 216.889,820.765 219.226,822.849 222.164,824.776 222.488,825.574 222.753,825.591 222.593,825.790 216.535,826.480 210.487,825.084 209.615,824.573 211.235,824.494 " />
<polyline style="fill:none;stroke:[0, 0, 0];stroke-width:2.125;opacity:1" stroke-linecap="round" points=""/>
<polyline style="fill:none; stroke:rgb(0, 0, 0) ;stroke-width:6.330;opacity:1" stroke-linecap="round" points="240.816,807.132 238.580,810.116 238.807,810.596 239.777,810.643 240.170,811.244 239.934,812.432 240.276,816.246 241.163,820.762 240.791,823.029 240.903,827.324 241.449,833.084 242.043,834.796 242.256,834.755 241.999,834.184 241.547,825.569 238.712,812.937 238.830,810.999 239.852,807.986 241.797,805.764 242.175,804.905 243.019,804.313 245.697,803.533 249.894,803.842 256.551,805.976 259.191,807.379 259.675,808.142 259.590,810.180 258.552,813.708 255.409,818.312 253.565,819.524 251.022,819.915 248.706,818.768 247.520,817.469 246.852,816.330 247.024,815.807 248.367,815.454 251.507,816.823 256.759,820.893 259.822,822.317 260.712,822.431 265.262,820.789 269.333,818.365 271.083,816.923 274.727,812.849 275.489,811.705 276.011,810.042 275.944,809.366 273.925,807.043 272.071,806.061 269.760,805.723 268.903,806.392 267.050,811.494 266.933,816.190 267.973,819.651 269.712,822.458 271.617,824.663 274.126,825.301 278.661,824.502 285.992,819.775 288.745,817.403 " />
<polyline style="fill:none;stroke:[0, 0, 0];stroke-width:2.125;opacity:1" stroke-linecap="round" points=""/>
<polyline style="fill:none; stroke:rgb(0, 0, 0) ;stroke-width:6.330;opacity:1" stroke-linecap="round" points="294.644,813.509 295.723,812.025 296.449,813.010 297.129,813.215 301.126,811.852 305.203,807.233 305.308,805.153 304.509,802.983 302.111,800.588 300.298,799.822 298.662,799.694 297.119,800.572 295.602,802.060 293.295,805.771 292.065,809.256 291.352,812.346 291.483,816.368 291.890,818.905 293.498,822.081 296.119,823.116 299.848,823.562 304.724,823.737 311.817,823.437 316.539,822.209 320.730,820.050 " />
<polyline style="fill:none;stroke:[0, 0, 0];stroke-width:2.125;opacity:1" stroke-linecap="round" points=""/>
<polyline style="fill:none; stroke:rgb(0, 0, 0) ;stroke-width:6.330;opacity:1" stroke-linecap="round" points="326.471,813.313 326.899,809.150 326.704,808.433 323.482,806.161 321.788,805.538 319.854,805.390 315.996,806.647 314.042,808.199 313.412,808.863 312.277,811.623 312.087,812.894 313.077,817.557 314.822,821.897 315.424,822.966 316.225,823.444 317.842,823.633 320.760,822.353 322.643,820.990 324.521,818.235 327.453,812.889 328.252,811.168 328.958,801.008 327.285,781.335 327.286,782.222 327.803,782.979 328.512,785.766 330.131,789.472 331.369,794.169 332.470,796.415 336.442,809.206 338.176,811.994 339.774,813.544 340.367,814.532 340.455,815.572 " />
<rect x="0" y="0" width="1404" height="1872" fill-opacity="0"/></g></svg>