<svg xmlns="http://www.w3.org/2000/svg" height="1872" width="1404">
        <script type="application/ecmascript"> <![CDATA[
            var visiblePage = 'p1';
            function goToPage(page) {
                document.getElementById(visiblePage).setAttribute('style', 'display: none');
                document.getElementById(page).setAttribute('style', 'display: inline');
                visiblePage = page;
            }
        ]]> </script>
    <g id="p1" style="display:inline"><polyline style="fill:none;stroke:black;stroke-width:0.923913043478261;opacity:1" points="428.522,217.953 429.195,211.595 430.872,199.938 431.627,195.960 431.365,196.693 430.610,199.029 430.604,204.747 430.152,210.476 428.595,219.578 425.316,232.999 420.274,250.586 413.022,271.178 404.446,294.164 395.376,319.071 386.044,344.369 377.038,370.050 368.663,396.873 361.275,424.409 347.892,477.974 341.555,501.335 336.430,519.082 333.225,530.363 331.855,534.620 331.888,532.311 334.367,520.176 337.073,507.649 339.619,489.623 339.619,489.623 343.337,465.660 346.250,450.870 349.807,434.132 354.155,415.596 358.724,396.102 " />
<polyline style="fill:none;stroke:black;stroke-width:0.923913043478261;opacity:1" points="372.747,192.886 364.764,198.660 347.920,211.349 334.973,224.048 324.924,236.751 315.788,249.985 306.744,264.099 298.820,277.298 286.805,296.106 284.525,300.553 285.246,300.901 291.167,294.233 296.492,290.860 305.980,286.347 319.979,278.936 337.554,268.111 358.472,254.795 381.921,239.311 406.379,222.841 432.091,206.822 458.407,191.388 484.714,176.570 511.372,162.710 536.814,150.209 585.440,126.664 607.380,116.458 626.426,109.121 640.694,104.808 650.208,102.740 656.362,103.087 659.233,104.543 659.233,104.543 655.836,109.470 655.836,109.470 " />
<polyline style="fill:none;stroke:black;stroke-width:0.923913043478261;opacity:1" points="275.694,436.733 277.243,433.366 283.001,425.300 292.536,415.327 306.172,403.052 322.219,389.676 338.609,375.322 356.129,360.731 375.485,345.084 396.568,329.069 418.106,313.216 440.183,297.776 463.083,282.751 487.027,268.393 535.070,240.741 560.788,227.386 587.451,214.800 614.109,203.411 639.988,193.228 664.847,184.455 664.847,184.455 664.847,184.455 " />
<polyline style="fill:none;stroke:black;stroke-width:0.923913043478261;opacity:1" points="642.125,297.029 637.184,294.185 627.860,288.841 621.448,287.455 616.485,288.001 610.823,290.015 603.475,293.985 595.591,300.338 587.429,310.016 578.269,322.594 568.009,337.054 558.315,353.029 549.687,369.285 542.408,385.230 536.725,400.890 532.474,416.187 526.696,443.002 525.193,451.515 525.326,455.005 527.179,453.177 534.056,439.718 539.962,428.966 547.452,415.201 556.328,399.133 566.090,381.834 575.742,364.438 585.201,348.342 594.861,334.493 603.933,322.863 611.021,312.847 616.398,304.742 620.164,298.730 622.023,294.467 622.656,292.392 615.704,303.959 611.793,311.425 606.982,321.024 601.782,332.282 596.627,345.069 586.816,372.752 582.668,386.145 576.205,411.722 573.479,423.067 572.224,431.537 572.437,435.924 574.488,436.741 583.098,432.850 589.307,430.286 " />
<polyline style="fill:none;stroke:black;stroke-width:0.923913043478261;opacity:1" points="743.522,280.460 743.899,279.587 742.614,278.092 738.991,279.690 733.962,282.600 718.943,290.857 710.073,296.530 700.811,303.279 678.812,319.906 667.769,328.305 657.287,336.799 647.679,345.797 639.025,354.924 621.567,372.389 612.163,382.143 612.640,381.415 615.539,378.483 619.532,375.512 635.958,368.676 647.176,363.876 670.591,354.625 680.997,351.865 690.605,350.665 699.312,350.425 715.638,351.011 721.968,351.669 726.888,352.637 730.542,353.991 732.300,355.947 731.954,358.334 730.236,361.593 726.877,366.987 721.143,374.772 713.310,383.790 694.473,404.371 672.991,427.285 662.069,438.164 651.971,447.668 643.206,455.833 635.857,462.752 629.708,468.134 625.318,471.679 623.006,472.851 622.393,471.721 623.189,469.055 624.790,465.887 627.006,461.564 627.006,461.564 627.006,461.564 627.006,461.564 " />
<polyline style="fill:none;stroke:black;stroke-width:0.923913043478261;opacity:1" points="815.194,176.405 814.382,172.637 811.935,166.243 809.232,165.716 808.155,166.599 802.621,175.654 798.340,183.025 792.232,194.085 784.580,207.968 776.425,223.528 769.066,241.137 762.309,260.436 748.676,300.732 735.170,346.004 729.166,368.733 723.811,391.363 718.938,413.107 711.159,449.904 708.774,463.374 707.521,473.064 706.786,478.948 707.033,481.918 707.925,482.832 707.925,482.832 710.912,478.418 710.912,478.418 710.912,478.418 710.912,478.418 " />
<polyline style="fill:none;stroke:black;stroke-width:0.923913043478261;opacity:1" points="727.295,380.116 726.412,370.336 726.439,354.637 727.859,347.621 728.949,346.283 729.726,347.062 730.937,347.313 732.885,346.542 736.190,343.893 741.535,338.876 749.099,331.915 759.008,323.287 770.871,313.428 784.301,303.002 799.250,291.977 815.612,280.812 833.634,270.022 853.045,259.480 853.045,259.480 853.045,259.480 " />
<polyline style="fill:none;stroke:black;stroke-width:0.923913043478261;opacity:1" points="280.875,711.273 278.111,707.813 277.686,708.172 279.013,710.672 280.214,714.281 281.196,720.530 281.678,729.461 281.640,741.577 281.082,756.275 279.941,772.621 278.487,789.330 274.784,840.129 273.575,870.488 273.587,896.142 274.261,906.515 275.463,915.128 277.164,921.730 277.164,921.730 281.473,923.519 282.974,919.102 282.974,919.102 " />
<polyline style="fill:none;stroke:black;stroke-width:0.923913043478261;opacity:1" points="265.752,768.750 262.497,771.410 255.971,777.453 249.994,784.295 248.575,785.875 246.346,787.286 245.585,787.325 244.241,786.379 243.187,784.669 242.580,782.932 242.531,781.365 243.122,774.700 246.567,761.579 249.437,752.625 253.331,742.632 258.849,731.347 265.698,718.869 273.423,705.992 282.145,693.421 291.482,681.846 301.768,671.773 312.003,662.619 321.526,654.697 330.897,648.202 339.374,642.851 347.101,638.595 353.903,635.769 359.802,633.962 364.612,632.973 367.898,633.329 369.545,635.092 369.844,638.308 368.928,643.117 366.284,650.603 361.718,661.200 355.147,673.661 346.646,687.140 336.400,701.752 312.754,734.426 290.381,767.650 279.096,782.602 267.668,795.263 258.236,805.369 250.948,813.231 244.994,818.262 240.217,820.528 236.859,820.550 234.454,818.847 233.487,816.291 234.466,813.727 234.466,813.727 234.466,813.727 234.466,813.727 " />
<polyline style="fill:none;stroke:black;stroke-width:0.923913043478261;opacity:1" points="348.069,894.537 345.183,900.155 339.958,911.053 337.699,917.333 336.342,919.558 335.665,919.590 335.311,918.292 335.455,915.912 335.486,907.609 335.676,900.189 336.381,890.212 337.990,878.079 340.565,864.217 343.869,848.558 347.990,832.273 353.000,816.913 368.642,777.531 373.562,765.906 379.086,754.865 384.770,744.846 394.856,729.432 398.950,724.500 402.363,721.628 405.020,721.007 406.675,722.303 407.333,724.819 408.092,732.448 408.354,738.871 407.771,747.140 406.510,756.219 404.691,765.520 396.474,796.212 390.547,820.224 387.260,832.045 374.751,874.518 371.430,882.819 368.032,888.235 365.174,890.417 363.059,889.654 361.776,887.104 358.942,879.761 356.760,875.353 354.317,870.823 346.440,858.446 344.283,853.975 342.917,849.314 342.909,844.367 343.814,834.056 345.335,829.307 347.626,824.788 351.187,820.217 358.816,812.155 362.588,809.439 366.169,807.606 369.836,806.435 373.725,805.698 378.041,805.641 388.828,807.052 393.470,808.612 395.201,809.723 397.654,812.280 400.891,816.172 401.783,816.564 402.619,816.327 404.318,813.649 405.578,810.612 408.448,797.974 411.040,789.692 417.909,766.874 419.853,761.372 422.756,752.677 426.529,743.785 428.705,739.930 429.969,738.580 429.710,741.231 430.709,753.828 431.323,771.112 431.145,804.618 430.663,829.516 431.108,841.431 432.521,853.513 434.711,865.207 437.845,874.704 441.586,881.279 445.973,885.477 451.003,888.510 451.003,888.510 " />
<polyline style="fill:none;stroke:black;stroke-width:0.923913043478261;opacity:1" points="472.373,736.089 471.671,729.501 470.729,717.953 470.218,714.496 470.142,715.699 469.913,717.997 470.389,722.132 470.438,725.220 470.337,739.916 470.094,752.130 469.492,766.173 468.901,781.135 467.815,796.253 463.142,837.127 462.371,846.751 462.299,854.086 462.515,860.342 463.031,865.197 463.958,867.445 465.380,866.730 469.838,858.468 471.722,853.823 473.170,846.826 474.612,837.289 476.006,826.320 480.057,784.263 480.461,775.373 479.983,758.619 478.640,742.127 475.098,709.761 474.432,700.538 474.702,699.496 475.105,700.880 475.713,707.055 477.898,721.573 479.119,732.583 481.395,758.668 482.914,771.476 486.488,796.287 493.088,833.694 495.453,844.271 498.002,853.175 500.464,861.332 502.939,868.066 505.669,872.207 508.996,874.266 517.586,877.104 522.079,877.449 526.572,876.404 530.690,874.011 534.146,869.815 536.903,863.497 539.196,854.805 540.978,843.620 542.382,830.613 543.319,816.472 543.803,802.654 544.039,764.821 544.354,742.383 544.353,731.762 545.136,714.212 545.341,707.704 545.404,702.107 545.107,697.255 " />
<polyline style="fill:none;stroke:black;stroke-width:0.923913043478261;opacity:1" points="575.326,697.531 574.152,702.217 571.875,713.271 571.722,724.214 571.667,734.265 571.451,744.250 570.890,754.220 570.851,772.608 572.812,800.825 574.032,809.593 577.249,829.284 577.249,829.284 578.860,836.276 " />
<polyline style="fill:none;stroke:black;stroke-width:0.923913043478261;opacity:1" points="542.489,673.198 541.210,669.350 538.386,663.192 538.690,661.845 540.021,662.755 541.443,663.141 544.171,662.719 554.066,659.894 569.283,654.494 579.773,650.396 592.251,645.063 605.968,638.991 620.598,633.016 636.189,627.494 652.860,622.753 652.860,622.753 652.860,622.753 " />
<polyline style="fill:none;stroke:black;stroke-width:0.923913043478261;opacity:1" points="679.031,636.106 678.162,637.364 676.751,641.564 676.439,648.669 676.608,658.567 676.969,669.894 676.784,682.368 676.063,712.385 674.713,744.318 674.527,760.417 674.870,776.523 675.515,791.245 676.705,804.542 678.330,815.956 680.377,824.504 682.528,830.301 684.414,833.737 685.262,834.854 687.083,830.676 686.408,823.132 " />
<polyline style="fill:none;stroke:black;stroke-width:0.923913043478261;opacity:1" points="657.665,694.309 653.951,685.968 647.664,669.730 646.029,660.138 646.238,654.664 647.684,650.833 650.121,646.872 653.002,643.569 656.264,640.816 660.093,638.337 664.651,635.681 670.222,633.075 676.150,630.997 682.086,629.655 688.201,628.889 700.217,629.084 705.800,629.755 709.736,631.158 712.519,633.174 714.824,635.925 716.410,639.840 716.873,644.961 716.222,651.079 714.471,658.626 712.041,666.892 705.545,684.155 702.106,692.641 698.296,699.741 694.327,705.467 689.772,709.963 680.421,717.432 672.139,722.535 668.659,723.989 666.149,724.368 665.511,723.692 666.478,722.519 667.777,721.783 672.504,720.107 676.673,719.166 688.308,718.089 695.337,718.117 702.949,719.096 710.074,721.276 726.369,728.245 734.073,732.066 736.748,734.210 738.937,736.590 741.090,739.373 742.608,742.813 743.390,747.277 743.773,753.158 743.013,768.020 741.710,776.491 739.747,784.916 737.138,792.860 734.117,800.487 730.663,807.604 726.791,813.909 718.901,823.352 715.507,826.832 712.055,829.789 708.678,831.977 705.544,833.174 702.616,833.755 699.557,833.724 696.656,833.186 693.602,832.160 690.363,830.403 687.299,828.011 685.260,824.692 684.263,820.394 684.271,815.292 685.327,809.918 687.268,804.392 690.360,798.969 694.291,793.834 699.164,789.045 " />
<polyline style="fill:none;stroke:black;stroke-width:0.923913043478261;opacity:1" points="768.741,674.516 764.438,670.564 756.449,662.321 752.046,657.925 749.719,655.872 747.870,655.038 746.058,654.949 745.617,655.656 746.898,659.081 748.479,668.628 749.988,676.795 751.797,687.159 754.131,698.851 763.621,735.458 769.711,756.892 776.117,774.821 779.259,783.940 783.568,799.508 785.288,807.982 786.524,810.968 786.437,809.047 785.913,806.933 784.951,803.298 783.295,797.240 780.907,789.215 778.103,779.941 771.084,760.502 763.168,740.977 756.086,721.140 749.627,700.116 747.228,689.139 746.176,678.410 746.608,668.722 748.015,660.546 749.923,654.248 752.666,649.839 756.114,646.597 759.685,644.003 763.296,641.868 772.142,637.744 790.552,628.666 796.845,626.709 803.234,625.733 808.619,625.391 812.963,625.868 816.377,627.042 818.648,629.168 819.775,632.439 819.973,636.658 819.130,641.840 817.238,647.842 814.306,655.093 810.509,663.358 805.752,671.510 794.931,686.753 789.437,693.523 783.708,699.050 773.551,707.864 769.564,711.845 763.943,719.711 762.194,722.520 761.664,724.524 761.923,725.703 762.648,726.883 765.751,729.852 768.331,731.310 775.713,734.124 792.786,736.629 798.727,737.108 804.389,736.822 815.977,734.547 821.452,732.998 837.144,725.722 847.891,718.853 852.354,715.283 856.320,711.506 859.482,707.245 861.803,702.681 863.393,698.278 864.287,693.914 864.658,689.147 864.273,677.753 862.917,665.717 861.385,659.711 858.949,653.930 856.106,648.440 853.222,643.627 850.367,640.094 847.783,638.211 846.010,637.922 845.011,639.057 845.035,641.013 846.168,646.856 848.055,659.668 849.973,668.085 853.572,685.563 857.294,700.055 861.602,711.214 863.812,716.570 866.263,721.671 868.863,726.022 874.162,732.737 876.701,734.767 879.408,735.088 885.948,732.478 889.976,730.048 893.687,726.783 897.058,722.469 900.031,717.049 902.390,710.500 904.220,702.691 905.729,694.198 907.161,685.336 909.969,658.905 910.197,650.877 909.932,642.851 906.299,618.875 904.728,611.716 902.920,605.795 900.579,601.029 897.953,597.184 895.450,594.547 894.173,593.952 893.882,595.469 895.112,601.757 895.656,609.042 896.398,613.186 897.609,617.448 899.662,621.818 902.056,626.295 904.523,630.315 906.839,633.717 906.839,633.717 " />
<polyline style="fill:none;stroke:black;stroke-width:0.923913043478261;opacity:1" points="961.917,576.452 951.612,583.940 932.781,602.516 924.575,621.802 920.660,637.985 918.711,652.358 915.093,677.000 915.232,686.389 916.912,694.093 919.229,700.143 922.807,704.799 927.458,708.301 931.879,710.765 936.003,711.693 940.172,711.035 944.811,709.154 950.135,705.909 963.315,695.928 970.334,689.242 977.427,681.278 984.760,672.347 992.114,662.595 998.854,652.435 1005.166,642.016 1018.323,622.369 1023.709,613.292 1031.691,597.359 1034.645,590.681 1034.645,590.681 1038.625,579.495 1040.176,574.968 1040.990,570.902 1040.807,562.890 1040.538,561.738 1039.873,561.302 1038.648,561.788 1037.926,562.459 1034.578,566.790 " />
<polyline style="fill:none;stroke:black;stroke-width:0.923913043478261;opacity:1" points="1051.887,527.528 1046.722,522.360 1045.466,521.978 1045.219,522.099 1044.989,522.237 1044.083,522.057 1040.052,519.706 1039.205,519.358 1036.104,519.425 1029.422,523.503 1021.111,530.407 1010.139,539.407 986.472,557.431 976.190,566.006 971.059,570.680 962.465,580.131 952.883,592.316 950.537,595.872 948.633,599.474 947.020,602.885 946.045,605.915 945.996,608.490 946.623,613.274 948.610,618.497 950.126,620.756 953.805,624.344 956.029,625.546 958.577,626.158 960.888,626.592 963.633,626.629 967.025,626.254 974.227,624.381 986.234,619.571 999.327,613.224 1008.418,609.446 1017.615,606.230 1026.277,604.381 1033.672,603.554 1044.464,603.271 1050.487,603.741 1051.775,604.194 1053.806,605.660 1055.486,607.396 1055.937,608.361 1056.812,613.530 1056.583,621.075 1055.507,625.909 1053.787,629.710 1048.740,636.549 1046.249,639.323 1036.167,646.802 1027.678,651.685 1022.882,655.467 1013.823,659.738 1004.143,663.702 995.236,666.683 989.404,667.936 985.366,668.271 983.101,667.706 980.978,666.277 980.112,664.973 979.715,662.466 980.610,655.402 987.417,642.707 992.070,637.415 996.738,633.815 998.587,633.110 1005.904,631.685 1011.475,631.211 1022.404,631.094 1030.133,630.577 1033.768,630.010 1037.109,628.881 1040.807,627.417 1044.372,625.478 1049.999,620.702 1057.208,613.091 1067.100,593.942 1074.239,574.629 1077.133,565.359 1078.249,560.491 1082.845,531.398 1083.224,526.650 1083.031,522.540 1081.613,514.903 1080.116,511.496 1078.324,508.614 1076.384,506.458 1072.499,504.099 1069.937,503.262 1067.126,502.931 1064.868,503.129 1062.951,503.724 1058.453,506.224 1055.390,508.429 1049.417,513.872 1041.052,524.059 1033.717,534.098 1031.852,537.103 1030.486,540.125 1029.754,543.001 1029.765,547.843 1031.103,552.594 1032.533,554.823 1037.330,558.985 1042.625,562.124 1055.505,566.677 1067.389,569.260 1075.881,571.957 1085.078,576.156 1089.801,578.891 1099.467,585.995 1103.637,590.297 1108.938,598.523 1112.983,605.685 1114.284,609.056 1114.732,612.432 1114.276,619.933 1113.242,624.616 1111.578,629.894 1105.884,641.682 1103.476,647.557 1099.901,652.653 1095.344,657.409 1090.340,661.240 1084.994,663.885 1079.704,665.675 1074.168,666.749 1056.571,668.674 1051.068,668.779 1046.326,668.393 1042.622,667.522 1039.626,666.573 1034.677,663.974 1032.684,662.482 1031.603,660.707 1030.187,655.261 1030.228,650.550 1031.256,644.730 1032.740,638.649 1034.810,632.548 1037.487,626.319 1041.044,620.060 1054.186,600.344 1059.009,594.171 1064.489,587.866 1087.061,562.616 1092.403,556.255 1101.902,543.581 1106.958,537.697 1110.765,531.642 1116.563,520.341 1121.391,509.697 1123.290,504.786 1124.436,500.388 1124.760,496.391 1124.501,493.159 1123.793,490.791 1122.901,489.195 1121.415,488.481 1118.589,488.182 1114.377,488.691 1111.419,489.427 1104.833,492.113 1101.018,494.521 1097.062,498.149 1092.957,502.671 1081.776,515.781 1076.832,522.421 1075.253,525.140 1074.194,527.604 1072.568,535.370 1072.663,541.823 1074.357,548.712 1076.717,551.993 1078.351,553.175 1083.188,555.520 1086.080,556.418 1093.016,557.433 1124.126,558.743 1131.757,559.890 1137.361,562.046 1141.023,564.914 1142.405,566.660 1143.872,570.725 1144.560,575.535 1144.151,577.591 1142.559,580.860 1139.532,583.773 1137.001,585.102 1131.234,587.888 1124.466,590.627 1109.992,597.707 1106.258,599.075 1103.787,599.261 1102.449,598.361 1101.780,596.967 1101.522,594.245 1102.416,589.350 1104.367,583.860 1108.133,578.055 1110.871,574.817 1115.940,570.908 1120.579,566.417 1121.616,566.143 1121.818,565.767 1121.621,566.057 1121.212,565.923 1122.215,565.923 1121.421,565.950 1121.669,565.646 1121.455,565.675 1122.033,565.555 1122.119,564.603 1122.103,565.120 1121.671,565.107 1122.406,565.024 1121.615,565.254 1122.309,565.336 1121.874,565.214 1122.306,565.030 1122.089,564.776 1122.308,564.882 1123.707,563.320 1125.568,560.262 1129.804,556.624 1132.531,551.018 1139.146,545.063 1139.706,542.958 1140.352,542.329 1141.044,540.681 1142.875,537.871 1144.413,534.767 1144.510,533.664 1146.413,531.744 1147.209,529.323 1149.813,524.049 1152.745,519.681 1153.431,518.049 1154.812,516.410 1154.701,515.822 1156.105,513.242 1156.259,511.673 1156.987,511.027 1157.318,510.223 1157.230,508.860 1158.090,507.192 1158.763,504.833 1158.636,498.962 1159.081,498.353 1158.197,496.633 1157.647,492.137 1156.979,490.995 1157.328,490.705 1157.200,490.351 1155.363,487.271 1154.713,485.797 1154.714,485.077 1153.725,484.045 1154.358,483.737 1154.280,483.307 1152.986,482.127 1152.553,480.796 1152.026,480.755 1152.611,480.599 1152.065,480.670 1152.596,480.788 1152.424,480.500 1152.412,480.627 1152.702,480.946 1149.994,484.487 1149.994,484.487 " />
<polyline style="fill:none;stroke:black;stroke-width:0.923913043478261;opacity:1" points="334.206,1159.912 330.987,1155.590 329.381,1153.990 328.026,1151.290 327.777,1150.974 328.022,1150.775 327.753,1150.850 327.979,1151.374 327.916,1153.955 328.699,1159.752 329.170,1171.109 330.556,1183.668 331.751,1189.615 333.690,1204.135 334.473,1214.912 334.915,1229.216 337.266,1256.261 338.754,1264.591 340.565,1266.936 341.033,1267.094 341.716,1265.907 342.174,1265.443 342.734,1264.799 342.734,1264.799 " />
<polyline style="fill:none;stroke:black;stroke-width:0.923913043478261;opacity:1" points="296.160,1201.787 295.270,1200.969 294.536,1201.368 293.276,1201.159 291.407,1200.510 289.077,1197.689 288.571,1195.375 288.593,1190.908 291.272,1180.526 291.845,1176.648 292.909,1173.834 295.178,1164.954 296.346,1162.074 298.260,1153.391 300.330,1147.794 301.269,1143.313 307.126,1124.585 309.702,1120.218 312.199,1117.173 313.961,1114.308 318.254,1109.541 321.558,1104.953 325.391,1101.238 328.959,1099.095 330.466,1098.456 331.141,1098.315 332.786,1097.009 335.140,1096.571 337.557,1095.323 344.803,1093.636 348.902,1093.360 355.793,1093.780 358.485,1095.115 360.959,1097.003 362.002,1096.801 364.171,1097.911 367.900,1101.225 370.337,1104.244 371.587,1106.794 372.903,1111.256 373.881,1117.339 374.018,1120.605 373.778,1122.006 374.389,1125.875 374.391,1127.930 373.661,1131.034 374.023,1132.679 373.160,1136.382 373.173,1136.738 373.447,1136.254 373.259,1139.713 374.532,1143.500 375.492,1144.039 376.844,1145.437 378.263,1145.557 379.955,1145.378 381.907,1143.629 382.614,1142.064 385.129,1139.106 387.605,1134.847 390.778,1131.091 392.255,1127.755 392.559,1126.381 393.087,1125.671 395.139,1119.998 396.364,1115.222 398.866,1108.475 398.764,1107.791 400.846,1104.225 401.320,1102.220 403.660,1096.992 408.376,1092.114 411.622,1090.396 414.032,1091.779 419.021,1098.244 419.566,1100.335 419.258,1100.565 419.941,1101.513 420.557,1104.158 421.043,1108.628 421.053,1113.072 420.107,1123.822 420.353,1124.435 420.258,1127.174 421.712,1134.643 423.673,1137.289 424.943,1138.394 428.196,1139.498 429.451,1139.470 430.192,1139.225 430.104,1139.006 431.227,1138.426 432.785,1136.959 433.862,1134.686 434.633,1131.246 435.872,1128.025 436.729,1123.744 436.706,1120.573 437.138,1119.627 437.263,1117.110 437.630,1116.072 437.329,1114.201 439.054,1106.917 441.350,1102.010 442.663,1100.551 444.981,1096.212 447.369,1094.096 448.776,1092.324 449.990,1091.454 450.453,1091.235 451.746,1091.480 453.879,1092.978 454.808,1094.040 456.755,1097.720 457.687,1101.724 458.292,1106.197 458.692,1113.853 458.528,1115.547 459.183,1118.009 460.050,1126.646 462.200,1130.421 464.644,1132.349 465.773,1132.909 467.395,1132.778 469.297,1133.069 471.650,1132.122 473.411,1130.393 475.649,1126.099 478.811,1117.905 479.447,1116.839 481.268,1115.481 483.604,1111.788 485.121,1101.566 486.622,1099.939 487.781,1097.688 489.811,1095.325 491.397,1092.668 494.254,1090.336 497.413,1086.511 500.526,1085.312 502.639,1086.227 504.586,1087.843 506.674,1091.397 508.856,1098.022 512.708,1114.006 514.041,1115.212 516.143,1116.029 518.572,1116.068 520.403,1115.692 522.497,1115.017 524.916,1113.440 527.551,1110.755 538.502,1093.619 544.354,1085.751 547.344,1082.539 553.102,1077.114 557.691,1073.858 559.577,1072.952 561.366,1072.717 563.157,1073.252 564.568,1074.158 565.639,1075.338 568.392,1081.297 570.097,1088.508 571.446,1104.651 572.275,1116.045 573.198,1120.488 574.419,1123.437 576.072,1125.000 578.042,1125.303 580.243,1124.692 582.665,1123.318 584.976,1121.136 587.426,1117.905 593.895,1107.547 600.770,1094.754 604.584,1088.882 612.885,1078.029 617.106,1073.376 621.220,1069.635 625.214,1066.653 628.997,1064.552 632.689,1063.145 636.386,1062.751 640.188,1063.059 643.862,1063.884 647.068,1065.033 649.750,1066.603 652.233,1068.998 657.390,1076.262 659.839,1081.888 662.362,1088.813 664.735,1096.855 666.822,1105.416 670.329,1122.883 672.622,1129.539 675.502,1133.207 678.723,1133.568 681.965,1130.750 685.384,1125.548 693.648,1111.121 711.236,1078.110 715.382,1072.352 719.674,1067.734 724.084,1063.824 728.882,1060.649 733.595,1058.609 738.199,1057.824 742.992,1058.223 747.677,1059.698 752.305,1062.188 757.281,1065.950 762.327,1070.923 778.530,1090.603 784.341,1098.331 789.672,1106.264 794.306,1114.226 799.650,1120.370 805.827,1122.813 813.408,1121.332 822.738,1117.400 833.448,1110.953 845.724,1102.243 859.163,1092.314 873.832,1082.286 888.651,1072.910 903.001,1065.071 917.075,1059.633 930.907,1057.417 944.258,1057.871 956.630,1060.695 968.191,1065.674 979.134,1072.366 990.237,1079.606 1001.165,1087.185 1011.644,1095.072 1022.151,1102.070 1033.795,1106.264 1047.913,1105.833 1064.247,1099.768 1082.570,1087.018 1104.256,1069.146 1128.772,1048.081 1154.217,1025.352 1181.517,1001.999 1210.745,978.178 1241.837,955.252 " />
<polyline style="fill:none;stroke:black;stroke-width:0.923913043478261;opacity:1" points="246.168,1481.569 246.628,1471.757 247.641,1451.656 247.954,1437.558 248.411,1427.272 248.915,1418.817 249.437,1410.682 250.233,1392.312 250.517,1388.983 250.962,1387.063 251.702,1386.921 256.225,1393.663 258.901,1399.502 261.975,1408.628 265.076,1421.401 267.873,1438.655 270.306,1459.584 272.843,1482.158 275.262,1506.891 279.236,1560.174 281.353,1585.572 285.708,1628.236 287.807,1643.792 289.755,1652.759 291.530,1655.217 293.235,1652.106 297.829,1637.493 301.079,1626.439 304.547,1611.160 308.087,1591.389 311.661,1569.368 315.723,1547.933 319.949,1527.790 324.784,1509.297 330.060,1492.523 335.702,1476.734 341.857,1461.335 348.886,1446.666 370.283,1404.311 378.254,1392.578 386.078,1384.010 393.163,1379.035 399.478,1378.108 404.348,1380.886 407.779,1386.658 410.398,1395.534 412.809,1408.124 415.082,1423.928 416.454,1442.548 417.455,1463.670 420.255,1510.166 422.118,1534.929 424.486,1559.397 427.894,1581.387 431.912,1597.951 435.547,1607.343 438.657,1608.499 440.997,1602.461 442.866,1593.882 445.549,1583.510 449.199,1570.191 453.824,1553.334 459.349,1533.231 465.601,1512.636 473.122,1493.981 488.564,1462.593 504.401,1433.245 512.715,1418.900 521.486,1406.505 530.695,1397.287 539.164,1391.502 546.402,1389.099 553.036,1389.513 559.025,1392.613 563.955,1398.010 580.164,1418.948 586.956,1428.987 593.400,1440.892 598.985,1453.324 604.361,1466.709 609.973,1481.996 615.482,1499.091 620.442,1515.816 625.271,1529.861 629.973,1540.224 634.342,1545.989 638.668,1546.950 643.269,1543.787 647.909,1538.438 652.562,1531.031 663.497,1509.667 669.407,1495.725 675.036,1479.931 686.292,1446.819 692.390,1431.802 699.042,1418.988 705.732,1408.920 711.801,1401.416 717.916,1396.419 724.065,1394.180 730.133,1394.426 735.899,1396.918 741.925,1400.725 756.295,1411.754 764.254,1418.959 772.022,1427.970 789.535,1450.255 809.434,1476.546 820.014,1487.690 830.470,1496.109 840.496,1501.259 850.341,1503.702 860.265,1503.586 870.828,1500.935 882.042,1496.248 893.908,1489.081 907.323,1479.336 922.315,1467.503 938.388,1454.221 973.666,1424.320 1032.396,1377.786 1052.002,1362.961 1113.033,1320.148 1135.182,1305.354 1158.489,1290.099 " />
<polyline style="fill:none;stroke:black;stroke-width:0.923913043478261;opacity:1" points="439.485,1262.412 442.994,1254.324 449.102,1238.866 452.872,1229.865 455.229,1225.398 456.892,1223.511 458.461,1222.604 459.277,1223.178 459.395,1224.994 459.056,1227.284 459.250,1229.820 462.521,1245.596 463.723,1257.173 464.557,1273.942 464.770,1295.592 464.777,1321.530 465.553,1349.672 467.060,1377.344 469.907,1403.917 473.098,1428.457 476.365,1448.534 479.495,1461.797 482.011,1466.396 483.826,1462.641 484.758,1453.596 486.984,1442.262 491.776,1426.282 499.090,1403.812 508.969,1375.539 521.413,1343.146 536.298,1309.596 552.999,1278.119 570.341,1249.647 588.392,1223.837 606.486,1199.603 639.793,1157.033 654.918,1139.097 669.183,1123.871 681.678,1110.970 692.399,1100.984 692.399,1100.984 708.206,1091.479 712.333,1093.228 713.391,1099.165 712.263,1108.850 709.827,1122.731 705.884,1140.722 700.717,1162.781 694.063,1187.573 685.669,1214.054 666.776,1271.395 656.993,1302.405 647.823,1335.158 639.585,1369.216 624.382,1435.844 618.691,1465.455 614.595,1490.995 612.062,1510.808 611.521,1521.145 613.028,1519.107 615.246,1509.277 618.445,1497.638 624.365,1478.820 632.789,1450.590 644.199,1414.761 657.545,1376.471 672.369,1340.722 688.587,1307.279 706.798,1274.517 744.662,1211.447 763.560,1182.192 800.861,1128.741 818.015,1105.833 834.126,1087.492 848.029,1075.020 858.622,1068.879 865.708,1069.896 869.139,1077.629 869.413,1090.457 868.040,1108.532 863.984,1132.997 856.946,1164.689 847.911,1203.959 836.835,1248.095 825.555,1294.313 815.775,1341.830 806.801,1388.733 798.481,1434.826 791.480,1481.602 785.756,1528.329 781.212,1574.890 778.671,1621.284 778.095,1664.911 778.901,1702.391 781.177,1732.194 783.573,1750.677 785.052,1755.035 786.174,1747.604 786.710,1735.640 789.037,1721.789 793.529,1701.840 799.130,1674.539 805.141,1639.969 812.053,1599.680 820.061,1555.836 828.387,1509.552 837.428,1461.660 848.140,1412.570 860.668,1363.457 875.076,1315.043 891.070,1267.736 908.668,1221.632 927.075,1177.021 946.199,1135.539 965.814,1099.936 983.726,1071.115 999.753,1049.248 1013.335,1034.777 1023.379,1027.688 1029.625,1028.308 1031.370,1036.014 1029.499,1047.869 1025.488,1064.478 1018.940,1088.144 1009.177,1119.235 997.002,1156.802 984.031,1198.851 971.059,1245.033 958.517,1294.395 946.693,1345.762 936.930,1398.920 929.930,1452.314 925.297,1503.504 922.963,1551.946 922.618,1597.598 923.609,1639.141 925.134,1675.125 927.545,1704.271 930.401,1725.553 932.545,1737.672 934.105,1739.934 935.044,1734.271 935.836,1725.226 938.412,1714.480 942.547,1698.498 947.070,1675.024 950.760,1643.207 954.133,1604.655 957.928,1562.169 962.032,1517.916 967.615,1473.977 974.850,1430.776 983.260,1388.455 1001.105,1307.518 1009.953,1269.579 1019.087,1234.120 1028.499,1202.642 1038.041,1175.338 1048.445,1152.596 1058.595,1135.532 1067.129,1124.324 1074.151,1120.616 1078.829,1124.854 1081.469,1134.987 1083.709,1150.908 1084.961,1174.926 1084.766,1208.049 1082.366,1248.789 1079.209,1294.747 1076.136,1343.957 1073.473,1393.994 1070.988,1442.194 1068.970,1488.121 1068.041,1531.844 1067.591,1573.094 1067.208,1610.739 1067.095,1643.610 1067.563,1672.127 1067.657,1694.593 1067.733,1709.927 1067.737,1718.421 1067.930,1720.533 1067.932,1716.894 1067.865,1709.870 1068.638,1701.442 1070.672,1688.080 1072.361,1668.176 1073.319,1641.547 1074.196,1608.420 1074.944,1570.723 1075.812,1530.786 1077.311,1489.496 1079.549,1447.555 1082.301,1405.631 1086.161,1364.620 1091.263,1325.189 1097.356,1288.973 1104.560,1258.266 1112.554,1233.870 1120.955,1215.463 1129.663,1202.897 1138.064,1197.028 1145.715,1197.982 1152.268,1205.094 1158.483,1216.647 1164.328,1234.162 1168.949,1259.509 1172.227,1292.221 1174.546,1330.755 1176.571,1372.370 1178.214,1414.743 1179.681,1457.302 1180.676,1498.343 1181.176,1573.949 1181.725,1607.579 1183.100,1637.375 1185.201,1663.541 1188.381,1685.888 1192.949,1703.523 1198.327,1714.894 1204.184,1719.584 1210.468,1718.406 1217.413,1712.182 1225.505,1702.810 1234.776,1689.410 1234.776,1689.410 " />
<rect x="0" y="0" width="1404" height="1872" fill-opacity="0"/></g></svg>